<svg width="22" height="25" viewBox="0 0 22 25" version="1.1" xmlns="http://www.w3.org/2000/svg" xmlns:xlink="http://www.w3.org/1999/xlink">
<title>e80e</title>
<desc>Created using Figma</desc>
<g id="Canvas" transform="translate(-27716 -32923)">
<g id="e80e">
<g id="Vector">
<use xlink:href="#path0_fill" transform="translate(27716.3 32923.8)" fill="#101F2D"/>
</g>
</g>
</g>
<defs>
<path id="path0_fill" d="M 15.75 18L 5.25 18C 5.04687 18 4.87109 18.0742 4.72266 18.2227C 4.57422 18.3711 4.5 18.5469 4.5 18.75C 4.5 18.9531 4.57422 19.1289 4.72266 19.2773C 4.87109 19.4258 5.04687 19.5 5.25 19.5L 15.75 19.5C 15.9531 19.5 16.1289 19.4258 16.2773 19.2773C 16.4258 19.1289 16.5 18.9531 16.5 18.75C 16.5 18.5469 16.4258 18.3711 16.2773 18.2227C 16.1289 18.0742 15.9531 18 15.75 18ZM 15.75 10.5L 5.25 10.5C 5.04687 10.5 4.87109 10.5742 4.72266 10.7227C 4.57422 10.8711 4.5 11.0469 4.5 11.25C 4.5 11.4531 4.57422 11.6289 4.72266 11.7773C 4.87109 11.9258 5.04687 12 5.25 12L 15.75 12C 15.9531 12 16.1289 11.9258 16.2773 11.7773C 16.4258 11.6289 16.5 11.4531 16.5 11.25C 16.5 11.0469 16.4258 10.8711 16.2773 10.7227C 16.1289 10.5742 15.9531 10.5 15.75 10.5ZM 18 3L 15.75 3L 15.75 1.5L 13.7344 1.5C 13.4062 1.04687 12.957 0.683595 12.3867 0.410156C 11.8164 0.136717 11.1875 0 10.5 0C 9.8125 0 9.1836 0.136717 8.61328 0.410156C 8.04296 0.683595 7.59375 1.04687 7.26562 1.5L 5.25 1.5L 5.25 3L 3 3C 2.17187 3 1.46485 3.29297 0.878906 3.87891C 0.292966 4.46485 0 5.17187 0 6L 0 21C 0 21.8281 0.292966 22.5352 0.878906 23.1211C 1.46485 23.707 2.17187 24 3 24L 18 24C 18.8281 24 19.5352 23.707 20.1211 23.1211C 20.707 22.5352 21 21.8281 21 21L 21 6C 21 5.17187 20.707 4.46485 20.1211 3.87891C 19.5352 3.29297 18.8281 3 18 3ZM 6.75 3L 8.41406 3C 8.41406 2.59375 8.61718 2.24219 9.02344 1.94531C 9.42969 1.64844 9.92187 1.5 10.5 1.5C 11.0781 1.5 11.5703 1.64844 11.9766 1.94531C 12.3828 2.24219 12.5859 2.59375 12.5859 3L 14.25 3L 14.25 6L 6.75 6L 6.75 3ZM 19.5 21C 19.5 21.4063 19.3516 21.7578 19.0547 22.0547C 18.7578 22.3516 18.4062 22.5 18 22.5L 3 22.5C 2.59375 22.5 2.24219 22.3516 1.94531 22.0547C 1.64844 21.7578 1.5 21.4063 1.5 21L 1.5 6C 1.5 5.59375 1.64844 5.24219 1.94531 4.94531C 2.24219 4.64844 2.59375 4.5 3 4.5L 5.25 4.5L 5.25 7.5L 15.75 7.5L 15.75 4.5L 18 4.5C 18.4062 4.5 18.7578 4.64844 19.0547 4.94531C 19.3516 5.24219 19.5 5.59375 19.5 6L 19.5 21ZM 15.75 14.25L 5.25 14.25C 5.04687 14.25 4.87109 14.3242 4.72266 14.4727C 4.57422 14.6211 4.5 14.7969 4.5 15C 4.5 15.2031 4.57422 15.3789 4.72266 15.5273C 4.87109 15.6758 5.04687 15.75 5.25 15.75L 15.75 15.75C 15.9531 15.75 16.1289 15.6758 16.2773 15.5273C 16.4258 15.3789 16.5 15.2031 16.5 15C 16.5 14.7969 16.4258 14.6211 16.2773 14.4727C 16.1289 14.3242 15.9531 14.25 15.75 14.25Z"/>
</defs>
</svg>
