<svg width="40" height="44" viewBox="0 0 40 44" version="1.1" xmlns="http://www.w3.org/2000/svg" xmlns:xlink="http://www.w3.org/1999/xlink">
<title>Group</title>
<desc>Created using Figma</desc>
<g id="Canvas" transform="translate(-27713 -32773)">
<g id="Group">
<g id="Twitter Copy" filter="url(#filter0_d)">
<use xlink:href="#path0_fill" transform="translate(27713.5 32773.6)" fill="#FFFFFF"/>
</g>
<g id="Link">
<g id="Fill 647">
<use xlink:href="#path1_fill" transform="matrix(1 5.51769e-17 -5.58474e-17 1 27724.3 32790.5)" fill="#AC3434"/>
</g>
<g id="Fill 648">
<use xlink:href="#path2_fill" transform="matrix(1 5.51769e-17 -5.58474e-17 1 27730.9 32785.4)" fill="#AC3434"/>
</g>
</g>
</g>
</g>
<defs>
<filter id="filter0_d" filterUnits="userSpaceOnUse" x="27713" y="32773" width="40" height="44" color-interpolation-filters="sRGB">
<feFlood flood-opacity="0" result="BackgroundImageFix"/>
<feColorMatrix in="SourceAlpha" type="matrix" values="0 0 0 0 0 0 0 0 0 0 0 0 0 0 0 0 0 0 255 0"/>
<feOffset dx="0" dy="4"/>
<feColorMatrix type="matrix" values="0 0 0 0 0 0 0 0 0 0 0 0 0 0 0 0 0 0 0.0743886 0"/>
<feBlend mode="normal" in2="BackgroundImageFix" result="effect1_dropShadow"/>
<feBlend mode="normal" in="SourceGraphic" in2="effect1_dropShadow" result="shape"/>
</filter>
<path id="path0_fill" fill-rule="evenodd" d="M 38.8291 19.4146C 38.8291 30.1368 30.1368 38.8291 19.4146 38.8291C 8.69233 38.8291 0 30.1368 0 19.4146C 0 8.69233 8.69233 0 19.4146 0C 30.1368 0 38.8291 8.69233 38.8291 19.4146Z"/>
<path id="path1_fill" fill-rule="evenodd" d="M 6.17511 2.21068C 6.8253 1.5644 7.95798 1.5644 8.60731 2.21068L 9.21536 2.81507C 9.55164 3.14932 10.096 3.14932 10.4315 2.81507C 10.7677 2.48167 10.7677 1.94054 10.4323 1.60629L 9.82427 1.0019C 9.17494 0.355624 8.3106 0 7.39207 0C 6.47269 0 5.6092 0.355624 4.95901 1.00105L 1.00625 4.93086C -0.335417 6.26445 -0.335417 8.43324 1.00625 9.76682L 1.6143 10.3704C 2.26363 11.0166 3.12712 11.3723 4.0465 11.3723C 4.96589 11.3723 5.82937 11.0166 6.47871 10.3704L 8.34672 8.51445C 8.683 8.1802 8.683 7.63907 8.34672 7.30482C 8.0113 6.97142 7.4669 6.97142 7.13062 7.30482L 5.26174 9.16158C 4.61327 9.80786 3.48059 9.80871 2.8304 9.16158L 2.22235 8.55805C 1.55152 7.89125 1.55152 6.80643 2.22235 6.14049L 6.17511 2.21068Z"/>
<path id="path2_fill" fill-rule="evenodd" d="M 5.11672 10.3704L 9.06948 6.4414C 9.71967 5.79598 10.0774 4.9377 10.0774 4.02385C 10.0774 3.11 9.71967 2.25171 9.06948 1.60629L 8.46142 1.00105C 7.81123 0.355623 6.94775 0 6.02922 0C 5.10984 0 4.24635 0.355623 3.59702 1.00105L 1.88898 2.69795C 1.5527 3.0322 1.5527 3.57333 1.88898 3.90673C 2.22439 4.24098 2.76966 4.24098 3.10508 3.90758L 4.81312 2.20982C 5.13736 1.88754 5.56996 1.70973 6.02922 1.70973C 6.48849 1.70973 6.92023 1.88754 7.24532 2.20982L 7.85337 2.81507C 8.17847 3.13821 8.35736 3.56735 8.35736 4.02385C 8.35736 4.48034 8.17847 4.90948 7.85337 5.23262L 3.90062 9.16158C 3.25042 9.80786 2.11775 9.80786 1.46842 9.16158C 1.133 8.82733 0.588592 8.82733 0.252315 9.16072C -0.0839616 9.49498 -0.0839616 10.0361 0.251455 10.3704C 0.900788 11.0166 1.76513 11.3723 2.68452 11.3723C 3.60304 11.3723 4.46739 11.0166 5.11672 10.3704Z"/>
</defs>
</svg>
