<svg width="160" height="39" viewBox="0 0 160 39" version="1.1" xmlns="http://www.w3.org/2000/svg" xmlns:xlink="http://www.w3.org/1999/xlink">
<title>Group</title>
<desc>Created using Figma</desc>
<g id="Canvas" transform="translate(-14504 -15707)">
<g id="Group">
<g id="Fill 1 Copy">
<use xlink:href="#path0_fill" transform="translate(14525.2 15717.1)" fill="#FFFFFF"/>
</g>
<g id="Fill 2 Copy">
<use xlink:href="#path1_fill" transform="translate(14557.2 15717.1)" fill="#FFFFFF"/>
</g>
<g id="Fill 3 Copy">
<use xlink:href="#path2_fill" transform="translate(14614.2 15717.1)" fill="#FFFFFF"/>
</g>
<g id="Fill 4 Copy">
<use xlink:href="#path3_fill" transform="translate(14544.2 15717.1)" fill="#FFFFFF"/>
</g>
<g id="Fill 5 Copy">
<use xlink:href="#path4_fill" transform="translate(14574.2 15716.1)" fill="#FFFFFF"/>
</g>
<g id="Fill 6 Copy">
<use xlink:href="#path5_fill" transform="translate(14633.2 15711.1)" fill="#FFFFFF"/>
</g>
<g id="Fill 7 Copy 3">
<use xlink:href="#path6_fill" transform="translate(14644.2 15716.1)" fill="#FFFFFF"/>
</g>
<g id="Fill 8 Copy">
<use xlink:href="#path7_fill" transform="translate(14524.2 15710.1)" fill="#FFFFFF"/>
</g>
<g id="Fill 9 Copy">
<use xlink:href="#path8_fill" transform="translate(14593.2 15707.1)" fill="#FFFFFF"/>
</g>
<g id="Fill 10 Copy">
<use xlink:href="#path9_fill" transform="translate(14504.2 15717.1)" fill="#FFFFFF"/>
</g>
<g id="Fill 11 Copy">
<use xlink:href="#path10_fill" transform="translate(14514.2 15710.1)" fill="#FFFFFF"/>
</g>
<g id="Fill 12 Copy">
<use xlink:href="#path11_fill" transform="translate(14506.2 15708.1)" fill="#FFFFFF"/>
</g>
<g id="Fill 13 Copy">
<use xlink:href="#path12_fill" transform="translate(14531.2 15711.1)" fill="#FFFFFF"/>
</g>
</g>
</g>
<defs>
<path id="path0_fill" fill-rule="evenodd" d="M 0 19.2312L 4.87609 19.2312L 4.87609 0.793176C 4.87609 0.793176 2.5871 0 0 0L 0 19.2312Z"/>
<path id="path1_fill" fill-rule="evenodd" d="M 8.53055 15.1705C 8.42788 15.1668 8.33303 15.1689 8.23661 15.1705C 8.13811 15.1689 8.04326 15.1668 7.94111 15.161C 5.89915 15.1251 4.87401 14.0743 4.87401 11.6146L 4.87401 0.792649C 4.87401 0.792649 2.67987 0 0 0L 0 11.5761C 0 16.7473 2.60169 19.6623 8.23661 19.6623C 13.6177 19.6623 16.4711 16.7473 16.4711 11.5761L 16.4711 0.792649C 16.4711 0.792649 14.1399 0 11.5966 0L 11.5966 11.6146C 11.5966 14.0743 10.5725 15.1251 8.53055 15.1705Z"/>
<path id="path2_fill" fill-rule="evenodd" d="M 11.5992 10.3787L 11.5992 12.2529C 11.4283 14.255 10.3859 15.1294 8.53212 15.1705L 8.53212 15.161C 8.42892 15.1668 8.33407 15.1689 8.23713 15.1705C 8.13968 15.1689 8.04378 15.1668 7.94267 15.161L 7.94267 15.1705C 5.89967 15.1251 4.95322 14.0743 4.95322 11.6146L 4.95322 0.792649C 4.95322 0.792649 2.45941 0 0 0L 0 11.5761C 0 16.7473 2.60326 19.6623 8.23713 19.6623C 9.48795 19.6623 10.5954 19.4974 11.5695 19.1912L 11.5695 20.6542C 11.5695 23.3415 10.3494 24.3508 7.91296 24.2L 7.91296 28.6824C 13.4895 29.28 16.443 25.8818 16.443 20.6157L 16.443 12.4057C 16.4597 12.1364 16.4727 11.8613 16.4727 11.5761L 16.4727 0.792649C 16.4722 0.792649 14.0784 0 11.5992 0L 11.5992 10.3787Z"/>
<path id="path3_fill" fill-rule="evenodd" d="M 4.65407 2.04614L 4.65407 0.815001C 4.65407 0.815001 2.92951 0.0624068 0 0.0624068L 0 19.2936L 4.87505 19.2936L 4.87505 10.0448C 4.87505 8.51328 5.06007 6.94538 6.09355 5.86076C 7.20104 4.66704 8.82606 4.44306 10.7831 4.66704L 10.7831 0.00706897C 8.59518 -0.0408905 6.20508 0.105096 4.65407 2.04614Z"/>
<path id="path4_fill" fill-rule="evenodd" d="M 9.23153 7.65559C 6.86906 7.28141 5.46554 6.94569 5.46554 5.93801C 5.46554 5.22811 6.38906 4.40595 8.64156 4.40595C 10.4506 4.40595 11.5216 5.11638 11.8171 6.01232L 16.8777 6.01232C 16.2491 2.38954 12.9991 0 8.64156 0C 3.13954 0 0.517524 3.13687 0.517524 6.162C 0.517524 10.4562 5.06006 11.3901 8.45759 11.9129C 11.7811 12.4347 12.4451 12.8832 12.4451 13.9662C 12.4451 15.0867 10.9686 15.6838 9.00951 15.6838C 7.57003 15.6838 5.61303 15.0867 4.94958 13.4434L 0 13.4434C 0.590489 17.5885 4.17303 20.1656 9.00951 20.1656C 13.8856 20.1656 17.3571 17.4773 17.3571 13.6679C 17.3571 9.48491 13.9586 8.43928 9.23153 7.65559Z"/>
<path id="path5_fill" fill-rule="evenodd" d="M 7.16352 16.8506L 7.16352 10.0536L 10.5986 10.0536L 10.5986 5.68346L 7.16352 5.68346L 7.16352 0.792122C 7.16352 0.792122 4.84586 0 2.28899 0L 2.28899 5.68346L 0 5.68346L 0 10.0536L 2.28899 10.0536L 2.28899 16.8132C 2.28899 22.0782 5.24352 25.476 10.8195 24.8783L 10.8195 20.397C 8.38306 20.5467 7.16352 19.5379 7.16352 16.8506Z"/>
<path id="path6_fill" fill-rule="evenodd" d="M 13.7407 13.5889C 12.9308 15.122 11.3423 15.8324 9.71779 15.8345C 7.43036 15.8366 5.5802 14.382 4.95167 12.0294L 19.3162 12.0146C 20.0094 4.39594 15.3511 -0.00526554 9.73812 4.7278e-06C 4.38359 0.00632905 -0.00572729 4.56564 5.60944e-06 10.1305C 0.00521734 15.6933 4.40496 20.1709 9.75896 20.1656C 14.486 20.162 17.8439 17.5063 18.9478 13.5841L 13.7407 13.5889ZM 9.70644 4.33106C 12.033 4.33 13.8805 5.74823 14.4741 7.98757L 5.01953 7.99706C 5.72051 5.75614 7.49041 4.33422 9.70644 4.33106Z"/>
<path id="path7_fill" fill-rule="evenodd" d="M 2.83466 0C 1.2701 0 0 1.28331 0 2.8665C 0 4.45022 1.2701 5.73353 2.83466 5.73353C 4.39974 5.73353 5.66984 4.45022 5.66984 2.8665C 5.66984 1.28331 4.39974 0 2.83466 0Z"/>
<path id="path8_fill" fill-rule="evenodd" d="M 9.8241 9.01427L 9.8241 9.01216C 9.81629 9.01216 9.80795 9.01427 9.79961 9.01427C 9.79231 9.01427 9.78293 9.01216 9.77459 9.01216L 9.77459 9.01427C 7.95205 9.02323 6.29889 9.49018 4.88912 10.2965L 4.88912 0.792649C 4.88912 0.792649 2.60638 0 0.00156352 0L 0.00156352 19.0367C 0.00156352 19.0436 0 19.051 0 19.0578C 0 19.0652 0.00156352 19.0721 0.00156352 19.0779L 0.00156352 19.1606L 0.0057329 19.3893C 0.0562866 24.8894 4.11205 29.1499 9.77459 29.1767L 9.77459 29.1783C 9.78293 29.1783 9.79231 29.1778 9.79961 29.1778C 9.80795 29.1778 9.81629 29.1783 9.8241 29.1783L 9.8241 29.1767C 15.521 29.1499 19.5982 24.6058 19.5982 19.0578C 19.5982 13.5088 15.521 9.04009 9.8241 9.01427ZM 9.79925 24.657C 7.11573 24.6417 4.94922 22.1115 4.94922 19.0199C 4.94922 16.0053 7.11573 13.5109 9.79925 13.4951C 12.4838 13.5109 14.6488 16.0053 14.6488 19.0199C 14.6488 22.1115 12.4838 24.6417 9.79925 24.657Z"/>
<path id="path9_fill" fill-rule="evenodd" d="M 9.65889 14.411C 7.00873 14.411 4.86671 11.914 4.86671 8.93943C 4.86671 5.96489 7.00873 3.46784 9.65889 3.46784C 11.4382 3.46784 12.9647 4.56985 13.5807 5.89058L 18.7018 5.89058C 18.0321 3.24965 16.4826 1.27593 14.3343 0.145986C 13.5354 0.656676 12.6384 0.932838 11.7457 0.932838C 11.5992 0.932838 11.4512 0.925459 11.3058 0.910703C 10.8805 0.867486 10.4886 0.75523 10.142 0.57973L 9.78919 0.704108C 9.36182 0.854838 8.90267 0.931257 8.42371 0.931257C 7.43557 0.931257 6.41251 0.611878 5.41238 0C 2.11231 1.57739 0 4.97935 0 8.93943C 0 14.411 4.03179 18.818 9.65889 18.818C 14.1983 18.818 17.6125 16.2841 18.7018 11.9883L 13.5807 11.9883C 12.9647 13.309 11.4382 14.411 9.65889 14.411Z"/>
<path id="path10_fill" fill-rule="evenodd" d="M 0.451858 6.32749C 0.705669 6.58995 1.07414 6.77441 1.57968 6.82553C 2.55687 6.92461 3.51792 6.54937 4.27257 5.90059C 6.25095 4.20041 6.37707 0.536514 6.21029 0C 3.81498 1.69176 2.13472 1.53259 0.57746 3.45782C 0.21733 3.90316 -0.00052024 4.5182 9.33016e-07 5.10215C 0.510229 5.10215 2.64547 4.33743 4.07192 2.96505C 3.35896 4.58408 1.63961 5.78623 0.451858 6.32749Z"/>
<path id="path11_fill" fill-rule="evenodd" d="M 3.28651 3.37824C 5.49941 3.63491 7.14215 4.94088 7.90723 5.75724C 7.9828 5.61495 8.06932 5.48055 8.1673 5.35934C 8.51596 4.92823 8.87088 4.602 9.23883 4.33585C 9.12156 4.17353 8.87557 3.92741 8.74684 3.79723C 6.72313 1.75078 3.26046 2.11496 0 0C 0.654593 2.25884 0.691596 5.36303 3.16143 7.48853C 4.98241 9.05591 6.77785 9.45434 8.07765 8.9953C 7.92964 7.82951 5.70267 4.96986 3.28651 3.37824Z"/>
<path id="path12_fill" fill-rule="evenodd" d="M 7.16352 16.8506L 7.16352 10.0536L 10.598 10.0536L 10.598 5.68346L 7.16352 5.68346L 7.16352 0.792122C 7.16352 0.792122 4.84586 0 2.28899 0L 2.28899 5.68346L 0 5.68346L 0 10.0536L 2.28899 10.0536L 2.28899 16.8132C 2.28899 22.0782 5.24352 25.476 10.8195 24.8783L 10.8195 20.397C 8.38254 20.5467 7.16352 19.5379 7.16352 16.8506Z"/>
</defs>
</svg>
