<svg width="23" height="23" viewBox="0 0 23 23" version="1.1" xmlns="http://www.w3.org/2000/svg" xmlns:xlink="http://www.w3.org/1999/xlink">
<title>user</title>
<desc>Created using Figma</desc>
<g id="Canvas" transform="translate(-24814 -25865)">
<g id="user">
<g id="Vector">
<use xlink:href="#path0_fill" transform="translate(24814 25865)" fill="#CFD3D6"/>
</g>
</g>
</g>
<defs>
<path id="path0_fill" d="M 11.5 -6.85721e-08C 5.14826 -6.85721e-08 -6.85721e-08 5.14826 -6.85721e-08 11.5C -6.85721e-08 17.8517 5.14826 23 11.5 23C 17.8517 23 23 17.8517 23 11.5C 23 5.14826 17.8517 -6.85721e-08 11.5 -6.85721e-08ZM 11.5 0.958108C 17.3125 0.958108 22.0419 5.68664 22.0419 11.5C 22.0419 14.0571 21.126 16.4047 19.6053 18.2319C 18.5546 17.7933 16.073 16.9323 14.5379 16.4784C 14.4067 16.437 14.386 16.4308 14.386 15.8852C 14.386 15.4349 14.5712 14.9819 14.7518 14.5981C 14.9478 14.1811 15.1796 13.48 15.2632 12.8509C 15.496 12.5803 15.8133 12.0465 16.0173 11.0299C 16.1962 10.1338 16.1126 9.80758 15.9939 9.50199C 15.9814 9.46964 15.9688 9.43818 15.9589 9.40582C 15.914 9.19551 15.976 8.10438 16.1288 7.25682C 16.2348 6.6753 16.1018 5.43947 15.301 4.41755C 14.7959 3.77132 13.8288 2.97859 12.0626 2.86803L 11.0937 2.86893C 9.35729 2.97859 8.39019 3.77132 7.88507 4.41755C 7.08515 5.43947 6.95213 6.6762 7.05819 7.25682C 7.21278 8.10438 7.273 9.19551 7.22986 9.40223C 7.22087 9.43818 7.20739 9.46964 7.1939 9.50199C 7.07616 9.80848 6.99168 10.1338 7.17143 11.0299C 7.37456 12.0465 7.69183 12.5803 7.92552 12.8509C 8.00821 13.48 8.24009 14.1811 8.43693 14.5981C 8.57984 14.9028 8.64725 15.3181 8.64725 15.905C 8.64725 16.4505 8.62657 16.4568 8.50434 16.4955C 6.91618 16.9646 4.38878 17.8778 3.44596 18.2903C 1.89555 16.455 0.958108 14.0849 0.958108 11.5C 0.958108 5.68753 5.68664 0.958108 11.5 0.958108ZM 4.13982 19.0372C 5.21927 18.5968 7.37007 17.8293 8.78386 17.4122C 9.60535 17.1534 9.60535 16.4613 9.60535 15.905C 9.60535 15.4439 9.5739 14.7644 9.30426 14.1901C 9.11911 13.7964 8.90699 13.1214 8.86026 12.5938C 8.85037 12.4707 8.79195 12.3556 8.69848 12.2748C 8.56276 12.1561 8.28683 11.7211 8.11067 10.843C 7.97136 10.1482 8.03068 9.99633 8.0873 9.84893C 8.11157 9.78601 8.13494 9.72399 8.15381 9.65479C 8.26886 9.23415 8.14033 7.85272 8.00102 7.08605C 7.9399 6.7526 8.01719 5.80617 8.64005 5.00895C 9.1991 4.29441 10.0449 3.89625 11.1243 3.82704L 12.033 3.82614C 13.1412 3.89625 13.9869 4.29441 14.5469 5.00895C 15.1707 5.80617 15.2462 6.7526 15.185 7.08695C 15.0466 7.85272 14.9172 9.23505 15.0322 9.65479C 15.052 9.72489 15.0745 9.78691 15.0987 9.84982C 15.1563 9.99633 15.2147 10.1491 15.0763 10.8439C 14.9001 11.722 14.6233 12.157 14.4876 12.2757C 14.395 12.3574 14.3366 12.4716 14.3258 12.5947C 14.28 13.1232 14.0687 13.7973 13.8836 14.191C 13.6715 14.6422 13.427 15.2435 13.427 15.8861C 13.427 16.4424 13.427 17.1345 14.2575 17.3961C 15.6102 17.796 17.7717 18.5384 18.9132 18.9869C 17.0069 20.8744 14.3878 22.0428 11.5 22.0428C 8.63916 22.0428 6.04166 20.895 4.14072 19.039L 4.13982 19.0372Z"/>
</defs>
</svg>
