<svg width="40" height="44" viewBox="0 0 40 44" version="1.1" xmlns="http://www.w3.org/2000/svg" xmlns:xlink="http://www.w3.org/1999/xlink">
<title>Group</title>
<desc>Created using Figma</desc>
<g id="Canvas" transform="translate(-31952 -26078)">
<g id="Group">
<g id="Facebook Copy" filter="url(#filter0_d)">
<use xlink:href="#path0_fill" transform="translate(31952.3 26078.2)" fill="#FFFFFF"/>
</g>
<g id="e8e3">
<g id="Vector">
<use xlink:href="#path1_fill" transform="translate(31962.4 26090.2)" fill="#172B42"/>
</g>
</g>
</g>
</g>
<defs>
<filter id="filter0_d" filterUnits="userSpaceOnUse" x="31952" y="26078" width="40" height="44" color-interpolation-filters="sRGB">
<feFlood flood-opacity="0" result="BackgroundImageFix"/>
<feColorMatrix in="SourceAlpha" type="matrix" values="0 0 0 0 0 0 0 0 0 0 0 0 0 0 0 0 0 0 255 0"/>
<feOffset dx="0" dy="4"/>
<feColorMatrix type="matrix" values="0 0 0 0 0 0 0 0 0 0 0 0 0 0 0 0 0 0 0.0743886 0"/>
<feBlend mode="normal" in2="BackgroundImageFix" result="effect1_dropShadow"/>
<feBlend mode="normal" in="SourceGraphic" in2="effect1_dropShadow" result="shape"/>
</filter>
<path id="path0_fill" fill-rule="evenodd" d="M 38.8291 19.4146C 38.8291 30.1368 30.1368 38.8291 19.4146 38.8291C 8.69233 38.8291 0 30.1368 0 19.4146C 0 8.69233 8.69233 0 19.4146 0C 30.1368 0 38.8291 8.69233 38.8291 19.4146Z"/>
<path id="path1_fill" d="M 11.7698 11.0832L 10.5309 11.0832L 10.5309 5.54159C 10.5309 5.19524 10.4083 4.90341 10.1631 4.6661C 9.91786 4.42878 9.62749 4.31013 9.29194 4.31013C 8.9564 4.31013 8.66603 4.42878 8.42082 4.6661C 8.17562 4.90341 8.05302 5.19524 8.05302 5.54159L 8.05302 11.0832L 6.81409 11.0832C 6.69794 11.0832 6.52372 11.0832 6.29142 11.0832C 6.05912 11.0832 5.8849 11.1473 5.76875 11.2756C 5.6526 11.3911 5.59452 11.5354 5.59452 11.7085C 5.59452 11.8817 5.6526 12.026 5.76875 12.1415L 8.82735 15.8359C 8.89187 15.9 8.96608 15.9449 9.04996 15.9706C 9.13385 15.9962 9.21451 16.0091 9.29194 16.0091C 9.38228 16.0091 9.46939 15.9962 9.55328 15.9706C 9.63716 15.9449 9.71137 15.9 9.7759 15.8359L 12.8345 12.1415C 12.9506 12.026 13.0087 11.8817 13.0087 11.7085C 13.0087 11.5354 12.9506 11.3911 12.8345 11.2756C 12.7183 11.1473 12.5667 11.0832 12.3796 11.0832C 12.1924 11.0832 11.9892 11.0832 11.7698 11.0832ZM 17.9644 0L 0.619463 0C 0.477502 0 0.338769 0.0641382 0.203261 0.192416C 0.0677531 0.320695 0 0.461799 0 0.615733L 0 4.92586C 0 5.25939 0.122601 5.54801 0.367806 5.79174C 0.613011 6.03546 0.903382 6.15733 1.23893 6.15733C 1.57447 6.15733 1.86484 6.03546 2.11005 5.79174C 2.35525 5.54801 2.47785 5.25939 2.47785 4.92586L 2.47785 2.46293L 16.106 2.46293L 16.106 4.92586C 16.106 5.25939 16.2286 5.54801 16.4738 5.79174C 16.719 6.03546 17.0094 6.15733 17.345 6.15733C 17.6805 6.15733 17.9709 6.03546 18.2161 5.79174C 18.4613 5.54801 18.5839 5.25939 18.5839 4.92586L 18.5839 0.615733C 18.5839 0.448971 18.5258 0.30466 18.4097 0.182796C 18.2935 0.0609312 18.1451 0 17.9644 0Z"/>
</defs>
</svg>
