<svg width="40" height="44" viewBox="0 0 40 44" version="1.1" xmlns="http://www.w3.org/2000/svg" xmlns:xlink="http://www.w3.org/1999/xlink">
<title>Group</title>
<desc>Created using Figma</desc>
<g id="Canvas" transform="translate(-32061 -26078)">
<g id="Group">
<g id="Facebook Copy" filter="url(#filter0_d)">
<use xlink:href="#path0_fill" transform="translate(32061.7 26078.2)" fill="#FFFFFF"/>
</g>
<g id="Path">
<use xlink:href="#path1_fill" transform="translate(32077.6 26090.1)" fill="#172B42"/>
</g>
</g>
</g>
<defs>
<filter id="filter0_d" filterUnits="userSpaceOnUse" x="32061" y="26078" width="40" height="44" color-interpolation-filters="sRGB">
<feFlood flood-opacity="0" result="BackgroundImageFix"/>
<feColorMatrix in="SourceAlpha" type="matrix" values="0 0 0 0 0 0 0 0 0 0 0 0 0 0 0 0 0 0 255 0"/>
<feOffset dx="0" dy="4"/>
<feColorMatrix type="matrix" values="0 0 0 0 0 0 0 0 0 0 0 0 0 0 0 0 0 0 0.0743886 0"/>
<feBlend mode="normal" in2="BackgroundImageFix" result="effect1_dropShadow"/>
<feBlend mode="normal" in="SourceGraphic" in2="effect1_dropShadow" result="shape"/>
</filter>
<path id="path0_fill" fill-rule="evenodd" d="M 38.8291 19.4146C 38.8291 30.1368 30.1368 38.8291 19.4146 38.8291C 8.69233 38.8291 0 30.1368 0 19.4146C 0 8.69233 8.69233 0 19.4146 0C 30.1368 0 38.8291 8.69233 38.8291 19.4146Z"/>
<path id="path1_fill" fill-rule="evenodd" d="M 4.70803 7.58678L 6.80157 7.58678L 7.07984 4.97121L 4.70803 4.97121L 4.71127 3.66288C 4.71127 2.98121 4.77598 2.61557 5.75642 2.61557L 7.06474 2.61557L 7.06474 0L 4.97013 0C 2.45486 0 1.56826 1.2695 1.56826 3.40186L 1.56826 4.97121L 0 4.97121L 0 7.58678L 1.56826 7.58678L 1.56826 15.1736L 4.70803 15.1736L 4.70803 7.58678Z"/>
</defs>
</svg>
