<svg width="31" height="31" viewBox="0 0 31 31" version="1.1" xmlns="http://www.w3.org/2000/svg" xmlns:xlink="http://www.w3.org/1999/xlink">
<title>X</title>
<desc>Created using Figma</desc>
<g id="Canvas" transform="translate(25225 -23043)">
<g id="X">
<use xlink:href="#path0_fill" transform="translate(-25224.1 23043.5)" fill="#FFFFFF"/>
</g>
</g>
<defs>
<path id="path0_fill" fill-rule="evenodd" d="M 29.2274 3.74262C 29.6959 3.27414 29.6959 2.51466 29.2274 2.04619L 27.5326 0.351357C 27.0641 -0.117119 26.3046 -0.117119 25.8362 0.351357L 15.3546 10.8329C 15.0428 11.1447 14.536 11.1447 14.2242 10.8329L 3.74262 0.351357C 3.27414 -0.117119 2.51466 -0.117119 2.04619 0.351357L 0.351357 2.04619C -0.117119 2.51466 -0.117119 3.27414 0.351357 3.74262L 10.8329 14.2242C 11.1447 14.536 11.1447 15.0428 10.8329 15.3546L 0.351357 25.8362C -0.117119 26.3046 -0.117119 27.0641 0.351357 27.5326L 2.04619 29.2274C 2.51466 29.6959 3.27414 29.6959 3.74262 29.2274L 14.2242 18.7459C 14.536 18.4341 15.0428 18.4341 15.3546 18.7459L 25.8362 29.2274C 26.3046 29.6959 27.0641 29.6959 27.5326 29.2274L 29.2274 27.5326C 29.6959 27.0641 29.6959 26.3046 29.2274 25.8362L 18.7459 15.3546C 18.4341 15.0428 18.4341 14.536 18.7459 14.2242L 29.2274 3.74262Z"/>
</defs>
</svg>
