<svg width="24" height="27" viewBox="0 0 24 27" version="1.1" xmlns="http://www.w3.org/2000/svg" xmlns:xlink="http://www.w3.org/1999/xlink">
<title>Vector</title>
<desc>Created using Figma</desc>
<g id="Canvas" transform="translate(9329 -44601)">
<g id="Vector">
<use xlink:href="#path0_fill" transform="translate(-9328.02 44601.5)" fill="url(#paint0_linear)"/>
</g>
</g>
<defs>
<linearGradient id="paint0_linear" x1="0" y1="0" x2="1" y2="0" gradientUnits="userSpaceOnUse" gradientTransform="matrix(27.354 -41.5697 36.4932 31.1592 0.558784 29.5216)">
<stop offset="0" stop-color="#F7618B"/>
<stop offset="1" stop-color="#2A7AFF"/>
</linearGradient>
<path id="path0_fill" d="M 17.2542 19.6544L 5.75139 19.6544C 5.52887 19.6544 5.3363 19.7354 5.17369 19.8975C 5.01107 20.0596 4.92977 20.2515 4.92977 20.4733C 4.92977 20.6951 5.01107 20.887 5.17369 21.0491C 5.3363 21.2112 5.52887 21.2922 5.75139 21.2922L 17.2542 21.2922C 17.4767 21.2922 17.6693 21.2112 17.8319 21.0491C 17.9945 20.887 18.0758 20.6951 18.0758 20.4733C 18.0758 20.2515 17.9945 20.0596 17.8319 19.8975C 17.6693 19.7354 17.4767 19.6544 17.2542 19.6544ZM 17.2542 11.465L 5.75139 11.465C 5.52887 11.465 5.3363 11.5461 5.17369 11.7082C 5.01107 11.8702 4.92977 12.0622 4.92977 12.284C 4.92977 12.5058 5.01107 12.6977 5.17369 12.8598C 5.3363 13.0219 5.52887 13.1029 5.75139 13.1029L 17.2542 13.1029C 17.4767 13.1029 17.6693 13.0219 17.8319 12.8598C 17.9945 12.6977 18.0758 12.5058 18.0758 12.284C 18.0758 12.0622 17.9945 11.8702 17.8319 11.7082C 17.6693 11.5461 17.4767 11.465 17.2542 11.465ZM 19.7191 3.27573L 17.2542 3.27573L 17.2542 1.63786L 15.0461 1.63786C 14.6866 1.14309 14.1945 0.746424 13.5697 0.447854C 12.9449 0.149283 12.2559 0 11.5028 0C 10.7496 0 10.0607 0.149283 9.43588 0.447854C 8.8111 0.746424 8.31898 1.14309 7.95952 1.63786L 5.75139 1.63786L 5.75139 3.27573L 3.28651 3.27573C 2.37929 3.27573 1.60474 3.59562 0.962845 4.23541C 0.320945 4.87521 0 5.64721 0 6.55146L 0 22.9301C 0 23.8343 0.320945 24.6063 0.962845 25.2461C 1.60474 25.8859 2.37929 26.2058 3.28651 26.2058L 19.7191 26.2058C 20.6263 26.2058 21.4008 25.8859 22.0427 25.2461C 22.6846 24.6063 23.0056 23.8343 23.0056 22.9301L 23.0056 6.55146C 23.0056 5.64721 22.6846 4.87521 22.0427 4.23541C 21.4008 3.59562 20.6263 3.27573 19.7191 3.27573ZM 7.39465 3.27573L 9.21764 3.27573C 9.21764 2.83214 9.44016 2.44827 9.88521 2.1241C 10.3303 1.79994 10.8694 1.63786 11.5028 1.63786C 12.1361 1.63786 12.6753 1.79994 13.1204 2.1241C 13.5654 2.44827 13.7879 2.83214 13.7879 3.27573L 15.6109 3.27573L 15.6109 6.55146L 7.39465 6.55146L 7.39465 3.27573ZM 21.3623 22.9301C 21.3623 23.3737 21.1997 23.7576 20.8745 24.0817C 20.5492 24.4059 20.1641 24.568 19.7191 24.568L 3.28651 24.568C 2.84146 24.568 2.45633 24.4059 2.1311 24.0817C 1.80587 23.7576 1.64326 23.3737 1.64326 22.9301L 1.64326 6.55146C 1.64326 6.10787 1.80587 5.724 2.1311 5.39983C 2.45633 5.07567 2.84146 4.91359 3.28651 4.91359L 5.75139 4.91359L 5.75139 8.18932L 17.2542 8.18932L 17.2542 4.91359L 19.7191 4.91359C 20.1641 4.91359 20.5492 5.07567 20.8745 5.39983C 21.1997 5.724 21.3623 6.10787 21.3623 6.55146L 21.3623 22.9301ZM 17.2542 15.5597L 5.75139 15.5597C 5.52887 15.5597 5.3363 15.6407 5.17369 15.8028C 5.01107 15.9649 4.92977 16.1568 4.92977 16.3786C 4.92977 16.6004 5.01107 16.7924 5.17369 16.9545C 5.3363 17.1165 5.52887 17.1976 5.75139 17.1976L 17.2542 17.1976C 17.4767 17.1976 17.6693 17.1165 17.8319 16.9545C 17.9945 16.7924 18.0758 16.6004 18.0758 16.3786C 18.0758 16.1568 17.9945 15.9649 17.8319 15.8028C 17.6693 15.6407 17.4767 15.5597 17.2542 15.5597Z"/>
</defs>
</svg>
