<svg width="24" height="18" viewBox="0 0 24 18" version="1.1" xmlns="http://www.w3.org/2000/svg" xmlns:xlink="http://www.w3.org/1999/xlink">
<title>Icon : thick-check Copy</title>
<desc>Created using Figma</desc>
<g id="Canvas" transform="translate(-27715 -37036)">
<g id="Icon : thick-check Copy">
<g id="Stroke 23">
<use xlink:href="#path0_stroke" transform="matrix(1 -1.04337e-32 -1.04337e-32 1 27717.1 37044.8)" fill="#FFFFFF"/>
</g>
<g id="Stroke 25">
<use xlink:href="#path1_stroke" transform="matrix(1 -1.04337e-32 -1.04337e-32 1 27723.7 37037.8)" fill="#FFFFFF"/>
</g>
</g>
</g>
<defs>
<path id="path0_stroke" d="M 1.39478 -0.935112C 0.785469 -1.5751 -0.22729 -1.59998 -0.867281 -0.990668C -1.50727 -0.381359 -1.53215 0.631399 -0.922838 1.27139L 1.39478 -0.935112ZM 5.38951 7.90161C 5.99882 8.5416 7.01158 8.56648 7.65157 7.95717C 8.29157 7.34786 8.31644 6.3351 7.70713 5.69511L 5.38951 7.90161ZM -0.922838 1.27139L 5.38951 7.90161L 7.70713 5.69511L 1.39478 -0.935112L -0.922838 1.27139Z"/>
<path id="path1_stroke" d="M 14.3224 1.10659C 14.9336 0.468363 14.9116 -0.544463 14.2734 -1.15562C 13.6352 -1.76677 12.6223 -1.74482 12.0112 -1.10659L 14.3224 1.10659ZM -1.15562 12.6435C -1.76677 13.2818 -1.74482 14.2946 -1.10659 14.9057C -0.468363 15.5169 0.544463 15.4949 1.15562 14.8567L -1.15562 12.6435ZM 12.0112 -1.10659L -1.15562 12.6435L 1.15562 14.8567L 14.3224 1.10659L 12.0112 -1.10659Z"/>
</defs>
</svg>
