<svg width="23" height="19" viewBox="0 0 23 19" version="1.1" xmlns="http://www.w3.org/2000/svg" xmlns:xlink="http://www.w3.org/1999/xlink">
<title>Vector</title>
<desc>Created using Figma</desc>
<g id="Canvas" transform="translate(9684 -42470)">
<g id="Vector">
<use xlink:href="#path0_fill_download" transform="translate(-9683.1 42470)" fill="url(#paint0_linear)"/>
</g>
</g>
<defs>
<linearGradient id="paint0_linear" x1="0" y1="0" x2="1" y2="0" gradientUnits="userSpaceOnUse" gradientTransform="matrix(25.4415 -29.4161 33.9417 22.0493 0.519715 20.8905)">
<stop offset="0" stop-color="#F7618B"/>
<stop offset="1" stop-color="#2A7AFF"/>
</linearGradient>
<path id="path0_fill_download" d="M 13.5515 12.8382L 12.125 12.8382L 12.125 6.41912C 12.125 6.01793 11.9839 5.67989 11.7015 5.40499C 11.4192 5.1301 11.0849 4.99265 10.6985 4.99265C 10.3122 4.99265 9.97788 5.1301 9.69555 5.40499C 9.41323 5.67989 9.27207 6.01793 9.27207 6.41912L 9.27207 12.8382L 7.8456 12.8382C 7.71186 12.8382 7.51127 12.8382 7.2438 12.8382C 6.97634 12.8382 6.77574 12.9125 6.64201 13.0611C 6.50828 13.1949 6.44141 13.362 6.44141 13.5626C 6.44141 13.7632 6.50828 13.9304 6.64201 14.0641L 10.1636 18.3435C 10.2379 18.4178 10.3233 18.4698 10.4199 18.4996C 10.5165 18.5293 10.6094 18.5441 10.6985 18.5441C 10.8026 18.5441 10.9029 18.5293 10.9994 18.4996C 11.096 18.4698 11.1815 18.4178 11.2558 18.3435L 14.7774 14.0641C 14.9111 13.9304 14.978 13.7632 14.978 13.5626C 14.978 13.362 14.9111 13.1949 14.7774 13.0611C 14.6436 12.9125 14.469 12.8382 14.2536 12.8382C 14.0381 12.8382 13.8041 12.8382 13.5515 12.8382ZM 20.6838 0L 0.713236 0C 0.549785 0 0.390052 0.0742947 0.23403 0.222886C 0.0780095 0.371478 0 0.534926 0 0.713236L 0 5.70589C 0 6.09223 0.14116 6.42655 0.423484 6.70888C 0.705808 6.9912 1.04013 7.13236 1.42647 7.13236C 1.81281 7.13236 2.14714 6.9912 2.42946 6.70888C 2.71178 6.42655 2.85294 6.09223 2.85294 5.70589L 2.85294 2.85294L 18.5441 2.85294L 18.5441 5.70589C 18.5441 6.09223 18.6853 6.42655 18.9676 6.70888C 19.2499 6.9912 19.5843 7.13236 19.9706 7.13236C 20.3569 7.13236 20.6913 6.9912 20.9736 6.70888C 21.2559 6.42655 21.3971 6.09223 21.3971 5.70589L 21.3971 0.713236C 21.3971 0.520067 21.3302 0.352904 21.1965 0.211742C 21.0627 0.0705798 20.8919 0 20.6838 0Z"/>
</defs>
</svg>
