<svg width="49" height="49" viewBox="0 0 49 49" version="1.1" xmlns="http://www.w3.org/2000/svg" xmlns:xlink="http://www.w3.org/1999/xlink">
<title>Group 3</title>
<desc>Created using Figma</desc>
<g id="Canvas" transform="translate(21396 -23048)">
<g id="Group 3">
<g id="Ellipse" opacity="0.8" filter="url(#filter0_d)">
<use xlink:href="#path0_fill" transform="translate(-21393 23050.9)" fill="#FFFFFF"/>
</g>
<g id="Star">
<g id="Vector" opacity="0.8">
<use xlink:href="#path1_fill" transform="translate(-21383.5 23060.9)" fill="#F7618B"/>
</g>
</g>
</g>
</g>
<defs>
<filter id="filter0_d" filterUnits="userSpaceOnUse" x="-21396" y="23048" width="49" height="49" color-interpolation-filters="sRGB">
<feFlood flood-opacity="0" result="BackgroundImageFix"/>
<feColorMatrix in="SourceAlpha" type="matrix" values="0 0 0 0 0 0 0 0 0 0 0 0 0 0 0 0 0 0 255 0"/>
<feOffset dx="0" dy="1"/>
<feGaussianBlur stdDeviation="1.5"/>
<feColorMatrix type="matrix" values="0 0 0 0 0 0 0 0 0 0 0 0 0 0 0 0 0 0 0.6 0"/>
<feBlend mode="normal" in2="BackgroundImageFix" result="effect1_dropShadow"/>
<feBlend mode="normal" in="SourceGraphic" in2="effect1_dropShadow" result="shape"/>
</filter>
<path id="path0_fill" d="M 42 21C 42 32.598 32.598 42 21 42C 9.40202 42 0 32.598 0 21C 0 9.40202 9.40202 0 21 0C 32.598 0 42 9.40202 42 21Z"/>
<path id="path1_fill" d="M 23.0674 8.52552C 23.0674 8.72884 22.9473 8.95064 22.707 9.19093L 17.6749 14.0983L 18.867 21.0296C 18.8763 21.0943 18.8809 21.1867 18.8809 21.3069C 18.8809 21.5009 18.8324 21.665 18.7354 21.799C 18.6383 21.933 18.4974 22 18.3125 22C 18.1369 22 17.9521 21.9445 17.758 21.8336L 11.5337 18.5621L 5.30939 21.8336C 5.10607 21.9445 4.92124 22 4.75488 22C 4.56081 22 4.41525 21.933 4.31821 21.799C 4.22117 21.665 4.17265 21.5009 4.17265 21.3069C 4.17265 21.2514 4.18189 21.159 4.20038 21.0296L 5.39257 14.0983L 0.346566 9.19093C 0.115521 8.9414 0 8.7196 0 8.52552C 0 8.18357 0.258767 7.97102 0.776308 7.88784L 7.73535 6.87587L 10.8544 0.568368C 11.03 0.189454 11.2565 0 11.5337 0C 11.811 0 12.0374 0.189454 12.213 0.568368L 15.3321 6.87587L 22.2911 7.88784C 22.8087 7.97102 23.0674 8.18357 23.0674 8.52552Z"/>
</defs>
</svg>
