<svg width="22" height="22" viewBox="0 0 22 22" version="1.1" xmlns="http://www.w3.org/2000/svg" xmlns:xlink="http://www.w3.org/1999/xlink">
<title>Link</title>
<desc>Created using Figma</desc>
<g id="Canvas" transform="translate(11713 -40021)">
<g id="Link">
<g id="Fill 647">
<use xlink:href="#path0_fill_share" transform="matrix(1 5.55112e-17 -5.55112e-17 1 -11712.2 40028)" fill="url(#paint0_linear)"/>
</g>
<g id="Fill 648">
<use xlink:href="#path1_fill_share" transform="matrix(1 5.55112e-17 -5.55112e-17 1 -11704.1 40021.5)" fill="url(#paint1_linear)"/>
</g>
</g>
</g>
<defs>
<linearGradient id="paint0_linear" x1="0" y1="0" x2="1" y2="0" gradientUnits="userSpaceOnUse" gradientTransform="matrix(15.8343 -22.6222 21.1247 16.9568 0.323461 16.0656)">
<stop offset="0" stop-color="#F7618B"/>
<stop offset="1" stop-color="#2A7AFF"/>
</linearGradient>
<linearGradient id="paint1_linear" x1="0" y1="0" x2="1" y2="0" gradientUnits="userSpaceOnUse" gradientTransform="matrix(14.9357 -22.6222 19.9258 16.9568 0.305104 16.0656)">
<stop offset="0" stop-color="#F7618B"/>
<stop offset="1" stop-color="#2A7AFF"/>
</linearGradient>
<path id="path0_fill_share" fill-rule="evenodd" d="M 7.69716 2.77227C 8.50762 1.96181 9.91948 1.96181 10.7289 2.77227L 11.4868 3.53019C 11.9059 3.94935 12.5845 3.94935 13.0026 3.53019C 13.4218 3.1121 13.4218 2.4335 13.0037 2.01434L 12.2458 1.25642C 11.4364 0.445964 10.359 0 9.21409 0C 8.06809 0 6.99177 0.445964 6.18132 1.25535L 1.25427 6.18346C -0.418091 7.85582 -0.418091 10.5756 1.25427 12.2479L 2.0122 13.0048C 2.82158 13.8152 3.8979 14.2612 5.04389 14.2612C 6.18989 14.2612 7.26621 13.8152 8.07559 13.0048L 10.404 10.6774C 10.8232 10.2582 10.8232 9.57965 10.404 9.16048C 9.98595 8.74239 9.30735 8.74239 8.88819 9.16048L 6.55867 11.4889C 5.75036 12.2994 4.3385 12.3005 3.52805 11.4889L 2.77012 10.7321C 1.93394 9.89589 1.93394 8.53549 2.77012 7.70038L 7.69716 2.77227Z"/>
<path id="path1_fill_share" fill-rule="evenodd" d="M 6.3779 13.0048L 11.3049 8.07773C 12.1154 7.26835 12.5614 6.19204 12.5614 5.04604C 12.5614 3.90004 12.1154 2.82372 11.3049 2.01434L 10.547 1.25535C 9.73656 0.445964 8.66025 0 7.51532 0C 6.36932 0 5.29301 0.445964 4.48362 1.25535L 2.35458 3.38332C 1.93541 3.80248 1.93541 4.48108 2.35458 4.89917C 2.77267 5.31833 3.45233 5.31833 3.87042 4.90024L 5.99947 2.77119C 6.40363 2.36704 6.94286 2.14406 7.51532 2.14406C 8.08778 2.14406 8.62594 2.36704 9.03117 2.77119L 9.78909 3.53019C 10.1943 3.93542 10.4173 4.47357 10.4173 5.04604C 10.4173 5.6185 10.1943 6.15666 9.78909 6.56189L 4.86205 11.4889C 4.0516 12.2994 2.63974 12.2994 1.83035 11.4889C 1.41226 11.0698 0.733669 11.0698 0.314506 11.4879C -0.104657 11.907 -0.104657 12.5856 0.313434 13.0048C 1.12282 13.8152 2.2002 14.2612 3.3462 14.2612C 4.49113 14.2612 5.56852 13.8152 6.3779 13.0048Z"/>
</defs>
</svg>
