<svg width="22" height="18" viewBox="0 0 22 18" version="1.1" xmlns="http://www.w3.org/2000/svg" xmlns:xlink="http://www.w3.org/1999/xlink">
<title>Path</title>
<desc>Created using Figma</desc>
<g id="Canvas" transform="translate(6232 -42852)">
<g id="Path">
<use xlink:href="#path0_fill_twitter" transform="translate(-6231.39 42852.5)" fill="url(#paint0_linear)"/>
</g>
</g>
<defs>
<linearGradient id="paint0_linear" x1="0" y1="0" x2="1" y2="0" gradientUnits="userSpaceOnUse" gradientTransform="matrix(24.7085 -26.7887 32.9638 20.0798 0.504741 19.0245)">
<stop offset="0" stop-color="#F7618B"/>
<stop offset="1" stop-color="#2A7AFF"/>
</linearGradient>
<path id="path0_fill_twitter" fill-rule="evenodd" d="M 20.7806 1.99891C 20.016 2.33812 19.1949 2.56695 18.3321 2.6706C 19.2124 2.14294 19.8895 1.30703 20.2072 0.310941C 19.3834 0.799564 18.4707 1.15493 17.5002 1.34607C 16.7222 0.51689 15.6144 0 14.3881 0C 12.0325 0 10.1238 1.90872 10.1238 4.26299C 10.1238 4.59682 10.1615 4.92257 10.2341 5.23485C 6.6913 5.05717 3.54958 3.35978 1.44702 0.780719C 1.08089 1.40933 0.869559 2.14159 0.869559 2.92366C 0.869559 4.40298 1.62201 5.70732 2.76617 6.47189C 2.06756 6.45035 1.41068 6.25786 0.835907 5.93885C 0.834561 5.95635 0.834561 5.97385 0.834561 5.99269C 0.834561 8.05756 2.30447 9.78187 4.25492 10.1722C 3.89686 10.2705 3.51996 10.323 3.1323 10.323C 2.85635 10.323 2.58983 10.2961 2.33004 10.2463C 2.87251 11.9396 4.44606 13.1726 6.31171 13.2063C 4.85257 14.3504 3.01519 15.0315 1.01763 15.0315C 0.673033 15.0315 0.333825 15.0113 0 14.9723C 1.88719 16.1811 4.12839 16.8878 6.5365 16.8878C 14.3773 16.8878 18.6659 10.3916 18.6659 4.757C 18.6659 4.57259 18.6619 4.38818 18.6538 4.20511C 19.487 3.60477 20.2098 2.85366 20.7806 1.99891Z"/>
</defs>
</svg>
