<svg width="56" height="56" viewBox="0 0 56 56" version="1.1" xmlns="http://www.w3.org/2000/svg" xmlns:xlink="http://www.w3.org/1999/xlink">
<title>Facebook</title>
<desc>Created using Figma</desc>
<g id="Canvas" transform="translate(23397 -26443)">
<g id="Facebook">
<g id="Facebook">
<g id="Background" opacity="0.3">
<use xlink:href="#path0_stroke" transform="translate(-23395.7 26444.9)" fill="#333333"/>
</g>
</g>
<g id="e8e3">
<g id="Vector">
<use xlink:href="#path1_fill" transform="translate(-23382.1 26461.6)" fill="#6F7276"/>
</g>
</g>
</g>
</g>
<defs>
<path id="path0_stroke" d="M 26.4348 54C 41.5889 54 53.8696 41.6855 53.8696 26.5L 51.8696 26.5C 51.8696 40.5856 40.4797 52 26.4348 52L 26.4348 54ZM 53.8696 26.5C 53.8696 11.3145 41.5889 -1 26.4348 -1L 26.4348 1C 40.4797 1 51.8696 12.4144 51.8696 26.5L 53.8696 26.5ZM 26.4348 -1C 11.2806 -1 -1 11.3145 -1 26.5L 1 26.5C 1 12.4144 12.3899 1 26.4348 1L 26.4348 -1ZM -1 26.5C -1 41.6855 11.2806 54 26.4348 54L 26.4348 52C 12.3899 52 1 40.5856 1 26.5L -1 26.5Z"/>
<path id="path1_fill" d="M 16.2726 15.4162L 14.5597 15.4162L 14.5597 7.70808C 14.5597 7.22632 14.3902 6.8204 14.0512 6.49031C 13.7122 6.16021 13.3107 5.99517 12.8468 5.99517C 12.3829 5.99517 11.9814 6.16021 11.6424 6.49031C 11.3034 6.8204 11.1339 7.22632 11.1339 7.70808L 11.1339 15.4162L 9.42098 15.4162C 9.2604 15.4162 9.01952 15.4162 8.69835 15.4162C 8.37718 15.4162 8.1363 15.5054 7.97572 15.6838C 7.81513 15.8444 7.73484 16.0451 7.73484 16.286C 7.73484 16.5269 7.81513 16.7276 7.97572 16.8882L 12.2045 22.0269C 12.2937 22.1161 12.3963 22.1786 12.5122 22.2142C 12.6282 22.2499 12.7397 22.2678 12.8468 22.2678C 12.9717 22.2678 13.0921 22.2499 13.2081 22.2142C 13.3241 22.1786 13.4267 22.1161 13.5159 22.0269L 17.7446 16.8882C 17.9052 16.7276 17.9855 16.5269 17.9855 16.286C 17.9855 16.0451 17.9052 15.8444 17.7446 15.6838C 17.584 15.5054 17.3744 15.4162 17.1157 15.4162C 16.857 15.4162 16.5759 15.4162 16.2726 15.4162ZM 24.8371 0L 0.856453 0C 0.660181 0 0.468374 0.0892129 0.281023 0.267642C 0.0936737 0.44607 0 0.642339 0 0.856453L 0 6.85162C 0 7.31554 0.169505 7.717 0.508519 8.05601C 0.847533 8.39502 1.24899 8.56453 1.71291 8.56453C 2.17682 8.56453 2.57828 8.39502 2.91729 8.05601C 3.25631 7.717 3.42581 7.31554 3.42581 6.85162L 3.42581 3.42581L 22.2678 3.42581L 22.2678 6.85162C 22.2678 7.31554 22.4373 7.717 22.7763 8.05601C 23.1153 8.39502 23.5168 8.56453 23.9807 8.56453C 24.4446 8.56453 24.8461 8.39502 25.1851 8.05601C 25.5241 7.717 25.6936 7.31554 25.6936 6.85162L 25.6936 0.856453C 25.6936 0.624496 25.6133 0.423767 25.4527 0.25426C 25.2921 0.0847522 25.0869 0 24.8371 0Z"/>
</defs>
</svg>
