<svg width="56" height="56" viewBox="0 0 56 56" version="1.1" xmlns="http://www.w3.org/2000/svg" xmlns:xlink="http://www.w3.org/1999/xlink">
<title>Facebook</title>
<desc>Created using Figma</desc>
<g id="Canvas" transform="translate(23244 -26443)">
<g id="Facebook">
<g id="Facebook">
<g id="Background" opacity="0.3">
<use xlink:href="#path0_stroke" transform="translate(-23242.5 26444.9)" fill="#333333"/>
</g>
<g id="Shape">
<use xlink:href="#path1_fill" transform="translate(-23223 26460.2)" fill="#6F7276"/>
</g>
</g>
</g>
</g>
<defs>
<path id="path0_stroke" d="M 26.4348 54C 41.5889 54 53.8696 41.6855 53.8696 26.5L 51.8696 26.5C 51.8696 40.5856 40.4797 52 26.4348 52L 26.4348 54ZM 53.8696 26.5C 53.8696 11.3145 41.5889 -1 26.4348 -1L 26.4348 1C 40.4797 1 51.8696 12.4144 51.8696 26.5L 53.8696 26.5ZM 26.4348 -1C 11.2806 -1 -1 11.3145 -1 26.5L 1 26.5C 1 12.4144 12.3899 1 26.4348 1L 26.4348 -1ZM -1 26.5C -1 41.6855 11.2806 54 26.4348 54L 26.4348 52C 12.3899 52 1 40.5856 1 26.5L -1 26.5Z"/>
<path id="path1_fill" fill-rule="evenodd" d="M 4.20582 22.3158L 4.17391 12.5526L 0 12.5526L 0 8.36842L 4.17391 8.36842L 4.17391 5.57895C 4.17391 1.81427 6.49949 0 9.84957 0C 11.4543 0 12.8335 0.119766 13.2354 0.173296L 13.2354 4.1076L 10.9119 4.10866C 9.08999 4.10866 8.73721 4.97656 8.73721 6.25015L 8.73721 8.36842L 13.913 8.36842L 12.5217 12.5526L 8.7372 12.5526L 8.7372 22.3158L 4.20582 22.3158Z"/>
</defs>
</svg>
