<svg width="56" height="56" viewBox="0 0 56 56" version="1.1" xmlns="http://www.w3.org/2000/svg" xmlns:xlink="http://www.w3.org/1999/xlink">
<title>Twitter</title>
<desc>Created using Figma</desc>
<g id="Canvas" transform="translate(23321 -26443)">
<g id="Twitter">
<g id="Twitter">
<g id="Background" opacity="0.3">
<use xlink:href="#path0_stroke" transform="translate(-23319.1 26444.9)" fill="#333333"/>
</g>
</g>
<g id="Link">
<g id="Fill 647">
<use xlink:href="#path1_fill" transform="matrix(1 5.55112e-17 -5.55112e-17 1 -23304.1 26468.3)" fill="#6F7276"/>
</g>
<g id="Fill 648">
<use xlink:href="#path2_fill" transform="matrix(1 5.55112e-17 -5.55112e-17 1 -23295.1 26461.2)" fill="#6F7276"/>
</g>
</g>
</g>
</g>
<defs>
<path id="path0_stroke" d="M 51.8696 26.4999C 51.8696 40.5856 40.4798 52 26.4348 52L 26.4348 54C 41.589 54 53.8696 41.6855 53.8696 26.4999L 51.8696 26.4999ZM 26.4348 52C 12.3898 52 1 40.5856 1 26.4999L -1 26.4999C -1 41.6855 11.2806 54 26.4348 54L 26.4348 52ZM 1 26.4999C 1 12.4144 12.3898 1 26.4348 1L 26.4348 -1C 11.2806 -1 -1 11.3145 -1 26.4999L 1 26.4999ZM 26.4348 1C 40.4798 1 51.8696 12.4144 51.8696 26.4999L 53.8696 26.4999C 53.8696 11.3145 41.589 -1 26.4348 -1L 26.4348 1Z"/>
<path id="path1_fill" fill-rule="evenodd" d="M 8.53754 3.07494C 9.43648 2.176 11.0025 2.176 11.9002 3.07494L 12.7409 3.91562C 13.2058 4.38054 13.9585 4.38054 14.4223 3.91562C 14.8872 3.45188 14.8872 2.69919 14.4235 2.23427L 13.5828 1.39359C 12.685 0.494654 11.49 0 10.2201 0C 8.94896 0 7.75513 0.494654 6.85619 1.3924L 1.39121 6.85857C -0.463738 8.71352 -0.463738 11.7302 1.39121 13.5852L 2.23189 14.4246C 3.12964 15.3236 4.32347 15.8182 5.59459 15.8182C 6.86571 15.8182 8.05954 15.3236 8.95728 14.4246L 11.54 11.8432C 12.0049 11.3782 12.0049 10.6256 11.54 10.1606C 11.0762 9.69689 10.3235 9.69689 9.8586 10.1606L 7.27475 12.7433C 6.37819 13.6422 4.81218 13.6434 3.91324 12.7433L 3.07256 11.9038C 2.14509 10.9763 2.14509 9.4674 3.07256 8.54111L 8.53754 3.07494Z"/>
<path id="path2_fill" fill-rule="evenodd" d="M 7.07424 14.4246L 12.5392 8.95966C 13.4382 8.06191 13.9328 6.86808 13.9328 5.59696C 13.9328 4.32585 13.4382 3.13202 12.5392 2.23427L 11.6985 1.3924C 10.7996 0.494654 9.60577 0 8.33584 0C 7.06473 0 5.8709 0.494654 4.97315 1.3924L 2.61165 3.75271C 2.14672 4.21764 2.14672 4.97032 2.61165 5.43406C 3.07539 5.89899 3.82926 5.89899 4.293 5.43525L 6.6545 3.07375C 7.10278 2.62547 7.70088 2.37815 8.33584 2.37815C 8.97081 2.37815 9.56773 2.62547 10.0172 3.07375L 10.8579 3.91562C 11.3073 4.36509 11.5547 4.962 11.5547 5.59696C 11.5547 6.23193 11.3073 6.82884 10.8579 7.27831L 5.39289 12.7433C 4.49395 13.6422 2.92794 13.6422 2.03019 12.7433C 1.56645 12.2784 0.813772 12.2784 0.348844 12.7421C -0.116083 13.207 -0.116083 13.9597 0.347655 14.4246C 1.24541 15.3236 2.44042 15.8182 3.71154 15.8182C 4.98147 15.8182 6.17649 15.3236 7.07424 14.4246Z"/>
</defs>
</svg>
