<svg width="30" height="30" viewBox="0 0 30 30" version="1.1" xmlns="http://www.w3.org/2000/svg" xmlns:xlink="http://www.w3.org/1999/xlink">
<title>Group 28</title>
<desc>Created using Figma</desc>
<g id="Canvas" transform="translate(8942 -21298)">
<clipPath id="clip-0" clip-rule="evenodd">
<path d="M -10324 21274L -8883.97 21274L -8883.97 22042L -10324 22042L -10324 21274Z" fill="#FFFFFF"/>
</clipPath>
<g id="Landing " clip-path="url(#clip-0)">
<g id="Thicket Username &#38; Icon" opacity="0.8">
<g id="Group 28">
<g id="Mask Group">
<mask id="mask0_alpha" mask-type="alpha">
<g id="Ellipse 3.2">
<use xlink:href="#path0_fill" transform="translate(-8940.32 21299.7)" fill="#777777"/>
</g>
</mask>
<g id="Ellipse 3" mask="url(#mask0_alpha)">
<use xlink:href="#path1_fill" transform="translate(-8938.55 21318.8)" fill="#FFFFFF"/>
</g>
</g>
<g id="Ellipse 3">
<use xlink:href="#path2_fill" transform="translate(-8931.33 21305.9)" fill="#FFFFFF"/>
</g>
<g id="Background">
<use xlink:href="#path3_stroke" transform="translate(-8940.32 21299.7)" fill="#FFFFFF"/>
</g>
</g>
</g>
</g>
</g>
<defs>
<path id="path0_fill" d="M 27.502 13.751C 27.502 21.3454 21.3454 27.502 13.751 27.502C 6.15652 27.502 0 21.3454 0 13.751C 0 6.15652 6.15652 0 13.751 0C 21.3454 0 27.502 6.15652 27.502 13.751Z"/>
<path id="path1_fill" d="M 23.962 11.981C 23.962 18.598 18.598 23.962 11.981 23.962C 5.36409 23.962 0 18.598 0 11.981C 0 5.36409 5.36409 0 11.981 0C 18.598 0 23.962 5.36409 23.962 11.981Z"/>
<path id="path2_fill" d="M 9.51774 4.75887C 9.51774 7.38712 7.38712 9.51774 4.75887 9.51774C 2.13062 9.51774 0 7.38712 0 4.75887C 0 2.13062 2.13062 0 4.75887 0C 7.38712 0 9.51774 2.13062 9.51774 4.75887Z"/>
<path id="path3_stroke" d="M 13.7512 28.2523C 21.7599 28.2523 28.2523 21.7599 28.2523 13.7512L 26.7523 13.7512C 26.7523 20.9315 20.9315 26.7523 13.7512 26.7523L 13.7512 28.2523ZM 28.2523 13.7512C 28.2523 5.74239 21.7599 -0.75 13.7512 -0.75L 13.7512 0.75C 20.9315 0.75 26.7523 6.57082 26.7523 13.7512L 28.2523 13.7512ZM 13.7512 -0.75C 5.74239 -0.75 -0.75 5.74239 -0.75 13.7512L 0.75 13.7512C 0.75 6.57082 6.57082 0.75 13.7512 0.75L 13.7512 -0.75ZM -0.75 13.7512C -0.75 21.7599 5.74239 28.2523 13.7512 28.2523L 13.7512 26.7523C 6.57082 26.7523 0.75 20.9315 0.75 13.7512L -0.75 13.7512Z"/>
</defs>
</svg>
