<svg width="58" height="44" viewBox="0 0 58 44" version="1.1" xmlns="http://www.w3.org/2000/svg" xmlns:xlink="http://www.w3.org/1999/xlink">
<title>Group 36</title>
<desc>Created using Figma</desc>
<g id="Canvas" transform="translate(-25056 -29524)">
<g id="Group 36">
<g id="Group 35">
<g id="Group 34">
<g id="camera">
<g id="Vector">
<use xlink:href="#path0_fill" transform="translate(25056 29524)" fill="#FFFFFF"/>
</g>
</g>
<g id="Union">
<use xlink:href="#path1_fill" transform="translate(25070 29536)" fill="#FFFFFF"/>
</g>
</g>
</g>
</g>
</g>
<defs>
<path id="path0_fill" d="M 53.361 6.94531L 43.7655 6.94531L 38.1865 1.36387C 38.18 1.35735 38.1735 1.35301 38.1691 1.3465L 38.1582 1.33781C 37.3205 0.510365 36.1695 -4.05947e-07 34.8966 -4.05947e-07L 23.297 -4.05947e-07C 21.948 -4.05947e-07 20.7469 0.582033 19.8983 1.49635L 19.894 1.48332L 14.4304 6.94748L 4.63896 6.94748C 2.07578 6.94748 8.30028e-09 9.02152 8.30028e-09 11.5799L 8.30028e-09 39.3676C 8.30028e-09 41.926 2.07796 44 4.63896 44L 53.3589 44C 55.922 44 58 41.926 58 39.3676L 58 11.5799C 58 9.02152 55.922 6.94748 53.3589 6.94748L 53.361 6.94531ZM 55.6827 39.3654C 55.6827 40.6403 54.6405 41.6805 53.361 41.6805L 4.64113 41.6805C 3.36172 41.6805 2.32165 40.6403 2.32165 39.3654L 2.32165 11.5777C 2.32165 10.3007 3.3639 9.26259 4.64113 9.26259L 15.3943 9.26259L 18.8844 5.77256L 18.941 5.94196L 21.6042 3.06653C 22.0546 2.58006 22.6573 2.31293 23.2992 2.31293L 34.8988 2.31293C 35.5124 2.31293 36.0912 2.54965 36.5459 2.99921L 42.8037 9.26042L 53.361 9.26042C 54.6405 9.26042 55.6827 10.2985 55.6827 11.5755L 55.6827 39.3633L 55.6827 39.3654Z"/>
<path id="path1_fill" fill-rule="evenodd" d="M 26.996 10.8086L 29.1229 10.8086C 29.9022 10.8086 30.2928 11.7871 29.7421 12.3594L 26.3827 15.8418C 26.0409 16.1953 25.4862 16.1953 25.1444 15.8418L 21.785 12.3594C 21.2342 11.7871 21.6249 10.8086 22.4042 10.8086L 24.7675 10.8086C 23.8417 5.93359 19.6971 2.26367 14.7362 2.26367C 12.2382 2.26367 9.95105 3.19336 8.1737 4.73633C 7.71081 5.14062 7.01745 5.08008 6.62683 4.60156C 6.2362 4.12305 6.29675 3.4082 6.75964 3.00586C 8.91589 1.13086 11.6991 0 14.7362 0C 20.9198 0 26.0428 4.68555 26.996 10.8086ZM 5.23229 13.1914C 6.15808 18.0664 10.3026 21.7363 15.2635 21.7363C 17.7616 21.7363 20.0487 20.8066 21.826 19.2637C 22.2889 18.8594 22.9823 18.9199 23.3729 19.3984C 23.7635 19.877 23.703 20.5918 23.2401 20.9941C 21.0839 22.8691 18.3007 24 15.2635 24C 9.07995 24 3.9569 19.3145 3.00378 13.1914L 0.876826 13.1914C 0.0975291 13.1914 -0.293096 12.2129 0.257685 11.6406L 3.61706 8.1582C 3.95886 7.80469 4.51354 7.80469 4.85534 8.1582L 8.21472 11.6406C 8.7655 12.2129 8.37487 13.1914 7.59558 13.1914L 5.23229 13.1914Z"/>
</defs>
</svg>
