<?xml version="1.0"?>
<svg xmlns="http://www.w3.org/2000/svg" viewBox="0 0 16 16">
    <path style="line-height:normal;text-indent:0;text-align:start;text-decoration-line:none;text-decoration-style:solid;text-decoration-color:#FFF;text-transform:none;block-progression:tb;isolation:auto;mix-blend-mode:normal" d="M 6.2910156 2 C 5.7649721 2 5.3138601 2.3474012 5.1015625 2.8203125 L 5.0214844 3 L 2.5 3 C 1.6774686 3 1 3.6774686 1 4.5 L 1 11.5 C 1 12.322531 1.6774686 13 2.5 13 L 13.5 13 C 14.322531 13 15 12.322531 15 11.5 L 15 4.5 C 15 3.6774686 14.322531 3 13.5 3 L 10.980469 3 L 10.898438 2.8203125 L 10.898438 2.8183594 C 10.685484 2.3472347 10.235311 2 9.7089844 2 L 8 2 L 6.2910156 2 z M 6.2910156 3 L 8 3 L 9.7089844 3 C 9.7962924 3 9.9073405 3.057301 9.9863281 3.2304688 L 10.332031 4 L 13.5 4 C 13.781469 4 14 4.2185314 14 4.5 L 14 11.5 C 14 11.781469 13.781469 12 13.5 12 L 2.5 12 C 2.2185314 12 2 11.781469 2 11.5 L 2 4.5 C 2 4.2185314 2.2185314 4 2.5 4 L 5.6679688 4 L 6.0136719 3.2304688 C 6.0913742 3.05738 6.2050592 3 6.2910156 3 z M 8.2988281 5 C 7.7808281 5 7.301 5.144 6.875 5.375 L 7.625 6.125 C 7.836 6.049 8.0618281 6 8.2988281 6 C 9.035728 6 9.6728099 6.4046247 10.017578 7 L 8.5 7 L 10.5 9 L 12.5 7 L 11.113281 7 C 10.698906 5.8389489 9.6002939 5 8.2988281 5 z M 5.5 7 L 3.5 9 L 4.8867188 9 C 5.3010938 10.161051 6.3997061 11 7.7011719 11 C 8.2181719 11 8.699 10.856 9.125 10.625 L 8.375 9.875 C 8.164 9.951 7.9381719 10 7.7011719 10 C 6.964272 10 6.3271901 9.5953753 5.9824219 9 L 7.5 9 L 5.5 7 z" font-weight="400" font-family="sans-serif" white-space="normal" overflow="visible"/>
</svg>
