<svg width="81" height="61" viewBox="0 0 81 61" version="1.1" xmlns="http://www.w3.org/2000/svg" xmlns:xlink="http://www.w3.org/1999/xlink">
<title>Vector</title>
<desc>Created using Figma</desc>
<g id="Canvas" transform="translate(-23950 -28526)">
<g id="Vector">
<use xlink:href="#path0_fill" transform="translate(23950.7 28526.7)" fill="url(#paint0_linear)"/>
</g>
</g>
<defs>
<linearGradient id="paint0_linear" x1="0" y1="0" x2="1" y2="0" gradientUnits="userSpaceOnUse" gradientTransform="matrix(-254.775 -195.06 260.079 -191.081 173.836 122.912)">
<stop offset="0" stop-color="#F7618B"/>
<stop offset="1" stop-color="#2A7AFF"/>
</linearGradient>
<path id="path0_fill" d="M 73.75 10C 75.5556 10 77.0486 10.5903 78.2292 11.7708C 79.4097 12.9514 80 14.5139 80 16.4583L 80 53.125C 80 55.0695 79.4097 56.7014 78.2292 58.0208C 77.0486 59.3403 75.5556 60 73.75 60L 7.08333 60C 5.13888 60 3.47223 59.3056 2.08333 57.9167C 0.694437 56.5278 0 54.9306 0 53.125L 0 16.4583C 0 14.6528 0.694437 13.125 2.08333 11.875C 3.47223 10.625 5.13888 10 7.08333 10L 9.79167 10L 9.79167 6.66667L 16.875 6.66667L 16.875 10L 19.5833 10C 23.1945 5.83331 25.7292 3.12501 27.1875 1.875C 28.6458 0.624993 29.9306 0 31.0417 0L 49.375 0C 50.4861 0 51.7708 0.624993 53.2292 1.875C 54.6875 3.12501 57.2222 5.83331 60.8333 10L 73.75 10ZM 76.6667 53.125L 76.6667 16.4583C 76.6667 14.375 75.6945 13.3333 73.75 13.3333L 60.8333 13.3333L 59.375 13.3333L 58.3333 12.7083C 57.9167 12.1528 57.2222 11.3889 56.25 10.4167C 55.4167 9.44444 54.4097 8.2639 53.2292 6.875C 52.0486 5.4861 51.25 4.58334 50.8333 4.16667L 49.375 3.33333L 31.0417 3.33333C 30.7639 3.33333 30.2778 3.61111 29.5833 4.16667C 28.6111 5 26.875 6.87499 24.375 9.79167C 23.125 11.4583 22.3611 12.4306 22.0833 12.7083L 21.0417 13.3333L 19.5833 13.3333L 7.08333 13.3333C 6.11111 13.3333 5.24306 13.6458 4.47917 14.2708C 3.71527 14.8958 3.33333 15.625 3.33333 16.4583L 3.33333 53.125C 3.33333 54.0972 3.71527 54.9306 4.47917 55.625C 5.24306 56.3194 6.11111 56.6667 7.08333 56.6667L 73.75 56.6667C 75.6945 56.6667 76.6667 55.4861 76.6667 53.125ZM 27.2917 21.4583C 30.9028 17.9861 35.1389 16.25 40 16.25C 44.8611 16.25 49.0625 17.9861 52.6042 21.4583C 56.1459 24.9306 57.9167 29.0972 57.9167 33.9583C 57.9167 38.8195 56.1459 42.9861 52.6042 46.4583C 49.0625 49.9306 44.8611 51.6667 40 51.6667C 35.1389 51.6667 30.9375 49.9306 27.3958 46.4583C 23.8542 42.9861 22.0833 38.8195 22.0833 33.9583C 22.0833 29.0972 23.8194 24.9306 27.2917 21.4583ZM 29.5833 44.1667C 32.5 46.9445 35.9722 48.3333 40 48.3333C 44.0278 48.3333 47.4653 46.9097 50.3125 44.0625C 53.1597 41.2153 54.5833 37.8472 54.5833 33.9583C 54.5833 30.0694 53.1597 26.7014 50.3125 23.8542C 47.4653 21.0069 44.0278 19.5833 40 19.5833C 35.9722 19.5833 32.5347 21.0069 29.6875 23.8542C 26.8403 26.7014 25.4167 30.0694 25.4167 33.9583C 25.4167 37.8472 26.8055 41.25 29.5833 44.1667ZM 60 20.2083L 60 16.6667L 63.5417 16.6667L 63.5417 20.2083L 60 20.2083ZM 40 40.625C 35.5555 40.625 33.3333 38.4028 33.3333 33.9583C 33.3333 29.5139 35.5555 27.2917 40 27.2917C 44.4445 27.2917 46.6667 29.5139 46.6667 33.9583C 46.6667 38.4028 44.4445 40.625 40 40.625Z"/>
</defs>
</svg>
