<svg width="300" height="204" viewBox="0 0 277 204" version="1.1" xmlns="http://www.w3.org/2000/svg" xmlns:xlink="http://www.w3.org/1999/xlink">
<title>Group 2</title>
<desc>Created using Figma</desc>
<g id="Canvas" transform="translate(-27703 -21760)">
<g id="Group 2">
<g id="Vector (Stroke)">
<use xlink:href="#path0_fill" transform="translate(27847.8 21906.6)" fill="#FFFFFF"/>
</g>
<g id="Vector (Stroke)">
<use xlink:href="#path1_fill" transform="matrix(1 0 0 -1 27859.1 21873.4)" fill="#FFFFFF"/>
</g>
<g id="Vector (Stroke)">
<use xlink:href="#path2_fill" transform="matrix(1 0 0 -1 27836 21839.6)" fill="#FFFFFF"/>
</g>
<g id="Vector (Stroke)">
<use xlink:href="#path3_fill" transform="matrix(-1 0 0 -1 27796.9 21836.4)" fill="#FFFFFF"/>
</g>
<g id="Vector (Stroke)">
<use xlink:href="#path4_fill" transform="matrix(-1 0 0 -1 27771.1 21867.1)" fill="#FFFFFF"/>
</g>
<g id="Vector (Stroke)">
<use xlink:href="#path5_fill" transform="matrix(-1 0 0 1 27780.8 21906.6)" fill="#FFFFFF"/>
</g>
<g id="Ellipse 3">
<use xlink:href="#path6_fill" transform="matrix(-1 1.22465e-16 -1.22465e-16 -1 27979.8 21863.3)" fill="#FFFFFF" fill-opacity="0.5"/>
</g>
<g id="Ellipse 3 (Stroke)">
<use xlink:href="#path7_fill" transform="matrix(-1 1.22465e-16 -1.22465e-16 -1 27979.8 21863.3)" fill="#FFFFFF"/>
</g>
<g id="Ellipse 3.31">
<use xlink:href="#path8_fill" transform="matrix(-1 1.22465e-16 -1.22465e-16 -1 27732.4 21863.3)" fill="#FFFFFF" fill-opacity="0.5"/>
</g>
<g id="Ellipse 3.31 (Stroke)">
<use xlink:href="#path9_fill" transform="matrix(-1 1.22465e-16 -1.22465e-16 -1 27732.4 21863.3)" fill="#FFFFFF"/>
</g>
<g id="Ellipse 3.34">
<use xlink:href="#path10_fill" transform="matrix(-1 1.22465e-16 -1.22465e-16 -1 27870 21804.1)" fill="#FFFFFF" fill-opacity="0.5"/>
</g>
<g id="Ellipse 3.34 (Stroke)">
<use xlink:href="#path11_fill" transform="matrix(-1 1.22465e-16 -1.22465e-16 -1 27870 21804.1)" fill="#FFFFFF"/>
</g>
<g id="Ellipse 3.32">
<use xlink:href="#path12_fill" transform="matrix(-1 1.22465e-16 -1.22465e-16 -1 27758.7 21963.9)" fill="#FFFFFF" fill-opacity="0.5"/>
</g>
<g id="Ellipse 3.32 (Stroke)">
<use xlink:href="#path13_fill" transform="matrix(-1 1.22465e-16 -1.22465e-16 -1 27758.7 21963.9)" fill="#FFFFFF"/>
</g>
<g id="Ellipse 3.33">
<use xlink:href="#path14_fill" transform="matrix(-1 1.22465e-16 -1.22465e-16 -1 27791.1 21792.9)" fill="#FFFFFF" fill-opacity="0.5"/>
</g>
<g id="Ellipse 3.33 (Stroke)">
<use xlink:href="#path15_fill" transform="matrix(-1 1.22465e-16 -1.22465e-16 -1 27791.1 21792.9)" fill="#FFFFFF"/>
</g>
<g id="Ellipse 3.30">
<use xlink:href="#path16_fill" transform="matrix(-1 1.22465e-16 -1.22465e-16 -1 27908.2 21963.9)" fill="#FFFFFF" fill-opacity="0.5"/>
</g>
<g id="Ellipse 3.30 (Stroke)">
<use xlink:href="#path17_fill" transform="matrix(-1 1.22465e-16 -1.22465e-16 -1 27908.2 21963.9)" fill="#FFFFFF"/>
</g>
<g id="Ellipse 3.6">
<use xlink:href="#path18_fill" transform="matrix(-1 1.22465e-16 -1.22465e-16 -1 27861.9 21925)" fill="#FFFFFF" fill-opacity="0.5"/>
</g>
<g id="Ellipse 3.6 (Stroke)">
<use xlink:href="#path19_fill" transform="matrix(-1 1.22465e-16 -1.22465e-16 -1 27861.9 21925)" fill="#FFFFFF"/>
</g>
</g>
</g>
<defs>
<path id="path0_fill" fill-rule="evenodd" d="M 37.8226 36.9497L 0 2.20944L 2.02938 0L 39.852 34.7402L 37.8226 36.9497Z"/>
<path id="path1_fill" fill-rule="evenodd" d="M 82.2513 26.0655L 0 2.88754L 0.813694 0L 83.065 23.178L 82.2513 26.0655Z"/>
<path id="path2_fill" fill-rule="evenodd" d="M 17.7799 40.4132L 0 1.2399L 2.73179 0L 20.5117 39.1733L 17.7799 40.4132Z"/>
<path id="path3_fill" fill-rule="evenodd" d="M 15.7216 47.0238L 0 0.969189L 2.83913 0L 18.5607 46.0547L 15.7216 47.0238Z"/>
<path id="path4_fill" fill-rule="evenodd" d="M 40.9635 16.8514L 0 2.83851L 0.971006 0L 41.9345 14.0129L 40.9635 16.8514Z"/>
<path id="path5_fill" fill-rule="evenodd" d="M 27.5235 27.8218L 0 2.19565L 2.04429 0L 29.5678 25.6262L 27.5235 27.8218Z"/>
<path id="path6_fill" d="M 41.7303 20.8652C 41.7303 32.3887 32.3887 41.7303 20.8652 41.7303C 9.34165 41.7303 0 32.3887 0 20.8652C 0 9.34165 9.34165 0 20.8652 0C 32.3887 0 41.7303 9.34165 41.7303 20.8652Z"/>
<path id="path7_fill" fill-rule="evenodd" d="M 20.8652 37.7303C 30.1795 37.7303 37.7303 30.1795 37.7303 20.8652C 37.7303 11.5508 30.1795 4 20.8652 4C 11.5508 4 4 11.5508 4 20.8652C 4 30.1795 11.5508 37.7303 20.8652 37.7303ZM 20.8652 41.7303C 32.3887 41.7303 41.7303 32.3887 41.7303 20.8652C 41.7303 9.34165 32.3887 0 20.8652 0C 9.34165 0 0 9.34165 0 20.8652C 0 32.3887 9.34165 41.7303 20.8652 41.7303Z"/>
<path id="path8_fill" d="M 29.3285 14.6643C 29.3285 22.7631 22.7631 29.3285 14.6643 29.3285C 6.56541 29.3285 0 22.7631 0 14.6643C 0 6.56541 6.56541 0 14.6643 0C 22.7631 0 29.3285 6.56541 29.3285 14.6643Z"/>
<path id="path9_fill" fill-rule="evenodd" d="M 14.6643 25.3285C 20.554 25.3285 25.3285 20.554 25.3285 14.6643C 25.3285 8.77455 20.554 4 14.6643 4C 8.77455 4 4 8.77455 4 14.6643C 4 20.554 8.77455 25.3285 14.6643 25.3285ZM 14.6643 29.3285C 22.7631 29.3285 29.3285 22.7631 29.3285 14.6643C 29.3285 6.56541 22.7631 0 14.6643 0C 6.56541 0 0 6.56541 0 14.6643C 0 22.7631 6.56541 29.3285 14.6643 29.3285Z"/>
<path id="path10_fill" d="M 22.4036 11.2018C 22.4036 17.3884 17.3884 22.4036 11.2018 22.4036C 5.01522 22.4036 0 17.3884 0 11.2018C 0 5.01522 5.01522 0 11.2018 0C 17.3884 0 22.4036 5.01522 22.4036 11.2018Z"/>
<path id="path11_fill" fill-rule="evenodd" d="M 11.2018 18.4036C 15.1793 18.4036 18.4036 15.1793 18.4036 11.2018C 18.4036 7.22436 15.1793 4 11.2018 4C 7.22436 4 4 7.22436 4 11.2018C 4 15.1793 7.22436 18.4036 11.2018 18.4036ZM 11.2018 22.4036C 17.3884 22.4036 22.4036 17.3884 22.4036 11.2018C 22.4036 5.01522 17.3884 0 11.2018 0C 5.01522 0 0 5.01522 0 11.2018C 0 17.3884 5.01522 22.4036 11.2018 22.4036Z"/>
<path id="path12_fill" d="M 42.0701 21.0351C 42.0701 32.6524 32.6524 42.0701 21.0351 42.0701C 9.41772 42.0701 0 32.6524 0 21.0351C 0 9.41772 9.41772 0 21.0351 0C 32.6524 0 42.0701 9.41772 42.0701 21.0351Z"/>
<path id="path13_fill" fill-rule="evenodd" d="M 21.0351 38.0701C 30.4433 38.0701 38.0701 30.4433 38.0701 21.0351C 38.0701 11.6269 30.4433 4 21.0351 4C 11.6269 4 4 11.6269 4 21.0351C 4 30.4433 11.6269 38.0701 21.0351 38.0701ZM 21.0351 42.0701C 32.6524 42.0701 42.0701 32.6524 42.0701 21.0351C 42.0701 9.41772 32.6524 0 21.0351 0C 9.41772 0 0 9.41772 0 21.0351C 0 32.6524 9.41772 42.0701 21.0351 42.0701Z"/>
<path id="path14_fill" d="M 32.3843 16.1922C 32.3843 25.1349 25.1349 32.3843 16.1922 32.3843C 7.24948 32.3843 0 25.1349 0 16.1922C 0 7.24948 7.24948 0 16.1922 0C 25.1349 0 32.3843 7.24948 32.3843 16.1922Z"/>
<path id="path15_fill" fill-rule="evenodd" d="M 16.1922 28.3843C 22.9257 28.3843 28.3843 22.9257 28.3843 16.1922C 28.3843 9.45862 22.9257 4 16.1922 4C 9.45862 4 4 9.45862 4 16.1922C 4 22.9257 9.45862 28.3843 16.1922 28.3843ZM 16.1922 32.3843C 25.1349 32.3843 32.3843 25.1349 32.3843 16.1922C 32.3843 7.24948 25.1349 0 16.1922 0C 7.24948 0 0 7.24948 0 16.1922C 0 25.1349 7.24948 32.3843 16.1922 32.3843Z"/>
<path id="path16_fill" d="M 27.603 13.8015C 27.603 21.4239 21.4239 27.603 13.8015 27.603C 6.17915 27.603 0 21.4239 0 13.8015C 0 6.17915 6.17915 0 13.8015 0C 21.4239 0 27.603 6.17915 27.603 13.8015Z"/>
<path id="path17_fill" fill-rule="evenodd" d="M 13.8015 23.603C 19.2148 23.603 23.603 19.2148 23.603 13.8015C 23.603 8.38829 19.2148 4 13.8015 4C 8.38829 4 4 8.38829 4 13.8015C 4 19.2148 8.38829 23.603 13.8015 23.603ZM 13.8015 27.603C 21.4239 27.603 27.603 21.4239 27.603 13.8015C 27.603 6.17915 21.4239 0 13.8015 0C 6.17915 0 0 6.17915 0 13.8015C 0 21.4239 6.17915 27.603 13.8015 27.603Z"/>
<path id="path18_fill" d="M 95.9131 47.9565C 95.9131 74.4422 74.4422 95.9131 47.9565 95.9131C 21.4709 95.9131 0 74.4422 0 47.9565C 0 21.4709 21.4709 0 47.9565 0C 74.4422 0 95.9131 21.4709 95.9131 47.9565Z"/>
<path id="path19_fill" fill-rule="evenodd" d="M 47.9565 91.9131C 72.2331 91.9131 91.9131 72.2331 91.9131 47.9565C 91.9131 23.68 72.2331 4 47.9565 4C 23.68 4 4 23.68 4 47.9565C 4 72.2331 23.68 91.9131 47.9565 91.9131ZM 47.9565 95.9131C 74.4422 95.9131 95.9131 74.4422 95.9131 47.9565C 95.9131 21.4709 74.4422 0 47.9565 0C 21.4709 0 0 21.4709 0 47.9565C 0 74.4422 21.4709 95.9131 47.9565 95.9131Z"/>
</defs>
</svg>
