<svg width="32" height="27" viewBox="0 0 32 27" version="1.1" xmlns="http://www.w3.org/2000/svg" xmlns:xlink="http://www.w3.org/1999/xlink">
<title>e96b</title>
<desc>Created using Figma</desc>
<g id="Canvas" transform="translate(-15312 -17842)">
<g id="e96b">
<g id="Vector">
<use xlink:href="#path0_fill" transform="translate(15312.1 17842.9)" fill="#66B92E"/>
</g>
</g>
</g>
<defs>
<path id="path0_fill" d="M 30.5257 1.20741C 29.7208 0.402465 28.761 0 27.6465 0C 26.532 0 25.5826 0.402465 24.7983 1.20741L 10.4951 15.7892L 6.90389 12.136C 6.11958 11.331 5.17018 10.9286 4.05565 10.9286C 2.94111 10.9286 1.98139 11.331 1.17645 12.136C 0.392145 12.9409 0 13.9161 0 15.0616C 0 16.2071 0.392145 17.1823 1.17645 17.9873L 7.61595 24.5506C 8.42089 25.3555 9.38061 25.758 10.4951 25.758C 11.6097 25.758 12.5591 25.3555 13.3434 24.5506L 30.5257 7.05868C 31.31 6.2331 31.7021 5.25274 31.7021 4.11756C 31.7021 2.98239 31.31 2.01235 30.5257 1.20741Z"/>
</defs>
</svg>
