<svg width="330" height="188" viewBox="0 0 307 188" version="1.1" xmlns="http://www.w3.org/2000/svg" xmlns:xlink="http://www.w3.org/1999/xlink">
<title>Group 2</title>
<desc>Created using Figma</desc>
<g id="Canvas" transform="translate(-28118 -21768)">
<g id="Group 2">
<g id="Ellipse 3">
<use xlink:href="#path0_fill" transform="translate(28312.1 21795.1)" fill="#FFFFFF" fill-opacity="0.5"/>
</g>
<g id="Ellipse 3 (Stroke)">
<use xlink:href="#path1_fill" transform="translate(28312.1 21795.1)" fill="#FFFFFF"/>
</g>
<g id="Ellipse 3.1">
<use xlink:href="#path0_fill" transform="translate(28192 21768.9)" fill="#FFFFFF" fill-opacity="0.5"/>
</g>
<g id="Ellipse 3.1 (Stroke)">
<use xlink:href="#path1_fill" transform="translate(28192 21768.9)" fill="#FFFFFF"/>
</g>
<g id="Ellipse 3.2">
<use xlink:href="#path2_fill" transform="translate(28246.9 21823.6)" fill="#FFFFFF" fill-opacity="0.5"/>
</g>
<g id="Ellipse 3.2 (Stroke)">
<use xlink:href="#path3_fill" transform="translate(28246.9 21823.6)" fill="#FFFFFF"/>
</g>
<g id="Ellipse 3.3">
<use xlink:href="#path4_fill" transform="translate(28152 21854.1)" fill="#FFFFFF" fill-opacity="0.5"/>
</g>
<g id="Ellipse 3.3 (Stroke)">
<use xlink:href="#path5_fill" transform="translate(28152 21854.1)" fill="#FFFFFF"/>
</g>
<g id="Ellipse 3.9">
<use xlink:href="#path6_fill" transform="translate(28143.2 21799.5)" fill="#FFFFFF" fill-opacity="0.5"/>
</g>
<g id="Ellipse 3.9 (Stroke)">
<use xlink:href="#path7_fill" transform="translate(28143.2 21799.5)" fill="#FFFFFF"/>
</g>
<g id="Ellipse 3.7">
<use xlink:href="#path8_fill" transform="translate(28118.2 21848.7)" fill="#FFFFFF" fill-opacity="0.5"/>
</g>
<g id="Ellipse 3.7 (Stroke)">
<use xlink:href="#path9_fill" transform="translate(28118.2 21848.7)" fill="#FFFFFF"/>
</g>
<g id="Ellipse 3.8">
<use xlink:href="#path10_fill" transform="translate(28156 21909.9)" fill="#FFFFFF" fill-opacity="0.5"/>
</g>
<g id="Ellipse 3.8 (Stroke)">
<use xlink:href="#path11_fill" transform="translate(28156 21909.9)" fill="#FFFFFF"/>
</g>
<g id="Ellipse 3.4">
<use xlink:href="#path0_fill" transform="translate(28220.6 21926.4)" fill="#FFFFFF" fill-opacity="0.5"/>
</g>
<g id="Ellipse 3.4 (Stroke)">
<use xlink:href="#path1_fill" transform="translate(28220.6 21926.4)" fill="#FFFFFF"/>
</g>
<g id="Ellipse 3.5">
<use xlink:href="#path0_fill" transform="translate(28312.1 21907.7)" fill="#FFFFFF" fill-opacity="0.5"/>
</g>
<g id="Ellipse 3.5 (Stroke)">
<use xlink:href="#path1_fill" transform="translate(28312.1 21907.7)" fill="#FFFFFF"/>
</g>
<g id="Ellipse 3.6">
<use xlink:href="#path12_fill" transform="translate(28383.2 21839)" fill="#FFFFFF" fill-opacity="0.5"/>
</g>
<g id="Ellipse 3.6 (Stroke)">
<use xlink:href="#path13_fill" transform="translate(28383.2 21839)" fill="#FFFFFF"/>
</g>
<g id="Vector 2.5 (Stroke)">
<use xlink:href="#path14_fill" transform="matrix(0.220439 -0.975401 -0.975401 -0.220439 28363.4 21942.1)" fill="#FFFFFF"/>
</g>
<g id="Ellipse 3.26">
<use xlink:href="#path15_fill" transform="matrix(-0.220439 0.975401 -0.975401 -0.220439 28388.7 21933.8)" fill="#FFFFFF" fill-opacity="0.5"/>
</g>
<g id="Ellipse 3.26 (Stroke)">
<use xlink:href="#path16_fill" transform="matrix(-0.220439 0.975401 -0.975401 -0.220439 28388.7 21933.8)" fill="#FFFFFF"/>
</g>
<g id="Group">
<g id="Vector 2 (Stroke)">
<use xlink:href="#path17_fill" transform="translate(28131.4 21781.2)" fill="#FFFFFF"/>
</g>
<g id="Vector 2.7 (Stroke)">
<use xlink:href="#path18_fill" transform="matrix(-1 0 0 1 28403.8 21807.6)" fill="#FFFFFF"/>
</g>
</g>
<g id="Ellipse 3.24">
<use xlink:href="#path19_fill" transform="translate(28389 21789.9)" fill="#FFFFFF" fill-opacity="0.5"/>
</g>
<g id="Ellipse 3.24 (Stroke)">
<use xlink:href="#path20_fill" transform="translate(28389 21789.9)" fill="#FFFFFF"/>
</g>
</g>
</g>
<defs>
<path id="path0_fill" d="M 26.2778 13.1389C 26.2778 20.3953 20.3953 26.2778 13.1389 26.2778C 5.88249 26.2778 0 20.3953 0 13.1389C 0 5.88249 5.88249 0 13.1389 0C 20.3953 0 26.2778 5.88249 26.2778 13.1389Z"/>
<path id="path1_fill" fill-rule="evenodd" d="M 13.1389 22.2778C 18.1862 22.2778 22.2778 18.1862 22.2778 13.1389C 22.2778 8.09163 18.1862 4 13.1389 4C 8.09163 4 4 8.09163 4 13.1389C 4 18.1862 8.09163 22.2778 13.1389 22.2778ZM 13.1389 26.2778C 20.3953 26.2778 26.2778 20.3953 26.2778 13.1389C 26.2778 5.88249 20.3953 0 13.1389 0C 5.88249 0 0 5.88249 0 13.1389C 0 20.3953 5.88249 26.2778 13.1389 26.2778Z"/>
<path id="path2_fill" d="M 46.1966 23.0983C 46.1966 35.8552 35.8552 46.1966 23.0983 46.1966C 10.3415 46.1966 0 35.8552 0 23.0983C 0 10.3415 10.3415 0 23.0983 0C 35.8552 0 46.1966 10.3415 46.1966 23.0983Z"/>
<path id="path3_fill" fill-rule="evenodd" d="M 23.0983 42.1966C 33.646 42.1966 42.1966 33.646 42.1966 23.0983C 42.1966 12.5506 33.646 4 23.0983 4C 12.5506 4 4 12.5506 4 23.0983C 4 33.646 12.5506 42.1966 23.0983 42.1966ZM 23.0983 46.1966C 35.8552 46.1966 46.1966 35.8552 46.1966 23.0983C 46.1966 10.3415 35.8552 0 23.0983 0C 10.3415 0 0 10.3415 0 23.0983C 0 35.8552 10.3415 46.1966 23.0983 46.1966Z"/>
<path id="path4_fill" d="M 31.1024 15.5512C 31.1024 24.1399 24.1399 31.1024 15.5512 31.1024C 6.96251 31.1024 0 24.1399 0 15.5512C 0 6.96251 6.96251 0 15.5512 0C 24.1399 0 31.1024 6.96251 31.1024 15.5512Z"/>
<path id="path5_fill" fill-rule="evenodd" d="M 15.5512 27.1024C 21.9307 27.1024 27.1024 21.9307 27.1024 15.5512C 27.1024 9.17165 21.9307 4 15.5512 4C 9.17165 4 4 9.17165 4 15.5512C 4 21.9307 9.17165 27.1024 15.5512 27.1024ZM 15.5512 31.1024C 24.1399 31.1024 31.1024 24.1399 31.1024 15.5512C 31.1024 6.96251 24.1399 0 15.5512 0C 6.96251 0 0 6.96251 0 15.5512C 0 24.1399 6.96251 31.1024 15.5512 31.1024Z"/>
<path id="path6_fill" d="M 17.4949 8.74747C 17.4949 13.5786 13.5786 17.4949 8.74747 17.4949C 3.91637 17.4949 0 13.5786 0 8.74747C 0 3.91637 3.91637 0 8.74747 0C 13.5786 0 17.4949 3.91637 17.4949 8.74747Z"/>
<path id="path7_fill" fill-rule="evenodd" d="M 8.74747 13.4949C 11.3694 13.4949 13.4949 11.3694 13.4949 8.74747C 13.4949 6.12551 11.3694 4 8.74747 4C 6.12551 4 4 6.12551 4 8.74747C 4 11.3694 6.12551 13.4949 8.74747 13.4949ZM 8.74747 17.4949C 13.5786 17.4949 17.4949 13.5786 17.4949 8.74747C 17.4949 3.91637 13.5786 0 8.74747 0C 3.91637 0 0 3.91637 0 8.74747C 0 13.5786 3.91637 17.4949 8.74747 17.4949Z"/>
<path id="path8_fill" d="M 16.9499 8.47493C 16.9499 13.1555 13.1555 16.9499 8.47493 16.9499C 3.79435 16.9499 0 13.1555 0 8.47493C 0 3.79435 3.79435 0 8.47493 0C 13.1555 0 16.9499 3.79435 16.9499 8.47493Z"/>
<path id="path9_fill" fill-rule="evenodd" d="M 8.47493 12.9499C 10.9464 12.9499 12.9499 10.9464 12.9499 8.47493C 12.9499 6.00349 10.9464 4 8.47493 4C 6.00349 4 4 6.00349 4 8.47493C 4 10.9464 6.00349 12.9499 8.47493 12.9499ZM 8.47493 16.9499C 13.1555 16.9499 16.9499 13.1555 16.9499 8.47493C 16.9499 3.79435 13.1555 0 8.47493 0C 3.79435 0 0 3.79435 0 8.47493C 0 13.1555 3.79435 16.9499 8.47493 16.9499Z"/>
<path id="path10_fill" d="M 18.2694 9.13472C 18.2694 14.1797 14.1797 18.2694 9.13472 18.2694C 4.08976 18.2694 0 14.1797 0 9.13472C 0 4.08976 4.08976 0 9.13472 0C 14.1797 0 18.2694 4.08976 18.2694 9.13472Z"/>
<path id="path11_fill" fill-rule="evenodd" d="M 9.13472 14.2694C 11.9706 14.2694 14.2694 11.9706 14.2694 9.13472C 14.2694 6.29889 11.9706 4 9.13472 4C 6.29889 4 4 6.29889 4 9.13472C 4 11.9706 6.29889 14.2694 9.13472 14.2694ZM 9.13472 18.2694C 14.1797 18.2694 18.2694 14.1797 18.2694 9.13472C 18.2694 4.08976 14.1797 0 9.13472 0C 4.08976 0 0 4.08976 0 9.13472C 0 14.1797 4.08976 18.2694 9.13472 18.2694Z"/>
<path id="path12_fill" d="M 41.6603 20.8302C 41.6603 32.3343 32.3343 41.6603 20.8302 41.6603C 9.32598 41.6603 0 32.3343 0 20.8302C 0 9.32598 9.32598 0 20.8302 0C 32.3343 0 41.6603 9.32598 41.6603 20.8302Z"/>
<path id="path13_fill" fill-rule="evenodd" d="M 20.8302 37.6603C 30.1252 37.6603 37.6603 30.1252 37.6603 20.8302C 37.6603 11.5351 30.1252 4 20.8302 4C 11.5351 4 4 11.5351 4 20.8302C 4 30.1252 11.5351 37.6603 20.8302 37.6603ZM 20.8302 41.6603C 32.3343 41.6603 41.6603 32.3343 41.6603 20.8302C 41.6603 9.32598 32.3343 0 20.8302 0C 9.32598 0 0 9.32598 0 20.8302C 0 32.3343 9.32598 41.6603 20.8302 41.6603Z"/>
<path id="path14_fill" fill-rule="evenodd" d="M 3.91611 0L 10.6556 32.3878L 6.7395 33.2027L 0 0.814896L 3.91611 0Z"/>
<path id="path15_fill" d="M 25.0373 12.5187C 25.0373 19.4325 19.4325 25.0373 12.5187 25.0373C 5.6048 25.0373 0 19.4325 0 12.5187C 0 5.6048 5.6048 0 12.5187 0C 19.4325 0 25.0373 5.6048 25.0373 12.5187Z"/>
<path id="path16_fill" fill-rule="evenodd" d="M 12.5187 21.0373C 17.2234 21.0373 21.0373 17.2234 21.0373 12.5187C 21.0373 7.81394 17.2234 4 12.5187 4C 7.81394 4 4 7.81394 4 12.5187C 4 17.2234 7.81394 21.0373 12.5187 21.0373ZM 12.5187 25.0373C 19.4325 25.0373 25.0373 19.4325 25.0373 12.5187C 25.0373 5.6048 19.4325 0 12.5187 0C 5.6048 0 0 5.6048 0 12.5187C 0 19.4325 5.6048 25.0373 12.5187 25.0373Z"/>
<path id="path17_fill" fill-rule="evenodd" d="M 84.6296 0L 182.82 23.6223L 182.119 26.539L 83.9279 2.91678L 84.6296 0ZM 23.8406 22.8214L 62.2832 2.90622L 63.6632 5.56999L 25.2206 25.4852L 23.8406 22.8214ZM 80.6784 9.17001L 124.216 50.3916L 122.153 52.5701L 78.6158 11.3485L 80.6784 9.17001ZM 190.696 129.285L 191.159 37.1154L 194.159 37.1305L 193.696 129.3L 190.696 129.285ZM 48.6998 84.7657L 116.322 67.1655L 117.077 70.0688L 49.4554 87.669L 48.6998 84.7657ZM 22.7211 86.2679L 0 79.6405L 0.840046 76.7605L 23.5611 83.3879L 22.7211 86.2679ZM 104.69 148.057L 129.193 83.83L 131.996 84.8994L 107.493 149.126L 104.69 148.057ZM 202.388 132.279L 257.505 89.2049L 259.352 91.5687L 204.236 134.643L 202.388 132.279ZM 32.2983 131.956L 34.6141 101.85L 37.6053 102.08L 35.2895 132.186L 32.2983 131.956Z"/>
<path id="path18_fill" fill-rule="evenodd" d="M 5.30835 0.20781L 2.99279 33.5554L 0 33.3476L 2.31555 0L 5.30835 0.20781Z"/>
<path id="path19_fill" d="M 19.7625 9.88123C 19.7625 15.3385 15.3385 19.7625 9.88123 19.7625C 4.42398 19.7625 0 15.3385 0 9.88123C 0 4.42398 4.42398 0 9.88123 0C 15.3385 0 19.7625 4.42398 19.7625 9.88123Z"/>
<path id="path20_fill" fill-rule="evenodd" d="M 9.88123 15.7625C 13.1293 15.7625 15.7625 13.1293 15.7625 9.88123C 15.7625 6.63312 13.1293 4 9.88123 4C 6.63312 4 4 6.63312 4 9.88123C 4 13.1293 6.63312 15.7625 9.88123 15.7625ZM 9.88123 19.7625C 15.3385 19.7625 19.7625 15.3385 19.7625 9.88123C 19.7625 4.42398 15.3385 0 9.88123 0C 4.42398 0 0 4.42398 0 9.88123C 0 15.3385 4.42398 19.7625 9.88123 19.7625Z"/>
</defs>
</svg>
