<svg width="242" height="159" viewBox="0 0 242 159" version="1.1" xmlns="http://www.w3.org/2000/svg" xmlns:xlink="http://www.w3.org/1999/xlink">
<title>Group</title>
<desc>Created using Figma</desc>
<g id="Canvas" transform="translate(-15202 -17608)">
<g id="Group">
<g id="Ellipse 5">
<use xlink:href="#path0_fill" transform="translate(15238.5 17701.5)" fill="#FFFFFF" fill-opacity="0.29"/>
<mask id="mask0_outline_ins">
<use xlink:href="#path0_fill" fill="white" transform="translate(15238.5 17701.5)"/>
</mask>
<g mask="url(#mask0_outline_ins)">
<use xlink:href="#path1_stroke_2x" transform="translate(15238.5 17701.5)" fill="#FFFFFF"/>
</g>
</g>
<g id="Ellipse 5">
<use xlink:href="#path2_fill" transform="translate(15258.3 17624)" fill="#FFFFFF" fill-opacity="0.29"/>
<mask id="mask1_outline_ins">
<use xlink:href="#path2_fill" fill="white" transform="translate(15258.3 17624)"/>
</mask>
<g mask="url(#mask1_outline_ins)">
<use xlink:href="#path3_stroke_2x" transform="translate(15258.3 17624)" fill="#FFFFFF"/>
</g>
</g>
<g id="Ellipse 5">
<use xlink:href="#path4_fill" transform="translate(15203 17619.2)" fill="#FFFFFF" fill-opacity="0.29"/>
<mask id="mask2_outline_ins">
<use xlink:href="#path4_fill" fill="white" transform="translate(15203 17619.2)"/>
</mask>
<g mask="url(#mask2_outline_ins)">
<use xlink:href="#path5_stroke_2x" transform="translate(15203 17619.2)" fill="#FFFFFF"/>
</g>
</g>
<g id="Ellipse 5">
<use xlink:href="#path6_fill" transform="translate(15419.5 17649.9)" fill="#FFFFFF" fill-opacity="0.29"/>
<mask id="mask3_outline_ins">
<use xlink:href="#path6_fill" fill="white" transform="translate(15419.5 17649.9)"/>
</mask>
<g mask="url(#mask3_outline_ins)">
<use xlink:href="#path7_stroke_2x" transform="translate(15419.5 17649.9)" fill="#FFFFFF"/>
</g>
</g>
<g id="Ellipse 5">
<use xlink:href="#path8_fill" transform="translate(15375.1 17608.4)" fill="#FFFFFF" fill-opacity="0.29"/>
<mask id="mask4_outline_ins">
<use xlink:href="#path8_fill" fill="white" transform="translate(15375.1 17608.4)"/>
</mask>
<g mask="url(#mask4_outline_ins)">
<use xlink:href="#path9_stroke_2x" transform="translate(15375.1 17608.4)" fill="#FFFFFF"/>
</g>
</g>
<g id="Ellipse 5">
<use xlink:href="#path8_fill" transform="translate(15344 17710.7)" fill="#FFFFFF" fill-opacity="0.29"/>
<mask id="mask5_outline_ins">
<use xlink:href="#path8_fill" fill="white" transform="translate(15344 17710.7)"/>
</mask>
<g mask="url(#mask5_outline_ins)">
<use xlink:href="#path9_stroke_2x" transform="translate(15344 17710.7)" fill="#FFFFFF"/>
</g>
</g>
<g id="Vector 4">
<use xlink:href="#path10_stroke" transform="matrix(0.999996 -0.00276958 0.00276958 0.999996 15256.9 17657.7)" fill="#FFFFFF"/>
</g>
<g id="Vector 4">
<use xlink:href="#path11_stroke" transform="matrix(0.695115 0.718899 -0.718899 0.695115 15239.3 17618.7)" fill="#FFFFFF"/>
</g>
<g id="Group">
<g id="Ellipse 5">
<use xlink:href="#path12_fill" transform="matrix(-0.411606 -0.911362 0.911362 -0.411606 15209.8 17749.8)" fill="#FFFFFF" fill-opacity="0.29"/>
<mask id="mask6_outline_ins">
<use xlink:href="#path12_fill" fill="white" transform="matrix(-0.411606 -0.911362 0.911362 -0.411606 15209.8 17749.8)"/>
</mask>
<g mask="url(#mask6_outline_ins)">
<use xlink:href="#path13_stroke_2x" transform="matrix(-0.411606 -0.911362 0.911362 -0.411606 15209.8 17749.8)" fill="#FFFFFF"/>
</g>
</g>
<g id="Vector 4">
<use xlink:href="#path14_stroke" transform="matrix(0.9848 0.173693 -0.173693 0.9848 15224.8 17719.3)" fill="#FFFFFF"/>
</g>
</g>
<g id="Group">
<g id="Ellipse 5">
<use xlink:href="#path12_fill" transform="matrix(-0.991198 0.132384 -0.132384 -0.991198 15272.6 17765.1)" fill="#FFFFFF" fill-opacity="0.29"/>
<mask id="mask7_outline_ins">
<use xlink:href="#path12_fill" fill="white" transform="matrix(-0.991198 0.132384 -0.132384 -0.991198 15272.6 17765.1)"/>
</mask>
<g mask="url(#mask7_outline_ins)">
<use xlink:href="#path13_stroke_2x" transform="matrix(-0.991198 0.132384 -0.132384 -0.991198 15272.6 17765.1)" fill="#FFFFFF"/>
</g>
</g>
<g id="Vector 4">
<use xlink:href="#path14_stroke" transform="matrix(0.449334 -0.893364 0.893364 0.449334 15247.7 17741.9)" fill="#FFFFFF"/>
</g>
</g>
<g id="Vector 4">
<use xlink:href="#path15_stroke" transform="matrix(0.309962 0.950749 -0.950749 0.309962 15415.9 17626.4)" fill="#FFFFFF"/>
</g>
<g id="Vector 4">
<use xlink:href="#path16_stroke" transform="matrix(0.914389 0.404837 -0.404837 0.914389 15312.4 17597.8)" fill="#FFFFFF"/>
</g>
<g id="Vector 4">
<use xlink:href="#path17_stroke" transform="matrix(-0.901242 -0.433315 -0.433315 0.901242 15397.5 17642.5)" fill="#FFFFFF"/>
</g>
</g>
</g>
<defs>
<path id="path0_fill" d="M 28.62 14.31C 28.62 22.2132 22.2132 28.62 14.31 28.62C 6.4068 28.62 0 22.2132 0 14.31C 0 6.4068 6.4068 0 14.31 0C 22.2132 0 28.62 6.4068 28.62 14.31Z"/>
<path id="path1_stroke_2x" d="M 24.62 14.31C 24.62 20.004 20.004 24.62 14.31 24.62L 14.31 32.62C 24.4223 32.62 32.62 24.4223 32.62 14.31L 24.62 14.31ZM 14.31 24.62C 8.61594 24.62 4 20.004 4 14.31L -4 14.31C -4 24.4223 4.19766 32.62 14.31 32.62L 14.31 24.62ZM 4 14.31C 4 8.61594 8.61594 4 14.31 4L 14.31 -4C 4.19766 -4 -4 4.19766 -4 14.31L 4 14.31ZM 14.31 4C 20.004 4 24.62 8.61594 24.62 14.31L 32.62 14.31C 32.62 4.19766 24.4223 -4 14.31 -4L 14.31 4Z"/>
<path id="path2_fill" d="M 38.1144 19.0572C 38.1144 29.5822 29.5822 38.1144 19.0572 38.1144C 8.5322 38.1144 0 29.5822 0 19.0572C 0 8.5322 8.5322 0 19.0572 0C 29.5822 0 38.1144 8.5322 38.1144 19.0572Z"/>
<path id="path3_stroke_2x" d="M 34.1144 19.0572C 34.1144 27.3731 27.3731 34.1144 19.0572 34.1144L 19.0572 42.1144C 31.7913 42.1144 42.1144 31.7913 42.1144 19.0572L 34.1144 19.0572ZM 19.0572 34.1144C 10.7413 34.1144 4 27.3731 4 19.0572L -4 19.0572C -4 31.7913 6.32306 42.1144 19.0572 42.1144L 19.0572 34.1144ZM 4 19.0572C 4 10.7413 10.7413 4 19.0572 4L 19.0572 -4C 6.32306 -4 -4 6.32306 -4 19.0572L 4 19.0572ZM 19.0572 4C 27.3731 4 34.1144 10.7413 34.1144 19.0572L 42.1144 19.0572C 42.1144 6.32306 31.7913 -4 19.0572 -4L 19.0572 4Z"/>
<path id="path4_fill" d="M 23.8714 11.9357C 23.8714 18.5276 18.5276 23.8714 11.9357 23.8714C 5.34379 23.8714 0 18.5276 0 11.9357C 0 5.34379 5.34379 0 11.9357 0C 18.5276 0 23.8714 5.34379 23.8714 11.9357Z"/>
<path id="path5_stroke_2x" d="M 19.8714 11.9357C 19.8714 16.3185 16.3185 19.8714 11.9357 19.8714L 11.9357 27.8714C 20.7367 27.8714 27.8714 20.7367 27.8714 11.9357L 19.8714 11.9357ZM 11.9357 19.8714C 7.55293 19.8714 4 16.3185 4 11.9357L -4 11.9357C -4 20.7367 3.13466 27.8714 11.9357 27.8714L 11.9357 19.8714ZM 4 11.9357C 4 7.55293 7.55293 4 11.9357 4L 11.9357 -4C 3.13466 -4 -4 3.13466 -4 11.9357L 4 11.9357ZM 11.9357 4C 16.3185 4 19.8714 7.55293 19.8714 11.9357L 27.8714 11.9357C 27.8714 3.13466 20.7367 -4 11.9357 -4L 11.9357 4Z"/>
<path id="path6_fill" d="M 24.4409 12.2205C 24.4409 18.9696 18.9696 24.4409 12.2205 24.4409C 5.47128 24.4409 0 18.9696 0 12.2205C 0 5.47128 5.47128 0 12.2205 0C 18.9696 0 24.4409 5.47128 24.4409 12.2205Z"/>
<path id="path7_stroke_2x" d="M 20.4409 12.2205C 20.4409 16.7605 16.7605 20.4409 12.2205 20.4409L 12.2205 28.4409C 21.1788 28.4409 28.4409 21.1788 28.4409 12.2205L 20.4409 12.2205ZM 12.2205 20.4409C 7.68042 20.4409 4 16.7605 4 12.2205L -4 12.2205C -4 21.1788 3.26215 28.4409 12.2205 28.4409L 12.2205 20.4409ZM 4 12.2205C 4 7.68042 7.68042 4 12.2205 4L 12.2205 -4C 3.26215 -4 -4 3.26215 -4 12.2205L 4 12.2205ZM 12.2205 4C 16.7605 4 20.4409 7.68042 20.4409 12.2205L 28.4409 12.2205C 28.4409 3.26215 21.1788 -4 12.2205 -4L 12.2205 4Z"/>
<path id="path8_fill" d="M 31.1042 15.5521C 31.1042 24.1413 24.1413 31.1042 15.5521 31.1042C 6.96292 31.1042 0 24.1413 0 15.5521C 0 6.96292 6.96292 0 15.5521 0C 24.1413 0 31.1042 6.96292 31.1042 15.5521Z"/>
<path id="path9_stroke_2x" d="M 27.1042 15.5521C 27.1042 21.9322 21.9322 27.1042 15.5521 27.1042L 15.5521 35.1042C 26.3504 35.1042 35.1042 26.3504 35.1042 15.5521L 27.1042 15.5521ZM 15.5521 27.1042C 9.17206 27.1042 4 21.9322 4 15.5521L -4 15.5521C -4 26.3504 4.75378 35.1042 15.5521 35.1042L 15.5521 27.1042ZM 4 15.5521C 4 9.17206 9.17206 4 15.5521 4L 15.5521 -4C 4.75378 -4 -4 4.75378 -4 15.5521L 4 15.5521ZM 15.5521 4C 21.9322 4 27.1042 9.17206 27.1042 15.5521L 35.1042 15.5521C 35.1042 4.75378 26.3504 -4 15.5521 -4L 15.5521 4Z"/>
<path id="path10_stroke" d="M 1.9144 48.66L 16.4526 0.578853L 12.6238 -0.578853L -1.9144 47.5023L 1.9144 48.66Z"/>
<path id="path11_stroke" d="M 1.2116 24.6349L 31.4757 1.59124L 29.0525 -1.59124L -1.2116 21.4525L 1.2116 24.6349Z"/>
<path id="path12_fill" d="M 19.3599 9.67993C 19.3599 15.026 15.026 19.3599 9.67993 19.3599C 4.33385 19.3599 0 15.026 0 9.67993C 0 4.33385 4.33385 0 9.67993 0C 15.026 0 19.3599 4.33385 19.3599 9.67993Z"/>
<path id="path13_stroke_2x" d="M 15.3599 9.67993C 15.3599 12.8169 12.8169 15.3599 9.67993 15.3599L 9.67993 23.3599C 17.2352 23.3599 23.3599 17.2352 23.3599 9.67993L 15.3599 9.67993ZM 9.67993 15.3599C 6.54299 15.3599 4 12.8169 4 9.67993L -4 9.67993C -4 17.2352 2.12471 23.3599 9.67993 23.3599L 9.67993 15.3599ZM 4 9.67993C 4 6.54299 6.54299 4 9.67993 4L 9.67993 -4C 2.12471 -4 -4 2.12471 -4 9.67993L 4 9.67993ZM 9.67993 4C 12.8169 4 15.3599 6.54299 15.3599 9.67993L 23.3599 9.67993C 23.3599 2.12471 17.2352 -4 9.67993 -4L 9.67993 4Z"/>
<path id="path14_stroke" d="M 1.19022 15.0625L 19.3602 1.60729L 16.9798 -1.60729L -1.19022 11.8479L 1.19022 15.0625Z"/>
<path id="path15_stroke" d="M 0.829009 16.2382L 32.484 1.82009L 30.8259 -1.82009L -0.829009 12.598L 0.829009 16.2382Z"/>
<path id="path16_stroke" d="M 1.09296 49.056L 73.7037 1.67494L 71.5177 -1.67494L -1.09296 45.7062L 1.09296 49.056Z"/>
<path id="path17_stroke" d="M 1.98067 80.5361L 13.2203 0.277377L 9.25891 -0.277377L -1.98067 79.9814L 1.98067 80.5361Z"/>
</defs>
</svg>
