<svg width="23" height="24" viewBox="0 0 23 24" version="1.1" xmlns="http://www.w3.org/2000/svg" xmlns:xlink="http://www.w3.org/1999/xlink">
<title>e969</title>
<desc>Created using Figma</desc>
<g id="Canvas" transform="translate(-14801 -17845)">
<g id="e969">
<g id="Vector">
<use xlink:href="#path0_fill" transform="translate(14801 17845.8)" fill="#E75252"/>
</g>
</g>
</g>
<defs>
<path id="path0_fill" d="M 16.5613 11.4019L 21.7207 6.24257C 22.4428 5.52044 22.8039 4.6558 22.8039 3.64862C 22.8039 2.64145 22.4428 1.78631 21.7207 1.08318C 21.0176 0.361058 20.1624 0 19.1553 0C 18.1481 0 17.2835 0.361058 16.5613 1.08318L 11.4019 6.24257L 6.24257 1.05468C 5.52044 0.351556 4.6558 0 3.64862 0C 2.64145 0 1.78631 0.351556 1.08318 1.05468C 0.361058 1.77681 0 2.64145 0 3.64862C 0 4.6558 0.361058 5.52044 1.08318 6.24257L 6.24257 11.4019L 1.08318 16.5613C 0.361058 17.2835 0 18.1481 0 19.1553C 0 20.1624 0.361058 21.0271 1.08318 21.7492C 1.78631 22.4523 2.64145 22.8039 3.64862 22.8039C 4.6558 22.8039 5.52044 22.4523 6.24257 21.7492L 11.4019 16.5613L 16.5613 21.7207C 17.2835 22.4428 18.1481 22.8039 19.1553 22.8039C 20.1624 22.8039 21.0176 22.4428 21.7207 21.7207C 22.4428 21.0176 22.8039 20.1624 22.8039 19.1553C 22.8039 18.1481 22.4428 17.2835 21.7207 16.5613L 16.5613 11.4019Z"/>
</defs>
</svg>
