<svg width="33" height="33" viewBox="0 0 33 33" version="1.1" xmlns="http://www.w3.org/2000/svg" xmlns:xlink="http://www.w3.org/1999/xlink">
<title>Earth</title>
<desc>Created using Figma</desc>
<g id="Canvas" transform="translate(-15485 -16074)">
<g id="Earth">
<g id="Vector">
<use xlink:href="#path0_fill" transform="translate(15486 16074.5)" fill="#00A9E0"/>
</g>
<g id="Vector">
<use xlink:href="#path1_fill" transform="translate(15489.6 16075)" fill="#326CB5" fill-opacity="0.6"/>
</g>
<g id="Vector">
<use xlink:href="#path2_fill" transform="translate(15499.2 16103.1)" fill="#015243"/>
</g>
<g id="Vector">
<use xlink:href="#path3_fill" transform="translate(15487.7 16074.8)" fill="#06AC4B"/>
</g>
<g id="Vector">
<use xlink:href="#path4_fill" transform="translate(15502.9 16081.5)" fill="#015243"/>
</g>
<g id="Vector">
<use xlink:href="#path5_fill" transform="translate(15504.3 16074.7)" fill="#06AC4B"/>
</g>
<g id="Vector">
<use xlink:href="#path6_fill" transform="translate(15505.8 16075)" fill="#015243"/>
</g>
</g>
</g>
<defs>
<path id="path0_fill" d="M 15.7654 31.5307C 24.4723 31.5307 31.5307 24.4723 31.5307 15.7654C 31.5307 7.05839 24.4723 0 15.7654 0C 7.05839 0 0 7.05839 0 15.7654C 0 24.4723 7.05839 31.5307 15.7654 31.5307Z"/>
<path id="path1_fill" d="M 16.1768 1.78351e-08C 18.4771 2.73042 19.861 6.265 19.861 10.1175C 19.861 18.8137 12.8105 25.8829 4.09563 25.8829C 2.67431 25.8829 1.3091 25.6958 7.13405e-08 25.3405C 2.89873 28.7816 7.23748 30.9884 12.0812 30.9884C 20.7774 30.9884 27.8465 23.9379 27.8465 15.223C 27.8465 7.92943 22.9093 1.79534 16.1768 1.78351e-08Z"/>
<path id="path2_fill" d="M 5.32445 2.64441C 5.28704 2.5883 5.24964 2.5322 5.21224 2.45739C 4.80081 1.69063 4.65119 0.886467 3.88443 0.381527C 3.02416 -0.179518 2.1826 -0.104714 1.39713 0.493734C 1.07921 0.736853 0.256343 1.18569 0.106731 1.54102C -0.024179 1.84024 -0.00547754 2.27038 0.0132239 2.68181C 0.817388 2.81272 1.65896 2.88753 2.50052 2.88753C 3.4543 2.88753 4.40807 2.79402 5.32445 2.64441Z"/>
<path id="path3_fill" d="M 3.51588 11.9877C 3.7777 12.343 3.7777 12.6048 3.96472 13.0349C 4.11433 13.3529 4.28264 13.8204 4.67537 13.9326C 4.88109 13.9887 5.14291 13.8765 5.34863 13.8952C 5.59174 13.9326 5.76006 14.1009 6.00318 14.1383C 6.71383 14.2692 7.36839 13.6334 8.02294 13.5025C 8.92061 13.3155 9.68737 13.596 10.4541 13.0349C 10.8095 12.7731 12.1934 11.2396 11.969 10.8469C 11.8567 10.6411 11.4827 10.6411 11.3705 10.3606C 11.277 10.1362 11.3144 9.91179 11.3892 9.68737C 11.5388 9.21983 11.9128 8.8458 12.2308 8.52788C 12.5861 8.15385 12.8479 7.98554 12.904 7.4806C 12.9788 6.91955 12.8666 6.43331 12.6796 5.92837C 12.5113 5.47954 12.2682 5.0868 12.2308 4.60057C 12.1934 4.13303 12.5487 3.68419 12.4178 3.27276C 12.2682 2.80522 11.6697 2.31898 11.3892 1.92625C 11.1087 1.53352 10.9217 1.10339 10.903 0.598448C 10.8843 0.430134 10.903 0.224418 10.9591 7.80682e-15C 6.17149 0.935074 2.16937 4.05822 -7.13405e-08 8.26606C 0.0748059 8.39697 0.168313 8.50918 0.261821 8.64009C 0.691955 9.21983 1.3091 9.51906 1.66443 10.1362C 1.85145 10.4541 2.00106 10.8469 2.26288 11.0339C 2.43119 11.1461 2.74912 11.1648 2.95484 11.2957C 3.16055 11.4827 3.32887 11.7445 3.51588 11.9877Z"/>
<path id="path4_fill" d="M 11.9355 -1.42681e-07C 11.8981 0.355328 11.842 0.710656 11.9355 1.02858C 12.0103 1.253 12.1412 1.2343 12.2347 1.40261C 12.3843 1.68313 12.403 1.77664 12.403 2.13197C 12.403 2.31898 12.5152 2.84263 12.3656 2.99224C 12.2721 3.10445 11.6924 3.10445 11.5053 3.17925C 10.9069 3.45978 10.5516 4.02082 10.2336 4.56316C 9.84092 5.21772 9.46688 5.70395 8.88714 6.19019C 8.49441 6.50812 8.4383 6.80734 8.23259 7.23748C 8.10168 7.518 7.98947 7.77982 7.89596 8.07904C 7.80245 8.34086 7.78375 8.49048 7.74635 8.7897C 7.69025 9.10763 7.52193 9.33204 7.50323 9.66867C 7.48453 9.96789 7.50323 10.2858 7.50323 10.6037C 7.50323 11.1648 7.50323 11.5762 7.72765 12.1186C 7.87726 12.4739 8.10168 12.8105 8.15778 13.1658C 7.50323 13.6147 6.71777 14.0822 5.96971 14.3814C 5.05334 14.7555 4.00605 14.5872 3.12708 15.036C 2.71565 15.2417 2.34162 15.5596 1.96759 15.8215C 1.50005 16.1581 1.61226 16.2329 1.48135 16.7565C 1.38784 17.1119 1.29434 17.4298 1.10732 17.6916C 0.882904 18.0095 0.172247 18.2153 0.022635 18.5893C -0.108275 18.9446 0.359262 19.2625 0.639785 19.4308C 1.08862 19.7301 1.48135 19.5618 1.98629 19.6927C 2.39772 19.8049 2.64084 19.8797 3.08968 19.861C 3.65072 19.8423 4.09956 20.0667 4.6419 20.0854C 5.25905 20.1228 5.22165 20.1789 5.70789 20.5342C 5.95101 20.7025 6.28763 20.927 6.66166 20.7025C 6.90478 20.5529 7.33492 19.8797 7.50323 19.6179C 7.76505 19.2064 7.80245 18.7763 8.3822 18.7576C 8.62532 19.1129 8.75623 19.6553 8.66272 20.0854C 8.55051 20.4968 8.30739 20.6651 8.47571 21.1888C 8.47571 21.2075 8.49441 21.2262 8.49441 21.2449C 12.2347 18.3649 14.6472 13.8391 14.6472 8.7523C 14.6098 5.53564 13.6373 2.506 11.9355 -1.42681e-07Z"/>
<path id="path5_fill" d="M 0.935074 2.4499C 0.972477 2.61821 1.10339 2.71172 1.17819 2.88003C 1.34651 3.27276 1.45872 3.7777 1.60833 4.22654C 1.87015 4.95589 2.07587 5.89097 2.93613 6.00318C 3.83381 6.13409 4.41355 5.27382 4.88109 4.61927C 4.9559 4.52576 5.0307 4.28264 5.08681 4.17043C 5.23642 3.90861 5.46084 3.62809 5.55434 3.32887C 5.68525 2.89873 5.64785 2.5434 5.72266 2.16937C 4.02082 1.08469 2.07587 0.336627 -5.70724e-07 8.91757e-09C 0.0374024 0.13091 0.0561039 0.280522 0.0935069 0.448836C 0.243119 0.953776 0.74806 1.2717 0.897672 1.77664C 0.972478 2.01976 0.87897 2.22548 0.935074 2.4499Z"/>
<path id="path6_fill" d="M 2.80522 5.0494C 3.01094 4.80628 3.21666 4.54446 3.38497 4.30134C 3.45978 4.20783 3.53458 3.96472 3.59069 3.85251C 3.7403 3.59069 3.96472 3.31016 4.05822 3.01094C 4.18913 2.59951 4.15173 2.22548 4.22654 1.87015C 4.00212 1.73924 3.7964 1.58963 3.57199 1.45872C 3.53458 1.44001 3.51588 1.42131 3.47848 1.40261C 3.17925 1.2343 2.86133 1.08469 2.5434 0.935074C 2.4686 0.897671 2.41249 0.860268 2.33769 0.841567C 2.00106 0.691955 1.66443 0.561045 1.32781 0.430134C 1.253 0.392731 1.15949 0.37403 1.08469 0.336627C 0.729358 0.205716 0.37403 0.0935074 0.0187018 -8.91756e-09L 5.70724e-07 -8.91756e-09C 1.2156 1.49612 2.16937 3.19795 2.80522 5.0494Z"/>
</defs>
</svg>
