<svg width="1440" height="200" viewBox="0 0 1440 200" version="1.1" xmlns="http://www.w3.org/2000/svg" xmlns:xlink="http://www.w3.org/1999/xlink">
<title>Mars</title>
<desc>Created using Figma</desc>
<g id="Canvas" transform="translate(-14353 -16222)">
<g id="Mars">
<g id="Crater">
<use xlink:href="#path0_fill" transform="translate(14352.9 16222.3)" fill="#E75252"/>
</g>
<g id="Crater">
<g id="Crater">
<use xlink:href="#path1_fill" transform="translate(14941 16345.7)" fill="#BD3836"/>
</g>
<g id="Crater">
<use xlink:href="#path2_fill" transform="translate(14973.2 16352.5)" fill="#AC3434"/>
</g>
</g>
<g id="Crater">
<g id="Crater">
<use xlink:href="#path3_fill" transform="translate(15269 16343.5)" fill="#BD3836"/>
</g>
<g id="Crater">
<use xlink:href="#path4_fill" transform="translate(15289.5 16347.9)" fill="#AC3434"/>
</g>
</g>
<g id="Crater">
<g id="Crater">
<use xlink:href="#path5_fill" transform="translate(15587.3 16330.8)" fill="#BD3836"/>
</g>
<g id="Crater">
<use xlink:href="#path6_fill" transform="translate(15640.3 16342.1)" fill="#AC3434"/>
</g>
</g>
<g id="Crater">
<g id="Crater">
<use xlink:href="#path7_fill" transform="translate(14736.6 16299.7)" fill="#BD3836"/>
</g>
<g id="Crater">
<use xlink:href="#path8_fill" transform="translate(14755 16303.5)" fill="#AC3434"/>
</g>
</g>
<g id="Crater">
<g id="Crater">
<use xlink:href="#path9_fill" transform="translate(15068 16278.9)" fill="#BD3836"/>
</g>
<g id="Crater">
<use xlink:href="#path10_fill" transform="translate(15085.3 16282.6)" fill="#AC3434"/>
</g>
</g>
<g id="Crater">
<g id="Crater">
<use xlink:href="#path11_fill" transform="translate(15260.5 16253.1)" fill="#BD3836"/>
</g>
<g id="Crater">
<use xlink:href="#path12_fill" transform="translate(15271.5 16255.5)" fill="#AC3434"/>
</g>
</g>
<g id="Crater">
<g id="Crater">
<use xlink:href="#path13_fill" transform="translate(14879.3 16255.8)" fill="#BD3836"/>
</g>
<g id="Crater">
<use xlink:href="#path14_fill" transform="translate(14886.4 16257.4)" fill="#AC3434"/>
</g>
</g>
<g id="Crater">
<g id="Crater">
<use xlink:href="#path15_fill" transform="translate(15423.2 16273)" fill="#BD3836"/>
</g>
<g id="Crater">
<use xlink:href="#path16_fill" transform="translate(15450.6 16278.9)" fill="#AC3434"/>
</g>
</g>
<g id="Crater">
<g id="Crater">
<use xlink:href="#path17_fill" transform="translate(14533 16270.4)" fill="#BD3836"/>
</g>
<g id="Crater">
<use xlink:href="#path18_fill" transform="translate(14552.6 16274.5)" fill="#AC3434"/>
</g>
</g>
<g id="Crater">
<g id="Crater">
<use xlink:href="#path19_fill" transform="translate(14342.7 16330.8)" fill="#BD3836"/>
</g>
<g id="Crater">
<use xlink:href="#path20_fill" transform="translate(14389 16340.8)" fill="#AC3434"/>
</g>
</g>
</g>
</g>
<defs>
<path id="path0_fill" d="M 1440.38 38.1283C 960.55 -12.7094 480.492 -12.7094 0 38.1283L 0 210.633L 1440.38 210.633L 1440.38 38.1283Z"/>
<path id="path1_fill" d="M 56.1516 45.1722C 87.1633 45.1722 112.303 35.0601 112.303 22.5861C 112.303 10.1121 87.1633 0 56.1516 0C 25.1399 0 0 10.1121 0 22.5861C 0 35.0601 25.1399 45.1722 56.1516 45.1722Z"/>
<path id="path2_fill" d="M 64.245 -3.8293e-06C 69.9542 3.70161 73.2167 8.03062 73.2167 12.6733C 73.2167 25.974 46.427 36.7652 13.3634 36.7652C 8.78347 36.7652 4.329 36.577 -7.6586e-06 36.1378C 7.27774 37.5181 15.3711 38.2709 23.9664 38.2709C 54.9596 38.2709 80.118 28.1699 80.118 15.6848C 80.118 9.5991 74.095 4.07805 64.245 -3.8293e-06Z"/>
<path id="path3_fill" d="M 35.6986 28.7346C 55.4144 28.7346 71.3972 22.3021 71.3972 14.3673C 71.3972 6.43245 55.4144 7.6586e-06 35.6986 7.6586e-06C 15.9828 7.6586e-06 7.6586e-06 6.43245 7.6586e-06 14.3673C 7.6586e-06 22.3021 15.9828 28.7346 35.6986 28.7346Z"/>
<path id="path4_fill" d="M 40.8432 7.6586e-06C 44.4821 2.32136 46.5525 5.08188 46.5525 8.03062C 46.5525 16.5004 29.4874 23.339 8.46981 23.339C 5.58381 23.339 2.6978 23.2135 1.53172e-05 22.9625C 4.64272 23.8409 9.78732 24.3428 15.2456 24.3428C 34.9457 24.3428 50.9442 17.9434 50.9442 9.97554C 50.8815 6.08571 47.0544 2.57232 40.8432 7.6586e-06Z"/>
<path id="path5_fill" d="M 92.4079 74.3246C 143.443 74.3246 184.816 57.6864 184.816 37.1623C 184.816 16.6381 143.443 5.06296e-06 92.4079 5.06296e-06C 41.3724 5.06296e-06 -4.05037e-05 16.6381 -4.05037e-05 37.1623C -4.05037e-05 57.6864 41.3724 74.3246 92.4079 74.3246Z"/>
<path id="path6_fill" d="M 105.68 -2.53148e-06C 115.054 6.05546 120.446 13.1893 120.446 20.8208C 120.446 42.72 76.3154 60.4716 21.9821 60.4716C 14.4335 60.4716 7.13381 60.1398 -2.02518e-05 59.4762C 11.945 61.7159 25.3002 63.0431 39.4019 63.0431C 90.4171 63.0431 131.81 46.3699 131.81 25.8809C 131.81 15.7608 121.856 6.63612 105.68 -2.53148e-06Z"/>
<path id="path7_fill" d="M 31.9329 25.6277C 49.569 25.6277 63.8658 19.8907 63.8658 12.8139C 63.8658 5.73696 49.569 -3.10355e-06 31.9329 -3.10355e-06C 14.2969 -3.10355e-06 6.2071e-06 5.73696 6.2071e-06 12.8139C 6.2071e-06 19.8907 14.2969 25.6277 31.9329 25.6277Z"/>
<path id="path8_fill" d="M 36.5093 0C 39.7636 2.08479 41.5942 4.57637 41.5942 7.2205C 41.5942 14.7969 26.3396 20.8988 7.57645 20.8988C 4.98317 20.8988 2.44073 20.7971 -6.2071e-06 20.5428C 4.11873 21.3056 8.74596 21.7632 13.6274 21.7632C 31.2719 21.7632 45.5603 16.0173 45.5603 8.94936C 45.5095 5.49165 42.1026 2.33904 36.5093 0Z"/>
<path id="path9_fill" d="M 30.4285 24.4683C 47.2337 24.4683 60.857 18.9909 60.857 12.2341C 60.857 5.47742 47.2337 1.91465e-06 30.4285 1.91465e-06C 13.6233 1.91465e-06 0 5.47742 0 12.2341C 0 18.9909 13.6233 24.4683 30.4285 24.4683Z"/>
<path id="path10_fill" d="M 34.8203 -1.91465e-06C 37.8945 2.00765 39.6512 4.32901 39.6512 6.83858C 39.6512 14.0536 25.1584 19.8883 7.21502 19.8883C 4.70545 19.8883 2.32136 19.7628 7.6586e-06 19.5746C 3.95258 20.3275 8.34433 20.7667 12.987 20.7667C 29.8011 20.7667 43.4156 15.3084 43.4156 8.53253C 43.4156 5.20736 40.1531 2.25861 34.8203 -1.91465e-06Z"/>
<path id="path11_fill" d="M 19.2609 15.5593C 29.8984 15.5593 38.5219 12.0763 38.5219 7.77966C 38.5219 3.48307 29.8984 0 19.2609 0C 8.6234 0 1.53172e-05 3.48307 1.53172e-05 7.77966C 1.53172e-05 12.0763 8.6234 15.5593 19.2609 15.5593Z"/>
<path id="path12_fill" d="M 22.0842 0C 24.0291 1.25478 25.1584 2.76053 25.1584 4.32901C 25.1584 8.90897 15.9358 12.6106 4.57996 12.6106C 3.01147 12.6106 1.443 12.5478 -7.13262e-14 12.4224C 2.50957 12.9243 5.27008 13.1752 8.21882 13.1752C 18.8845 13.1752 27.4798 9.72458 27.4798 5.39557C 27.5425 3.32518 25.4094 1.443 22.0842 0Z"/>
<path id="path13_fill" d="M 12.5113 10.1068C 19.4211 10.1068 25.0226 7.84435 25.0226 5.05342C 25.0226 2.26249 19.4211 0 12.5113 0C 5.60149 0 9.94956e-06 2.26249 9.94956e-06 5.05342C 9.94956e-06 7.84435 5.60149 10.1068 12.5113 10.1068Z"/>
<path id="path14_fill" d="M 14.3452 0C 15.6086 0.815068 16.3421 1.79315 16.3421 2.81199C 16.3421 5.78698 10.3514 8.19143 2.97499 8.19143C 1.95616 8.19143 0.937328 8.15068 -4.63313e-14 8.06917C 1.63014 8.3952 3.42328 8.55821 5.33869 8.55821C 12.2668 8.55821 17.85 6.31678 17.85 3.50479C 17.8907 2.15993 16.5051 0.937328 14.3452 0Z"/>
<path id="path15_fill" d="M 48.0503 38.6384C 74.5877 38.6384 96.1006 29.9889 96.1006 19.3192C 96.1006 8.64949 74.5877 0 48.0503 0C 21.5128 0 0 8.64949 0 19.3192C 0 29.9889 21.5128 38.6384 48.0503 38.6384Z"/>
<path id="path16_fill" d="M 54.9853 7.55865e-07C 59.8399 3.17033 62.614 6.83602 62.614 10.7989C 62.614 22.1923 39.7281 31.4061 11.3933 31.4061C 7.43041 31.4061 3.66564 31.2079 -4.83754e-05 30.9107C 6.24154 32.0996 13.1767 32.7931 20.5081 32.7931C 47.0596 32.7931 68.5584 24.1738 68.5584 13.4739C 68.5584 8.22304 63.4065 3.46755 54.9853 7.55865e-07Z"/>
<path id="path17_fill" d="M 34.1301 27.4798C 52.9797 27.4798 68.2603 21.3282 68.2603 13.7399C 68.2603 6.15156 52.9797 0 34.1301 0C 15.2806 0 0 6.15156 0 13.7399C 0 21.3282 15.2806 27.4798 34.1301 27.4798Z"/>
<path id="path18_fill" d="M 39.0238 -1.91465e-06C 42.4744 2.25861 44.4821 4.89366 44.4821 7.71692C 44.4821 15.8103 28.1699 22.3352 8.09336 22.3352C 5.33283 22.3352 2.57231 22.2097 1.91465e-06 21.9587C 4.39175 22.7743 9.34814 23.2762 14.5555 23.2762C 33.44 23.2762 48.6856 17.1278 48.6856 9.53636C 48.6856 5.83474 44.984 2.50957 39.0238 -1.91465e-06Z"/>
<path id="path19_fill" d="M 80.7164 64.9478C 125.295 64.9478 161.433 50.4088 161.433 32.4739C 161.433 14.5391 125.295 4.76455e-06 80.7164 4.76455e-06C 36.138 4.76455e-06 0 14.5391 0 32.4739C 0 50.4088 36.138 64.9478 80.7164 64.9478Z"/>
<path id="path20_fill" d="M 92.3477 -9.52909e-06C 100.544 5.30823 105.228 11.5532 105.228 18.1885C 105.228 37.3138 66.7433 52.7701 19.2033 52.7701C 12.6461 52.7701 6.16692 52.4579 -2.38227e-06 51.9114C 10.4603 53.863 22.0916 55.0339 34.4255 55.0339C 78.9991 55.0339 115.142 40.5144 115.142 22.56C 115.142 13.817 106.399 5.85466 92.3477 -9.52909e-06Z"/>
</defs>
</svg>
