<svg width="1440" height="769" viewBox="0 0 1440 769" version="1.1" xmlns="http://www.w3.org/2000/svg" xmlns:xlink="http://www.w3.org/1999/xlink">
<title>stars</title>
<desc>Created using Figma</desc>
<g id="Canvas" transform="translate(-14353 -15653)">
<g id="stars">
<g id="Fill 5">
<use xlink:href="#path0_fill" transform="translate(14544.2 16260.3)" fill="#FFFFFF" fill-opacity="0.05"/>
</g>
<g id="Fill 7">
<use xlink:href="#path0_fill" transform="translate(14544.2 16260.3)" fill="#FFFFFF" fill-opacity="0.05"/>
</g>
<g id="Fill 9">
<use xlink:href="#path1_fill" transform="translate(14570.8 16196.6)" fill="#FFFFFF" fill-opacity="0.05"/>
</g>
<g id="Fill 11">
<use xlink:href="#path1_fill" transform="translate(14570.8 16196.6)" fill="#FFFFFF" fill-opacity="0.05"/>
</g>
<g id="Fill 13">
<use xlink:href="#path2_fill" transform="translate(14443.5 16359.7)" fill="#FFFFFF" fill-opacity="0.05"/>
</g>
<g id="Fill 15">
<use xlink:href="#path3_fill" transform="translate(14420.3 16341.2)" fill="#FFFFFF" fill-opacity="0.05"/>
</g>
<g id="Fill 17">
<use xlink:href="#path2_fill" transform="translate(14443.5 16359.7)" fill="#FFFFFF" fill-opacity="0.05"/>
</g>
<g id="Fill 19">
<use xlink:href="#path3_fill" transform="translate(14420.3 16341.2)" fill="#FFFFFF" fill-opacity="0.05"/>
</g>
<g id="Fill 21">
<use xlink:href="#path4_fill" transform="translate(14378.9 16415.8)" fill="#FFFFFF" fill-opacity="0.05"/>
</g>
<g id="Fill 25">
<use xlink:href="#path4_fill" transform="translate(14378.9 16415.8)" fill="#FFFFFF" fill-opacity="0.05"/>
</g>
<g id="Fill 29">
<use xlink:href="#path5_fill" transform="translate(14408.1 16234.2)" fill="#FFFFFF" fill-opacity="0.05"/>
</g>
<g id="Fill 31">
<use xlink:href="#path6_fill" transform="translate(14363 16231.7)" fill="#FFFFFF" fill-opacity="0.05"/>
</g>
<g id="Fill 33">
<use xlink:href="#path7_fill" transform="translate(14386.2 16250.2)" fill="#FFFFFF" fill-opacity="0.05"/>
</g>
<g id="Fill 35">
<use xlink:href="#path5_fill" transform="translate(14408.1 16234.2)" fill="#FFFFFF" fill-opacity="0.05"/>
</g>
<g id="Fill 37">
<use xlink:href="#path6_fill" transform="translate(14363 16231.7)" fill="#FFFFFF" fill-opacity="0.05"/>
</g>
<g id="Fill 39">
<use xlink:href="#path7_fill" transform="translate(14386.2 16250.2)" fill="#FFFFFF" fill-opacity="0.05"/>
</g>
<g id="Fill 41">
<use xlink:href="#path8_fill" transform="translate(14673.7 16176.8)" fill="#FFFFFF" fill-opacity="0.05"/>
</g>
<g id="Fill 43">
<use xlink:href="#path8_fill" transform="translate(14673.7 16176.8)" fill="#FFFFFF" fill-opacity="0.05"/>
</g>
<g id="Fill 45">
<use xlink:href="#path9_fill" transform="translate(14349.8 16350.5)" fill="#FFFFFF" fill-opacity="0.05"/>
</g>
<g id="Fill 49">
<use xlink:href="#path9_fill" transform="translate(14349.8 16350.5)" fill="#FFFFFF" fill-opacity="0.05"/>
</g>
<g id="Fill 53">
<use xlink:href="#path10_fill" transform="translate(14486.3 16240.4)" fill="#FFFFFF" fill-opacity="0.05"/>
</g>
<g id="Fill 55">
<use xlink:href="#path4_fill" transform="translate(14461.6 16287.1)" fill="#FFFFFF" fill-opacity="0.05"/>
</g>
<g id="Fill 57">
<use xlink:href="#path10_fill" transform="translate(14486.3 16240.4)" fill="#FFFFFF" fill-opacity="0.05"/>
</g>
<g id="Fill 59">
<use xlink:href="#path4_fill" transform="translate(14461.6 16287.1)" fill="#FFFFFF" fill-opacity="0.05"/>
</g>
<g id="Fill 109">
<use xlink:href="#path11_fill" transform="translate(14415.1 15999.4)" fill="#FFFFFF" fill-opacity="0.05"/>
</g>
<g id="Fill 111">
<use xlink:href="#path12_fill" transform="translate(14375.2 16128.6)" fill="#FFFFFF" fill-opacity="0.05"/>
</g>
<g id="Fill 113">
<use xlink:href="#path13_fill" transform="translate(14448.1 16077.2)" fill="#FFFFFF" fill-opacity="0.05"/>
</g>
<g id="Fill 117">
<use xlink:href="#path14_fill" transform="translate(14360.1 16015.4)" fill="#FFFFFF" fill-opacity="0.05"/>
</g>
<g id="Fill 119">
<use xlink:href="#path15_fill" transform="translate(14451.4 16106.8)" fill="#FFFFFF" fill-opacity="0.05"/>
</g>
<g id="Fill 121">
<use xlink:href="#path16_fill" transform="translate(14478.5 16174.7)" fill="#FFFFFF" fill-opacity="0.05"/>
</g>
<g id="Fill 125">
<use xlink:href="#path17_fill" transform="translate(14385.2 15957.6)" fill="#FFFFFF" fill-opacity="0.05"/>
</g>
<g id="Fill 127">
<use xlink:href="#path15_fill" transform="translate(14477.7 16038.4)" fill="#FFFFFF" fill-opacity="0.05"/>
</g>
<g id="Fill 129">
<use xlink:href="#path18_fill" transform="translate(14457.9 16048.8)" fill="#FFFFFF" fill-opacity="0.05"/>
</g>
<g id="Fill 131">
<use xlink:href="#path19_fill" transform="translate(14529 16159.1)" fill="#FFFFFF" fill-opacity="0.05"/>
</g>
<g id="Fill 133">
<use xlink:href="#path20_fill" transform="translate(14406.4 16174.1)" fill="#FFFFFF" fill-opacity="0.05"/>
</g>
<g id="Fill 135">
<use xlink:href="#path21_fill" transform="translate(14356.7 15985.9)" fill="#FFFFFF" fill-opacity="0.05"/>
</g>
<g id="Fill 137">
<use xlink:href="#path11_fill" transform="translate(14415.1 15999.4)" fill="#FFFFFF" fill-opacity="0.05"/>
</g>
<g id="Fill 139">
<use xlink:href="#path12_fill" transform="translate(14375.2 16128.6)" fill="#FFFFFF" fill-opacity="0.05"/>
</g>
<g id="Fill 141">
<use xlink:href="#path13_fill" transform="translate(14448.1 16077.2)" fill="#FFFFFF" fill-opacity="0.05"/>
</g>
<g id="Fill 145">
<use xlink:href="#path14_fill" transform="translate(14360.1 16015.4)" fill="#FFFFFF" fill-opacity="0.05"/>
</g>
<g id="Fill 147">
<use xlink:href="#path15_fill" transform="translate(14451.4 16106.8)" fill="#FFFFFF" fill-opacity="0.05"/>
</g>
<g id="Fill 149">
<use xlink:href="#path16_fill" transform="translate(14478.5 16174.7)" fill="#FFFFFF" fill-opacity="0.05"/>
</g>
<g id="Fill 153">
<use xlink:href="#path17_fill" transform="translate(14385.2 15957.6)" fill="#FFFFFF" fill-opacity="0.05"/>
</g>
<g id="Fill 155">
<use xlink:href="#path15_fill" transform="translate(14477.7 16038.4)" fill="#FFFFFF" fill-opacity="0.05"/>
</g>
<g id="Fill 157">
<use xlink:href="#path18_fill" transform="translate(14457.9 16048.8)" fill="#FFFFFF" fill-opacity="0.05"/>
</g>
<g id="Fill 159">
<use xlink:href="#path19_fill" transform="translate(14529 16159.1)" fill="#FFFFFF" fill-opacity="0.05"/>
</g>
<g id="Fill 161">
<use xlink:href="#path20_fill" transform="translate(14406.4 16174.1)" fill="#FFFFFF" fill-opacity="0.05"/>
</g>
<g id="Fill 163">
<use xlink:href="#path21_fill" transform="translate(14356.7 15985.9)" fill="#FFFFFF" fill-opacity="0.05"/>
</g>
<g id="Fill 165">
<use xlink:href="#path22_fill" transform="translate(14587.1 16014.7)" fill="#FFFFFF" fill-opacity="0.05"/>
</g>
<g id="Fill 167">
<use xlink:href="#path23_fill" transform="translate(14594 16043.6)" fill="#FFFFFF" fill-opacity="0.05"/>
</g>
<g id="Fill 169">
<use xlink:href="#path22_fill" transform="translate(14587.1 16014.7)" fill="#FFFFFF" fill-opacity="0.05"/>
</g>
<g id="Fill 171">
<use xlink:href="#path23_fill" transform="translate(14594 16043.6)" fill="#FFFFFF" fill-opacity="0.05"/>
</g>
<g id="Fill 173">
<use xlink:href="#path24_fill" transform="translate(14655.3 16079.5)" fill="#FFFFFF" fill-opacity="0.05"/>
</g>
<g id="Fill 175">
<use xlink:href="#path23_fill" transform="translate(14662.3 16108.4)" fill="#FFFFFF" fill-opacity="0.05"/>
</g>
<g id="Fill 177">
<use xlink:href="#path24_fill" transform="translate(14655.3 16079.5)" fill="#FFFFFF" fill-opacity="0.05"/>
</g>
<g id="Fill 179">
<use xlink:href="#path23_fill" transform="translate(14662.3 16108.4)" fill="#FFFFFF" fill-opacity="0.05"/>
</g>
<g id="Fill 181">
<use xlink:href="#path25_fill" transform="translate(14812.4 16264.6)" fill="#FFFFFF" fill-opacity="0.05"/>
</g>
<g id="Fill 183">
<use xlink:href="#path25_fill" transform="translate(14812.4 16264.6)" fill="#FFFFFF" fill-opacity="0.05"/>
</g>
<g id="Fill 185">
<use xlink:href="#path26_fill" transform="translate(14894.7 16070.5)" fill="#FFFFFF" fill-opacity="0.05"/>
</g>
<g id="Fill 187">
<use xlink:href="#path27_fill" transform="translate(14965.5 16053.3)" fill="#FFFFFF" fill-opacity="0.05"/>
</g>
<g id="Fill 189">
<use xlink:href="#path26_fill" transform="translate(14894.7 16070.5)" fill="#FFFFFF" fill-opacity="0.05"/>
</g>
<g id="Fill 191">
<use xlink:href="#path27_fill" transform="translate(14965.5 16053.3)" fill="#FFFFFF" fill-opacity="0.05"/>
</g>
<g id="Fill 193">
<use xlink:href="#path28_fill" transform="translate(14879.4 16167.2)" fill="#FFFFFF" fill-opacity="0.05"/>
</g>
<g id="Fill 195">
<use xlink:href="#path28_fill" transform="translate(14879.4 16167.2)" fill="#FFFFFF" fill-opacity="0.05"/>
</g>
<g id="Fill 197">
<use xlink:href="#path29_fill" transform="translate(14683.1 16051.4)" fill="#FFFFFF" fill-opacity="0.05"/>
</g>
<g id="Fill 199">
<use xlink:href="#path30_fill" transform="translate(14754.7 16087.9)" fill="#FFFFFF" fill-opacity="0.05"/>
</g>
<g id="Fill 201">
<use xlink:href="#path29_fill" transform="translate(14683.1 16051.4)" fill="#FFFFFF" fill-opacity="0.05"/>
</g>
<g id="Fill 203">
<use xlink:href="#path30_fill" transform="translate(14754.7 16087.9)" fill="#FFFFFF" fill-opacity="0.05"/>
</g>
<g id="Fill 205">
<use xlink:href="#path31_fill" transform="translate(15083.3 15960.2)" fill="#FFFFFF" fill-opacity="0.05"/>
</g>
<g id="Fill 207">
<use xlink:href="#path31_fill" transform="translate(15083.3 15960.2)" fill="#FFFFFF" fill-opacity="0.05"/>
</g>
<g id="Fill 209">
<use xlink:href="#path32_fill" transform="translate(15246.8 16334.2)" fill="#FFFFFF" fill-opacity="0.05"/>
</g>
<g id="Fill 211">
<use xlink:href="#path32_fill" transform="translate(15246.8 16334.2)" fill="#FFFFFF" fill-opacity="0.05"/>
</g>
<g id="Fill 213">
<use xlink:href="#path33_fill" transform="translate(15198.1 16383)" fill="#FFFFFF" fill-opacity="0.05"/>
</g>
<g id="Fill 215">
<use xlink:href="#path33_fill" transform="translate(15198.1 16383)" fill="#FFFFFF" fill-opacity="0.05"/>
</g>
<g id="Fill 217">
<use xlink:href="#path34_fill" transform="translate(15382.9 16288.2)" fill="#FFFFFF" fill-opacity="0.05"/>
</g>
<g id="Fill 219">
<use xlink:href="#path35_fill" transform="translate(15397.3 16314.2)" fill="#FFFFFF" fill-opacity="0.05"/>
</g>
<g id="Fill 221">
<use xlink:href="#path34_fill" transform="translate(15382.9 16288.2)" fill="#FFFFFF" fill-opacity="0.05"/>
</g>
<g id="Fill 223">
<use xlink:href="#path35_fill" transform="translate(15397.3 16314.2)" fill="#FFFFFF" fill-opacity="0.05"/>
</g>
<g id="Fill 225">
<use xlink:href="#path36_fill" transform="translate(15463.9 16260.9)" fill="#FFFFFF" fill-opacity="0.05"/>
</g>
<g id="Fill 227">
<use xlink:href="#path37_fill" transform="translate(15479 16173.5)" fill="#FFFFFF" fill-opacity="0.05"/>
</g>
<g id="Fill 229">
<use xlink:href="#path36_fill" transform="translate(15463.9 16260.9)" fill="#FFFFFF" fill-opacity="0.05"/>
</g>
<g id="Fill 231">
<use xlink:href="#path37_fill" transform="translate(15479 16173.5)" fill="#FFFFFF" fill-opacity="0.05"/>
</g>
<g id="Fill 233">
<use xlink:href="#path38_fill" transform="translate(15368 16417.8)" fill="#FFFFFF" fill-opacity="0.05"/>
</g>
<g id="Fill 237">
<use xlink:href="#path39_fill" transform="translate(15394.2 16411.3)" fill="#FFFFFF" fill-opacity="0.05"/>
</g>
<g id="Fill 239">
<use xlink:href="#path38_fill" transform="translate(15368 16417.8)" fill="#FFFFFF" fill-opacity="0.05"/>
</g>
<g id="Fill 243">
<use xlink:href="#path39_fill" transform="translate(15394.2 16411.3)" fill="#FFFFFF" fill-opacity="0.05"/>
</g>
<g id="Fill 245">
<use xlink:href="#path40_fill" transform="translate(15100.5 16370)" fill="#FFFFFF" fill-opacity="0.05"/>
</g>
<g id="Fill 247">
<use xlink:href="#path40_fill" transform="translate(15100.5 16370)" fill="#FFFFFF" fill-opacity="0.05"/>
</g>
<g id="Fill 249">
<use xlink:href="#path34_fill" transform="translate(15466 16332.4)" fill="#FFFFFF" fill-opacity="0.05"/>
</g>
<g id="Fill 251">
<use xlink:href="#path41_fill" transform="translate(15480.4 16358.3)" fill="#FFFFFF" fill-opacity="0.05"/>
</g>
<g id="Fill 253">
<use xlink:href="#path34_fill" transform="translate(15466 16332.4)" fill="#FFFFFF" fill-opacity="0.05"/>
</g>
<g id="Fill 255">
<use xlink:href="#path41_fill" transform="translate(15480.4 16358.3)" fill="#FFFFFF" fill-opacity="0.05"/>
</g>
<g id="Fill 257">
<use xlink:href="#path42_fill" transform="translate(15298 16382.4)" fill="#FFFFFF" fill-opacity="0.05"/>
</g>
<g id="Fill 259">
<use xlink:href="#path43_fill" transform="translate(15338.5 16348.5)" fill="#FFFFFF" fill-opacity="0.05"/>
</g>
<g id="Fill 261">
<use xlink:href="#path42_fill" transform="translate(15298 16382.4)" fill="#FFFFFF" fill-opacity="0.05"/>
</g>
<g id="Fill 263">
<use xlink:href="#path43_fill" transform="translate(15338.5 16348.5)" fill="#FFFFFF" fill-opacity="0.05"/>
</g>
<g id="Fill 265">
<use xlink:href="#path44_fill" transform="translate(15689.1 16217.5)" fill="#FFFFFF" fill-opacity="0.05"/>
</g>
<g id="Fill 267">
<use xlink:href="#path45_fill" transform="translate(15665.2 16235.1)" fill="#FFFFFF" fill-opacity="0.05"/>
</g>
<g id="Fill 269">
<use xlink:href="#path44_fill" transform="translate(15689.1 16217.5)" fill="#FFFFFF" fill-opacity="0.05"/>
</g>
<g id="Fill 271">
<use xlink:href="#path45_fill" transform="translate(15665.2 16235.1)" fill="#FFFFFF" fill-opacity="0.05"/>
</g>
<g id="Fill 273">
<use xlink:href="#path46_fill" transform="translate(15558.8 16218.7)" fill="#FFFFFF" fill-opacity="0.05"/>
</g>
<g id="Fill 275">
<use xlink:href="#path47_fill" transform="translate(15544.5 16261.6)" fill="#FFFFFF" fill-opacity="0.05"/>
</g>
<g id="Fill 277">
<use xlink:href="#path48_fill" transform="translate(15568.5 16244)" fill="#FFFFFF" fill-opacity="0.05"/>
</g>
<g id="Fill 279">
<use xlink:href="#path46_fill" transform="translate(15558.8 16218.7)" fill="#FFFFFF" fill-opacity="0.05"/>
</g>
<g id="Fill 281">
<use xlink:href="#path47_fill" transform="translate(15544.5 16261.6)" fill="#FFFFFF" fill-opacity="0.05"/>
</g>
<g id="Fill 283">
<use xlink:href="#path48_fill" transform="translate(15568.5 16244)" fill="#FFFFFF" fill-opacity="0.05"/>
</g>
<g id="Fill 285">
<use xlink:href="#path49_fill" transform="translate(15655.6 16305.5)" fill="#FFFFFF" fill-opacity="0.05"/>
</g>
<g id="Fill 287">
<use xlink:href="#path50_fill" transform="translate(15631.7 16323)" fill="#FFFFFF" fill-opacity="0.05"/>
</g>
<g id="Fill 289">
<use xlink:href="#path49_fill" transform="translate(15655.6 16305.5)" fill="#FFFFFF" fill-opacity="0.05"/>
</g>
<g id="Fill 291">
<use xlink:href="#path50_fill" transform="translate(15631.7 16323)" fill="#FFFFFF" fill-opacity="0.05"/>
</g>
<g id="Fill 293">
<use xlink:href="#path51_fill" transform="translate(15585.3 16144.9)" fill="#FFFFFF" fill-opacity="0.05"/>
</g>
<g id="Fill 295">
<use xlink:href="#path52_fill" transform="translate(15623.9 16181)" fill="#FFFFFF" fill-opacity="0.05"/>
</g>
<g id="Fill 297">
<use xlink:href="#path51_fill" transform="translate(15585.3 16144.9)" fill="#FFFFFF" fill-opacity="0.05"/>
</g>
<g id="Fill 299">
<use xlink:href="#path52_fill" transform="translate(15623.9 16181)" fill="#FFFFFF" fill-opacity="0.05"/>
</g>
<g id="Fill 303">
<use xlink:href="#path53_fill" transform="translate(15456 16404.5)" fill="#FFFFFF" fill-opacity="0.05"/>
</g>
<g id="Fill 307">
<use xlink:href="#path53_fill" transform="translate(15456 16404.5)" fill="#FFFFFF" fill-opacity="0.05"/>
</g>
<g id="Fill 385">
<use xlink:href="#path54_fill" transform="translate(14985 16206.1)" fill="#FFFFFF" fill-opacity="0.05"/>
</g>
<g id="Fill 387">
<use xlink:href="#path54_fill" transform="translate(14985 16206.1)" fill="#FFFFFF" fill-opacity="0.05"/>
</g>
<g id="Fill 389">
<use xlink:href="#path55_fill" transform="translate(14855.6 16384.4)" fill="#FFFFFF" fill-opacity="0.05"/>
</g>
<g id="Fill 391">
<use xlink:href="#path56_fill" transform="translate(14768.2 16350)" fill="#FFFFFF" fill-opacity="0.05"/>
</g>
<g id="Fill 393">
<use xlink:href="#path55_fill" transform="translate(14855.6 16384.4)" fill="#FFFFFF" fill-opacity="0.05"/>
</g>
<g id="Fill 395">
<use xlink:href="#path56_fill" transform="translate(14768.2 16350)" fill="#FFFFFF" fill-opacity="0.05"/>
</g>
<g id="Fill 397">
<use xlink:href="#path57_fill" transform="translate(14891.1 16277.3)" fill="#FFFFFF" fill-opacity="0.05"/>
</g>
<g id="Fill 399">
<use xlink:href="#path57_fill" transform="translate(14891.1 16277.3)" fill="#FFFFFF" fill-opacity="0.05"/>
</g>
<g id="Fill 403">
<use xlink:href="#path58_fill" transform="translate(14983.7 16409.8)" fill="#FFFFFF" fill-opacity="0.05"/>
</g>
<g id="Fill 407">
<use xlink:href="#path58_fill" transform="translate(14983.7 16409.8)" fill="#FFFFFF" fill-opacity="0.05"/>
</g>
<g id="Fill 409">
<use xlink:href="#path59_fill" transform="translate(14812.4 16178.7)" fill="#FFFFFF" fill-opacity="0.05"/>
</g>
<g id="Fill 411">
<use xlink:href="#path60_fill" transform="translate(14771.4 16187)" fill="#FFFFFF" fill-opacity="0.05"/>
</g>
<g id="Fill 413">
<use xlink:href="#path61_fill" transform="translate(14790.5 16196.1)" fill="#FFFFFF" fill-opacity="0.05"/>
</g>
<g id="Fill 415">
<use xlink:href="#path62_fill" transform="translate(14791 16166.5)" fill="#FFFFFF" fill-opacity="0.05"/>
</g>
<g id="Fill 417">
<use xlink:href="#path63_fill" transform="translate(14802.1 16144.2)" fill="#FFFFFF" fill-opacity="0.05"/>
</g>
<g id="Fill 419">
<use xlink:href="#path64_fill" transform="translate(14783.7 16183.9)" fill="#FFFFFF" fill-opacity="0.05"/>
</g>
<g id="Fill 421">
<use xlink:href="#path59_fill" transform="translate(14812.4 16178.7)" fill="#FFFFFF" fill-opacity="0.05"/>
</g>
<g id="Fill 423">
<use xlink:href="#path60_fill" transform="translate(14771.4 16187)" fill="#FFFFFF" fill-opacity="0.05"/>
</g>
<g id="Fill 425">
<use xlink:href="#path61_fill" transform="translate(14790.5 16196.1)" fill="#FFFFFF" fill-opacity="0.05"/>
</g>
<g id="Fill 427">
<use xlink:href="#path62_fill" transform="translate(14791 16166.5)" fill="#FFFFFF" fill-opacity="0.05"/>
</g>
<g id="Fill 429">
<use xlink:href="#path63_fill" transform="translate(14802.1 16144.2)" fill="#FFFFFF" fill-opacity="0.05"/>
</g>
<g id="Fill 431">
<use xlink:href="#path64_fill" transform="translate(14783.7 16183.9)" fill="#FFFFFF" fill-opacity="0.05"/>
</g>
<g id="Fill 433">
<use xlink:href="#path65_fill" transform="translate(14509.7 16379.6)" fill="#FFFFFF" fill-opacity="0.05"/>
</g>
<g id="Fill 435">
<use xlink:href="#path65_fill" transform="translate(14509.7 16379.6)" fill="#FFFFFF" fill-opacity="0.05"/>
</g>
<g id="Fill 437">
<use xlink:href="#path66_fill" transform="translate(14500.2 16291.2)" fill="#FFFFFF" fill-opacity="0.05"/>
</g>
<g id="Fill 439">
<use xlink:href="#path66_fill" transform="translate(14498 16305.3)" fill="#FFFFFF" fill-opacity="0.05"/>
</g>
<g id="Fill 441">
<use xlink:href="#path66_fill" transform="translate(14500.2 16291.2)" fill="#FFFFFF" fill-opacity="0.05"/>
</g>
<g id="Fill 443">
<use xlink:href="#path66_fill" transform="translate(14498 16305.3)" fill="#FFFFFF" fill-opacity="0.05"/>
</g>
<g id="Fill 445">
<use xlink:href="#path66_fill" transform="translate(14518.7 16332.5)" fill="#FFFFFF" fill-opacity="0.05"/>
</g>
<g id="Fill 447">
<use xlink:href="#path66_fill" transform="translate(14516.5 16346.6)" fill="#FFFFFF" fill-opacity="0.05"/>
</g>
<g id="Fill 449">
<use xlink:href="#path66_fill" transform="translate(14518.7 16332.5)" fill="#FFFFFF" fill-opacity="0.05"/>
</g>
<g id="Fill 451">
<use xlink:href="#path66_fill" transform="translate(14516.5 16346.6)" fill="#FFFFFF" fill-opacity="0.05"/>
</g>
<g id="Fill 453">
<use xlink:href="#path67_fill" transform="translate(14536.3 16325.3)" fill="#FFFFFF" fill-opacity="0.05"/>
</g>
<g id="Fill 455">
<use xlink:href="#path68_fill" transform="translate(14560.6 16355.2)" fill="#FFFFFF" fill-opacity="0.05"/>
</g>
<g id="Fill 457">
<use xlink:href="#path67_fill" transform="translate(14536.3 16325.3)" fill="#FFFFFF" fill-opacity="0.05"/>
</g>
<g id="Fill 459">
<use xlink:href="#path68_fill" transform="translate(14560.6 16355.2)" fill="#FFFFFF" fill-opacity="0.05"/>
</g>
<g id="Fill 493">
<use xlink:href="#path69_fill" transform="translate(14910.8 16422)" fill="#FFFFFF" fill-opacity="0.05"/>
</g>
<g id="Fill 495">
<use xlink:href="#path70_fill" transform="translate(14915.6 16422)" fill="#FFFFFF" fill-opacity="0.05"/>
</g>
<g id="Fill 499">
<use xlink:href="#path69_fill" transform="translate(14910.8 16422)" fill="#FFFFFF" fill-opacity="0.05"/>
</g>
<g id="Fill 501">
<use xlink:href="#path70_fill" transform="translate(14915.6 16422)" fill="#FFFFFF" fill-opacity="0.05"/>
</g>
<g id="Fill 509">
<use xlink:href="#path71_fill" transform="translate(15061.2 16109.5)" fill="#FFFFFF" fill-opacity="0.05"/>
</g>
<g id="Fill 511">
<use xlink:href="#path72_fill" transform="translate(15041 16069.1)" fill="#FFFFFF" fill-opacity="0.05"/>
</g>
<g id="Fill 513">
<use xlink:href="#path73_fill" transform="translate(15036.5 16098.4)" fill="#FFFFFF" fill-opacity="0.05"/>
</g>
<g id="Fill 515">
<use xlink:href="#path71_fill" transform="translate(15061.2 16109.5)" fill="#FFFFFF" fill-opacity="0.05"/>
</g>
<g id="Fill 517">
<use xlink:href="#path72_fill" transform="translate(15041 16069.1)" fill="#FFFFFF" fill-opacity="0.05"/>
</g>
<g id="Fill 519">
<use xlink:href="#path73_fill" transform="translate(15036.5 16098.4)" fill="#FFFFFF" fill-opacity="0.05"/>
</g>
<g id="Fill 521">
<use xlink:href="#path74_fill" transform="translate(15094.6 16180.4)" fill="#FFFFFF" fill-opacity="0.05"/>
</g>
<g id="Fill 523">
<use xlink:href="#path75_fill" transform="translate(15041.9 16182.2)" fill="#FFFFFF" fill-opacity="0.05"/>
</g>
<g id="Fill 525">
<use xlink:href="#path74_fill" transform="translate(15094.6 16180.4)" fill="#FFFFFF" fill-opacity="0.05"/>
</g>
<g id="Fill 527">
<use xlink:href="#path75_fill" transform="translate(15041.9 16182.2)" fill="#FFFFFF" fill-opacity="0.05"/>
</g>
<g id="Fill 717">
<use xlink:href="#path76_fill" transform="translate(15355.1 15652.3)" fill="#FFFFFF" fill-opacity="0.05"/>
</g>
<g id="Fill 721">
<use xlink:href="#path76_fill" transform="translate(15355.1 15652.3)" fill="#FFFFFF" fill-opacity="0.05"/>
</g>
<g id="Fill 735">
<use xlink:href="#path77_fill" transform="translate(15021.5 15591.4)" fill="#FFFFFF" fill-opacity="0.05"/>
</g>
<g id="Fill 737">
<use xlink:href="#path77_fill" transform="translate(15021.5 15591.4)" fill="#FFFFFF" fill-opacity="0.05"/>
</g>
<g id="Fill 739">
<use xlink:href="#path78_fill" transform="translate(14976.4 15660.3)" fill="#FFFFFF" fill-opacity="0.05"/>
</g>
<g id="Fill 741">
<use xlink:href="#path78_fill" transform="translate(14976.4 15660.3)" fill="#FFFFFF" fill-opacity="0.05"/>
</g>
<g id="Fill 747">
<use xlink:href="#path79_fill" transform="translate(14921.2 15793)" fill="#FFFFFF" fill-opacity="0.05"/>
</g>
<g id="Fill 749">
<use xlink:href="#path79_fill" transform="translate(14892.6 15784.9)" fill="#FFFFFF" fill-opacity="0.05"/>
</g>
<g id="Fill 751">
<use xlink:href="#path79_fill" transform="translate(14921.2 15793)" fill="#FFFFFF" fill-opacity="0.05"/>
</g>
<g id="Fill 753">
<use xlink:href="#path79_fill" transform="translate(14892.6 15784.9)" fill="#FFFFFF" fill-opacity="0.05"/>
</g>
<g id="Fill 755">
<use xlink:href="#path80_fill" transform="translate(14883.3 15869.6)" fill="#FFFFFF" fill-opacity="0.05"/>
</g>
<g id="Fill 757">
<use xlink:href="#path81_fill" transform="translate(14908.6 15930)" fill="#FFFFFF" fill-opacity="0.05"/>
</g>
<g id="Fill 759">
<use xlink:href="#path80_fill" transform="translate(14883.3 15869.6)" fill="#FFFFFF" fill-opacity="0.05"/>
</g>
<g id="Fill 761">
<use xlink:href="#path81_fill" transform="translate(14908.6 15930)" fill="#FFFFFF" fill-opacity="0.05"/>
</g>
<g id="Fill 763">
<use xlink:href="#path82_fill" transform="translate(14840.2 15690.8)" fill="#FFFFFF" fill-opacity="0.05"/>
</g>
<g id="Fill 765">
<use xlink:href="#path83_fill" transform="translate(14797.6 15705.9)" fill="#FFFFFF" fill-opacity="0.05"/>
</g>
<g id="Fill 767">
<use xlink:href="#path84_fill" transform="translate(14826.2 15714)" fill="#FFFFFF" fill-opacity="0.05"/>
</g>
<g id="Fill 769">
<use xlink:href="#path82_fill" transform="translate(14840.2 15690.8)" fill="#FFFFFF" fill-opacity="0.05"/>
</g>
<g id="Fill 771">
<use xlink:href="#path83_fill" transform="translate(14797.6 15705.9)" fill="#FFFFFF" fill-opacity="0.05"/>
</g>
<g id="Fill 773">
<use xlink:href="#path84_fill" transform="translate(14826.2 15714)" fill="#FFFFFF" fill-opacity="0.05"/>
</g>
<g id="Fill 779">
<use xlink:href="#path79_fill" transform="translate(14831.2 15820.6)" fill="#FFFFFF" fill-opacity="0.05"/>
</g>
<g id="Fill 781">
<use xlink:href="#path79_fill" transform="translate(14802.6 15812.4)" fill="#FFFFFF" fill-opacity="0.05"/>
</g>
<g id="Fill 783">
<use xlink:href="#path79_fill" transform="translate(14831.2 15820.6)" fill="#FFFFFF" fill-opacity="0.05"/>
</g>
<g id="Fill 785">
<use xlink:href="#path79_fill" transform="translate(14802.6 15812.4)" fill="#FFFFFF" fill-opacity="0.05"/>
</g>
<g id="Fill 787">
<use xlink:href="#path85_fill" transform="translate(14914.7 15666.4)" fill="#FFFFFF" fill-opacity="0.05"/>
</g>
<g id="Fill 789">
<use xlink:href="#path80_fill" transform="translate(14909.9 15719)" fill="#FFFFFF" fill-opacity="0.05"/>
</g>
<g id="Fill 791">
<use xlink:href="#path85_fill" transform="translate(14914.7 15666.4)" fill="#FFFFFF" fill-opacity="0.05"/>
</g>
<g id="Fill 793">
<use xlink:href="#path80_fill" transform="translate(14909.9 15719)" fill="#FFFFFF" fill-opacity="0.05"/>
</g>
<g id="Fill 795">
<use xlink:href="#path86_fill" transform="translate(14755.4 16059.5)" fill="#FFFFFF" fill-opacity="0.05"/>
</g>
<g id="Fill 797">
<use xlink:href="#path87_fill" transform="translate(14760 16030.2)" fill="#FFFFFF" fill-opacity="0.05"/>
</g>
<g id="Fill 799">
<use xlink:href="#path86_fill" transform="translate(14755.4 16059.5)" fill="#FFFFFF" fill-opacity="0.05"/>
</g>
<g id="Fill 801">
<use xlink:href="#path87_fill" transform="translate(14760 16030.2)" fill="#FFFFFF" fill-opacity="0.05"/>
</g>
<g id="Fill 803">
<use xlink:href="#path71_fill" transform="translate(14846.8 15966.5)" fill="#FFFFFF" fill-opacity="0.05"/>
</g>
<g id="Fill 805">
<use xlink:href="#path88_fill" transform="translate(14826.6 15926.1)" fill="#FFFFFF" fill-opacity="0.05"/>
</g>
<g id="Fill 807">
<use xlink:href="#path73_fill" transform="translate(14822.1 15955.5)" fill="#FFFFFF" fill-opacity="0.05"/>
</g>
<g id="Fill 809">
<use xlink:href="#path71_fill" transform="translate(14846.8 15966.5)" fill="#FFFFFF" fill-opacity="0.05"/>
</g>
<g id="Fill 811">
<use xlink:href="#path88_fill" transform="translate(14826.6 15926.1)" fill="#FFFFFF" fill-opacity="0.05"/>
</g>
<g id="Fill 813">
<use xlink:href="#path73_fill" transform="translate(14822.1 15955.5)" fill="#FFFFFF" fill-opacity="0.05"/>
</g>
<g id="Fill 815">
<use xlink:href="#path86_fill" transform="translate(14716.9 15973.6)" fill="#FFFFFF" fill-opacity="0.05"/>
</g>
<g id="Fill 817">
<use xlink:href="#path87_fill" transform="translate(14721.5 15944.3)" fill="#FFFFFF" fill-opacity="0.05"/>
</g>
<g id="Fill 819">
<use xlink:href="#path86_fill" transform="translate(14716.9 15973.6)" fill="#FFFFFF" fill-opacity="0.05"/>
</g>
<g id="Fill 821">
<use xlink:href="#path87_fill" transform="translate(14721.5 15944.3)" fill="#FFFFFF" fill-opacity="0.05"/>
</g>
<g id="Fill 823">
<use xlink:href="#path74_fill" transform="translate(14880.2 16037.4)" fill="#FFFFFF" fill-opacity="0.05"/>
</g>
<g id="Fill 825">
<use xlink:href="#path75_fill" transform="translate(14827.5 16039.2)" fill="#FFFFFF" fill-opacity="0.05"/>
</g>
<g id="Fill 827">
<use xlink:href="#path74_fill" transform="translate(14880.2 16037.4)" fill="#FFFFFF" fill-opacity="0.05"/>
</g>
<g id="Fill 829">
<use xlink:href="#path75_fill" transform="translate(14827.5 16039.2)" fill="#FFFFFF" fill-opacity="0.05"/>
</g>
<g id="Fill 831">
<use xlink:href="#path89_fill" transform="translate(14736.2 15690)" fill="#FFFFFF" fill-opacity="0.05"/>
</g>
<g id="Fill 833">
<use xlink:href="#path90_fill" transform="translate(14761.5 15750.4)" fill="#FFFFFF" fill-opacity="0.05"/>
</g>
<g id="Fill 835">
<use xlink:href="#path89_fill" transform="translate(14736.2 15690)" fill="#FFFFFF" fill-opacity="0.05"/>
</g>
<g id="Fill 837">
<use xlink:href="#path90_fill" transform="translate(14761.5 15750.4)" fill="#FFFFFF" fill-opacity="0.05"/>
</g>
<g id="Fill 839">
<use xlink:href="#path54_fill" transform="translate(14623.2 15715)" fill="#FFFFFF" fill-opacity="0.05"/>
</g>
<g id="Fill 841">
<use xlink:href="#path54_fill" transform="translate(14623.2 15715)" fill="#FFFFFF" fill-opacity="0.05"/>
</g>
<g id="Fill 867">
<use xlink:href="#path33_fill" transform="translate(14819.9 15636.9)" fill="#FFFFFF" fill-opacity="0.05"/>
</g>
<g id="Fill 895">
<use xlink:href="#path33_fill" transform="translate(14819.9 15636.9)" fill="#FFFFFF" fill-opacity="0.05"/>
</g>
<g id="Fill 1039">
<use xlink:href="#path91_fill" transform="translate(15275 15694)" fill="#FFFFFF" fill-opacity="0.05"/>
</g>
<g id="Fill 1041">
<use xlink:href="#path92_fill" transform="translate(15317.8 15708.3)" fill="#FFFFFF" fill-opacity="0.05"/>
</g>
<g id="Fill 1043">
<use xlink:href="#path93_fill" transform="translate(15300.2 15684.4)" fill="#FFFFFF" fill-opacity="0.05"/>
</g>
<g id="Fill 1045">
<use xlink:href="#path91_fill" transform="translate(15275 15694)" fill="#FFFFFF" fill-opacity="0.05"/>
</g>
<g id="Fill 1047">
<use xlink:href="#path92_fill" transform="translate(15317.8 15708.3)" fill="#FFFFFF" fill-opacity="0.05"/>
</g>
<g id="Fill 1049">
<use xlink:href="#path93_fill" transform="translate(15300.2 15684.4)" fill="#FFFFFF" fill-opacity="0.05"/>
</g>
<g id="Fill 1051">
<use xlink:href="#path94_fill" transform="translate(15201.2 15667.5)" fill="#FFFFFF" fill-opacity="0.05"/>
</g>
<g id="Fill 1055">
<use xlink:href="#path94_fill" transform="translate(15201.2 15667.5)" fill="#FFFFFF" fill-opacity="0.05"/>
</g>
<g id="Fill 1067">
<use xlink:href="#path80_fill" transform="translate(15787.4 15840.6)" fill="#FFFFFF" fill-opacity="0.05"/>
</g>
<g id="Fill 1069">
<use xlink:href="#path79_fill" transform="translate(15758.9 15832.5)" fill="#FFFFFF" fill-opacity="0.05"/>
</g>
<g id="Fill 1071">
<use xlink:href="#path80_fill" transform="translate(15787.4 15840.6)" fill="#FFFFFF" fill-opacity="0.05"/>
</g>
<g id="Fill 1073">
<use xlink:href="#path79_fill" transform="translate(15758.9 15832.5)" fill="#FFFFFF" fill-opacity="0.05"/>
</g>
<g id="Fill 1075">
<use xlink:href="#path95_fill" transform="translate(15749.5 15917.3)" fill="#FFFFFF" fill-opacity="0.05"/>
</g>
<g id="Fill 1077">
<use xlink:href="#path81_fill" transform="translate(15774.9 15977.7)" fill="#FFFFFF" fill-opacity="0.05"/>
</g>
<g id="Fill 1079">
<use xlink:href="#path95_fill" transform="translate(15749.5 15917.3)" fill="#FFFFFF" fill-opacity="0.05"/>
</g>
<g id="Fill 1081">
<use xlink:href="#path81_fill" transform="translate(15774.9 15977.7)" fill="#FFFFFF" fill-opacity="0.05"/>
</g>
<g id="Fill 1083">
<use xlink:href="#path83_fill" transform="translate(15663.8 15753.5)" fill="#FFFFFF" fill-opacity="0.05"/>
</g>
<g id="Fill 1085">
<use xlink:href="#path84_fill" transform="translate(15692.4 15761.7)" fill="#FFFFFF" fill-opacity="0.05"/>
</g>
<g id="Fill 1087">
<use xlink:href="#path83_fill" transform="translate(15663.8 15753.5)" fill="#FFFFFF" fill-opacity="0.05"/>
</g>
<g id="Fill 1089">
<use xlink:href="#path84_fill" transform="translate(15692.4 15761.7)" fill="#FFFFFF" fill-opacity="0.05"/>
</g>
<g id="Fill 1091">
<use xlink:href="#path79_fill" transform="translate(15697.4 15868.2)" fill="#FFFFFF" fill-opacity="0.05"/>
</g>
<g id="Fill 1093">
<use xlink:href="#path79_fill" transform="translate(15668.9 15860.1)" fill="#FFFFFF" fill-opacity="0.05"/>
</g>
<g id="Fill 1095">
<use xlink:href="#path79_fill" transform="translate(15697.4 15868.2)" fill="#FFFFFF" fill-opacity="0.05"/>
</g>
<g id="Fill 1097">
<use xlink:href="#path79_fill" transform="translate(15668.9 15860.1)" fill="#FFFFFF" fill-opacity="0.05"/>
</g>
<g id="Fill 1099">
<use xlink:href="#path86_fill" transform="translate(15621.7 16107.2)" fill="#FFFFFF" fill-opacity="0.05"/>
</g>
<g id="Fill 1101">
<use xlink:href="#path87_fill" transform="translate(15626.2 16077.8)" fill="#FFFFFF" fill-opacity="0.05"/>
</g>
<g id="Fill 1103">
<use xlink:href="#path86_fill" transform="translate(15621.7 16107.2)" fill="#FFFFFF" fill-opacity="0.05"/>
</g>
<g id="Fill 1105">
<use xlink:href="#path87_fill" transform="translate(15626.2 16077.8)" fill="#FFFFFF" fill-opacity="0.05"/>
</g>
<g id="Fill 1107">
<use xlink:href="#path71_fill" transform="translate(15713 16014.1)" fill="#FFFFFF" fill-opacity="0.05"/>
</g>
<g id="Fill 1109">
<use xlink:href="#path88_fill" transform="translate(15692.8 15973.8)" fill="#FFFFFF" fill-opacity="0.05"/>
</g>
<g id="Fill 1111">
<use xlink:href="#path96_fill" transform="translate(15688.3 16003.1)" fill="#FFFFFF" fill-opacity="0.05"/>
</g>
<g id="Fill 1113">
<use xlink:href="#path71_fill" transform="translate(15713 16014.1)" fill="#FFFFFF" fill-opacity="0.05"/>
</g>
<g id="Fill 1115">
<use xlink:href="#path88_fill" transform="translate(15692.8 15973.8)" fill="#FFFFFF" fill-opacity="0.05"/>
</g>
<g id="Fill 1117">
<use xlink:href="#path96_fill" transform="translate(15688.3 16003.1)" fill="#FFFFFF" fill-opacity="0.05"/>
</g>
<g id="Fill 1119">
<use xlink:href="#path97_fill" transform="translate(15583.2 16021.3)" fill="#FFFFFF" fill-opacity="0.05"/>
</g>
<g id="Fill 1121">
<use xlink:href="#path87_fill" transform="translate(15587.7 15991.9)" fill="#FFFFFF" fill-opacity="0.05"/>
</g>
<g id="Fill 1123">
<use xlink:href="#path97_fill" transform="translate(15583.2 16021.3)" fill="#FFFFFF" fill-opacity="0.05"/>
</g>
<g id="Fill 1125">
<use xlink:href="#path87_fill" transform="translate(15587.7 15991.9)" fill="#FFFFFF" fill-opacity="0.05"/>
</g>
<g id="Fill 1127">
<use xlink:href="#path74_fill" transform="translate(15746.4 16085.1)" fill="#FFFFFF" fill-opacity="0.05"/>
</g>
<g id="Fill 1129">
<use xlink:href="#path75_fill" transform="translate(15693.7 16086.9)" fill="#FFFFFF" fill-opacity="0.05"/>
</g>
<g id="Fill 1131">
<use xlink:href="#path74_fill" transform="translate(15746.4 16085.1)" fill="#FFFFFF" fill-opacity="0.05"/>
</g>
<g id="Fill 1133">
<use xlink:href="#path75_fill" transform="translate(15693.7 16086.9)" fill="#FFFFFF" fill-opacity="0.05"/>
</g>
<g id="Fill 1135">
<use xlink:href="#path98_fill" transform="translate(15602.4 15737.7)" fill="#FFFFFF" fill-opacity="0.05"/>
</g>
<g id="Fill 1137">
<use xlink:href="#path90_fill" transform="translate(15627.8 15798.1)" fill="#FFFFFF" fill-opacity="0.05"/>
</g>
<g id="Fill 1139">
<use xlink:href="#path98_fill" transform="translate(15602.4 15737.7)" fill="#FFFFFF" fill-opacity="0.05"/>
</g>
<g id="Fill 1141">
<use xlink:href="#path90_fill" transform="translate(15627.8 15798.1)" fill="#FFFFFF" fill-opacity="0.05"/>
</g>
<g id="Fill 1143">
<use xlink:href="#path54_fill" transform="translate(15489.5 15762.6)" fill="#FFFFFF" fill-opacity="0.05"/>
</g>
<g id="Fill 1145">
<use xlink:href="#path54_fill" transform="translate(15489.5 15762.6)" fill="#FFFFFF" fill-opacity="0.05"/>
</g>
<g id="Fill 1151">
<use xlink:href="#path99_fill" transform="translate(15474.8 15862.7)" fill="#FFFFFF" fill-opacity="0.05"/>
</g>
<g id="Fill 1153">
<use xlink:href="#path100_fill" transform="translate(15434.9 15991.9)" fill="#FFFFFF" fill-opacity="0.05"/>
</g>
<g id="Fill 1155">
<use xlink:href="#path13_fill" transform="translate(15507.8 15940.6)" fill="#FFFFFF" fill-opacity="0.05"/>
</g>
<g id="Fill 1157">
<use xlink:href="#path101_fill" transform="translate(15389.7 15845)" fill="#FFFFFF" fill-opacity="0.05"/>
</g>
<g id="Fill 1159">
<use xlink:href="#path102_fill" transform="translate(15419.7 15878.7)" fill="#FFFFFF" fill-opacity="0.05"/>
</g>
<g id="Fill 1161">
<use xlink:href="#path103_fill" transform="translate(15511.1 15970.1)" fill="#FFFFFF" fill-opacity="0.05"/>
</g>
<g id="Fill 1163">
<use xlink:href="#path104_fill" transform="translate(15345.3 15916.7)" fill="#FFFFFF" fill-opacity="0.05"/>
</g>
<g id="Fill 1165">
<use xlink:href="#path105_fill" transform="translate(15444.9 15820.9)" fill="#FFFFFF" fill-opacity="0.05"/>
</g>
<g id="Fill 1167">
<use xlink:href="#path15_fill" transform="translate(15537.4 15901.7)" fill="#FFFFFF" fill-opacity="0.05"/>
</g>
<g id="Fill 1169">
<use xlink:href="#path18_fill" transform="translate(15517.5 15912.1)" fill="#FFFFFF" fill-opacity="0.05"/>
</g>
<g id="Fill 1171">
<use xlink:href="#path106_fill" transform="translate(15416.4 15849.2)" fill="#FFFFFF" fill-opacity="0.05"/>
</g>
<g id="Fill 1173">
<use xlink:href="#path99_fill" transform="translate(15474.8 15862.7)" fill="#FFFFFF" fill-opacity="0.05"/>
</g>
<g id="Fill 1175">
<use xlink:href="#path100_fill" transform="translate(15434.9 15991.9)" fill="#FFFFFF" fill-opacity="0.05"/>
</g>
<g id="Fill 1177">
<use xlink:href="#path13_fill" transform="translate(15507.8 15940.6)" fill="#FFFFFF" fill-opacity="0.05"/>
</g>
<g id="Fill 1179">
<use xlink:href="#path101_fill" transform="translate(15389.7 15845)" fill="#FFFFFF" fill-opacity="0.05"/>
</g>
<g id="Fill 1181">
<use xlink:href="#path102_fill" transform="translate(15419.7 15878.7)" fill="#FFFFFF" fill-opacity="0.05"/>
</g>
<g id="Fill 1183">
<use xlink:href="#path103_fill" transform="translate(15511.1 15970.1)" fill="#FFFFFF" fill-opacity="0.05"/>
</g>
<g id="Fill 1185">
<use xlink:href="#path104_fill" transform="translate(15345.3 15916.7)" fill="#FFFFFF" fill-opacity="0.05"/>
</g>
<g id="Fill 1187">
<use xlink:href="#path105_fill" transform="translate(15444.9 15820.9)" fill="#FFFFFF" fill-opacity="0.05"/>
</g>
<g id="Fill 1189">
<use xlink:href="#path15_fill" transform="translate(15537.4 15901.7)" fill="#FFFFFF" fill-opacity="0.05"/>
</g>
<g id="Fill 1191">
<use xlink:href="#path18_fill" transform="translate(15517.5 15912.1)" fill="#FFFFFF" fill-opacity="0.05"/>
</g>
<g id="Fill 1193">
<use xlink:href="#path106_fill" transform="translate(15416.4 15849.2)" fill="#FFFFFF" fill-opacity="0.05"/>
</g>
<g id="Fill 1199">
<use xlink:href="#path107_fill" transform="translate(15781.4 15751)" fill="#FFFFFF" fill-opacity="0.05"/>
</g>
<g id="Fill 1205">
<use xlink:href="#path107_fill" transform="translate(15781.4 15751)" fill="#FFFFFF" fill-opacity="0.05"/>
</g>
<g id="Fill 1273">
<use xlink:href="#path49_fill" transform="translate(15699.9 15671.7)" fill="#FFFFFF" fill-opacity="0.05"/>
</g>
<g id="Fill 1275">
<use xlink:href="#path108_fill" transform="translate(15676 15689.3)" fill="#FFFFFF" fill-opacity="0.05"/>
</g>
<g id="Fill 1277">
<use xlink:href="#path49_fill" transform="translate(15699.9 15671.7)" fill="#FFFFFF" fill-opacity="0.05"/>
</g>
<g id="Fill 1279">
<use xlink:href="#path108_fill" transform="translate(15676 15689.3)" fill="#FFFFFF" fill-opacity="0.05"/>
</g>
<g id="Fill 1289">
<use xlink:href="#path109_fill" transform="translate(14396.4 15837.6)" fill="#FFFFFF" fill-opacity="0.05"/>
</g>
<g id="Fill 1291">
<use xlink:href="#path110_fill" transform="translate(14415.8 15796.9)" fill="#FFFFFF" fill-opacity="0.05"/>
</g>
<g id="Fill 1293">
<use xlink:href="#path111_fill" transform="translate(14389.9 15811.4)" fill="#FFFFFF" fill-opacity="0.05"/>
</g>
<g id="Fill 1295">
<use xlink:href="#path109_fill" transform="translate(14396.4 15837.6)" fill="#FFFFFF" fill-opacity="0.05"/>
</g>
<g id="Fill 1297">
<use xlink:href="#path110_fill" transform="translate(14415.8 15796.9)" fill="#FFFFFF" fill-opacity="0.05"/>
</g>
<g id="Fill 1299">
<use xlink:href="#path111_fill" transform="translate(14389.9 15811.4)" fill="#FFFFFF" fill-opacity="0.05"/>
</g>
<g id="Fill 1301">
<use xlink:href="#path112_fill" transform="translate(14470.5 15764.7)" fill="#FFFFFF" fill-opacity="0.05"/>
</g>
<g id="Fill 1303">
<use xlink:href="#path113_fill" transform="translate(14383.1 15730.2)" fill="#FFFFFF" fill-opacity="0.05"/>
</g>
<g id="Fill 1305">
<use xlink:href="#path112_fill" transform="translate(14470.5 15764.7)" fill="#FFFFFF" fill-opacity="0.05"/>
</g>
<g id="Fill 1307">
<use xlink:href="#path113_fill" transform="translate(14383.1 15730.2)" fill="#FFFFFF" fill-opacity="0.05"/>
</g>
<g id="Fill 1309">
<use xlink:href="#path114_fill" transform="translate(14505.9 15657.5)" fill="#FFFFFF" fill-opacity="0.05"/>
</g>
<g id="Fill 1311">
<use xlink:href="#path114_fill" transform="translate(14505.9 15657.5)" fill="#FFFFFF" fill-opacity="0.05"/>
</g>
<g id="Fill 1313">
<use xlink:href="#path115_fill" transform="translate(14599.2 15930.4)" fill="#FFFFFF" fill-opacity="0.05"/>
</g>
<g id="Fill 1315">
<use xlink:href="#path116_fill" transform="translate(14504 15846.2)" fill="#FFFFFF" fill-opacity="0.05"/>
</g>
<g id="Fill 1317">
<use xlink:href="#path117_fill" transform="translate(14523.8 15933.2)" fill="#FFFFFF" fill-opacity="0.05"/>
</g>
<g id="Fill 1319">
<use xlink:href="#path82_fill" transform="translate(14657 15860.2)" fill="#FFFFFF" fill-opacity="0.05"/>
</g>
<g id="Fill 1321">
<use xlink:href="#path118_fill" transform="translate(14614.5 15875.2)" fill="#FFFFFF" fill-opacity="0.05"/>
</g>
<g id="Fill 1323">
<use xlink:href="#path79_fill" transform="translate(14495.3 15925)" fill="#FFFFFF" fill-opacity="0.05"/>
</g>
<g id="Fill 1325">
<use xlink:href="#path58_fill" transform="translate(14598.5 15790.1)" fill="#FFFFFF" fill-opacity="0.05"/>
</g>
<g id="Fill 1327">
<use xlink:href="#path119_fill" transform="translate(14658.4 15920.5)" fill="#FFFFFF" fill-opacity="0.05"/>
</g>
<g id="Fill 1329">
<use xlink:href="#path120_fill" transform="translate(14548.5 15975.3)" fill="#FFFFFF" fill-opacity="0.05"/>
</g>
<g id="Fill 1331">
<use xlink:href="#path121_fill" transform="translate(14537.4 15951.1)" fill="#FFFFFF" fill-opacity="0.05"/>
</g>
<g id="Fill 1333">
<use xlink:href="#path122_fill" transform="translate(14441 15856)" fill="#FFFFFF" fill-opacity="0.05"/>
</g>
<g id="Fill 1335">
<use xlink:href="#path84_fill" transform="translate(14643 15883.4)" fill="#FFFFFF" fill-opacity="0.05"/>
</g>
<g id="Fill 1337">
<use xlink:href="#path115_fill" transform="translate(14599.2 15930.4)" fill="#FFFFFF" fill-opacity="0.05"/>
</g>
<g id="Fill 1339">
<use xlink:href="#path116_fill" transform="translate(14504 15846.2)" fill="#FFFFFF" fill-opacity="0.05"/>
</g>
<g id="Fill 1341">
<use xlink:href="#path117_fill" transform="translate(14523.8 15933.2)" fill="#FFFFFF" fill-opacity="0.05"/>
</g>
<g id="Fill 1343">
<use xlink:href="#path82_fill" transform="translate(14657 15860.2)" fill="#FFFFFF" fill-opacity="0.05"/>
</g>
<g id="Fill 1345">
<use xlink:href="#path118_fill" transform="translate(14614.5 15875.2)" fill="#FFFFFF" fill-opacity="0.05"/>
</g>
<g id="Fill 1347">
<use xlink:href="#path79_fill" transform="translate(14495.3 15925)" fill="#FFFFFF" fill-opacity="0.05"/>
</g>
<g id="Fill 1349">
<use xlink:href="#path58_fill" transform="translate(14598.5 15790.1)" fill="#FFFFFF" fill-opacity="0.05"/>
</g>
<g id="Fill 1351">
<use xlink:href="#path119_fill" transform="translate(14658.4 15920.5)" fill="#FFFFFF" fill-opacity="0.05"/>
</g>
<g id="Fill 1353">
<use xlink:href="#path120_fill" transform="translate(14548.5 15975.3)" fill="#FFFFFF" fill-opacity="0.05"/>
</g>
<g id="Fill 1355">
<use xlink:href="#path121_fill" transform="translate(14537.4 15951.1)" fill="#FFFFFF" fill-opacity="0.05"/>
</g>
<g id="Fill 1357">
<use xlink:href="#path122_fill" transform="translate(14441 15856)" fill="#FFFFFF" fill-opacity="0.05"/>
</g>
<g id="Fill 1359">
<use xlink:href="#path84_fill" transform="translate(14643 15883.4)" fill="#FFFFFF" fill-opacity="0.05"/>
</g>
<g id="Fill 1461">
<use xlink:href="#path123_fill" transform="translate(14369 15652.9)" fill="#FFFFFF" fill-opacity="0.05"/>
</g>
<g id="Fill 1465">
<use xlink:href="#path123_fill" transform="translate(14369 15652.9)" fill="#FFFFFF" fill-opacity="0.05"/>
</g>
<g id="Fill 1469">
<use xlink:href="#path124_fill" transform="translate(14370.1 15688.4)" fill="#FFFFFF" fill-opacity="0.05"/>
</g>
<g id="Fill 1471">
<use xlink:href="#path125_fill" transform="translate(14377.3 15701.3)" fill="#FFFFFF" fill-opacity="0.05"/>
</g>
<g id="Fill 1473">
<use xlink:href="#path124_fill" transform="translate(14370.1 15688.4)" fill="#FFFFFF" fill-opacity="0.05"/>
</g>
<g id="Fill 1475">
<use xlink:href="#path125_fill" transform="translate(14377.3 15701.3)" fill="#FFFFFF" fill-opacity="0.05"/>
</g>
<g id="Fill 1487">
<use xlink:href="#path126_fill" transform="translate(14409.1 15653.2)" fill="#FFFFFF" fill-opacity="0.05"/>
</g>
<g id="Fill 1493">
<use xlink:href="#path126_fill" transform="translate(14409.1 15653.2)" fill="#FFFFFF" fill-opacity="0.05"/>
</g>
<g id="Fill 1497">
<use xlink:href="#path127_fill" transform="translate(14464.3 15675.1)" fill="#FFFFFF" fill-opacity="0.05"/>
</g>
<g id="Fill 1499">
<use xlink:href="#path128_fill" transform="translate(14452.4 15683.8)" fill="#FFFFFF" fill-opacity="0.05"/>
</g>
<g id="Fill 1501">
<use xlink:href="#path127_fill" transform="translate(14464.3 15675.1)" fill="#FFFFFF" fill-opacity="0.05"/>
</g>
<g id="Fill 1503">
<use xlink:href="#path128_fill" transform="translate(14452.4 15683.8)" fill="#FFFFFF" fill-opacity="0.05"/>
</g>
</g>
</g>
<defs>
<path id="path0_fill" fill-rule="evenodd" d="M 4.26634 20.191C 10.8617 9.84309 9.30328 10.261 20.1876 15.9239C 9.84234 9.32746 10.2593 10.8852 15.9212 0C 9.32589 10.3461 10.8852 9.92903 0 4.26615C 10.3461 10.8626 9.92736 9.30485 4.26634 20.191Z"/>
<path id="path1_fill" fill-rule="evenodd" d="M 4.26634 20.191C 9.92736 9.30485 10.3452 10.8635 0 4.26706C 10.8843 9.92993 9.32589 10.347 15.9212 0C 10.2593 10.8861 9.84234 9.32746 20.1876 15.9248C 9.30328 10.2619 10.8617 9.84399 4.26634 20.191Z"/>
<path id="path2_fill" fill-rule="evenodd" d="M 2.79207 13.2101C 7.10725 6.44084 6.08792 6.71313 13.2087 10.4184C 6.44066 6.10252 6.71381 7.12202 10.4176 0C 6.10239 6.76922 7.12263 6.49602 0 2.79163C 6.76898 7.10754 6.49583 6.08714 2.79207 13.2101Z"/>
<path id="path3_fill" fill-rule="evenodd" d="M 2.79116 13.211C 7.10635 6.44175 6.08702 6.71404 13.2078 10.4193C 6.43976 6.10342 6.712 7.12292 10.4167 0C 6.10149 6.77012 7.12172 6.49693 0 2.79164C 6.76808 7.10845 6.49493 6.08804 2.79116 13.211Z"/>
<path id="path4_fill" fill-rule="evenodd" d="M 2.79116 13.2101C 7.10634 6.44084 6.08702 6.71313 13.2087 10.4184C 6.43976 6.10252 6.7129 7.12202 10.4176 0C 6.10149 6.76922 7.12172 6.49602 0 2.79073C 6.76898 7.10754 6.49493 6.08714 2.79116 13.2101Z"/>
<path id="path5_fill" fill-rule="evenodd" d="M 2.79026 13.2101C 7.10544 6.44084 6.08611 6.71404 13.2078 10.4193C 6.43885 6.10252 6.71291 7.12292 10.4167 0C 6.10059 6.76922 7.12082 6.49602 0 2.79073C 6.76808 7.10754 6.49493 6.08804 2.79026 13.2101Z"/>
<path id="path6_fill" fill-rule="evenodd" d="M 2.79116 13.2101C 7.10634 6.44084 6.08702 6.71313 13.2087 10.4184C 6.43976 6.10252 6.7129 7.12292 10.4176 0C 6.10149 6.76922 7.12172 6.49602 0 2.79073C 6.76898 7.10754 6.49493 6.08714 2.79116 13.2101Z"/>
<path id="path7_fill" fill-rule="evenodd" d="M 2.79116 13.211C 7.10634 6.44084 6.08702 6.71494 13.2087 10.4193C 6.43976 6.10342 6.7129 7.12292 10.4176 0C 6.10149 6.77012 7.12172 6.49693 0 2.79164C 6.76898 7.10845 6.49583 6.08804 2.79116 13.211Z"/>
<path id="path8_fill" fill-rule="evenodd" d="M 2.79116 13.211C 7.10635 6.44175 6.08702 6.71494 13.2078 10.4193C 6.43976 6.10342 6.71291 7.12292 10.4167 0C 6.10149 6.77012 7.12172 6.49693 0 2.79254C 6.76898 7.10845 6.49493 6.08895 2.79116 13.211Z"/>
<path id="path9_fill" fill-rule="evenodd" d="M 2.79207 13.211C 7.10725 6.44175 6.08792 6.71404 13.2087 10.4193C 6.44066 6.10342 6.71381 7.12292 10.4176 0C 6.10239 6.77012 7.12263 6.49693 0 2.79164C 6.76898 7.10845 6.49583 6.08804 2.79207 13.211Z"/>
<path id="path10_fill" fill-rule="evenodd" d="M 2.79026 13.211C 7.10635 6.44084 6.08702 6.71494 13.2078 10.4193C 6.43885 6.10342 6.71291 7.12292 10.4167 0C 6.10149 6.77012 7.12082 6.49693 0 2.79164C 6.76808 7.10845 6.49493 6.08804 2.79026 13.211Z"/>
<path id="path11_fill" fill-rule="evenodd" d="M 22.5165 8.24283C 10.5379 10.8952 11.9344 11.7012 8.24144 0C 10.8924 11.9807 11.7001 10.584 0 14.2775C 11.9787 11.6261 10.5813 10.8183 14.2742 22.5203C 11.6232 10.5387 10.8173 11.9364 22.5165 8.24283Z"/>
<path id="path12_fill" fill-rule="evenodd" d="M 14.7318 5.3933C 6.8947 7.12835 7.80911 7.65574 5.39239 0C 7.12715 7.83847 7.65445 6.92481 0 9.34194C 7.83715 7.60598 6.92364 7.07859 9.34036 14.7343C 7.6047 6.89586 7.0774 7.80952 14.7318 5.3933Z"/>
<path id="path13_fill" fill-rule="evenodd" d="M 14.7318 5.3933C 6.8947 7.12835 7.8082 7.65574 5.39239 0C 7.12715 7.83847 7.65445 6.92481 0 9.34194C 7.83715 7.60689 6.92364 7.07859 9.33945 14.7352C 7.6047 6.89586 7.0774 7.81043 14.7318 5.3933Z"/>
<path id="path14_fill" fill-rule="evenodd" d="M 14.7318 5.3933C 6.89379 7.12835 7.8082 7.65664 5.39239 0C 7.12715 7.83847 7.65535 6.92481 0 9.34103C 7.83715 7.60689 6.92364 7.07859 9.33945 14.7343C 7.6047 6.89586 7.0765 7.81043 14.7318 5.3933Z"/>
<path id="path15_fill" fill-rule="evenodd" d="M 14.7318 5.3933C 6.8947 7.12835 7.8082 7.65664 5.39239 0C 7.12715 7.83847 7.65535 6.92481 0 9.34194C 7.83805 7.60689 6.92364 7.07859 9.33945 14.7352C 7.6047 6.89586 7.0774 7.81043 14.7318 5.3933Z"/>
<path id="path16_fill" fill-rule="evenodd" d="M 14.7328 5.39421C 6.8947 7.12925 7.80911 7.65664 5.39239 0C 7.12715 7.83937 7.65535 6.92481 0 9.34194C 7.83805 7.60689 6.92364 7.07859 9.34036 14.7352C 7.60561 6.89586 7.0774 7.81043 14.7328 5.39421Z"/>
<path id="path17_fill" fill-rule="evenodd" d="M 14.7318 5.3933C 6.8947 7.12835 7.8082 7.65574 5.39149 0C 7.12715 7.83937 7.65445 6.92481 0 9.34103C 7.83715 7.60598 6.92364 7.07859 9.33945 14.7352C 7.6047 6.89586 7.0774 7.81043 14.7318 5.3933Z"/>
<path id="path18_fill" fill-rule="evenodd" d="M 8.24235 0C 10.8933 11.9807 11.7001 10.584 0 14.2766C 11.9796 11.6252 10.5822 10.8183 14.2751 22.5203C 11.625 10.5396 10.8173 11.9373 22.5165 8.24283C 10.5379 10.8952 11.9353 11.7012 8.24235 0Z"/>
<path id="path19_fill" fill-rule="evenodd" d="M 14.7318 5.3933C 6.8947 7.12835 7.8082 7.65574 5.39239 0C 7.12715 7.83847 7.65445 6.92481 0 9.34103C 7.83715 7.60689 6.92274 7.07769 9.33945 14.7343C 7.6047 6.89496 7.0774 7.81043 14.7318 5.3933Z"/>
<path id="path20_fill" fill-rule="evenodd" d="M 22.5156 8.24283C 10.8164 11.9373 11.6223 10.5387 14.2742 22.5203C 10.5813 10.8183 11.9787 11.6261 0 14.2775C 11.6992 10.584 10.8924 11.9807 8.24144 0C 11.9344 11.7012 10.537 10.8952 22.5156 8.24283Z"/>
<path id="path21_fill" fill-rule="evenodd" d="M 14.7318 5.3933C 6.8947 7.12835 7.80911 7.65574 5.39239 0C 7.12715 7.83937 7.65445 6.9239 0 9.34103C 7.83715 7.60598 6.92364 7.07859 9.33945 14.7343C 7.6047 6.89496 7.0765 7.80952 14.7318 5.3933Z"/>
<path id="path22_fill" fill-rule="evenodd" d="M 14.1313 4.1974C 6.56819 6.88772 7.54048 7.29932 4.1967 0C 6.88746 7.56437 7.29809 6.59191 0 9.93627C 7.5631 7.24595 6.5908 6.83525 9.9355 14.1337C 7.24473 6.5693 6.8341 7.54176 14.1313 4.1974Z"/>
<path id="path23_fill" fill-rule="evenodd" d="M 14.1313 4.1974C 6.56819 6.88772 7.54048 7.29932 4.1967 0C 6.88746 7.56437 7.29809 6.59191 0 9.93627C 7.5631 7.24595 6.5908 6.83525 9.93459 14.1337C 7.24473 6.5693 6.8341 7.54176 14.1313 4.1974Z"/>
<path id="path24_fill" fill-rule="evenodd" d="M 14.1304 4.1974C 6.56729 6.88772 7.53958 7.29932 4.19579 0C 6.88656 7.56437 7.29719 6.59191 0 9.93627C 7.56219 7.24595 6.5899 6.83525 9.93459 14.1337C 7.24382 6.5693 6.8332 7.54176 14.1304 4.1974Z"/>
<path id="path25_fill" fill-rule="evenodd" d="M 38.2885 14.017C 18.3931 20.2986 19.7661 17.9222 24.2739 38.295C 17.9942 18.3962 20.3703 19.7676 0 24.278C 19.8954 17.9973 18.5233 20.3728 14.0146 0C 20.2952 19.8979 17.9192 18.5265 38.2885 14.017Z"/>
<path id="path26_fill" fill-rule="evenodd" d="M 13.2087 10.4193C 6.44066 6.10342 6.7129 7.12292 10.4176 0C 6.10239 6.77012 7.12172 6.49693 0 2.79164C 6.76898 7.10845 6.49583 6.08804 2.79116 13.211C 7.10725 6.44084 6.08792 6.71494 13.2087 10.4193Z"/>
<path id="path27_fill" fill-rule="evenodd" d="M 34.3279 27.0778C 15.8199 17.45 18.47 16.739 7.25377 34.3337C 16.8808 15.8217 17.5909 18.4722 0 7.25499C 18.508 16.8846 15.8588 17.5947 27.0732 0C 17.4461 18.5111 16.7361 15.8606 34.3279 27.0778Z"/>
<path id="path28_fill" fill-rule="evenodd" d="M 7.25467 34.3337C 16.8817 15.8217 17.5917 18.4731 0 7.25499C 18.508 16.8846 15.8588 17.5947 27.0741 0C 17.447 18.5111 16.737 15.8615 34.3288 27.0778C 15.8199 17.45 18.47 16.739 7.25467 34.3337Z"/>
<path id="path29_fill" fill-rule="evenodd" d="M 5.39239 0C 7.12715 7.83937 7.65445 6.92481 0 9.34103C 7.83715 7.60598 6.92274 7.07859 9.33945 14.7343C 7.6056 6.89586 7.0774 7.80952 14.7318 5.3933C 6.89379 7.12835 7.8082 7.65574 5.39239 0Z"/>
<path id="path30_fill" fill-rule="evenodd" d="M 0 14.2766C 11.9787 11.6243 10.5822 10.8183 14.2751 22.5203C 11.6232 10.5387 10.8164 11.9364 22.5165 8.24283C 10.5379 10.8943 11.9344 11.7021 8.24144 0C 10.8933 11.9807 11.6992 10.5831 0 14.2766Z"/>
<path id="path31_fill" fill-rule="evenodd" d="M 94.1989 85.7988C 87.6361 90.4223 88.6826 90.5562 83.5018 84.4238C 88.1245 90.9886 88.2593 89.9402 82.1279 95.1227C 88.6907 90.4992 87.6433 90.3644 92.8241 96.4968C 88.2014 89.9329 88.0675 90.9805 94.1989 85.7988ZM 354.303 94.041C 338.367 107.508 338.717 104.786 350.73 121.846C 337.264 105.908 339.986 106.258 322.93 118.273C 338.865 104.806 338.516 107.527 326.502 90.4678C 339.967 106.406 337.246 106.056 354.303 94.041ZM 220.891 239.951C 211.52 247.871 211.725 246.271 218.79 256.303C 210.872 246.929 212.472 247.135 202.441 254.201C 211.813 246.282 211.607 247.882 204.542 237.85C 212.461 247.223 210.861 247.018 220.891 239.951ZM 319.879 179.231C 313.317 183.855 314.363 183.989 309.182 177.856C 313.804 184.42 313.939 183.374 307.808 188.555C 314.37 183.932 313.323 183.797 318.505 189.93C 313.882 183.366 313.748 184.413 319.879 179.231ZM 123.291 0C 130.356 10.0322 130.562 8.43189 121.19 16.3509C 131.22 9.28494 129.621 9.0796 137.539 18.4523C 130.475 8.42013 130.268 10.0213 139.64 2.10051C 129.609 9.16734 131.209 9.37269 123.291 0ZM 146.093 305.177C 136.722 313.097 136.927 311.496 143.992 321.528C 136.073 312.156 137.674 312.362 127.644 319.428C 137.015 311.508 136.809 313.108 129.744 303.076C 137.662 312.449 136.062 312.244 146.093 305.177ZM 203.671 102.362C 210.736 112.394 210.942 110.794 201.57 118.713C 211.601 111.647 210.001 111.442 217.918 120.816C 210.855 110.782 210.648 112.384 220.02 104.464C 209.989 111.53 211.589 111.735 203.671 102.362ZM 256.089 48.7217C 249.528 53.3443 250.574 53.479 245.393 47.3467C 250.015 53.9096 250.15 52.863 244.019 58.0446C 250.581 53.4221 249.535 53.2873 254.715 59.4196C 250.093 52.8558 249.959 53.9033 256.089 48.7217ZM 226.086 87.6221C 219.524 92.2447 220.57 92.3794 215.389 86.2471C 220.011 92.8109 220.146 91.7643 214.015 96.9459C 220.577 92.3224 219.53 92.1877 224.712 98.32C 220.089 91.7562 219.954 92.8037 226.086 87.6221ZM 94.3213 268.626C 78.3856 282.093 78.7356 279.371 90.7486 296.43C 77.283 280.492 80.0046 280.843 62.9482 292.858C 78.8839 279.391 78.5348 282.112 66.5209 265.053C 79.9847 280.991 77.2649 280.641 94.3213 268.626ZM 109.581 48.671C 103.019 53.2945 104.065 53.4292 98.8836 47.2969C 103.507 53.8607 103.641 52.8132 97.5098 57.9948C 104.073 53.3713 103.026 53.2366 108.207 59.3698C 103.584 52.806 103.449 53.8526 109.581 48.671ZM 46.5766 172.979C 53.6423 183.011 53.8476 181.41 44.4756 189.329C 54.507 182.263 52.907 182.058 60.8246 191.431C 53.7608 181.399 53.5537 182.999 62.9257 175.079C 52.8952 182.146 54.4952 182.35 46.5766 172.979ZM 279.359 213.064C 272.795 217.687 273.843 217.821 268.662 211.689C 273.285 218.253 273.418 217.206 267.287 222.387C 273.85 217.765 272.803 217.63 277.984 223.762C 273.361 217.199 273.227 218.245 279.359 213.064ZM 18.4492 310.001C 8.41872 317.068 10.0178 317.273 2.10016 307.9C 9.1649 317.933 9.37111 316.332 0 324.251C 10.0296 317.186 8.42867 316.98 16.3481 326.353C 9.28248 316.321 9.07717 317.921 18.4492 310.001ZM 228.158 160.825C 221.596 165.449 222.642 165.584 217.462 159.451C 222.084 166.014 222.219 164.967 216.087 170.149C 222.651 165.527 221.603 165.392 226.784 171.524C 222.161 164.96 222.027 166.007 228.158 160.825ZM 108.653 111.752C 102.09 116.375 103.137 116.509 97.9558 110.377C 102.579 116.941 102.713 115.893 96.5811 121.075C 103.145 116.452 102.097 116.318 107.278 122.45C 102.656 115.886 102.522 116.934 108.653 111.752ZM 67.9351 92.2705C 61.3714 96.894 62.4188 97.0279 57.2381 90.8955C 61.8608 97.4594 61.9946 96.4118 55.8633 101.593C 62.426 96.9718 61.3796 96.837 66.5594 102.969C 61.9376 96.4046 61.8029 97.4521 67.9351 92.2705ZM 213.705 134.875C 207.143 139.498 208.189 139.632 203.009 133.5C 207.631 140.064 207.765 139.016 201.634 144.199C 208.197 139.575 207.15 139.441 212.331 145.573C 207.708 139.009 207.574 140.057 213.705 134.875ZM 166.252 210.372C 159.689 214.995 160.736 215.129 155.555 208.997C 160.177 215.561 160.312 214.514 154.181 219.696C 160.743 215.072 159.696 214.938 164.878 221.07C 160.255 214.506 160.12 215.554 166.252 210.372ZM 161.585 75.4169C 151.554 82.4837 153.154 82.6891 145.236 73.3164C 152.301 83.3486 152.507 81.7483 143.136 89.6673C 153.165 82.6013 151.565 82.3951 159.484 91.7687C 152.418 81.7365 152.214 83.3368 161.585 75.4169Z"/>
<path id="path32_fill" fill-rule="evenodd" d="M 18.4492 2.10051C 8.41872 9.16734 10.0187 9.37269 2.10016 0C 9.1658 10.0322 9.37111 8.43189 0 16.3509C 10.0305 9.28585 8.42957 9.07869 16.3481 18.4523C 9.28338 8.42013 9.07807 10.0204 18.4492 2.10051Z"/>
<path id="path33_fill" fill-rule="evenodd" d="M 18.4492 2.10142C 9.07897 10.0213 9.28338 8.42014 16.349 18.4532C 8.43048 9.0796 10.0305 9.28585 0 16.3518C 9.37111 8.4319 9.1658 10.0322 2.10106 0C 10.0196 9.37269 8.41962 9.16735 18.4492 2.10142Z"/>
<path id="path34_fill" fill-rule="evenodd" d="M 12.0709 1.37501C 5.50816 5.99849 6.55462 6.13237 1.37478 0C 5.99657 6.56387 6.13134 5.51723 0 10.6989C 6.56276 6.07538 5.5154 5.94059 10.6971 12.0739C 6.07435 5.50909 5.93959 6.55663 12.0709 1.37501Z"/>
<path id="path35_fill" fill-rule="evenodd" d="M 12.0709 1.37501C 5.50816 5.99849 6.55553 6.13328 1.37478 0C 5.99657 6.56387 6.13134 5.51723 0 10.6989C 6.56276 6.07628 5.5154 5.94059 10.6961 12.0739C 6.07435 5.50909 5.93959 6.55663 12.0709 1.37501Z"/>
<path id="path36_fill" fill-rule="evenodd" d="M 12.0718 1.37501C 5.50907 5.99849 6.55553 6.13237 1.37478 0C 5.99748 6.56387 6.13224 5.51723 0 10.6989C 6.56367 6.07538 5.5163 5.94059 10.6971 12.0739C 6.07436 5.50909 5.94049 6.55663 12.0718 1.37501Z"/>
<path id="path37_fill" fill-rule="evenodd" d="M 31.373 3.57322C 15.4382 17.0402 15.7874 14.3182 27.8004 31.3783C 14.3357 15.4399 17.0572 15.79 0 27.8051C 15.9357 14.3381 15.5866 17.0592 3.57262 0C 17.0373 15.9384 14.3167 15.5883 31.373 3.57322Z"/>
<path id="path38_fill" fill-rule="evenodd" d="M 12.0709 1.37501C 5.50816 5.99758 6.55462 6.13237 1.37478 0C 5.99657 6.56387 6.13043 5.51633 0 10.698C 6.56276 6.07538 5.5154 5.94059 10.6961 12.073C 6.07345 5.50909 5.93959 6.55663 12.0709 1.37501Z"/>
<path id="path39_fill" fill-rule="evenodd" d="M 12.0709 1.37501C 5.50816 5.99849 6.55553 6.13237 1.37387 0C 5.99657 6.56477 6.13134 5.51633 0 10.6989C 6.56276 6.07538 5.5154 5.94059 10.6961 12.073C 6.07345 5.50909 5.93959 6.55663 12.0709 1.37501Z"/>
<path id="path40_fill" fill-rule="evenodd" d="M 12.0709 1.37501C 5.50816 5.99849 6.55553 6.13237 1.37478 0C 5.99657 6.56387 6.13134 5.51723 0 10.6989C 6.56276 6.07538 5.5154 5.94059 10.6971 12.073C 6.07435 5.50909 5.93959 6.55663 12.0709 1.37501Z"/>
<path id="path41_fill" fill-rule="evenodd" d="M 12.0709 1.37501C 5.50816 5.99849 6.55553 6.13328 1.37478 0C 5.99657 6.56387 6.13134 5.51723 0 10.6989C 6.56276 6.07628 5.5154 5.94059 10.6971 12.0739C 6.07435 5.50909 5.93959 6.55663 12.0709 1.37501Z"/>
<path id="path42_fill" fill-rule="evenodd" d="M 12.0718 1.37501C 5.50907 5.99849 6.55553 6.13237 1.37478 0C 5.99748 6.56387 6.13134 5.51633 0 10.698C 6.56276 6.07538 5.5163 5.94059 10.6971 12.073C 6.07436 5.50909 5.94049 6.55663 12.0718 1.37501Z"/>
<path id="path43_fill" fill-rule="evenodd" d="M 12.0709 1.37501C 5.50816 5.99849 6.55462 6.13237 1.37387 0C 5.99657 6.56387 6.13134 5.51723 0 10.6989C 6.56276 6.07538 5.5154 5.94059 10.6961 12.0739C 6.07345 5.50909 5.93959 6.55663 12.0709 1.37501Z"/>
<path id="path44_fill" fill-rule="evenodd" d="M 10.7848 10.8282C 5.38697 4.88672 5.38244 5.9415 10.8264 0.0425168C 4.8859 5.44125 5.9414 5.44486 0.0425096 0C 5.44033 5.9424 5.44485 4.88672 0 10.7866C 5.9414 5.38787 4.88589 5.38335 10.7848 10.8282Z"/>
<path id="path45_fill" fill-rule="evenodd" d="M 10.7848 10.8282C 5.38697 4.88672 5.38244 5.9424 10.8264 0.0425168C 4.8859 5.44125 5.9405 5.44577 0.0416052 0C 5.44033 5.9424 5.44395 4.88672 0 10.7866C 5.9414 5.38787 4.88589 5.38335 10.7848 10.8282Z"/>
<path id="path46_fill" fill-rule="evenodd" d="M 10.7848 10.8282C 5.38697 4.88581 5.38335 5.9415 10.8273 0.0416122C 4.88589 5.44125 5.9414 5.44486 0.0425096 0C 5.44033 5.9424 5.44485 4.88672 0 10.7857C 5.9414 5.38697 4.8868 5.38335 10.7848 10.8282Z"/>
<path id="path47_fill" fill-rule="evenodd" d="M 10.7848 10.8282C 5.38697 4.88581 5.38244 5.9424 10.8264 0.0416122C 4.8859 5.44125 5.9414 5.44486 0.0425096 0C 5.44033 5.9424 5.44395 4.88672 0 10.7866C 5.9414 5.38787 4.88589 5.38335 10.7848 10.8282Z"/>
<path id="path48_fill" fill-rule="evenodd" d="M 10.7848 10.8282C 5.38606 4.88581 5.38335 5.9415 10.8264 0.0416122C 4.88499 5.44125 5.9414 5.44486 0.0425096 0C 5.44033 5.9424 5.44485 4.88672 0 10.7866C 5.9414 5.38697 4.88589 5.38335 10.7848 10.8282Z"/>
<path id="path49_fill" fill-rule="evenodd" d="M 10.7848 10.8282C 5.38697 4.88672 5.38244 5.9415 10.8264 0.0425168C 4.8859 5.44125 5.9414 5.44486 0.0416052 0C 5.44033 5.9424 5.44485 4.88672 0 10.7866C 5.9414 5.38787 4.88589 5.38335 10.7848 10.8282Z"/>
<path id="path50_fill" fill-rule="evenodd" d="M 10.7848 10.8282C 5.38697 4.88672 5.38244 5.9424 10.8264 0.0425168C 4.8859 5.44125 5.9405 5.44577 0.0425096 0C 5.44033 5.9424 5.44395 4.88672 0 10.7866C 5.9414 5.38787 4.88589 5.38335 10.7848 10.8282Z"/>
<path id="path51_fill" fill-rule="evenodd" d="M 10.7848 10.8291C 5.38606 4.88672 5.38335 5.9424 10.8273 0.0425168C 4.88589 5.44125 5.9414 5.44577 0.0425096 0C 5.44033 5.9424 5.44485 4.88672 0 10.7866C 5.9414 5.38787 4.88589 5.38426 10.7848 10.8291Z"/>
<path id="path52_fill" fill-rule="evenodd" d="M 10.7848 10.8282C 5.38697 4.88672 5.38244 5.9415 10.8273 0.0416122C 4.88589 5.44034 5.9414 5.44486 0.0425096 0C 5.44033 5.9424 5.44485 4.88581 0 10.7866C 5.9414 5.38697 4.88589 5.38335 10.7848 10.8282Z"/>
<path id="path53_fill" fill-rule="evenodd" d="M 31.3721 3.57322C 15.4373 17.0402 15.7864 14.3182 27.7995 31.3783C 14.3348 15.4399 17.0563 15.79 0 27.8051C 15.9348 14.3381 15.5857 17.0592 3.57171 0C 17.0364 15.9384 14.3158 15.5883 31.3721 3.57322Z"/>
<path id="path54_fill" fill-rule="evenodd" d="M 0 17.1343C 20.7899 18.8811 18.6174 20.5582 22.1837 0C 20.4363 20.7925 18.7594 18.6215 39.3151 22.1874C 18.5261 20.4397 20.6977 18.7626 17.1314 39.3217C 18.8779 18.5292 20.5557 20.7012 0 17.1343Z"/>
<path id="path55_fill" fill-rule="evenodd" d="M 1.37478 0C 5.99657 6.56387 6.13134 5.51723 0 10.6989C 6.56276 6.07538 5.5163 5.94059 10.6971 12.073C 6.07436 5.50909 5.93959 6.55663 12.0718 1.37501C 5.50816 5.99849 6.55553 6.13237 1.37478 0Z"/>
<path id="path56_fill" fill-rule="evenodd" d="M 3.57262 0C 17.0373 15.9375 14.3158 15.5883 31.373 3.57322C 15.4373 17.0402 15.7874 14.3182 27.8004 31.3774C 14.3357 15.4399 17.0563 15.7891 0 27.8051C 15.9357 14.3381 15.5857 17.0592 3.57262 0Z"/>
<path id="path57_fill" fill-rule="evenodd" d="M 31.373 3.57322C 15.4373 17.0411 15.7874 14.3191 27.8004 31.3783C 14.3366 15.4399 17.0572 15.7891 0 27.8051C 15.9366 14.3381 15.5866 17.0592 3.57262 0C 17.0382 15.9384 14.3158 15.5883 31.373 3.57322Z"/>
<path id="path58_fill" fill-rule="evenodd" d="M 23.1207 13.0481C 11.0326 10.9512 12.0185 12.2277 13.0459 0C 10.9494 12.0911 12.2256 11.1041 0 10.0765C 12.0881 12.1743 11.1023 10.8961 10.0748 23.1246C 12.1722 11.0345 10.8951 12.0205 23.1207 13.0481Z"/>
<path id="path59_fill" fill-rule="evenodd" d="M 8.67412 0.987979C 3.95758 4.31019 4.7102 4.407 0.986908 0C 4.30856 4.71733 4.40626 3.96458 0 7.6885C 4.71563 4.36629 3.96301 4.26858 7.6863 8.67558C 4.36465 3.95915 4.26786 4.7119 8.67412 0.987979Z"/>
<path id="path60_fill" fill-rule="evenodd" d="M 5.6754 0.646891C 2.58984 2.82008 3.08194 2.88342 0.645877 0C 2.81961 3.08698 2.88293 2.5939 0 5.03037C 3.08556 2.85718 2.59346 2.79385 5.02862 5.67726C 2.85579 2.59028 2.79247 3.08336 5.6754 0.646891Z"/>
<path id="path61_fill" fill-rule="evenodd" d="M 5.6754 0.646891C 2.58984 2.82008 3.08194 2.88432 0.645877 0C 2.81961 3.08698 2.88293 2.5939 0 5.03037C 3.08556 2.85718 2.59346 2.79385 5.02952 5.67726C 2.85579 2.59028 2.79247 3.08336 5.6754 0.646891Z"/>
<path id="path62_fill" fill-rule="evenodd" d="M 5.6754 0.645986C 2.58984 2.81918 3.08194 2.88251 0.645877 0C 2.81961 3.08608 2.88293 2.5939 0 5.02946C 3.08556 2.85627 2.59346 2.79294 5.02952 5.67636C 2.85579 2.59028 2.79247 3.08246 5.6754 0.645986Z"/>
<path id="path63_fill" fill-rule="evenodd" d="M 0.987813 0C 4.30947 4.71642 4.40626 3.96458 0 7.6876C 4.71563 4.36538 3.96391 4.26858 7.6863 8.67558C 4.36555 3.95915 4.26786 4.7119 8.67412 0.987979C 3.95849 4.31019 4.71111 4.407 0.987813 0Z"/>
<path id="path64_fill" fill-rule="evenodd" d="M 5.6754 0.646891C 2.58984 2.82099 3.08194 2.88342 0.645877 0C 2.81961 3.08698 2.88293 2.5939 0 5.03037C 3.08556 2.85718 2.59346 2.79385 5.02952 5.67726C 2.85579 2.59028 2.79247 3.08336 5.6754 0.646891Z"/>
<path id="path65_fill" fill-rule="evenodd" d="M 0 5.14527C 3.15612 2.92232 2.65226 2.85718 5.1444 5.80664C 2.92092 2.64999 2.8567 3.15303 5.80476 0.661367C 2.64864 2.88523 3.1525 2.94946 0.661255 0C 2.88383 3.15665 2.94806 2.65361 0 5.14527Z"/>
<path id="path66_fill" fill-rule="evenodd" d="M 7.33442 3.6823C 3.47815 3.49774 3.83637 3.85782 3.68168 0C 3.49715 3.85692 3.85717 3.49955 0 3.65426C 3.85536 3.83882 3.49805 3.47783 3.65274 7.33656C 3.83727 3.47964 3.47725 3.83701 7.33442 3.6823Z"/>
<path id="path67_fill" fill-rule="evenodd" d="M 4.10503 0C 3.44468 3.80444 3.84722 3.49412 0 3.17022C 3.8038 3.83068 3.49353 3.42898 3.16968 7.27594C 3.83003 3.4724 3.4284 3.78183 7.27471 4.10572C 3.47091 3.44526 3.78119 3.84697 4.10503 0Z"/>
<path id="path68_fill" fill-rule="evenodd" d="M 0 4.84511C 5.81297 5.85375 5.33813 5.23952 4.84429 11.1195C 5.85276 5.30555 5.23863 5.77957 11.1176 6.27439C 5.30466 5.26575 5.7786 5.87998 6.27243 0C 5.26486 5.81304 5.87809 5.33902 0 4.84511Z"/>
<path id="path69_fill" fill-rule="evenodd" d="M 5.14531 0C 4.25338 4.57709 4.75724 4.1971 0 3.88406C 4.69754 4.60152 4.32032 4.12563 3.84451 8.74796C 4.73643 4.17086 4.23348 4.55086 8.99072 4.8639"/>
<path id="path70_fill" fill-rule="evenodd" d="M 4.11295 4.8639C -0.58459 4.14644 -0.20828 4.62233 0.267534 0L 4.11295 4.8639Z"/>
<path id="path71_fill" fill-rule="evenodd" d="M 0 7.59694C 8.01804 7.9814 7.27457 7.23148 7.59566 15.2536C 7.98005 7.23419 7.23116 7.97869 15.251 7.65664C 7.23387 7.27218 7.97734 8.0212 7.65535 0C 7.27186 8.01939 8.02075 7.2758 0 7.59694Z"/>
<path id="path72_fill" fill-rule="evenodd" d="M 0 7.59784C 8.01804 7.9823 7.27457 7.23238 7.59656 15.2545C 7.98005 7.23509 7.23026 7.97868 15.2519 7.65755C 7.23387 7.27309 7.97734 8.02211 7.65535 0C 7.27096 8.01939 8.02075 7.2758 0 7.59784Z"/>
<path id="path73_fill" fill-rule="evenodd" d="M 0 7.59694C 8.01804 7.98049 7.27457 7.23148 7.59656 15.2536C 7.98005 7.23419 7.23116 7.97869 15.2519 7.65664C 7.23387 7.27218 7.97734 8.0212 7.65535 0C 7.27096 8.01939 8.02075 7.2758 0 7.59694Z"/>
<path id="path74_fill" fill-rule="evenodd" d="M 0 7.59694C 8.01804 7.9814 7.27457 7.23238 7.59656 15.2545C 7.98005 7.23419 7.23116 7.97868 15.2519 7.65664C 7.23387 7.27218 7.97734 8.02211 7.65535 0C 7.27186 8.01939 8.02075 7.2758 0 7.59694Z"/>
<path id="path75_fill" fill-rule="evenodd" d="M 0 7.59784C 8.01804 7.9814 7.27457 7.23238 7.59656 15.2545C 7.98005 7.23509 7.23116 7.97868 15.2519 7.65755C 7.23387 7.27309 7.97734 8.02301 7.65535 0C 7.27186 8.0203 8.02075 7.2758 0 7.59784Z"/>
<path id="path76_fill" fill-rule="evenodd" d="M 0 24.278C 19.8945 17.9964 18.5224 20.3737 14.0146 0C 20.2943 19.8988 17.9183 18.5256 38.2876 14.017C 18.3931 20.2977 19.7643 17.9222 24.2739 38.295C 17.9942 18.3962 20.3694 19.7685 0 24.278Z"/>
<path id="path77_fill" fill-rule="evenodd" d="M 232.225 235.228C 233.597 227.317 232.762 227.963 240.761 228.635C 232.851 227.263 233.497 228.099 234.168 220.099C 232.796 228.009 233.632 227.364 225.633 226.691C 233.542 228.064 232.897 227.228 232.225 235.228ZM 42.479 413.363C 44.2256 392.57 45.9033 394.741 25.3477 391.175C 46.1376 392.922 43.9651 394.599 47.5314 374.04C 45.7839 394.833 44.1071 392.661 64.6627 396.227C 43.8737 394.48 46.0453 392.804 42.479 413.363ZM 33.6626 215.831C 34.6892 203.603 35.6759 204.88 23.5869 202.783C 35.8134 203.81 34.5354 204.796 36.6329 192.706C 35.6054 204.934 34.6195 203.656 46.7076 205.754C 34.482 204.727 35.7582 203.741 33.6626 215.831ZM 6.59171 328.77C 7.96377 320.86 7.12895 321.505 15.128 322.177C 7.2185 320.805 7.86338 321.64 8.53629 313.641C 7.16332 321.551 7.99995 320.906 0 320.233C 7.9095 321.606 7.26372 320.77 6.59171 328.77ZM 272.315 316.477C 260.227 314.379 261.213 315.656 262.24 303.429C 260.144 315.519 261.42 314.533 249.194 313.505C 261.282 315.603 260.297 314.325 259.269 326.553C 261.367 314.463 260.089 315.449 272.315 316.477ZM 40.4361 116.808C 41.4627 104.581 42.4494 105.857 30.3613 103.76C 42.5869 104.788 41.3089 105.774 43.4064 93.6836C 42.3789 105.911 41.393 104.634 53.4811 106.731C 41.2556 105.703 42.5327 104.717 40.4361 116.808ZM 143.108 300.944C 131.02 298.846 132.006 300.123 133.033 287.896C 130.937 299.986 132.213 299 119.987 297.971C 132.075 300.07 131.09 298.792 130.062 311.019C 132.16 298.929 130.882 299.916 143.108 300.944ZM 143.966 375.945C 145.338 368.035 144.502 368.68 152.501 369.352C 144.593 367.98 145.237 368.816 145.909 360.815C 144.537 368.725 145.373 368.08 137.374 367.408C 145.283 368.781 144.638 367.945 143.966 375.945ZM 137.679 327.214C 139.051 319.304 138.215 319.949 146.214 320.621C 138.305 319.249 138.95 320.084 139.622 312.084C 138.25 319.994 139.086 319.349 131.087 318.677C 138.996 320.049 138.351 319.213 137.679 327.214ZM 102.875 106.04C 104.621 85.2479 106.299 87.4199 85.7432 83.853C 106.533 85.5998 104.361 87.277 107.928 66.7188C 106.179 87.5113 104.503 85.3402 125.059 88.9062C 104.27 87.1585 106.441 85.4822 102.875 106.04ZM 247.602 272.362C 248.975 264.452 248.14 265.097 256.139 265.769C 248.229 264.397 248.874 265.233 249.547 257.232C 248.175 265.142 249.01 264.497 241.011 263.825C 248.92 265.198 248.274 264.362 247.602 272.362ZM 204.264 139.905C 192.176 137.808 193.162 139.085 194.19 126.856C 192.093 138.947 193.37 137.961 181.145 136.934C 193.233 139.031 192.247 137.753 191.219 149.981C 193.316 137.891 192.04 138.878 204.264 139.905ZM 11.3242 276.194C 12.6972 268.283 11.8624 268.929 19.8605 269.601C 11.951 268.229 12.5968 269.065 13.2688 261.064C 11.8967 268.974 12.7324 268.329 4.7334 267.657C 12.642 269.03 11.9971 268.194 11.3242 276.194ZM 127.285 23.1246C 129.381 11.0336 128.104 12.0196 140.331 13.0472C 128.242 10.9503 129.228 12.2277 130.255 0C 128.158 12.0901 129.436 11.1041 117.21 10.0765C 129.298 12.1734 128.311 10.897 127.285 23.1246ZM 84.4578 276.919C 85.8299 269.009 84.9942 269.654 92.9932 270.326C 85.0837 268.954 85.7286 269.789 86.4015 261.789C 85.0286 269.699 85.8652 269.054 77.8652 268.382C 85.7747 269.754 85.1299 268.918 84.4578 276.919ZM 203.658 227.105C 205.031 219.194 204.194 219.84 212.193 220.512C 204.285 219.14 204.93 219.976 205.603 211.976C 204.23 219.886 205.065 219.241 197.066 218.568C 204.976 219.941 204.33 219.105 203.658 227.105ZM 246.22 212.083C 247.593 204.172 246.757 204.818 254.756 205.49C 246.846 204.118 247.492 204.954 248.164 196.953C 246.791 204.863 247.627 204.218 239.629 203.545C 247.538 204.918 246.893 204.082 246.22 212.083ZM 113.028 285.047C 114.4 277.137 113.564 277.782 121.564 278.454C 113.654 277.082 114.3 277.917 114.971 269.917C 113.6 277.827 114.435 277.182 106.436 276.51C 114.345 277.882 113.7 277.046 113.028 285.047ZM 93.206 198.103C 94.578 190.193 93.7432 190.838 101.741 191.51C 93.8328 190.138 94.4776 190.974 95.1497 182.974C 93.7785 190.884 94.6133 190.239 86.6143 189.566C 94.5238 190.939 93.878 190.104 93.206 198.103ZM 191.913 290.23C 194.009 278.14 192.733 279.125 204.958 280.154C 192.87 278.056 193.855 279.333 194.883 267.105C 192.785 279.196 194.063 278.21 181.838 277.182C 193.926 279.279 192.939 278.002 191.913 290.23Z"/>
<path id="path78_fill" fill-rule="evenodd" d="M 10.0748 23.1237C 12.1713 11.0336 10.8951 12.0187 23.1207 13.0463C 11.0317 10.9494 12.0176 12.2267 13.0459 0C 10.9485 12.0892 12.2265 11.1032 0 10.0756C 12.0881 12.1725 11.1023 10.8961 10.0748 23.1237Z"/>
<path id="path79_fill" fill-rule="evenodd" d="M 6.59171 15.1296C 7.96377 7.21972 7.12805 7.8647 15.1271 8.53683C 7.2185 7.16453 7.86338 8.0004 8.53539 0C 7.16333 7.90993 7.99905 7.26495 0 6.59282C 7.9095 7.96512 7.26372 7.12925 6.59171 15.1296Z"/>
<path id="path80_fill" fill-rule="evenodd" d="M 6.59171 15.1296C 7.96377 7.21972 7.12896 7.8647 15.1271 8.53683C 7.2185 7.16453 7.86338 8.0004 8.53539 0C 7.16333 7.90993 7.99905 7.26495 0 6.59282C 7.9095 7.96512 7.26372 7.12925 6.59171 15.1296Z"/>
<path id="path81_fill" fill-rule="evenodd" d="M 17.1314 39.3217C 18.8779 18.5292 20.5557 20.7012 0 17.1343C 20.789 18.8811 18.6174 20.5582 22.1837 0C 20.4363 20.7925 18.7594 18.6215 39.3151 22.1874C 18.5261 20.4397 20.6968 18.7626 17.1314 39.3217Z"/>
<path id="path82_fill" fill-rule="evenodd" d="M 6.5908 15.1296C 7.96287 7.21881 7.12805 7.8647 15.1271 8.53683C 7.21759 7.16453 7.86338 8.0004 8.53539 0C 7.16242 7.90993 7.99814 7.26495 0 6.59191C 7.9086 7.96512 7.26372 7.12925 6.5908 15.1296Z"/>
<path id="path83_fill" fill-rule="evenodd" d="M 6.59171 15.1296C 7.96377 7.21881 7.12805 7.8647 15.1271 8.53683C 7.2185 7.16453 7.86338 8.0004 8.53539 0C 7.16333 7.90993 7.99905 7.26495 0 6.59282C 7.9095 7.96512 7.26372 7.12925 6.59171 15.1296Z"/>
<path id="path84_fill" fill-rule="evenodd" d="M 6.59171 15.1296C 7.96377 7.21881 7.12896 7.8647 15.1271 8.53683C 7.21759 7.16453 7.86428 8.0004 8.53539 0C 7.16333 7.90993 7.99905 7.26495 0 6.59282C 7.9095 7.96512 7.26372 7.12925 6.59171 15.1296Z"/>
<path id="path85_fill" fill-rule="evenodd" d="M 6.5908 15.1296C 7.96287 7.21881 7.12805 7.8647 15.1271 8.53683C 7.21759 7.16453 7.86338 8.0004 8.53539 0C 7.16333 7.90993 7.99814 7.26495 0 6.59191C 7.9086 7.96512 7.26372 7.12925 6.5908 15.1296Z"/>
<path id="path86_fill" fill-rule="evenodd" d="M 0 7.59784C 8.01804 7.9814 7.27457 7.23238 7.59566 15.2545C 7.98005 7.23509 7.23116 7.97868 15.251 7.65664C 7.23387 7.27309 7.97734 8.02211 7.65535 0C 7.27096 8.01939 8.02075 7.2758 0 7.59784Z"/>
<path id="path87_fill" fill-rule="evenodd" d="M 0 7.59784C 8.01804 7.9814 7.27457 7.23238 7.59566 15.2545C 7.98005 7.23509 7.23116 7.97868 15.251 7.65664C 7.23297 7.27218 7.97734 8.02211 7.65535 0C 7.27096 8.01939 8.02075 7.2758 0 7.59784Z"/>
<path id="path88_fill" fill-rule="evenodd" d="M 0 7.59784C 8.01804 7.9823 7.27457 7.23238 7.59566 15.2545C 7.98005 7.23509 7.23026 7.97868 15.2519 7.65755C 7.23387 7.27309 7.97734 8.02211 7.65535 0C 7.27096 8.01939 8.02075 7.2758 0 7.59784Z"/>
<path id="path89_fill" fill-rule="evenodd" d="M 6.59171 15.1296C 7.96377 7.21972 7.12896 7.8647 15.1271 8.53683C 7.2185 7.16453 7.86338 8.0004 8.5363 0C 7.16333 7.90993 7.99905 7.26495 0 6.59282C 7.9095 7.96512 7.26372 7.12925 6.59171 15.1296Z"/>
<path id="path90_fill" fill-rule="evenodd" d="M 17.1314 39.3217C 18.8779 18.5292 20.5557 20.7012 0 17.1343C 20.789 18.8811 18.6174 20.5582 22.1837 0C 20.4363 20.7925 18.7594 18.6205 39.3151 22.1874C 18.5261 20.4397 20.6977 18.7626 17.1314 39.3217Z"/>
<path id="path91_fill" fill-rule="evenodd" d="M 10.8264 0.0425168C 4.88499 5.44125 5.9405 5.44577 0.0416052 0C 5.44033 5.9424 5.44395 4.88672 0 10.7866C 5.9414 5.38787 4.88589 5.38426 10.7839 10.8291C 5.38606 4.88672 5.38244 5.9424 10.8264 0.0425168Z"/>
<path id="path92_fill" fill-rule="evenodd" d="M 10.8264 0.0416122C 4.88499 5.44034 5.9414 5.44486 0.0416052 0C 5.44033 5.9415 5.44395 4.88581 0 10.7857C 5.9414 5.38697 4.88589 5.38245 10.7848 10.8282C 5.38697 4.88581 5.38244 5.9415 10.8264 0.0416122Z"/>
<path id="path93_fill" fill-rule="evenodd" d="M 10.8264 0.0416122C 4.8859 5.44125 5.9405 5.44396 0.0416052 0C 5.44033 5.9424 5.44395 4.88581 0 10.7857C 5.9414 5.38697 4.88589 5.38245 10.7848 10.8282C 5.38606 4.88581 5.38244 5.9415 10.8264 0.0416122Z"/>
<path id="path94_fill" fill-rule="evenodd" d="M 10.8273 0.0425168C 4.88589 5.44215 5.9414 5.44486 0.0425096 0C 5.44033 5.94331 5.44485 4.88672 0 10.7866C 5.9414 5.38787 4.88589 5.38335 10.7848 10.8291C 5.38697 4.88672 5.38335 5.9424 10.8273 0.0425168Z"/>
<path id="path95_fill" fill-rule="evenodd" d="M 6.59171 15.1296C 7.96377 7.21972 7.12896 7.8647 15.1271 8.53683C 7.2185 7.16453 7.86338 8.0004 8.5363 0C 7.16333 7.90993 7.99995 7.26495 0 6.59282C 7.9095 7.96512 7.26372 7.12925 6.59171 15.1296Z"/>
<path id="path96_fill" fill-rule="evenodd" d="M 0 7.59694C 8.01804 7.98049 7.27457 7.23148 7.59656 15.2536C 7.98005 7.23419 7.23116 7.97869 15.2519 7.65664C 7.23387 7.27218 7.97643 8.0212 7.65535 0C 7.27096 8.01939 8.02075 7.2758 0 7.59694Z"/>
<path id="path97_fill" fill-rule="evenodd" d="M 0 7.59784C 8.01804 7.9814 7.27457 7.23238 7.59566 15.2545C 7.98005 7.23509 7.23116 7.97868 15.251 7.65664C 7.23387 7.27309 7.97643 8.02211 7.65535 0C 7.27096 8.01939 8.02075 7.2758 0 7.59784Z"/>
<path id="path98_fill" fill-rule="evenodd" d="M 6.59171 15.1296C 7.96377 7.21972 7.12895 7.8647 15.128 8.53683C 7.2185 7.16453 7.86338 8.0004 8.53629 0C 7.16332 7.90993 7.99995 7.26495 0 6.59282C 7.9095 7.96512 7.26372 7.12925 6.59171 15.1296Z"/>
<path id="path99_fill" fill-rule="evenodd" d="M 22.5165 8.24283C 10.537 10.8952 11.9344 11.7012 8.24144 0C 10.8924 11.9807 11.7001 10.584 0 14.2775C 11.9787 11.6261 10.5813 10.8183 14.2742 22.5194C 11.6232 10.5387 10.8164 11.9364 22.5165 8.24283Z"/>
<path id="path100_fill" fill-rule="evenodd" d="M 14.7318 5.3933C 6.8947 7.12835 7.80911 7.65574 5.39239 0C 7.12715 7.83847 7.65445 6.92481 0 9.34194C 7.83805 7.60598 6.92364 7.07859 9.34036 14.7343C 7.6047 6.89586 7.0774 7.80952 14.7318 5.3933Z"/>
<path id="path101_fill" fill-rule="evenodd" d="M 14.7318 5.3933C 6.89379 7.12835 7.8082 7.65574 5.39239 0C 7.12715 7.83847 7.65445 6.9239 0 9.34103C 7.83715 7.60689 6.92364 7.07859 9.33945 14.7343C 7.6047 6.89496 7.0774 7.80952 14.7318 5.3933Z"/>
<path id="path102_fill" fill-rule="evenodd" d="M 14.7318 5.3933C 6.89379 7.12835 7.8082 7.65664 5.39239 0C 7.12715 7.83847 7.65535 6.9239 0 9.34103C 7.83715 7.60598 6.92364 7.07859 9.33945 14.7343C 7.6047 6.89586 7.0765 7.81043 14.7318 5.3933Z"/>
<path id="path103_fill" fill-rule="evenodd" d="M 14.7318 5.3933C 6.8947 7.12835 7.8082 7.65664 5.39239 0C 7.12715 7.83847 7.65445 6.92481 0 9.34194C 7.83715 7.60689 6.92364 7.07859 9.33945 14.7352C 7.6047 6.89586 7.0774 7.81043 14.7318 5.3933Z"/>
<path id="path104_fill" fill-rule="evenodd" d="M 8.24235 0C 10.8942 11.9807 11.7001 10.584 0 14.2766C 11.9796 11.6252 10.5822 10.8183 14.2751 22.5203C 11.6241 10.5396 10.8164 11.9364 22.5165 8.24283C 10.5379 10.8952 11.9353 11.7012 8.24235 0Z"/>
<path id="path105_fill" fill-rule="evenodd" d="M 14.7318 5.3933C 6.8947 7.12835 7.8082 7.65574 5.39149 0C 7.12715 7.83937 7.65445 6.92481 0 9.34194C 7.83715 7.60689 6.92274 7.07859 9.33945 14.7352C 7.6047 6.89586 7.0774 7.81043 14.7318 5.3933Z"/>
<path id="path106_fill" fill-rule="evenodd" d="M 14.7318 5.3933C 6.89379 7.12835 7.8082 7.65574 5.39239 0C 7.12715 7.83937 7.65445 6.9239 0 9.34103C 7.83715 7.60689 6.92364 7.07859 9.33945 14.7343C 7.6047 6.89496 7.0765 7.80952 14.7318 5.3933Z"/>
<path id="path107_fill" fill-rule="evenodd" d="M 0 7.2559C 18.508 16.8846 15.8579 17.5947 27.0741 0C 17.447 18.512 16.737 15.8615 34.3279 27.0787C 15.8199 17.45 18.4691 16.739 7.25468 34.3337C 16.8818 15.8226 17.5918 18.4731 0 7.2559Z"/>
<path id="path108_fill" fill-rule="evenodd" d="M 10.7848 10.8282C 5.38697 4.88672 5.38244 5.9424 10.8264 0.0425168C 4.8859 5.44125 5.9405 5.44577 0.0425096 0C 5.44033 5.9424 5.44485 4.88672 0 10.7866C 5.9414 5.38787 4.88589 5.38335 10.7848 10.8282Z"/>
<path id="path109_fill" fill-rule="evenodd" d="M 1.37478 0C 5.99657 6.56387 6.13134 5.51723 0 10.698C 6.56276 6.07538 5.5154 5.9415 10.6961 12.073C 6.07435 5.50909 5.93959 6.55663 12.0709 1.37501C 5.50816 5.99849 6.55462 6.13237 1.37478 0Z"/>
<path id="path110_fill" fill-rule="evenodd" d="M 1.37478 0C 5.99657 6.56387 6.13224 5.51633 0 10.6989C 6.56276 6.07538 5.5154 5.94059 10.6971 12.073C 6.07436 5.50909 5.93959 6.55663 12.0718 1.37501C 5.50816 5.99758 6.55553 6.13237 1.37478 0Z"/>
<path id="path111_fill" fill-rule="evenodd" d="M 1.37478 0C 5.99748 6.56387 6.13134 5.51633 0 10.6989C 6.56367 6.07538 5.5154 5.94059 10.6971 12.073C 6.07435 5.50909 5.93959 6.55663 12.0709 1.37501C 5.50816 5.99849 6.55553 6.13237 1.37478 0Z"/>
<path id="path112_fill" fill-rule="evenodd" d="M 1.37478 0C 5.99748 6.56387 6.13134 5.51723 0 10.6989C 6.56276 6.07538 5.5163 5.94059 10.6971 12.073C 6.07436 5.50909 5.93959 6.55663 12.0718 1.37501C 5.50816 5.99849 6.55553 6.13237 1.37478 0Z"/>
<path id="path113_fill" fill-rule="evenodd" d="M 3.57262 0C 17.0373 15.9375 14.3158 15.5883 31.373 3.57322C 15.4373 17.0402 15.7874 14.3182 27.8004 31.3774C 14.3357 15.4399 17.0563 15.7891 0 27.8051C 15.9357 14.3381 15.5866 17.0592 3.57262 0Z"/>
<path id="path114_fill" fill-rule="evenodd" d="M 31.373 3.57322C 15.4373 17.0411 15.7874 14.3191 27.8004 31.3783C 14.3366 15.4399 17.0572 15.7891 0 27.8051C 15.9366 14.3381 15.5866 17.0592 3.57262 0C 17.0382 15.9384 14.3167 15.5883 31.373 3.57322Z"/>
<path id="path115_fill" fill-rule="evenodd" d="M 10.0748 23.1246C 12.1713 11.0336 10.8951 12.0196 23.1207 13.0472C 11.0326 10.9503 12.0176 12.2277 13.045 0C 10.9485 12.0901 12.2265 11.1041 0 10.0765C 12.0881 12.1734 11.1023 10.897 10.0748 23.1246Z"/>
<path id="path116_fill" fill-rule="evenodd" d="M 6.59171 15.1296C 7.96377 7.21972 7.12805 7.8647 15.1271 8.53683C 7.2185 7.16453 7.86338 8.0004 8.53539 0C 7.16333 7.91084 7.99905 7.26495 0 6.59282C 7.9095 7.96512 7.26372 7.13016 6.59171 15.1296Z"/>
<path id="path117_fill" fill-rule="evenodd" d="M 6.59171 15.1296C 7.96377 7.21972 7.12805 7.8647 15.1271 8.53683C 7.2185 7.16453 7.86338 8.0004 8.53539 0C 7.16333 7.90993 7.99905 7.26495 0 6.59282C 7.9086 7.96512 7.26372 7.12925 6.59171 15.1296Z"/>
<path id="path118_fill" fill-rule="evenodd" d="M 6.59171 15.1296C 7.96377 7.21881 7.12805 7.8647 15.1271 8.53683C 7.2185 7.16453 7.86338 8.0004 8.5363 0C 7.16333 7.90993 7.99905 7.26495 0 6.59282C 7.9095 7.96512 7.26372 7.12925 6.59171 15.1296Z"/>
<path id="path119_fill" fill-rule="evenodd" d="M 6.59171 15.1296C 7.96377 7.21972 7.12896 7.8647 15.1271 8.53683C 7.21759 7.16453 7.86338 8.0004 8.53539 0C 7.16333 7.90993 7.99905 7.26495 0 6.59282C 7.9086 7.96512 7.26372 7.12925 6.59171 15.1296Z"/>
<path id="path120_fill" fill-rule="evenodd" d="M 6.59171 15.1296C 7.96287 7.21972 7.12805 7.8647 15.1271 8.53683C 7.2185 7.16453 7.86247 8.0004 8.53539 0C 7.16333 7.90993 7.99905 7.26495 0 6.59282C 7.9086 7.96512 7.26372 7.12925 6.59171 15.1296Z"/>
<path id="path121_fill" fill-rule="evenodd" d="M 23.1207 13.0481C 11.0326 10.9503 12.0185 12.2277 13.0459 0C 10.9494 12.0901 12.2256 11.1041 0 10.0756C 12.0881 12.1743 11.1023 10.8961 10.0748 23.1237C 12.1722 11.0336 10.8951 12.0205 23.1207 13.0481Z"/>
<path id="path122_fill" fill-rule="evenodd" d="M 10.0748 23.1237C 11.1013 10.8961 12.0881 12.1734 0 10.0765C 12.2256 11.1041 10.9485 12.0892 13.0459 0C 12.0176 12.2267 11.0326 10.9503 23.1207 13.0481C 10.8951 12.0196 12.1713 11.0336 10.0748 23.1237Z"/>
<path id="path123_fill" fill-rule="evenodd" d="M 6.00196 0.683985C 2.7391 2.98294 3.25924 3.04989 0.68387 0C 2.98153 3.26431 3.04847 2.74318 0 5.31989C 3.26286 3.02094 2.74272 2.95398 5.31809 6.00387C 3.02043 2.73956 2.95349 3.26069 6.00196 0.683985Z"/>
<path id="path124_fill" fill-rule="evenodd" d="M 6.00196 0.683081C 2.7391 2.98203 3.25924 3.04898 0.68387 0C 2.98153 3.26341 3.04847 2.74228 0 5.31898C 3.26286 3.02003 2.74272 2.95308 5.31899 6.00297C 3.02043 2.73866 2.95349 3.25979 6.00196 0.683081Z"/>
<path id="path125_fill" fill-rule="evenodd" d="M 6.00196 0.683081C 2.7391 2.98203 3.25924 3.04898 0.68387 0C 2.98153 3.26341 3.04847 2.74228 0 5.31898C 3.26376 3.02003 2.74272 2.95308 5.31899 6.00297C 3.02043 2.73866 2.95349 3.25979 6.00196 0.683081Z"/>
<path id="path126_fill" fill-rule="evenodd" d="M 5.36241 5.38413C 2.67849 2.42923 2.67668 2.95489 5.38322 0.0208091C 2.42973 2.70609 2.95439 2.7079 0.0208056 0C 2.70473 2.95489 2.70744 2.43014 0 5.36332C 2.95439 2.67894 2.42883 2.67713 5.36241 5.38413Z"/>
<path id="path127_fill" fill-rule="evenodd" d="M 5.36241 5.38322C 2.67849 2.42923 2.67668 2.95398 5.38322 0.0208091C 2.42973 2.70518 2.95439 2.70699 0.0208056 0C 2.70473 2.95398 2.70744 2.42923 0 5.36241C 2.95439 2.67804 2.42973 2.67623 5.36241 5.38322Z"/>
<path id="path128_fill" fill-rule="evenodd" d="M 5.36241 5.38413C 2.67849 2.43014 2.67668 2.95489 5.38322 0.0217138C 2.42973 2.70609 2.95439 2.7079 0.0208056 0C 2.70473 2.95489 2.70744 2.43014 0 5.36332C 2.95439 2.67894 2.42973 2.67713 5.36241 5.38413Z"/>
</defs>
</svg>
