<svg width="30" height="30" viewBox="0 0 30 30" version="1.1" xmlns="http://www.w3.org/2000/svg" xmlns:xlink="http://www.w3.org/1999/xlink">
<title>Vector</title>
<desc>Created using Figma</desc>
<g id="Canvas" transform="translate(25804 -32078)">
<g id="Vector">
<use xlink:href="#path0_fill" transform="translate(-25803.8 32078.5)" fill="#FFFFFF"/>
</g>
</g>
<defs>
<path id="path0_fill" d="M 22.1567 16.2021L 22.1567 13.294L 16.2021 13.294L 16.2021 7.3394L 13.294 7.3394L 13.294 13.294L 7.3394 13.294L 7.3394 16.2021L 13.294 16.2021L 13.294 22.1567L 16.2021 22.1567L 16.2021 16.2021L 22.1567 16.2021ZM 14.748 0C 18.8101 0 22.2836 1.44248 25.1686 4.32747C 28.0536 7.21247 29.4961 10.686 29.4961 14.748C 29.4961 18.8101 28.0536 22.2836 25.1686 25.1686C 22.2836 28.0536 18.8101 29.4961 14.748 29.4961C 10.686 29.4961 7.21247 28.0536 4.32747 25.1686C 1.44248 22.2836 0 18.8101 0 14.748C 0 10.686 1.44248 7.21247 4.32747 4.32747C 7.21247 1.44248 10.686 0 14.748 0Z"/>
</defs>
</svg>
