<svg width="27" height="28" viewBox="0 0 27 28" version="1.1" xmlns="http://www.w3.org/2000/svg" xmlns:xlink="http://www.w3.org/1999/xlink">
<title>Link</title>
<desc>Created using Figma</desc>
<g id="Canvas" transform="translate(25482 -32079)">
<g id="Link">
<g id="Fill 647">
<use xlink:href="#path0_fill" transform="matrix(1 5.55112e-17 -5.55112e-17 1 -25481.7 32088.1)" fill="#6F7276"/>
</g>
<g id="Fill 648">
<use xlink:href="#path1_fill" transform="matrix(1 5.55112e-17 -5.55112e-17 1 -25471.2 32079.8)" fill="#6F7276"/>
</g>
</g>
</g>
<defs>
<path id="path0_fill" fill-rule="evenodd" d="M 9.87364 3.55616C 10.9133 2.51654 12.7243 2.51654 13.7626 3.55616L 14.7348 4.5284C 15.2725 5.06609 16.143 5.06609 16.6793 4.5284C 17.217 3.99209 17.217 3.12161 16.6807 2.58392L 15.7084 1.61169C 14.6702 0.572066 13.2882 0 11.8195 0C 10.3494 0 8.96879 0.572066 7.92917 1.61031L 1.60894 7.93192C -0.536312 10.0772 -0.536312 13.5659 1.60894 15.7112L 2.58117 16.6821C 3.61942 17.7217 5.00008 18.2937 6.47012 18.2937C 7.94017 18.2937 9.32083 17.7217 10.3591 16.6821L 13.3459 13.6966C 13.8836 13.1589 13.8836 12.2884 13.3459 11.7507C 12.8096 11.2144 11.9391 11.2144 11.4014 11.7507L 8.41322 14.7376C 7.37635 15.7772 5.56527 15.7786 4.52565 14.7376L 3.55341 13.7667C 2.48079 12.6941 2.48079 10.949 3.55341 9.87777L 9.87364 3.55616Z"/>
<path id="path1_fill" fill-rule="evenodd" d="M 8.18134 16.6821L 14.5016 10.3618C 15.5412 9.32358 16.1133 7.94292 16.1133 6.47287C 16.1133 5.00283 15.5412 3.62217 14.5016 2.58392L 13.5293 1.61031C 12.4897 0.572066 11.1091 0 9.64038 0C 8.17034 0 6.78968 0.572066 5.75143 1.61031L 3.02037 4.34C 2.48268 4.87769 2.48268 5.74817 3.02037 6.28448C 3.55668 6.82217 4.42853 6.82217 4.96484 6.28585L 7.69591 3.55479C 8.21434 3.03635 8.90605 2.75032 9.64038 2.75032C 10.3747 2.75032 11.065 3.03635 11.5849 3.55479L 12.5571 4.5284C 13.0769 5.04821 13.3629 5.73854 13.3629 6.47287C 13.3629 7.20721 13.0769 7.89754 12.5571 8.41735L 6.23686 14.7376C 5.19724 15.7772 3.38616 15.7772 2.34791 14.7376C 1.8116 14.1999 0.941125 14.1999 0.403437 14.7362C -0.13425 15.2739 -0.13425 16.1444 0.402062 16.6821C 1.44031 17.7217 2.82234 18.2937 4.29239 18.2937C 5.76106 18.2937 7.14309 17.7217 8.18134 16.6821Z"/>
</defs>
</svg>
