<svg width="26" height="26" viewBox="0 0 26 26" version="1.1" xmlns="http://www.w3.org/2000/svg" xmlns:xlink="http://www.w3.org/1999/xlink">
<title>Link</title>
<desc>Created using Figma</desc>
<g id="Canvas" transform="translate(25043 -24606)">
<g id="Link">
<g id="Fill 647">
<use xlink:href="#path0_fill" transform="matrix(1 5.55112e-17 -5.55112e-17 1 -25042.7 24614.2)" fill="#6F7276"/>
</g>
<g id="Fill 648">
<use xlink:href="#path1_fill" transform="matrix(1 5.55112e-17 -5.55112e-17 1 -25032.6 24606.3)" fill="#6F7276"/>
</g>
</g>
</g>
<defs>
<path id="path0_fill" fill-rule="evenodd" d="M 9.48953 3.41782C 10.4887 2.41864 12.2293 2.41864 13.2272 3.41782L 14.1616 4.35223C 14.6784 4.869 15.515 4.869 16.0304 4.35223C 16.5472 3.83678 16.5472 3.00017 16.0318 2.4834L 15.0973 1.54899C 14.0995 0.549811 12.7712 0 11.3597 0C 9.94682 0 8.61987 0.549811 7.6207 1.54767L 1.54634 7.62334C -0.515448 9.68513 -0.515448 13.0382 1.54634 15.1L 2.48076 16.0331C 3.47861 17.0322 4.80556 17.5821 6.21842 17.5821C 7.63127 17.5821 8.95822 17.0322 9.95607 16.0331L 12.8267 13.1637C 13.3435 12.647 13.3435 11.8104 12.8267 11.2936C 12.3113 10.7781 11.4747 10.7781 10.9579 11.2936L 8.08592 14.1642C 7.08939 15.1634 5.34876 15.1647 4.34959 14.1642L 3.41517 13.2312C 2.38428 12.2003 2.38428 10.5231 3.41517 9.49349L 9.48953 3.41782Z"/>
<path id="path1_fill" fill-rule="evenodd" d="M 7.86306 16.0331L 13.9374 9.95872C 14.9366 8.96086 15.4864 7.63392 15.4864 6.22106C 15.4864 4.8082 14.9366 3.48126 13.9374 2.4834L 13.003 1.54767C 12.0038 0.549811 10.6769 0 9.26534 0C 7.85248 0 6.52554 0.549811 5.52768 1.54767L 2.90286 4.17116C 2.38609 4.68793 2.38609 5.52454 2.90286 6.03999C 3.41831 6.55676 4.25625 6.55676 4.77169 6.04131L 7.39651 3.41649C 7.89478 2.91823 8.55957 2.64332 9.26534 2.64332C 9.97111 2.64332 10.6346 2.91823 11.1342 3.41649L 12.0686 4.35223C 12.5682 4.85182 12.8431 5.51529 12.8431 6.22106C 12.8431 6.92683 12.5682 7.5903 12.0686 8.08989L 5.99423 14.1642C 4.99505 15.1634 3.25443 15.1634 2.25657 14.1642C 1.74112 13.6475 0.904512 13.6475 0.387743 14.1629C -0.129027 14.6797 -0.129027 15.5163 0.386421 16.0331C 1.38428 17.0322 2.71254 17.5821 4.1254 17.5821C 5.53693 17.5821 6.8652 17.0322 7.86306 16.0331Z"/>
</defs>
</svg>
