<svg width="27" height="27" viewBox="0 0 27 27" version="1.1" xmlns="http://www.w3.org/2000/svg" xmlns:xlink="http://www.w3.org/1999/xlink">
<title>f2f7</title>
<desc>Created using Figma</desc>
<g id="Canvas" transform="translate(24987 -24606)">
<g id="f2f7">
<g id="Vector">
<use xlink:href="#path0_fill" transform="translate(-24986.3 24606)" fill="#777777"/>
</g>
</g>
</g>
<defs>
<path id="path0_fill" d="M 22.9827 14.3564L 25.9292 16.4879C 26.18 16.7387 26.2218 17.0312 26.0546 17.3656L 23.3589 21.8167C 23.1917 22.151 22.9409 22.2555 22.6066 22.1301L 19.2212 20.8136C 18.1764 21.5241 17.4241 21.963 16.9643 22.1301L 16.4628 25.5782C 16.3792 25.9125 16.1494 26.0797 15.7732 26.0797L 10.4444 26.0797C 10.0683 26.0797 9.8384 25.9125 9.75481 25.5782L 9.25328 22.1301C 8.62636 21.8794 7.87407 21.4405 6.99638 20.8136L 3.61104 22.1301C 3.27668 22.2973 3.02592 22.1928 2.85874 21.8167L 0.162999 17.3656C -0.0459741 16.9894 -0.0041804 16.6969 0.288382 16.4879L 3.1095 14.3564C 3.1095 14.231 3.09905 14.022 3.07816 13.7295C 3.05726 13.4369 3.04681 13.207 3.04681 13.0399C 3.04681 12.8727 3.05726 12.6428 3.07816 12.3502C 3.09905 12.0577 3.1095 11.8487 3.1095 11.7233L 0.22569 9.59181C -0.0250771 9.34105 -0.0668712 9.04849 0.100307 8.71413L 2.79605 4.26303C 2.96322 3.92867 3.21399 3.82419 3.54834 3.94957L 6.93369 5.26609C 7.97855 4.55559 8.73085 4.11675 9.19059 3.94957L 9.69212 0.501533C 9.77571 0.167176 10.0056 0 10.3817 0L 15.7105 0C 16.0867 0 16.3165 0.167176 16.4001 0.501533L 16.839 3.94957C 17.4659 4.20034 18.2182 4.63917 19.0959 5.26609L 22.4185 3.94957C 22.7529 3.78239 23.0245 3.88688 23.2335 4.26303L 25.9292 8.71413C 26.1382 9.09028 26.0964 9.38284 25.8039 9.59181L 22.9827 11.7233C 22.9827 11.8487 22.9932 12.0577 23.0141 12.3502C 23.035 12.6428 23.0454 12.8727 23.0454 13.0399C 23.0454 13.6668 23.0245 14.1056 22.9827 14.3564ZM 13.0148 17.6163C 14.3104 17.6163 15.4179 17.1775 16.3374 16.2998C 17.2569 15.4221 17.7166 14.3355 17.7166 13.0399C 17.7166 11.7442 17.2569 10.6576 16.3374 9.77989C 15.4179 8.9022 14.3104 8.46336 13.0148 8.46336C 11.7191 8.46336 10.622 8.9022 9.72346 9.77989C 8.82488 10.6576 8.3756 11.7442 8.3756 13.0399C 8.3756 14.3355 8.82488 15.4221 9.72346 16.2998C 10.622 17.1775 11.7191 17.6163 13.0148 17.6163Z"/>
</defs>
</svg>
