<svg width="27" height="28" viewBox="0 0 27 28" version="1.1" xmlns="http://www.w3.org/2000/svg" xmlns:xlink="http://www.w3.org/1999/xlink">
<title>Union</title>
<desc>Created using Figma</desc>
<g id="Canvas" transform="translate(-13935 -43492)">
<g id="Union">
<use xlink:href="#path0_fill" transform="translate(13935 43492.7)" fill="url(#paint0_linear)"/>
</g>
</g>
<defs>
<linearGradient id="paint0_linear" x1="0" y1="0" x2="1" y2="0" gradientUnits="userSpaceOnUse" gradientTransform="matrix(20.0771 -27 27 20.0768 -6.57704 16.9616)">
<stop offset="0" stop-color="#F7618B"/>
<stop offset="1" stop-color="#2A7AFF"/>
</linearGradient>
<path id="path0_fill" fill-rule="evenodd" d="M 16.2852 1.62891C 18.457 -0.542969 21.9922 -0.542969 24.168 1.62891L 25.3711 2.83203C 27.543 5.00781 27.543 8.54297 25.3711 10.7148L 18.918 17.168C 17.9062 18.1797 16.5938 18.7188 15.2617 18.7969L 14.9727 18.7969C 13.5469 18.7969 12.1211 18.2539 11.0312 17.168L 10.543 16.6797L 12.2461 14.9766L 12.7344 15.4648C 13.9688 16.6992 15.9805 16.6992 17.2148 15.4648L 23.668 9.01172C 24.8984 7.77734 24.8984 5.76953 23.668 4.53516L 22.4648 3.33594C 21.2305 2.10156 19.2227 2.10156 17.9883 3.33594L 13.0352 8.28906C 14.1094 8.48438 15.1367 9 15.9688 9.82812L 17.6602 11.5195L 15.957 13.2227L 14.2656 11.5312C 13.0312 10.3008 11.0234 10.3008 9.78906 11.5312L 6.34766 14.9727L 3.33594 17.9844C 2.10156 19.2188 2.10156 21.2266 3.33594 22.4609L 3.69531 22.8203L 4.53516 23.6641C 5.13281 24.2617 5.92578 24.5898 6.77344 24.5898C 7.62109 24.5898 8.41406 24.2617 9.01172 23.6641L 13.7969 18.8789L 15.5 20.582L 10.7148 25.3672C 9.66406 26.418 8.26172 27 6.77344 27C 5.28516 27 3.88281 26.418 2.83203 25.3672L 1.62891 24.1641C -0.542969 21.9922 -0.542969 18.457 1.62891 16.2812L 8.08594 9.82812C 9.375 8.53906 11.1445 8.01562 12.8242 8.25781L 11.2422 6.67578L 16.2852 1.62891Z"/>
</defs>
</svg>
