<svg width="36" height="32" viewBox="0 0 36 32" version="1.1" xmlns="http://www.w3.org/2000/svg" xmlns:xlink="http://www.w3.org/1999/xlink">
<title>Group 28</title>
<desc>Created using Figma</desc>
<g id="Canvas" transform="translate(24931 -24603)">
<g id="Group 28">
<g id="Mask Group">
<mask id="mask0_alpha" mask-type="alpha">
<g id="Ellipse 2.1">
<use xlink:href="#path0_fill" transform="translate(-24930.7 24603.2)" fill="#FFFFFF"/>
</g>
</mask>
<g id="Ellipse 2.1" mask="url(#mask0_alpha)">
<use xlink:href="#path0_fill" transform="translate(-24930.7 24603.2)" fill="#DDDEE4"/>
</g>
<g id="layer" mask="url(#mask0_alpha)">
<use xlink:href="#path1_fill" transform="translate(-24930 24607.1)" fill="#777777"/>
</g>
</g>
<g id="Ellipse">
<use xlink:href="#path2_fill" transform="translate(-24905.8 24604)" fill="#C4C4C4"/>
<mask id="mask1_outline_ins">
<use xlink:href="#path2_fill" fill="white" transform="translate(-24905.8 24604)"/>
</mask>
<g mask="url(#mask1_outline_ins)">
<use xlink:href="#path3_stroke_2x" transform="translate(-24905.8 24604)" fill="#F5F8FA"/>
</g>
</g>
</g>
</g>
<defs>
<path id="path0_fill" d="M 31.8358 15.9179C 31.8358 24.7091 24.7091 31.8358 15.9179 31.8358C 7.12668 31.8358 0 24.7091 0 15.9179C 0 7.12668 7.12668 0 15.9179 0C 24.7091 0 31.8358 7.12668 31.8358 15.9179Z"/>
<path id="path1_fill" fill-rule="evenodd" d="M 8.84053 9.12761C 8.56131 9.29446 8.03528 10.3417 8.27326 11.2606C 8.62718 12.6271 9.88607 13.1604 9.88607 13.1604C 9.88607 13.1604 11.8555 15.6838 11.8555 17.1513C 11.8555 18.6187 11.8555 19.1889 11.3277 20.4131C 10.8 21.6374 0.439824 23.105 0 30.3223L 15.0792 30.3223L 30.3239 30.3239C 29.8841 23.1065 19.524 21.639 18.9962 20.4147C 18.4684 19.1904 18.4684 18.6203 18.4684 17.1528C 18.4684 15.6854 20.4378 13.162 20.4378 13.162C 20.4378 13.162 21.6967 12.6286 22.0507 11.2621C 22.2886 10.3433 21.7626 9.29604 21.4834 9.12919C 22.2298 6.91923 22.7124 0.278624 15.2447 0.00402796C 15.2071 -0.00116343 15.1696 -0.000236735 15.1323 0.000831243C 7.61152 0.277048 8.09415 6.91765 8.84053 9.12761Z"/>
<path id="path2_fill" d="M 10.7531 5.37654C 10.7531 8.34592 8.34592 10.7531 5.37654 10.7531C 2.40716 10.7531 0 8.34592 0 5.37654C 0 2.40716 2.40716 0 5.37654 0C 8.34592 0 10.7531 2.40716 10.7531 5.37654Z"/>
<path id="path3_stroke_2x" d="M 9.75308 5.37654C 9.75308 7.79363 7.79363 9.75308 5.37654 9.75308L 5.37654 11.7531C 8.8982 11.7531 11.7531 8.8982 11.7531 5.37654L 9.75308 5.37654ZM 5.37654 9.75308C 2.95944 9.75308 1 7.79363 1 5.37654L -1 5.37654C -1 8.8982 1.85487 11.7531 5.37654 11.7531L 5.37654 9.75308ZM 1 5.37654C 1 2.95944 2.95944 1 5.37654 1L 5.37654 -1C 1.85487 -1 -1 1.85487 -1 5.37654L 1 5.37654ZM 5.37654 1C 7.79363 1 9.75308 2.95944 9.75308 5.37654L 11.7531 5.37654C 11.7531 1.85487 8.8982 -1 5.37654 -1L 5.37654 1Z"/>
</defs>
</svg>
