<svg width="84" height="69" viewBox="0 0 84 69" version="1.1" xmlns="http://www.w3.org/2000/svg" xmlns:xlink="http://www.w3.org/1999/xlink">
<title>layer</title>
<desc>Created using Figma</desc>
<g id="Canvas" transform="translate(-14457 -19033)">
<rect x="14457" y="19033" width="84" height="69" fill="#E5E5E5"/>
<clipPath id="clip-0" clip-rule="evenodd">
<path d="M 14354 15652L 15794 15652L 15794 22547L 14354 22547L 14354 15652Z" fill="#FFFFFF"/>
</clipPath>
<g id="Thicket Layout Option 1" clip-path="url(#clip-0)">
<path d="M 14354 15652L 15794 15652L 15794 22547L 14354 22547L 14354 15652Z" fill="#172B42"/>
<g id="Open Source &#38; More Info">
</g>
<g id="layer">
<use xlink:href="#path0_stroke" transform="translate(14459 19035)" fill="#FFFFFF"/>
</g>
</g>
</g>
<defs>
<path id="path0_stroke" d="M 0 0L 0 -1.25C -0.690356 -1.25 -1.25 -0.690356 -1.25 2.77556e-16L 0 0ZM 80 0L 81.25 0C 81.25 -0.690356 80.6904 -1.25 80 -1.25L 80 0ZM 80 65L 80 66.25C 80.6904 66.25 81.25 65.6904 81.25 65L 80 65ZM 0 65L -1.25 65C -1.25 65.6904 -0.690356 66.25 2.77556e-16 66.25L 0 65ZM 0.189068 57.8501L -0.734597 57.0078C -0.936045 57.2288 -1.05163 57.5146 -1.0604 57.8134L 0.189068 57.8501ZM 19.8326 36.3071L 20.7562 35.4649C 20.5194 35.2051 20.1841 35.0571 19.8326 35.0571C 19.481 35.0571 19.1458 35.2051 18.9089 35.4649L 19.8326 36.3071ZM 31.6326 49.2482L 30.709 50.0904C 30.9518 50.3567 31.2977 50.5053 31.658 50.4979C 32.0183 50.4906 32.3579 50.3282 32.5897 50.0523L 31.6326 49.2482ZM 59.0262 16.6426L 59.9499 15.8004C 59.7071 15.5341 59.3612 15.3855 59.0009 15.3928C 58.6406 15.4001 58.301 15.5626 58.0692 15.8385L 59.0262 16.6426ZM 79.9795 39.6219L 81.2295 39.6219C 81.2295 39.3103 81.1131 39.01 80.9032 38.7797L 79.9795 39.6219ZM 0.00966846 63.9693L 1.25913 64.006L 0.00966846 63.9693ZM 0 1.25L 80 1.25L 80 -1.25L 0 -1.25L 0 1.25ZM 78.75 0L 78.75 65L 81.25 65L 81.25 0L 78.75 0ZM 80 63.75L 0 63.75L 0 66.25L 80 66.25L 80 63.75ZM 1.25 65L 1.25 0L -1.25 0L -1.25 65L 1.25 65ZM 23.4355 23.349C 27.1228 23.349 30.0937 20.3371 30.0937 16.6442L 27.5937 16.6442C 27.5937 18.9766 25.7219 20.849 23.4355 20.849L 23.4355 23.349ZM 30.0937 16.6442C 30.0937 12.9514 27.1228 9.93945 23.4355 9.93945L 23.4355 12.4395C 25.7219 12.4395 27.5937 14.3119 27.5937 16.6442L 30.0937 16.6442ZM 23.4355 9.93945C 19.7482 9.93945 16.7773 12.9514 16.7773 16.6442L 19.2773 16.6442C 19.2773 14.3119 21.1491 12.4395 23.4355 12.4395L 23.4355 9.93945ZM 16.7773 16.6442C 16.7773 20.3371 19.7482 23.349 23.4355 23.349L 23.4355 20.849C 21.1491 20.849 19.2773 18.9766 19.2773 16.6442L 16.7773 16.6442ZM 1.11273 58.6923L 20.7562 37.1493L 18.9089 35.4649L -0.734597 57.0078L 1.11273 58.6923ZM 18.9089 37.1493L 30.709 50.0904L 32.5563 48.406L 20.7562 35.4649L 18.9089 37.1493ZM 32.5897 50.0523L 59.9833 17.4467L 58.0692 15.8385L 30.6756 48.4441L 32.5897 50.0523ZM 58.1026 17.4848L 79.0558 40.4642L 80.9032 38.7797L 59.9499 15.8004L 58.1026 17.4848ZM 78.7295 39.6219L 78.7295 63.9986L 81.2295 63.9986L 81.2295 39.6219L 78.7295 39.6219ZM 78.9795 63.7486L 1.00924 63.7486L 1.00924 66.2486L 78.9795 66.2486L 78.9795 63.7486ZM 1.25913 64.006L 1.43853 57.8867L -1.0604 57.8134L -1.23979 63.9327L 1.25913 64.006ZM 78.7295 63.9986C 78.7295 63.8606 78.8414 63.7486 78.9795 63.7486L 78.9795 66.2486C 80.2221 66.2486 81.2295 65.2413 81.2295 63.9986L 78.7295 63.9986ZM 1.00924 63.7486C 1.15018 63.7486 1.26326 63.8651 1.25913 64.006L -1.23979 63.9327C -1.27697 65.2006 -0.259234 66.2486 1.00924 66.2486L 1.00924 63.7486Z"/>
</defs>
</svg>
