<svg width="175" height="175" viewBox="0 0 175 175" version="1.1" xmlns="http://www.w3.org/2000/svg" xmlns:xlink="http://www.w3.org/1999/xlink">
<title>Vector</title>
<desc>Created using Figma</desc>
<g id="Canvas" transform="translate(-28347 -20549)">
<g id="Vector">
<use xlink:href="#path0_stroke" transform="translate(28349.9 20552)" fill="#FFFFFF"/>
</g>
</g>
<defs>
<path id="path0_stroke" d="M 42.7437 105.9L 41.9502 108.271C 42.8492 108.572 43.841 108.339 44.5114 107.668L 42.7437 105.9ZM 105.91 42.7413L 107.677 44.5091C 108.348 43.8386 108.581 42.8465 108.28 41.9473L 105.91 42.7413ZM 113.692 9.47054L 111.924 7.70211L 111.923 7.70343L 113.692 9.47054ZM 146.962 1.68176L 148.731 3.44878C 149.343 2.8361 149.594 1.95022 149.395 1.1073C 149.196 0.264381 148.575 -0.415484 147.754 -0.689661L 146.962 1.68176ZM 131.048 17.6097L 132.814 19.3791L 132.816 19.3767L 131.048 17.6097ZM 131.048 30.3304L 132.816 28.5627L 132.814 28.561L 131.048 30.3304ZM 138.736 38.0181L 136.968 39.7859L 136.97 39.7876L 138.736 38.0181ZM 151.463 38.0181L 153.229 39.7876L 153.232 39.7852L 151.463 38.0181ZM 167.371 22.097L 169.741 21.3013C 169.465 20.4806 168.785 19.8609 167.942 19.6631C 167.099 19.4653 166.214 19.7176 165.602 20.33L 167.371 22.097ZM 126.325 63.1497L 127.119 60.7793C 126.22 60.478 125.228 60.7113 124.557 61.3818L 126.325 63.1497ZM 63.1522 126.309L 61.3846 124.541C 60.714 125.211 60.4804 126.204 60.7816 127.103L 63.1522 126.309ZM 55.3634 159.58L 53.5956 157.812L 53.595 157.812L 55.3634 159.58ZM 22.1062 167.368L 20.3384 165.601C 19.7262 166.213 19.4744 167.098 19.6726 167.941C 19.8708 168.783 20.4909 169.464 21.3118 169.739L 22.1062 167.368ZM 38.0273 151.447L 39.7951 153.215L 39.7985 153.212L 38.0273 151.447ZM 38.0273 138.72L 39.7985 136.955L 39.7935 136.95L 38.0273 138.72ZM 30.3261 131.032L 28.5584 132.8L 28.5599 132.801L 30.3261 131.032ZM 17.6121 131.032L 19.3799 132.8L 19.3799 132.8L 17.6121 131.032ZM 1.69095 146.953L -0.679909 147.746C -0.405185 148.567 0.274965 149.188 1.11787 149.387C 1.96078 149.585 2.84638 149.333 3.45872 148.721L 1.69095 146.953ZM 96.6724 104.091L 94.8197 105.769C 95.2792 106.276 95.9266 106.573 96.6108 106.59C 97.295 106.607 97.9562 106.342 98.4402 105.858L 96.6724 104.091ZM 104.097 96.6657L 105.865 98.4334C 106.841 97.4571 106.841 95.8742 105.865 94.8979L 104.097 96.6657ZM 24.6869 17.262L 22.3142 18.0495C 22.4368 18.4189 22.6439 18.7545 22.9191 19.0297L 24.6869 17.262ZM 21.5202 7.72139L 23.8929 6.93384C 23.7701 6.56377 23.5624 6.22756 23.2864 5.95209L 21.5202 7.72139ZM 13.7853 0L 15.5515 -1.76931C 14.575 -2.74417 12.9933 -2.74348 12.0175 -1.76777L 13.7853 0ZM 0 13.7853L -1.76777 12.0175C -2.23661 12.4864 -2.5 13.1223 -2.5 13.7853C -2.5 14.4484 -2.23661 15.0842 -1.76777 15.5531L 0 13.7853ZM 7.7214 21.5067L 5.95363 23.2745C 6.22794 23.5488 6.56233 23.7555 6.93033 23.8783L 7.7214 21.5067ZM 17.2754 24.6936L 19.0432 22.9259C 18.7689 22.6516 18.4345 22.4449 18.0665 22.3221L 17.2754 24.6936ZM 68.3922 79.3459C 69.3685 80.3222 70.9514 80.3222 71.9277 79.3459C 72.904 78.3696 72.904 76.7867 71.9277 75.8104L 68.3922 79.3459ZM 93.489 96.853C 92.562 95.8298 90.981 95.7518 89.9577 96.6788C 88.9345 97.6058 88.8565 99.1868 89.7835 100.21L 93.489 96.853ZM 75.8138 71.9243C 76.7901 72.9007 78.373 72.9007 79.3493 71.9243C 80.3256 70.948 80.3256 69.3651 79.3493 68.3888L 75.8138 71.9243ZM 100.809 89.8413C 99.8322 88.865 98.2493 88.865 97.273 89.8413C 96.2967 90.8176 96.2967 92.4005 97.273 93.3769L 100.809 89.8413ZM 113.508 108.529C 112.532 107.553 110.949 107.553 109.972 108.529C 108.996 109.505 108.996 111.088 109.972 112.065L 113.508 108.529ZM 149.183 151.281C 150.159 152.258 151.742 152.258 152.719 151.282C 153.695 150.305 153.695 148.722 152.719 147.746L 149.183 151.281ZM 137.097 164.665L 135.33 166.433L 135.331 166.434L 137.097 164.665ZM 158.301 164.665L 156.535 162.896L 156.533 162.898L 158.301 164.665ZM 164.675 158.305L 166.441 160.075L 166.443 160.073L 164.675 158.305ZM 164.675 137.088L 166.443 135.32L 166.442 135.32L 164.675 137.088ZM 124.774 97.194L 123.006 98.9618L 123.007 98.9619L 124.774 97.194ZM 103.564 97.194L 101.797 95.4252L 101.795 95.4272L 103.564 97.194ZM 97.2036 103.561L 95.4349 101.794L 95.4348 101.794L 97.2036 103.561ZM 97.2036 124.765L 98.9715 122.997L 98.9713 122.997L 97.2036 124.765ZM 44.5114 107.668L 107.677 44.5091L 104.142 40.9734L 40.976 104.133L 44.5114 107.668ZM 108.28 41.9473C 104.781 31.5006 107.164 19.5396 115.46 11.2376L 111.923 7.70343C 102.229 17.4046 99.4647 31.3702 103.539 43.5352L 108.28 41.9473ZM 115.459 11.239C 123.76 2.94396 135.722 0.565942 146.171 4.05319L 147.754 -0.689661C 135.591 -4.74863 121.626 -1.99252 111.924 7.70211L 115.459 11.239ZM 145.194 -0.0852544L 129.279 15.8426L 132.816 19.3767L 148.731 3.44878L 145.194 -0.0852544ZM 129.282 15.8402C 124.786 20.3272 124.786 27.6129 129.282 32.0999L 132.814 28.561C 130.275 26.0273 130.275 21.9128 132.814 19.3791L 129.282 15.8402ZM 129.28 32.0982L 136.968 39.7859L 140.503 36.2504L 132.816 28.5627L 129.28 32.0982ZM 136.97 39.7876C 141.463 44.272 148.736 44.272 153.229 39.7876L 149.697 36.2487C 147.156 38.785 143.043 38.785 140.502 36.2487L 136.97 39.7876ZM 153.232 39.7852L 169.139 23.864L 165.602 20.33L 149.695 36.2511L 153.232 39.7852ZM 165.001 22.8926C 168.505 33.3311 166.123 45.2911 157.821 53.5932L 161.357 57.1287C 171.058 47.4277 173.823 33.4611 169.741 21.3013L 165.001 22.8926ZM 157.821 53.5932C 149.519 61.8953 137.558 64.2777 127.119 60.7793L 125.53 65.5201C 137.689 69.5949 151.656 66.8297 161.357 57.1287L 157.821 53.5932ZM 124.557 61.3818L 61.3846 124.541L 64.9198 128.077L 128.092 64.9177L 124.557 61.3818ZM 60.7816 127.103C 64.2804 137.549 61.8975 149.51 53.5956 157.812L 57.1312 161.347C 66.8324 151.646 69.5972 137.68 65.5228 125.515L 60.7816 127.103ZM 53.595 157.812C 45.3 166.114 33.3401 168.496 22.9006 164.998L 21.3118 169.739C 33.4705 173.813 47.4371 171.049 57.1318 161.347L 53.595 157.812ZM 23.8739 169.136L 39.7951 153.215L 36.2596 149.679L 20.3384 165.601L 23.8739 169.136ZM 39.7985 153.212C 44.2647 148.728 44.2831 141.457 39.7985 136.955L 36.2562 140.484C 38.7923 143.03 38.7837 147.146 36.2562 149.683L 39.7985 153.212ZM 39.7935 136.95L 32.0924 129.263L 28.5599 132.801L 36.2611 140.489L 39.7935 136.95ZM 32.0939 129.264C 27.6073 124.778 20.331 124.778 15.8444 129.264L 19.3799 132.8C 21.9139 130.266 26.0244 130.266 28.5584 132.8L 32.0939 129.264ZM 15.8444 129.264L -0.0768155 145.185L 3.45872 148.721L 19.3799 132.8L 15.8444 129.264ZM 4.06181 146.16C 0.569305 135.72 2.95217 123.758 11.2482 115.456L 7.7113 111.922C -1.98235 121.623 -4.7471 135.588 -0.679909 147.746L 4.06181 146.16ZM 11.2482 115.456C 19.5428 107.155 31.4963 104.772 41.9502 108.271L 43.5372 103.53C 31.3659 99.4556 17.4062 102.22 7.7113 111.922L 11.2482 115.456ZM 98.4402 105.858L 105.865 98.4334L 102.33 94.8979L 94.9046 102.323L 98.4402 105.858ZM 27.0596 16.4744L 23.8929 6.93384L 19.1475 8.50895L 22.3142 18.0495L 27.0596 16.4744ZM 23.2864 5.95209L 15.5515 -1.76931L 12.0191 1.76931L 19.754 9.4907L 23.2864 5.95209ZM 12.0175 -1.76777L -1.76777 12.0175L 1.76777 15.5531L 15.5531 1.76777L 12.0175 -1.76777ZM -1.76777 15.5531L 5.95363 23.2745L 9.48916 19.7389L 1.76777 12.0175L -1.76777 15.5531ZM 6.93033 23.8783L 16.4844 27.0652L 18.0665 22.3221L 8.51247 19.1352L 6.93033 23.8783ZM 15.5077 26.4614L 68.3922 79.3459L 71.9277 75.8104L 19.0432 22.9259L 15.5077 26.4614ZM 98.5252 102.412L 93.489 96.853L 89.7835 100.21L 94.8197 105.769L 98.5252 102.412ZM 22.9191 19.0297L 75.8138 71.9243L 79.3493 68.3888L 26.4547 15.4942L 22.9191 19.0297ZM 105.865 94.8979L 100.809 89.8413L 97.273 93.3769L 102.33 98.4334L 105.865 94.8979ZM 109.972 112.065L 149.183 151.281L 152.719 147.746L 113.508 108.529L 109.972 112.065ZM 135.331 166.434C 142.168 173.264 153.237 173.265 160.069 166.433L 156.533 162.898C 151.655 167.776 143.75 167.777 138.864 162.896L 135.331 166.434ZM 160.067 166.435L 166.441 160.075L 162.909 156.535L 156.535 162.896L 160.067 166.435ZM 166.443 160.073C 173.274 153.241 173.274 142.151 166.443 135.32L 162.907 138.856C 167.786 143.734 167.786 151.658 162.907 156.537L 166.443 160.073ZM 166.442 135.32L 126.542 95.4261L 123.007 98.9619L 162.907 138.856L 166.442 135.32ZM 126.542 95.4263C 119.71 88.5943 108.635 88.5958 101.797 95.4252L 105.331 98.9628C 110.217 94.0821 118.128 94.0836 123.006 98.9618L 126.542 95.4263ZM 101.795 95.4272L 95.4349 101.794L 98.9723 105.328L 105.333 98.9609L 101.795 95.4272ZM 95.4348 101.794C 88.6053 108.632 88.6039 119.701 95.4358 126.532L 98.9713 122.997C 94.0932 118.119 94.0917 110.214 98.9724 105.328L 95.4348 101.794ZM 95.4357 126.532L 135.33 166.433L 138.865 162.898L 98.9715 122.997L 95.4357 126.532Z"/>
</defs>
</svg>
