<svg width="270" height="188" viewBox="0 0 218 188" version="1.1" xmlns="http://www.w3.org/2000/svg" xmlns:xlink="http://www.w3.org/1999/xlink">
<title>Available Offline</title>
<desc>Created using Figma</desc>
<g id="Canvas" transform="translate(-27588 -20541)">
<g id="Available Offline">
<g id="Group 2">
<g id="Subtract">
<use xlink:href="#path0_fill" transform="translate(27588.6 20541.5)" fill="#FFFFFF"/>
</g>
<g id="Group">
<g id="Ellipse">
<mask id="mask0_outline_out">
<rect id="mask0_outline_inv" fill="white" x="-5" y="-5" width="52" height="52" transform="translate(27622.8 20640.8)"/>
<use xlink:href="#path1_fill" fill="black" transform="translate(27622.8 20640.8)"/>
</mask>
<g mask="url(#mask0_outline_out)">
<use xlink:href="#path2_stroke_2x" transform="translate(27622.8 20640.8)" fill="#FFFFFF"/>
</g>
</g>
<g id="f122">
<g id="Vector">
<use xlink:href="#path3_fill" transform="translate(27632.1 20651)" fill="#FFFFFF"/>
</g>
</g>
</g>
</g>
</g>
</g>
<defs>
<path id="path0_fill" fill-rule="evenodd" d="M 149.012 138.493L 144.29 133.771L 140.098 138.972L 108.278 178.462L 71.9108 133.149C 70.6764 134.745 69.2194 136.159 67.5866 137.347L 106.712 186.095C 107.51 187.093 109.026 187.093 109.829 186.099L 140.983 147.437L 144.77 142.737L 149.038 147.003L 174.581 172.548C 175.362 173.329 176.63 173.329 177.409 172.548L 187.546 162.413C 188.319 161.64 188.333 160.394 187.569 159.61C 166.485 137.968 135.643 106.919 95.0436 66.4619C 57.2877 28.8389 35.2545 6.87794 28.9459 0.583016C 28.1647 -0.198234 26.903 -0.192375 26.1217 0.588875L 15.9909 10.7217C 15.2155 11.4951 15.2096 12.749 15.9752 13.5322L 29.0416 26.9033L 33.5026 31.4697C 31.5416 32.3408 29.6198 33.2354 27.7369 34.1533C 17.6159 39.0791 8.61781 44.6611 0.742809 50.8975C -0.116566 51.5791 -0.247426 52.8291 0.440074 53.6846L 41.0612 104.298C 42.5631 102.966 44.2565 101.845 46.0924 100.979L 7.68812 53.1299C 15.9166 47.0283 25.1842 41.7236 35.9401 36.9522L 43.8268 33.4482L 37.7955 27.2764L 23.0299 12.167L 27.5416 7.65528C 36.3463 16.4385 57.4362 37.4561 90.8092 70.7119C 129.657 109.423 159.548 139.497 180.508 160.964L 175.995 165.476L 149.012 138.493ZM 108.268 20.7568C 142.682 20.6807 175.608 31.3916 208.616 53.4365L 165.813 106.938L 81.403 22.9111C 90.4459 21.46 99.3053 20.751 108.268 20.7568ZM 164.741 114.337L 74.2076 24.2139L 73.7955 23.8037L 71.7155 21.7334C 70.5963 20.6182 71.151 18.71 72.6998 18.3975C 73.6666 18.2002 74.6334 18.0127 75.5983 17.833L 76.1764 17.7256L 76.192 17.7236C 86.983 15.7471 97.6744 14.7568 108.268 14.7568C 144.891 14.7568 180.663 26.8115 215.585 50.9209C 216.534 51.5752 216.727 52.9014 216.006 53.8018L 167.714 114.169C 166.969 115.099 165.585 115.177 164.741 114.337Z"/>
<path id="path1_fill" d="M 41.8055 20.9028C 41.8055 32.447 32.447 41.8055 20.9028 41.8055C 9.35848 41.8055 0 32.447 0 20.9028C 0 9.35848 9.35848 0 20.9028 0C 32.447 0 41.8055 9.35848 41.8055 20.9028Z"/>
<path id="path2_stroke_2x" d="M 36.8055 20.9028C 36.8055 29.6856 29.6856 36.8055 20.9028 36.8055L 20.9028 46.8055C 35.2085 46.8055 46.8055 35.2085 46.8055 20.9028L 36.8055 20.9028ZM 20.9028 36.8055C 12.1199 36.8055 5 29.6856 5 20.9028L -5 20.9028C -5 35.2085 6.59706 46.8055 20.9028 46.8055L 20.9028 36.8055ZM 5 20.9028C 5 12.1199 12.1199 5 20.9028 5L 20.9028 -5C 6.59706 -5 -5 6.59706 -5 20.9028L 5 20.9028ZM 20.9028 5C 29.6856 5 36.8055 12.1199 36.8055 20.9028L 46.8055 20.9028C 46.8055 6.59706 35.2085 -5 20.9028 -5L 20.9028 5Z"/>
<path id="path3_fill" d="M 23.0489 2.56099C 23.1231 2.70945 23.1602 2.8208 23.1602 2.89503C 23.1602 2.96926 23.1231 3.08061 23.0489 3.22907L 9.18615 21.0446C 8.96346 21.2673 8.79644 21.3787 8.68509 21.3787C 8.49951 21.3787 8.31393 21.2859 8.12835 21.1003L 0.278368 13.5287L 0.111347 13.3617C 0.0371155 13.2132 0 13.1019 0 13.0276C 0 12.9905 0.0371155 12.8977 0.111347 12.7493L 0.222695 12.6379C 1.26194 11.5244 2.07848 10.6708 2.67234 10.0769C 2.89503 9.85424 3.04349 9.74289 3.11772 9.74289C 3.26619 9.74289 3.45177 9.85424 3.67446 10.0769L 8.12835 14.4195L 19.2631 0.111347C 19.3373 0.0371155 19.4487 0 19.5971 0C 19.7085 0 19.8384 0.0371155 19.9868 0.111347L 23.0489 2.56099Z"/>
</defs>
</svg>
