<svg width="192" height="200" viewBox="0 0 192 200" version="1.1" xmlns="http://www.w3.org/2000/svg" xmlns:xlink="http://www.w3.org/1999/xlink">
<title>Vector</title>
<desc>Created using Figma</desc>
<g id="Canvas" transform="translate(-27975 -20540)">
<g id="Vector">
<use xlink:href="#path0_stroke" transform="translate(27978.4 20543.2)" fill="#FFFFFF"/>
</g>
</g>
<defs>
<path id="path0_stroke" d="M 179.128 123.496L 176.86 122.445L 176.859 122.445L 179.128 123.496ZM 185.749 99.9747L 183.249 99.9747C 183.249 100.052 183.253 100.13 183.26 100.207L 185.749 99.9747ZM 120.821 99.9747L 123.068 101.07C 123.235 100.729 123.321 100.354 123.321 99.9747L 120.821 99.9747ZM 110.386 121.377L 108.139 120.281C 108.13 120.3 108.121 120.318 108.112 120.337L 110.386 121.377ZM 172.937 163.47L 170.437 163.48L 172.937 163.47ZM 6.64475 81.5703L 8.91334 80.5198L 8.91301 80.5191L 6.64475 81.5703ZM 0.0191675 58.0406L 2.50835 58.273C 2.51556 58.1958 2.51917 58.1182 2.51917 58.0406L 0.0191675 58.0406ZM 64.9474 58.0406L 62.4474 58.0406C 62.4474 58.4203 62.5339 58.7949 62.7002 59.1361L 64.9474 58.0406ZM 75.3826 79.447L 77.6562 78.4073C 77.6476 78.3886 77.6388 78.37 77.6298 78.3515L 75.3826 79.447ZM 12.8313 121.544L 15.3313 121.554L 12.8313 121.544ZM 9.85036 167.614C 9.32211 168.89 9.92802 170.352 11.2037 170.881C 12.4793 171.409 13.9417 170.803 14.47 169.527L 9.85036 167.614ZM 23.142 142.051L 24.4422 139.916C 23.8186 139.536 23.0601 139.448 22.366 139.674C 21.6719 139.901 21.1115 140.42 20.8322 141.094L 23.142 142.051ZM 48.0181 160.126C 49.1974 160.844 50.7355 160.47 51.4536 159.291C 52.1717 158.112 51.7979 156.573 50.6186 155.855L 48.0181 160.126ZM 131.153 185.477C 132.332 184.759 132.706 183.221 131.988 182.041C 131.27 180.862 129.732 180.488 128.552 181.206L 131.153 185.477ZM 34.9549 166.371L 32.9891 167.915L 32.9935 167.921L 34.9549 166.371ZM 27.0126 143.914C 26.9726 142.534 25.8213 141.447 24.4411 141.487C 23.061 141.527 21.9747 142.679 22.0147 144.059L 27.0126 143.914ZM 170.534 23.3795C 170.909 22.0505 170.135 20.6696 168.806 20.2949C 167.477 19.9203 166.096 20.694 165.721 22.0229L 170.534 23.3795ZM 160.447 49.9472L 159.346 52.1916C 160.012 52.5184 160.789 52.5325 161.467 52.2299C 162.144 51.9274 162.652 51.3396 162.854 50.6255L 160.447 49.9472ZM 132.302 33.3538C 131.063 32.7457 129.565 33.2575 128.957 34.4971C 128.349 35.7366 128.86 37.2345 130.1 37.8427L 132.302 33.3538ZM 55.0392 7.71414C 53.8465 8.40984 53.4437 9.94064 54.1394 11.1333C 54.8351 12.3259 56.3659 12.7287 57.5585 12.033L 55.0392 7.71414ZM 60.2683 7.71893L 59.1461 5.48497L 59.1426 5.48671L 60.2683 7.71893ZM 150.003 27.5588L 151.969 26.0139L 151.964 26.0072L 150.003 27.5588ZM 157.949 50.0207C 157.99 51.4008 159.142 52.4867 160.522 52.4461C 161.902 52.4055 162.988 51.2538 162.947 49.8737L 157.949 50.0207ZM 117.876 142.19C 117.876 145.417 120.488 148.033 123.724 148.033L 123.724 143.033C 123.249 143.033 122.876 142.656 122.876 142.19L 117.876 142.19ZM 123.724 148.033L 131.528 148.033L 131.528 143.033L 123.724 143.033L 123.724 148.033ZM 131.528 148.033C 131.424 148.033 131.346 147.947 131.346 147.855L 136.346 147.855C 136.346 145.197 134.197 143.033 131.528 143.033L 131.528 148.033ZM 131.346 147.855L 131.346 163.47L 136.346 163.47L 136.346 147.855L 131.346 147.855ZM 134.846 166.97L 171.939 166.97L 171.939 161.97L 134.846 161.97L 134.846 166.97ZM 175.437 163.459C 175.383 150.793 174.434 139.385 181.396 124.547L 176.859 122.445C 169.514 138.495 170.387 150.994 170.437 163.48L 175.437 163.459ZM 181.396 124.547C 185.142 116.443 186.887 110.267 187.647 106.26C 188.035 104.197 188.193 102.571 188.244 101.545C 188.27 101.002 188.271 100.551 188.265 100.281C 188.262 100.131 188.256 99.996 188.252 99.9211C 188.249 99.8762 188.246 99.8314 188.244 99.809C 188.243 99.7941 188.242 99.7774 188.241 99.77C 188.241 99.7644 188.24 99.7574 188.24 99.7547C 188.24 99.7523 188.239 99.7492 188.239 99.7481C 188.239 99.747 188.239 99.7456 188.239 99.745C 188.239 99.7436 188.239 99.7422 185.749 99.9747C 183.26 100.207 183.26 100.206 183.26 100.204C 183.26 100.204 183.26 100.203 183.26 100.202C 183.26 100.203 183.259 100.196 183.259 100.197C 183.259 100.198 183.259 100.189 183.259 100.191C 183.259 100.191 183.258 100.185 183.258 100.185C 183.259 100.193 183.259 100.193 183.26 100.209C 183.262 100.254 183.265 100.3 183.266 100.39C 183.271 100.602 183.271 100.875 183.25 101.3C 183.206 102.209 183.085 103.493 182.734 105.33C 182.019 109.124 180.452 114.709 176.86 122.445L 181.396 124.547ZM 188.249 99.9747C 188.249 80.779 172.71 63.8438 153.289 63.8438L 153.289 68.8438C 169.722 68.8438 183.249 83.3089 183.249 99.9747L 188.249 99.9747ZM 153.289 63.8438C 133.87 63.8438 118.321 80.7782 118.321 99.9747L 123.321 99.9747C 123.321 83.3098 136.856 68.8438 153.289 68.8438L 153.289 63.8438ZM 118.574 98.879L 108.139 120.281L 112.633 122.473L 123.068 101.07L 118.574 98.879ZM 108.112 120.337C 107.793 121.035 107.598 121.867 107.736 122.755C 107.896 123.498 108.46 124.486 108.95 124.964C 110.056 125.951 111.543 126.198 112.707 126.198L 112.707 121.198C 112.438 121.198 112.261 121.166 112.169 121.141C 112.069 121.112 112.142 121.112 112.279 121.233C 112.444 121.381 112.623 121.643 112.677 121.987C 112.726 122.3 112.636 122.467 112.66 122.417L 108.112 120.337ZM 112.707 126.198L 118.059 126.198L 118.059 121.198L 112.707 121.198L 112.707 126.198ZM 118.059 126.198C 117.958 126.198 117.876 126.12 117.876 126.015L 122.876 126.015C 122.876 123.346 120.708 121.198 118.059 121.198L 118.059 126.198ZM 131.346 163.47C 131.346 165.403 132.913 166.97 134.846 166.97L 134.846 161.97C 135.674 161.97 136.346 162.642 136.346 163.47L 131.346 163.47ZM 171.939 166.97C 173.871 166.97 175.445 165.402 175.437 163.459L 170.437 163.48C 170.434 162.642 171.112 161.97 171.939 161.97L 171.939 166.97ZM 62.8927 100.26C 62.8927 100.726 62.5195 101.103 62.0449 101.103L 62.0449 106.103C 65.2809 106.103 67.8927 103.487 67.8927 100.26L 62.8927 100.26ZM 62.0449 101.103L 54.2401 101.103L 54.2401 106.103L 62.0449 106.103L 62.0449 101.103ZM 54.2401 101.103C 51.5685 101.103 49.423 103.274 49.423 105.925L 54.423 105.925C 54.423 106.019 54.3473 106.103 54.2401 106.103L 54.2401 101.103ZM 49.423 105.925L 49.423 121.544L 54.423 121.544L 54.423 105.925L 49.423 105.925ZM 50.923 120.044L 13.8292 120.044L 13.8292 125.044L 50.923 125.044L 50.923 120.044ZM 15.3313 121.554C 15.3811 109.064 16.2545 96.5657 8.91334 80.5198L 4.37617 82.6208C 11.3342 97.4549 10.3851 108.863 10.3313 121.534L 15.3313 121.554ZM 8.91301 80.5191C 5.31805 72.7809 3.75059 67.1938 3.03473 63.3989C 2.68413 61.5606 2.56274 60.2763 2.51881 59.3666C 2.49726 58.9415 2.49728 58.668 2.50209 58.4565C 2.5039 58.3656 2.50612 58.3198 2.50877 58.2744C 2.50961 58.2592 2.50967 58.2588 2.51025 58.2512C 2.51025 58.2511 2.50983 58.2564 2.50982 58.2565C 2.50998 58.2547 2.50915 58.2642 2.50923 58.2633C 2.50935 58.262 2.50876 58.2685 2.50882 58.2678C 2.50875 58.2686 2.50863 58.2699 2.50859 58.2703C 2.50847 58.2716 2.50835 58.273 0.0191675 58.0406C -2.47001 57.8083 -2.47014 57.8097 -2.47028 57.8111C -2.47032 57.8117 -2.47046 57.8131 -2.47055 57.8142C -2.47066 57.8153 -2.47094 57.8184 -2.47115 57.8208C -2.47139 57.8235 -2.472 57.8305 -2.47247 57.8361C -2.4731 57.8435 -2.47445 57.8602 -2.47558 57.8751C -2.47727 57.8976 -2.48034 57.9423 -2.48297 57.9872C -2.48724 58.0622 -2.49326 58.1969 -2.49672 58.3471C -2.50247 58.6178 -2.50112 59.0685 -2.47519 59.6115C -2.42417 60.6378 -2.26597 62.2652 -1.87804 64.3287C -1.11686 68.3375 0.628475 74.5152 4.3765 82.6215L 8.91301 80.5191ZM 2.51917 58.0406C 2.51917 41.3796 16.0457 26.918 32.4792 26.918L 32.4792 21.918C 13.0595 21.918 -2.48083 38.8485 -2.48083 58.0406L 2.51917 58.0406ZM 32.4792 26.918C 48.9095 26.918 62.4474 41.3807 62.4474 58.0406L 67.4474 58.0406C 67.4474 38.8474 51.8938 21.918 32.4792 21.918L 32.4792 26.918ZM 62.7002 59.1361L 73.1354 80.5425L 77.6298 78.3515L 67.1946 56.9452L 62.7002 59.1361ZM 73.1091 80.4867C 73.1327 80.5384 73.0438 80.3721 73.0919 80.06C 73.1447 79.7173 73.3239 79.4538 73.4896 79.3055C 73.6268 79.1828 73.7016 79.1826 73.602 79.2108C 73.5113 79.2365 73.3343 79.2682 73.0655 79.2682L 73.0655 84.2682C 74.2289 84.2682 75.7171 84.0215 76.8231 83.0322C 77.3126 82.5535 77.8745 81.5644 78.0335 80.8222C 78.1704 79.9346 77.9747 79.104 77.6562 78.4073L 73.1091 80.4867ZM 73.0655 79.2682L 67.7098 79.2682L 67.7098 84.2682L 73.0655 84.2682L 73.0655 79.2682ZM 67.7098 79.2682C 65.0539 79.2682 62.8927 81.4195 62.8927 84.0853L 67.8927 84.0853C 67.8927 84.1867 67.8095 84.2682 67.7098 84.2682L 67.7098 79.2682ZM 49.423 121.544C 49.423 120.716 50.0946 120.044 50.923 120.044L 50.923 125.044C 52.856 125.044 54.423 123.477 54.423 121.544L 49.423 121.544ZM 13.8292 120.044C 14.6561 120.044 15.3347 120.716 15.3313 121.554L 10.3313 121.534C 10.3233 123.476 11.8977 125.044 13.8292 125.044L 13.8292 120.044ZM 14.47 169.527L 25.4518 143.007L 20.8322 141.094L 9.85036 167.614L 14.47 169.527ZM 21.8417 144.186L 48.0181 160.126L 50.6186 155.855L 24.4422 139.916L 21.8417 144.186ZM 128.552 181.206C 117.816 187.769 105.504 191.448 91.9916 191.422L 91.9916 196.422C 106.227 196.396 119.848 192.337 131.153 185.477L 128.552 181.206ZM 91.9916 191.422C 69.6268 191.422 49.7232 181.024 36.9162 164.821L 32.9935 167.921C 46.7143 185.281 68.0428 196.422 91.9916 196.422L 91.9916 191.422ZM 34.9549 166.371C 36.9207 164.826 36.9209 164.827 36.9211 164.827C 36.9211 164.827 36.9212 164.827 36.9212 164.827C 36.9214 164.827 36.9212 164.827 36.9209 164.827C 36.92 164.825 36.9192 164.824 36.9175 164.822C 36.9133 164.817 36.9081 164.81 36.8999 164.8C 36.8821 164.777 36.8579 164.745 36.8236 164.701C 36.7521 164.608 36.6521 164.476 36.5192 164.299C 36.2474 163.935 35.8707 163.423 35.4066 162.763C 34.4659 161.426 33.2448 159.603 31.9965 157.461C 29.4396 153.078 27.13 147.956 27.0126 143.914L 22.0147 144.059C 22.1715 149.461 25.0825 155.532 27.6777 159.98C 29.0055 162.254 30.3432 164.255 31.3174 165.64C 31.8108 166.341 32.2305 166.913 32.5158 167.294C 32.6614 167.489 32.7801 167.645 32.8577 167.746C 32.8979 167.798 32.9308 167.841 32.9515 167.867C 32.9626 167.881 32.972 167.894 32.9776 167.901C 32.9807 167.905 32.9836 167.908 32.9852 167.91C 32.9862 167.912 32.9871 167.913 32.9876 167.914C 32.9879 167.914 32.9883 167.914 32.9885 167.915C 32.9888 167.915 32.9891 167.915 34.9549 166.371ZM 165.721 22.0229L 158.041 49.2689L 162.854 50.6255L 170.534 23.3795L 165.721 22.0229ZM 161.549 47.7028L 132.302 33.3538L 130.1 37.8427L 159.346 52.1916L 161.549 47.7028ZM 57.5585 12.033C 58.8221 11.2956 60.0796 10.6137 61.394 9.95115L 59.1426 5.48671C 57.7619 6.18335 56.3704 6.93793 55.0392 7.71414L 57.5585 12.033ZM 61.3906 9.95289C 70.962 5.12771 81.5071 2.48118 92.9628 2.5L 92.9628 -2.5C 80.8948 -2.48118 69.2215 0.440422 59.1461 5.48497L 61.3906 9.95289ZM 92.9628 2.5C 115.322 2.5 135.219 12.9082 148.043 29.1103L 151.964 26.0072C 138.229 8.65384 116.909 -2.5 92.9628 -2.5L 92.9628 2.5ZM 150.003 27.5588C 148.038 29.1037 148.038 29.1034 148.037 29.1031C 148.037 29.1031 148.037 29.1029 148.037 29.1029C 148.037 29.1028 148.037 29.103 148.038 29.1034C 148.038 29.1045 148.039 29.1055 148.041 29.1077C 148.045 29.1131 148.05 29.1197 148.059 29.1303C 148.076 29.1532 148.101 29.1844 148.135 29.2291C 148.206 29.3222 148.306 29.4534 148.439 29.6311C 148.711 29.9942 149.088 30.5069 149.552 31.1666C 150.493 32.5028 151.714 34.3262 152.962 36.4682C 155.52 40.8505 157.83 45.9737 157.949 50.0207L 162.947 49.8737C 162.788 44.4679 159.877 38.3969 157.281 33.9482C 155.953 31.6747 154.615 29.6734 153.641 28.2888C 153.147 27.588 152.728 27.0163 152.442 26.6351C 152.297 26.4406 152.178 26.2847 152.1 26.1837C 152.06 26.1313 152.027 26.0887 152.006 26.0621C 151.995 26.0479 151.986 26.0358 151.98 26.0287C 151.977 26.0246 151.974 26.0209 151.973 26.0189C 151.972 26.0177 151.971 26.0164 151.97 26.0158C 151.97 26.0154 151.97 26.0149 151.97 26.0147C 151.969 26.0143 151.969 26.0139 150.003 27.5588ZM 117.876 126.015L 117.876 142.19L 122.876 142.19L 122.876 126.015L 117.876 126.015ZM 62.8927 84.0853L 62.8927 100.26L 67.8927 100.26L 67.8927 84.0853L 62.8927 84.0853Z"/>
</defs>
</svg>
