<svg width="1440" height="806" viewBox="0 0 1440 806" version="1.1" xmlns="http://www.w3.org/2000/svg" xmlns:xlink="http://www.w3.org/1999/xlink">
<title>wave </title>
<desc>Created using Figma</desc>
<g id="Canvas" transform="translate(-14354 -19963)">
<g id="wave ">
<g id="Rectangle 3">
<use xlink:href="#path0_fill" transform="translate(14354 19967)" fill="#E75252"/>
</g>
<g id="Fill 1555">
<use xlink:href="#path1_fill" transform="matrix(0.946956 0.321365 -0.338659 0.940909 14459.3 20209.8)" fill="#FFFFFF"/>
</g>
<g id="Fill 1555">
<use xlink:href="#path2_fill" transform="matrix(0.708862 -0.705347 0.693294 0.720655 15655.6 20508)" fill="#FFFFFF"/>
</g>
<g id="Fill 1555">
<use xlink:href="#path3_fill" transform="matrix(0.956241 0.29258 -0.308662 0.951172 15526.5 20665.1)" fill="#FFFFFF"/>
</g>
<g id="Fill 1555">
<use xlink:href="#path4_fill" transform="matrix(0.956241 0.29258 -0.308662 0.951172 15571 20244.6)" fill="#FFFFFF"/>
</g>
<g id="Fill 1555">
<use xlink:href="#path5_fill" transform="matrix(0.956241 0.29258 -0.308662 0.951172 14501.2 20669.8)" fill="#FFFFFF"/>
</g>
<g id="wave line">
<use xlink:href="#path6_stroke" transform="translate(14355 19967.5)" fill="#BD3836"/>
</g>
</g>
</g>
<defs>
<path id="path0_fill" fill-rule="evenodd" d="M 0 172.795L 55.1159 165.99L 116.196 146.119L 196.009 96.2893L 252.335 69.7123L 310.835 74.7541L 385.628 122.663L 429.465 139.891L 482.308 146.119L 531.064 128.727C 531.064 128.727 547.141 115.28 568.312 96.2893C 583.262 82.8787 600.103 65.4891 618.473 53.4535C 638.434 40.3759 653.412 22.7676 670.866 14.4466C 700.499 0.319581 727.536 0.00720664 727.536 0.00720664C 727.536 0.00720664 747.297 -0.588803 769 9.05952C 787.786 17.411 806.813 34.494 830.483 53.4535C 894.653 104.853 965.253 187.921 1018.03 199.574C 1029.16 202.031 1044.57 207.549 1060.3 207.626C 1073.81 207.693 1087.26 202.774 1101.81 199.574C 1131.39 193.065 1160.51 177.981 1190.61 160.204C 1237.7 132.395 1281.86 97.0656 1321.61 74.7541C 1336.03 66.6602 1348.65 54.9318 1362.34 53.4535C 1376.59 51.9145 1391.03 41.0762 1408.3 35.2736C 1453.85 19.9707 1505.42 4.93792 1522.71 27.3501C 1547.05 58.8749 1510.03 172.795 1510.03 172.795L 1510.03 801.988L 0 801.988L 0 172.795Z"/>
<path id="path1_fill" fill-rule="evenodd" d="M 37.7124 84.5961C 45.5635 40.3704 40.7836 43.9755 86.5503 47.7352C 41.2954 40.0614 44.9839 44.7333 48.8304 0C 40.9793 44.233 45.7667 40.6205 0 36.8609C 45.2473 44.5347 41.5589 39.8627 37.7124 84.5961Z"/>
<path id="path2_fill" fill-rule="evenodd" d="M 35.516 79.5823C 42.9098 37.9777 38.4083 41.3692 81.5095 44.906C 38.8903 37.687 42.3639 42.0821 45.9864 0C 38.5926 41.6115 43.1012 38.2131 0 34.6762C 42.6121 41.8952 39.1384 37.5001 35.516 79.5823Z"/>
<path id="path3_fill" fill-rule="evenodd" d="M 15.2168 34.097C 18.3847 16.2716 16.456 17.7247 34.9228 19.24C 16.6626 16.147 18.1508 18.0301 19.7029 0C 16.535 17.8284 18.4667 16.3724 0 14.857C 18.2572 17.95 16.7689 16.0669 15.2168 34.097Z"/>
<path id="path4_fill" fill-rule="evenodd" d="M 14.7051 32.9503C 17.7664 15.7243 15.9026 17.1285 33.7482 18.5929C 16.1022 15.604 17.5404 17.4237 19.0403 0C 15.9789 17.2288 17.8457 15.8218 0 14.3574C 17.6431 17.3463 16.2049 15.5266 14.7051 32.9503Z"/>
<path id="path5_fill" fill-rule="evenodd" d="M 11.8421 26.5352C 14.3075 12.663 12.8065 13.7938 27.1778 14.9731C 12.9673 12.566 14.1255 14.0315 15.3333 0C 12.868 13.8746 14.3713 12.7414 0 11.5622C 14.2082 13.9692 13.05 12.5037 11.8421 26.5352Z"/>
<path id="path6_stroke" d="M 1.5127e-07 165.512C -2.20914 165.512 -4 167.303 -4 169.512C -4 171.721 -2.20914 173.512 -1.5127e-07 173.512L 1.5127e-07 165.512ZM 1510.03 23.0399C 1512.24 23.0399 1514.03 21.2491 1514.03 19.0399C 1514.03 16.8308 1512.24 15.0399 1510.03 15.0399L 1510.03 23.0399ZM -1.5127e-07 173.512C 70.6036 173.394 119.102 147.895 159.305 122.738C 179.418 110.149 197.471 97.695 215.445 88.4123C 233.377 79.1304 250.66 73.1276 270.046 73.1826L 270.046 65.1826C 249.338 65.2375 230.228 71.7759 211.771 81.3057C 193.356 90.8348 175.025 103.463 155.06 115.956C 115.108 140.964 68.6781 165.629 1.5127e-07 165.512L -1.5127e-07 173.512ZM 270.046 73.1826C 308.872 72.9758 332.776 91.2472 360.359 110.116C 387.933 128.976 419.067 148.29 470.423 148.446L 470.423 140.446C 421.275 140.601 392.315 122.283 364.875 103.513C 337.443 84.7495 311.411 65.3893 270.046 65.1826L 270.046 73.1826ZM 470.423 148.446C 522.621 148.446 559.018 110.838 595.781 75.0906C 633.032 38.8685 671.044 4 727.306 4L 727.306 -4C 667.405 -4 627.227 33.3543 590.204 69.355C 552.692 105.831 518.729 140.446 470.423 140.446L 470.423 148.446ZM 727.306 4C 755.104 4 780.526 16.3037 805.502 35.3494C 830.564 54.4445 854.707 79.9789 879.933 105.738C 930.13 156.996 985.074 209.88 1058.71 209.88L 1058.71 201.88C 988.938 201.88 936.262 151.823 885.649 100.141C 860.471 74.4308 835.912 48.4952 810.353 28.988C 784.707 9.43122 757.589 -4 727.306 -4L 727.306 4ZM 1058.71 209.88C 1095.24 209.821 1128.93 197.855 1161.49 180.202C 1194.01 162.548 1226.02 139.077 1260.03 115.759C 1328.04 69.1104 1403.93 22.8921 1510.03 23.0399L 1510.03 15.0399C 1401.77 15.1877 1323.7 62.3893 1255.5 109.161C 1221.39 132.552 1189.73 155.791 1157.67 173.17C 1125.66 190.549 1093.88 201.938 1058.71 201.88L 1058.71 209.88Z"/>
</defs>
</svg>
