<svg xmlns="http://www.w3.org/2000/svg" xmlns:xlink="http://www.w3.org/1999/xlink" viewBox="0 0 541.49 567.86"><defs><style>.cls-1{fill:none;}.cls-2{clip-path:url(#clip-path);}.cls-3{fill:#e75252;}.cls-4{fill:#bd3836;}.cls-5{opacity:0.1;}</style><clipPath id="clip-path"><path class="cls-1" d="M525.84,362.21A261.25,261.25,0,0,0,462,85.69,249.63,249.63,0,0,0,417,50.6a237.74,237.74,0,0,0-34.6-17.86c-4.36-2-9-3.81-13.65-5.48C232.87-21.82,82.83,48.57,33.75,184.4A259.63,259.63,0,0,0,21.61,315.61a249.51,249.51,0,0,0,14.87,53.81A262.05,262.05,0,0,0,144.17,497.13a270.22,270.22,0,0,0,46.72,22.23c6,2.15,12,4,17.82,5.76,5,1.38,10,2.65,15,3.75C350.12,556.86,480.66,487.24,525.84,362.21Z"/></clipPath></defs><title>Asset 5</title><g id="Layer_2" data-name="Layer 2"><g id="Layer_1-2" data-name="Layer 1"><g class="cls-2"><path class="cls-3" d="M525.84,362.21A261.25,261.25,0,0,0,462,85.69,249.63,249.63,0,0,0,417,50.6a237.74,237.74,0,0,0-34.6-17.86c-4.36-2-9-3.81-13.65-5.48C232.87-21.82,82.83,48.57,33.75,184.4A259.63,259.63,0,0,0,21.61,315.61a249.51,249.51,0,0,0,14.87,53.81A262.05,262.05,0,0,0,144.17,497.13a270.22,270.22,0,0,0,46.72,22.23c6,2.15,12,4,17.82,5.76,5,1.38,10,2.65,15,3.75C350.12,556.86,480.66,487.24,525.84,362.21Z"/><path class="cls-4" d="M263.88,22.51a16.8,16.8,0,1,0-21.51,10.08A16.81,16.81,0,0,0,263.88,22.51Z"/><path class="cls-4" d="M202,148.73a33.89,33.89,0,1,0-43.38,20.36A33.87,33.87,0,0,0,202,148.73Z"/><path class="cls-4" d="M352.55,321.09a74.53,74.53,0,1,0-95.42,44.76A74.53,74.53,0,0,0,352.55,321.09Z"/><path class="cls-4" d="M500,293.3a26.57,26.57,0,1,0-34,16A26.58,26.58,0,0,0,500,293.3Z"/><path class="cls-4" d="M396.17,463.23a13.29,13.29,0,1,0-17,8A13.28,13.28,0,0,0,396.17,463.23Z"/><circle class="cls-4" cx="54.2" cy="310.84" r="54.2"/><circle class="cls-4" cx="404.86" cy="80.86" r="46.44"/><circle class="cls-4" cx="208.81" cy="508.71" r="59.15"/><path class="cls-5" d="M525.84,362.21A261.25,261.25,0,0,0,462,85.69,249.63,249.63,0,0,0,417,50.6C442.77,347.16,274,483.8,208.71,525.12c5,1.38,10,2.65,15,3.75C350.12,556.86,480.66,487.24,525.84,362.21Z"/></g></g></g></svg>