<?xml version="1.0" encoding="UTF-8" standalone="no"?>
<svg width="38px" height="41px" viewBox="0 0 38 41" version="1.1" xmlns="http://www.w3.org/2000/svg" xmlns:xlink="http://www.w3.org/1999/xlink">
    <defs>
        <filter x="-50%" y="-50%" width="200%" height="200%" filterUnits="objectBoundingBox" id="filter-1">
            <feMorphology radius="1" in="SourceAlpha" operator="dilate" result="shadowSpreadOuter1"></feMorphology>
            <feOffset dx="0" dy="4" in="shadowSpreadOuter1" result="shadowOffsetOuter1"></feOffset>
            <feGaussianBlur stdDeviation="0" in="shadowOffsetOuter1" result="shadowBlurOuter1"></feGaussianBlur>
            <feColorMatrix values="0 0 0 0 0   0 0 0 0 0   0 0 0 0 0  0 0 0 0.0520720109 0" in="shadowBlurOuter1" type="matrix" result="shadowMatrixOuter1"></feColorMatrix>
            <feMerge>
                <feMergeNode in="shadowMatrixOuter1"></feMergeNode>
                <feMergeNode in="SourceGraphic"></feMergeNode>
            </feMerge>
        </filter>
    </defs>
    <g id="Page-1" stroke="none" stroke-width="1" fill="none" fill-rule="evenodd" filter="url(#filter-1)">
        <path d="M12.519,16.077 C12.103,16.077 11.695,16.061 11.289,16.038 C11.86,13.796 13.38,11.936 15.399,10.908 C16.548,12.05 17.628,13.511 18.572,15.214 C16.775,15.761 14.715,16.077 12.519,16.077 L12.519,16.077 Z M20.321,19.105 C19.979,19.18 19.682,19.264 19.456,19.367 C17.071,20.448 15.181,22.184 14.122,24.282 C15.47,25.331 17.16,25.96 19,25.96 C19.994,25.96 20.941,25.772 21.818,25.438 C21.668,24.172 21.427,22.872 21.081,21.552 C20.86,20.709 20.604,19.893 20.321,19.105 L20.321,19.105 Z M19.1,18.004 C19.296,17.923 19.539,17.853 19.812,17.79 C19.641,17.376 19.461,16.972 19.274,16.579 C17.271,17.223 14.934,17.612 12.429,17.643 C11.964,17.648 11.506,17.64 11.054,17.62 C11.048,17.746 11.04,17.873 11.04,18 C11.04,20.016 11.795,21.85 13.03,23.254 C14.201,21.009 16.358,19.153 19.1,18.004 L19.1,18.004 Z M24.078,11.873 C22.7,10.729 20.931,10.041 19,10.041 C18.323,10.041 17.67,10.133 17.042,10.293 C18.177,11.455 19.239,12.928 20.165,14.637 C21.858,13.919 23.213,12.968 24.078,11.873 L24.078,11.873 Z M37,18 C37,27.941 28.941,36 19,36 C9.059,36 1,27.941 1,18 C1,8.059 9.059,0 19,0 C28.941,0 37,8.059 37,18 L37,18 Z M28.552,18 C28.552,12.725 24.276,8.448 19,8.448 C13.725,8.448 9.448,12.725 9.448,18 C9.448,23.277 13.725,27.552 19,27.552 C24.276,27.552 28.552,23.277 28.552,18 L28.552,18 Z M21.989,18.88 C22.196,19.494 22.391,20.121 22.56,20.767 C22.909,22.101 23.152,23.413 23.302,24.692 C25.268,23.424 26.639,21.321 26.908,18.88 C25.423,18.772 23.55,18.752 21.989,18.88 L21.989,18.88 Z M20.847,15.994 C21.079,16.49 21.294,17.008 21.501,17.537 C23.157,17.381 25.216,17.379 26.936,17.47 C26.819,15.713 26.136,14.11 25.061,12.848 C24.225,14.084 22.756,15.169 20.847,15.994 L20.847,15.994 Z" id="Dribbble-Copy" fill="#FFFFFF"></path>
    </g>
</svg>