<?xml version="1.0" encoding="UTF-8" standalone="no"?>
<svg width="38px" height="41px" viewBox="0 0 38 41" version="1.1" xmlns="http://www.w3.org/2000/svg" xmlns:xlink="http://www.w3.org/1999/xlink">
    <defs>
        <filter x="-50%" y="-50%" width="200%" height="200%" filterUnits="objectBoundingBox" id="filter-1">
            <feMorphology radius="1" in="SourceAlpha" operator="dilate" result="shadowSpreadOuter1"></feMorphology>
            <feOffset dx="0" dy="4" in="shadowSpreadOuter1" result="shadowOffsetOuter1"></feOffset>
            <feGaussianBlur stdDeviation="0" in="shadowOffsetOuter1" result="shadowBlurOuter1"></feGaussianBlur>
            <feColorMatrix values="0 0 0 0 0   0 0 0 0 0   0 0 0 0 0  0 0 0 0.0520720109 0" in="shadowBlurOuter1" type="matrix" result="shadowMatrixOuter1"></feColorMatrix>
            <feMerge>
                <feMergeNode in="shadowMatrixOuter1"></feMergeNode>
                <feMergeNode in="SourceGraphic"></feMergeNode>
            </feMerge>
        </filter>
    </defs>
    <g id="Page-1" stroke="none" stroke-width="1" fill="none" fill-rule="evenodd" filter="url(#filter-1)">
        <path d="M19.02625,17.90475 C19.018,17.90475 19.008625,17.904375 19,17.904 C18.991,17.904375 18.981625,17.90475 18.973375,17.90475 C16.7395,17.90475 14.771125,17.33925 13.607875,18.40725 C12.91075,19.048125 12.617125,19.82025 12.617125,20.651625 C12.617125,24.1245 15.399625,24.550875 18.973,24.550875 L19.02625,24.550875 C22.599625,24.550875 25.382125,24.124125 25.382125,20.651625 C25.382125,19.819875 25.0885,19.048125 24.391375,18.40725 C23.228125,17.33925 21.260125,17.90475 19.02625,17.90475 L19.02625,17.90475 Z M15.988,22.650375 C15.308125,22.650375 14.756875,21.886875 14.756875,20.94525 C14.756875,20.003625 15.308125,19.2405 15.988,19.2405 C16.667875,19.2405 17.219875,20.003625 17.219875,20.94525 C17.219875,21.886875 16.667875,22.650375 15.988,22.650375 L15.988,22.650375 Z M22.011625,22.650375 C21.331375,22.650375 20.77975,21.886875 20.77975,20.94525 C20.77975,20.003625 21.331375,19.2405 22.011625,19.2405 C22.691125,19.2405 23.24275,20.003625 23.24275,20.94525 C23.24275,21.886875 22.6915,22.650375 22.011625,22.650375 L22.011625,22.650375 Z M19,0 C9.058375,0 1,8.05875 1,18 C1,27.94125 9.058375,36 19,36 C28.940875,36 37,27.94125 37,18 C37,8.05875 28.940875,0 19,0 L19,0 Z M20.64175,25.387875 C20.31925,25.387875 19.678,25.388625 19,25.389375 C18.321625,25.388625 17.68,25.387875 17.357875,25.387875 C15.93175,25.387875 10.28425,25.27875 10.28425,18.471 C10.28425,16.904625 10.82125,15.758625 11.699875,14.80425 C11.559625,14.458125 11.5525,12.492375 12.300625,10.610625 C12.300625,10.610625 14.016625,10.798875 16.613125,12.5805 C17.15725,12.430125 18.078625,12.355125 19,12.355125 C19.920625,12.355125 20.842,12.42975 21.386875,12.5805 C23.983,10.798875 25.698625,10.610625 25.698625,10.610625 C26.44675,12.492375 26.44,14.458125 26.29975,14.80425 C27.17875,15.758625 27.71575,16.905 27.71575,18.471 C27.71575,25.27875 22.067875,25.387875 20.64175,25.387875 L20.64175,25.387875 Z" id="Shape" fill="#FFFFFF"></path>
    </g>
</svg>