<?xml version="1.0" encoding="UTF-8" standalone="no"?>
<svg width="77px" height="77px" viewBox="0 0 77 77" version="1.1" xmlns="http://www.w3.org/2000/svg" xmlns:xlink="http://www.w3.org/1999/xlink">
    <defs></defs>
    <g id="Symbols" stroke="none" stroke-width="1" fill="none" fill-rule="evenodd">
        <g id="FOOTER" transform="translate(-151.000000, -47.000000)">
            <g id="Imported-Layers-Copy-5">
                <g transform="translate(151.000000, 47.000000)">
                    <path d="M76.3541935,38.1770968 C76.3541935,59.2618495 59.2618495,76.3541935 38.1770968,76.3541935 C17.0923441,76.3541935 0,59.2618495 0,38.1770968 C0,17.0923441 17.0923441,0 38.1770968,0 C59.2618495,0 76.3541935,17.0923441 76.3541935,38.1770968" id="Fill-1" fill="#FF5470"></path>
                    <path d="M45.4315714,20.6324194 C44.3063778,23.161828 41.589851,25.0388065 39.7137004,25.8849785 C40.1144316,26.2948172 40.6964854,26.5821183 41.4954639,26.6624301 C43.0387757,26.8164301 44.5564208,26.2310645 45.7495069,25.2168172 C48.8742165,22.5615591 49.0729262,16.8387204 48.8104639,16 C45.0258725,18.6428387 42.3722703,18.3944516 39.9124101,21.4015914 C39.3436036,22.0970753 38.9991735,23.0583333 39.0000015,23.969914 C39.8064316,23.969914 43.1795284,22.775172 45.4315714,20.6324194" id="Fill-2" fill="#FFFFFF"></path>
                    <path d="M38.2575914,49.5113226 C34.0714409,49.5113226 30.6875806,45.6099892 30.6875806,40.9634946 C30.6875806,36.317 34.0714409,32.4164946 38.2575914,32.4164946 C41.0685054,32.4164946 43.4786882,34.1386452 44.4515376,36.201086 L52.5406774,36.201086 C51.509871,32.1796989 49.1576452,29.1493763 45.8954946,27.3643011 C44.406,28.2452473 42.7028925,28.7014516 40.9766022,28.5284086 C40.1817634,28.4489247 39.535957,28.2270323 39.016,27.9066129 L38.4629247,28.1003548 C37.7881398,28.3354946 37.0628495,28.4555484 36.3069247,28.4555484 C34.7453978,28.4555484 33.1292258,27.9554624 31.5494839,27 C26.3366667,29.464 23,34.777828 23,40.9634946 C23,49.5113226 29.3686452,56.394957 38.2575914,56.394957 C45.4285269,56.394957 50.8201828,52.4364946 52.5406774,45.7267312 L44.4515376,45.7267312 C43.4786882,47.789172 41.0685054,49.5113226 38.2575914,49.5113226" id="Fill-3" fill="#FFFFFF"></path>
                    <path d="M30.1921183,17.2773978 C33.6877527,17.6773011 36.2825699,19.7173871 37.4913871,20.9932688 C37.6106129,20.7713763 37.7463978,20.5610753 37.9012258,20.3714731 C38.4526452,19.6983441 39.013172,19.1891505 39.5943978,18.7726882 C39.4089355,18.5185054 39.0197957,18.1351613 38.8169462,17.9314839 C35.6202043,14.7347419 30.1507204,15.3035484 25,12 C26.0341183,15.5287527 26.0929032,20.3772688 29.9942366,23.6973763 C32.8713871,26.1456452 35.7071398,26.7682688 37.7604731,26.0512581 C37.5261613,24.2297527 34.009,19.7629247 30.1921183,17.2773978" id="Fill-4" fill="#FFFFFF"></path>
                </g>
            </g>
        </g>
    </g>
</svg>