<svg width="25" height="25" viewBox="0 0 25 25" version="1.1" xmlns="http://www.w3.org/2000/svg" xmlns:xlink="http://www.w3.org/1999/xlink">
<title>thumbtack</title>
<desc>Created using Figma</desc>
<g id="Canvas" transform="translate(-16687 -42336)">
<g id="thumbtack">
<g id="Vector">
<use xlink:href="#path0_fill" transform="matrix(0.707107 -0.707107 0.707107 0.707107 16686.2 42348.2)" fill="#F880A1"/>
</g>
</g>
</g>
<defs>
<path id="path0_fill" d="M 14.6344 10.6529L 14.0336 4.77292L 16.1061 4.77292C 16.757 4.77292 17.2846 4.2387 17.2846 3.57969L 17.2846 1.19323C 17.2846 0.534219 16.757 0 16.1061 0L 2.74983 0C 2.09895 0 1.57133 0.534219 1.57133 1.19323L 1.57133 3.57969C 1.57133 4.2387 2.09895 4.77292 2.74983 4.77292L 4.82236 4.77292L 4.22157 10.6529C 1.83968 11.7742 0 13.7848 0 16.3075C 0 16.9665 0.527623 17.5007 1.1785 17.5007L 7.85665 17.5007L 7.85665 22.6717C 7.85665 22.7335 7.87084 22.7944 7.89814 22.8496L 9.07664 25.2361C 9.22105 25.5285 9.63465 25.5291 9.77936 25.2361L 10.9579 22.8496C 10.9851 22.7944 10.9993 22.7335 10.9994 22.6717L 10.9994 17.5007L 17.6775 17.5007C 18.3284 17.5007 18.856 16.9665 18.856 16.3075C 18.856 13.7628 16.9909 11.7623 14.6344 10.6529Z"/>
</defs>
</svg>
