<svg width="195" height="173" viewBox="0 0 195 173" version="1.1" xmlns="http://www.w3.org/2000/svg" xmlns:xlink="http://www.w3.org/1999/xlink">
<title>Layer 1</title>
<desc>Created using Figma</desc>
<g id="Canvas" transform="translate(7641 -23420)">
<g id="Layer 1">
<g id="Vector">
<use xlink:href="#path0_fill" transform="translate(-7641 23420)" fill="#FFFFFF"/>
</g>
<g id="Canvas">
<g id="Vector">
<g id="path0 fill">
<use xlink:href="#path1_fill" transform="translate(-7574.41 23456.6)" fill="url(#paint1_linear)"/>
</g>
</g>
</g>
</g>
</g>
<defs>
<linearGradient id="paint1_linear" x1="0" y1="0" x2="1" y2="0" gradientUnits="userSpaceOnUse" gradientTransform="matrix(73.9815 -97.7899 -98.7037 -73.2959 47.4843 109.804)">
<stop offset="0" stop-color="#F7618B"/>
<stop offset="1" stop-color="#2A7AFF"/>
</linearGradient>
<path id="path0_fill" d="M 195 135.479L 195 0L 0 0L 0 135.479L 93.7407 135.479L 93.7407 165.566L 67.5 165.566L 67.5 173L 127.5 173L 127.5 165.566L 101.241 165.566L 101.241 135.479L 195 135.479ZM 7.5 7.52659L 187.5 7.52659L 187.5 127.933L 7.5 127.933L 7.5 7.52659Z"/>
<path id="path1_fill" d="M 61.5528 20.5296C 61.0103 19.3164 60.0118 18.3678 58.775 17.8906C 57.5362 17.4073 56.1619 17.4073 54.9232 17.8906C 54.6053 18.0282 54.3014 18.1963 54.0157 18.3924L 28.8491 5.77374C 29.0612 4.78031 28.9509 3.74482 28.5343 2.81886C 27.9603 1.66655 26.9652 0.781105 25.7565 0.347162C 24.565 -0.115719 23.2443 -0.115719 22.0528 0.347162C 20.8672 0.846433 19.9188 1.78487 19.4046 2.96753C 19.1571 3.55562 19.0296 4.18754 19.0296 4.82595C 19.0296 5.46435 19.1571 6.09627 19.4046 6.68436C 19.4046 6.85162 19.5713 7.03746 19.6639 7.20472L 5.05277 25.4729C 4.41926 25.4769 3.79175 25.5966 3.20092 25.8261C 2.5842 26.0629 2.01844 26.4162 1.53426 26.8668C 1.05982 27.3085 0.679359 27.842 0.415791 28.4351C 0.152223 29.0283 0.0109986 29.6688 0.000617591 30.3182C -0.0097634 30.9676 0.110919 31.6124 0.355392 32.2137C 0.599864 32.815 0.96307 33.3605 1.42315 33.8172C 1.8853 34.289 2.43555 34.6647 3.04244 34.923C 3.64934 35.1813 4.30099 35.3171 4.96018 35.3226L 9.49722 47.0492C 8.58081 47.7946 7.96897 48.8517 7.7778 50.0199C 7.58664 51.188 7.82946 52.386 8.46018 53.3864C 9.11054 54.3537 10.0712 55.0685 11.1824 55.412C 12.3392 55.7669 13.5828 55.7078 14.7009 55.2448C 15.3339 54.9864 15.9075 54.6006 16.3861 54.1112L 27.4972 57.1032C 27.5535 57.752 27.7359 58.3833 28.0343 58.9616C 28.3339 59.5479 28.7498 60.0665 29.2565 60.4855C 29.7651 60.9087 30.3497 61.2304 30.9787 61.4333C 31.6137 61.6284 32.2792 61.704 32.9417 61.6563C 33.5844 61.5922 34.2111 61.4161 34.7935 61.136C 35.3874 60.8419 35.9164 60.4311 36.3491 59.928C 36.7689 59.4364 37.0881 58.8666 37.2883 58.2512C 37.4884 57.6357 37.5657 56.9867 37.5157 56.3413L 49.4787 49.558C 50.2938 50.1806 51.2755 50.545 52.2982 50.6046C 53.3209 50.6642 54.338 50.4163 55.2194 49.8925C 55.7999 49.5538 56.3043 49.0982 56.7009 48.5545C 57.1108 48.0036 57.3952 47.3692 57.5343 46.6961C 57.664 46.0459 57.664 45.3763 57.5343 44.7262C 57.4063 44.0646 57.1469 43.4356 56.7715 42.8769C 56.396 42.3181 55.9123 41.841 55.3491 41.4739L 57.7565 27.257C 58.5138 27.1406 59.2352 26.8548 59.8676 26.4207C 60.4813 26.0034 60.9932 25.4524 61.3651 24.8088C 61.7371 24.1652 61.9594 23.4457 62.0157 22.7039C 62.0521 21.9492 61.906 21.1968 61.5898 20.511L 61.5528 20.5296ZM 33.5713 52.1226L 33.1824 41.3252L 47.5343 46.1943C 47.5719 46.4764 47.6276 46.7557 47.7009 47.0306L 36.1639 53.5536C 35.4662 52.8213 34.5612 52.3217 33.5713 52.1226ZM 50.4972 41.2137C 49.5606 41.5833 48.7592 42.2318 48.2009 43.0722L 33.0343 37.9429L 32.5528 25.7703C 33.702 25.1658 34.5671 24.1306 34.9602 22.8898L 51.9972 23.503C 52.0677 23.8272 52.1668 24.1444 52.2935 24.4508C 52.7594 25.4802 53.5545 26.324 54.5528 26.8482L 52.238 40.712C 51.6406 40.7471 51.0527 40.8789 50.4972 41.1022L 50.4972 41.2137ZM 9.75648 30.0632L 9.75648 29.8216L 26.2194 24.5623C 27.0302 25.5189 28.1646 26.141 29.4046 26.3092L 29.8306 36.865L 9.75648 30.0632ZM 21.9602 9.3419C 22.5914 9.61577 23.2725 9.755 23.9602 9.75075C 25.1738 9.74234 26.3464 9.30847 27.275 8.52419L 50.7565 20.3437L 34.7935 19.7676C 34.7772 19.6734 34.7392 19.5843 34.6824 19.5074C 34.2177 18.4434 33.3904 17.5803 32.3491 17.0729C 31.2925 16.5532 30.0932 16.4028 28.9417 16.6455C 27.7978 16.9091 26.7821 17.5666 26.0713 18.5039C 25.3533 19.4103 24.9792 20.543 25.0157 21.7004L 8.34908 27.0526L 8.07129 26.811L 21.9602 9.3419ZM 17.3676 48.7775C 16.9543 47.8406 16.2621 47.0551 15.3861 46.5288C 14.4964 46.0034 13.4727 45.7514 12.4417 45.804L 7.775 34.3376C 8.24377 33.9942 8.65083 33.5731 8.97871 33.0925L 29.9046 40.1544L 30.3861 52.3642C 29.5426 52.7436 28.8188 53.3478 28.2935 54.1112L 17.7565 51.2306C 17.8502 50.3927 17.7158 49.5449 17.3676 48.7775Z"/>
</defs>
</svg>
