<svg width="395" height="322" viewBox="0 0 395 322" version="1.1" xmlns="http://www.w3.org/2000/svg" xmlns:xlink="http://www.w3.org/1999/xlink">
<title>Layer 1</title>
<desc>Created using Figma</desc>
<g id="Canvas" transform="translate(4528 -23350)">
<g id="Layer 1">
<g id="Vector">
<use xlink:href="#path0_fill" transform="translate(-4528 23350)" fill="#FFFFFF"/>
</g>
<g id="Canvas">
<g id="Vector">
<g id="path0 fill">
<use xlink:href="#path1_fill" transform="translate(-4485.58 23373.2)" fill="url(#paint1_linear)"/>
</g>
</g>
</g>
<g id="Vector">
<use xlink:href="#path2_fill" transform="translate(-4388.82 23562.1)" fill="#FFFFFF"/>
</g>
<g id="Vector">
<use xlink:href="#path3_fill" transform="translate(-4257.2 23350)" fill="#FFFFFF"/>
</g>
<g id="Canvas">
<g id="Canvas">
<g id="Vector">
<g id="path0 fill">
<use xlink:href="#path1_fill" transform="translate(-4215 23373.2)" fill="url(#paint4_linear)"/>
</g>
</g>
</g>
</g>
<g id="Canvas">
<g id="Canvas">
<g id="Vector">
<g id="path0 fill">
<use xlink:href="#path1_fill" transform="translate(-4347 23585)" fill="url(#paint5_linear)"/>
</g>
</g>
</g>
</g>
<g id="Union" opacity="0.6">
<use xlink:href="#path4_fill" transform="translate(-4350.64 23389.8)" fill="#FFFFFF"/>
</g>
<g id="Union" opacity="0.6">
<use xlink:href="#path5_fill" transform="translate(-4363.02 23370.3)" fill="#FFFFFF"/>
</g>
<g id="Union" opacity="0.6">
<use xlink:href="#path6_fill" transform="translate(-4260.23 23468)" fill="#FFFFFF"/>
</g>
<g id="Union" opacity="0.6">
<use xlink:href="#path7_fill" transform="translate(-4285.84 23471.6)" fill="#FFFFFF"/>
</g>
<g id="Union" opacity="0.6">
<use xlink:href="#path8_fill" transform="translate(-4415.84 23468)" fill="#FFFFFF"/>
</g>
<g id="Union" opacity="0.6">
<use xlink:href="#path9_fill" transform="translate(-4390.22 23471.6)" fill="#FFFFFF"/>
</g>
</g>
</g>
<defs>
<linearGradient id="paint1_linear" x1="0" y1="0" x2="1" y2="0" gradientUnits="userSpaceOnUse" gradientTransform="matrix(47.1207 -62.0942 -62.8669 -46.5411 27.836 73.8317)">
<stop offset="0" stop-color="#F7618B"/>
<stop offset="1" stop-color="#2A7AFF"/>
</linearGradient>
<linearGradient id="paint4_linear" x1="0" y1="0" x2="1" y2="0" gradientUnits="userSpaceOnUse" gradientTransform="matrix(47.1207 -62.0942 -62.8669 -46.5411 27.836 73.8317)">
<stop offset="0" stop-color="#F7618B"/>
<stop offset="1" stop-color="#2A7AFF"/>
</linearGradient>
<linearGradient id="paint5_linear" x1="0" y1="0" x2="1" y2="0" gradientUnits="userSpaceOnUse" gradientTransform="matrix(47.1207 -62.0942 -62.8669 -46.5411 27.836 73.8317)">
<stop offset="0" stop-color="#F7618B"/>
<stop offset="1" stop-color="#2A7AFF"/>
</linearGradient>
<path id="path0_fill" d="M 124.2 86.0256L 124.2 0L 0 0L 0 86.0256L 59.7059 86.0256L 59.7059 105.131L 42.9925 105.131L 42.9925 109.851L 81.208 109.851L 81.208 105.131L 64.4828 105.131L 64.4828 86.0256L 124.2 86.0256ZM 4.77694 4.7792L 119.424 4.7792L 119.424 81.2346L 4.77694 81.2346L 4.77694 4.7792Z"/>
<path id="path1_fill" d="M 39.2045 13.0358C 38.859 12.2654 38.223 11.6631 37.4353 11.3601C 36.6463 11.0532 35.771 11.0532 34.982 11.3601C 34.7795 11.4475 34.586 11.5542 34.404 11.6787L 18.3747 3.66618C 18.5098 3.03538 18.4396 2.37787 18.1742 1.7899C 17.8086 1.05822 17.1748 0.495982 16.405 0.220439C 15.6461 -0.0734784 14.8049 -0.0734784 14.046 0.220439C 13.2908 0.537464 12.6868 1.13335 12.3593 1.88431C 12.2016 2.25773 12.1204 2.65899 12.1204 3.06436C 12.1204 3.46973 12.2016 3.87098 12.3593 4.24441C 12.3593 4.35061 12.4655 4.46861 12.5244 4.57482L 3.21824 16.1747C 2.81474 16.1772 2.41507 16.2532 2.03875 16.3989C 1.64594 16.5493 1.2856 16.7736 0.977209 17.0597C 0.675027 17.3402 0.432701 17.679 0.264828 18.0556C 0.0969545 18.4322 0.00700528 18.839 0.00039336 19.2513C -0.00621856 19.6637 0.0706469 20.0731 0.226358 20.4549C 0.382069 20.8367 0.613404 21.1831 0.906438 21.4731C 1.2008 21.7727 1.55126 22.0113 1.93781 22.1753C 2.32436 22.3393 2.73941 22.4255 3.15927 22.429L 6.04902 29.8751C 5.46534 30.3484 5.07564 31.0196 4.95388 31.7614C 4.83212 32.5031 4.98678 33.2638 5.38851 33.899C 5.80273 34.5133 6.41458 34.9672 7.12236 35.1853C 7.85912 35.4106 8.65122 35.3731 9.3634 35.0791C 9.76658 34.9151 10.1319 34.6701 10.4367 34.3593L 17.5137 36.2591C 17.5495 36.6711 17.6657 37.072 17.8557 37.4392C 18.0466 37.8115 18.3115 38.1408 18.6342 38.4068C 18.9582 38.6755 19.3305 38.8798 19.7311 39.0087C 20.1356 39.1325 20.5595 39.1805 20.9814 39.1503C 21.3908 39.1096 21.7899 38.9977 22.1609 38.8198C 22.5391 38.6331 22.8761 38.3723 23.1517 38.0528C 23.4191 37.7407 23.6223 37.3789 23.7498 36.9881C 23.8773 36.5973 23.9266 36.1852 23.8947 35.7753L 31.5142 31.4681C 32.0334 31.8635 32.6587 32.0949 33.3101 32.1327C 33.9614 32.1705 34.6092 32.0131 35.1707 31.6805C 35.5404 31.4654 35.8616 31.1762 36.1143 30.8309C 36.3753 30.4811 36.5565 30.0783 36.645 29.6509C 36.7276 29.238 36.7276 28.8129 36.645 28.4C 36.5635 27.9799 36.3983 27.5806 36.1592 27.2258C 35.9201 26.871 35.6119 26.568 35.2532 26.3349L 36.7866 17.3075C 37.2689 17.2336 37.7284 17.0521 38.1312 16.7765C 38.5221 16.5115 38.8481 16.1616 39.085 15.753C 39.3219 15.3443 39.4636 14.8875 39.4994 14.4164C 39.5226 13.9372 39.4295 13.4594 39.2281 13.024L 39.2045 13.0358ZM 21.3824 33.0966L 21.1347 26.2405L 30.2758 29.3323C 30.2998 29.5113 30.3352 29.6887 30.3819 29.8633L 23.0337 34.0052C 22.5894 33.5402 22.0129 33.223 21.3824 33.0966ZM 32.163 26.1697C 31.5664 26.4044 31.056 26.8162 30.7004 27.3498L 21.0404 24.0928L 20.7337 16.3635C 21.4656 15.9796 22.0166 15.3224 22.267 14.5344L 33.1184 14.9239C 33.1632 15.1297 33.2264 15.3311 33.3071 15.5257C 33.6038 16.1793 34.1103 16.7151 34.7461 17.0479L 33.2717 25.8511C 32.8912 25.8734 32.5168 25.9571 32.163 26.0989L 32.163 26.1697ZM 6.21415 19.0894L 6.21415 18.936L 16.6998 15.5965C 17.2162 16.2039 17.9387 16.5989 18.7286 16.7057L 18.9998 23.4084L 6.21415 19.0894ZM 13.987 5.93187C 14.3891 6.10578 14.8228 6.19418 15.2609 6.19149C 16.0339 6.18615 16.7807 5.91065 17.3721 5.41265L 32.3281 12.9178L 22.1609 12.552C 22.1505 12.4921 22.1263 12.4355 22.0901 12.3867C 21.7941 11.7111 21.2672 11.1631 20.604 10.8409C 19.931 10.5109 19.1671 10.4154 18.4337 10.5695C 17.7051 10.7368 17.0582 11.1544 16.6055 11.7495C 16.1481 12.325 15.9099 13.0443 15.9332 13.7792L 5.31774 17.1777L 5.14081 17.0243L 13.987 5.93187ZM 11.0619 30.9725C 10.7986 30.3776 10.3578 29.8788 9.79981 29.5447C 9.23312 29.2111 8.58108 29.051 7.92441 29.0844L 4.9521 21.8035C 5.25067 21.5855 5.50993 21.3181 5.71877 21.0129L 19.047 25.4971L 19.3537 33.25C 18.8164 33.4909 18.3554 33.8746 18.0209 34.3593L 11.3096 32.5302C 11.3692 31.9981 11.2836 31.4598 11.0619 30.9725Z"/>
<path id="path2_fill" d="M 124.2 86.0138L 124.2 -5.04171e-06L 0 -5.04171e-06L 0 86.0138L 59.7059 86.0138L 59.7059 105.131L 42.9925 105.131L 42.9925 109.91L 81.208 109.91L 81.208 105.131L 64.4828 105.131L 64.4828 86.0138L 124.2 86.0138ZM 4.77695 4.7674L 119.424 4.7674L 119.424 81.2346L 4.77695 81.2346L 4.77695 4.7674Z"/>
<path id="path3_fill" d="M 124.201 86.0256L 124.201 0L -4.31943e-06 0L -4.31943e-06 86.0256L 59.7059 86.0256L 59.7059 105.131L 42.9453 105.131L 42.9453 109.851L 81.1608 109.851L 81.1608 105.131L 64.4828 105.131L 64.4828 86.0256L 124.201 86.0256ZM 4.77694 4.7792L 119.424 4.7792L 119.424 81.2346L 4.77694 81.2346L 4.77694 4.7792Z"/>
<path id="path4_fill" fill-rule="evenodd" d="M 53.1006 0L 51.8149 1.38086L 57.3628 6.53711L 0 6.53711L 0 8.89648L 57.3633 8.89648L 51.8149 14.0547L 53.1006 15.4473L 61.4043 7.7168L 53.1006 0Z"/>
<path id="path5_fill" fill-rule="evenodd" d="M 8.30371 15.4473L 9.58936 14.0547L 4.02832 8.89453L 61.3926 8.89453L 61.3926 6.53516L 4.05371 6.53516L 9.58936 1.38086L 8.30371 0L 0 7.72852L 8.30371 15.4473Z"/>
<path id="path6_fill" fill-rule="evenodd" d="M 14.1538 4.75586L 14.9438 6.4668L 21.8169 3.29688L 0 56.3711L 2.18213 57.2676L 23.9976 4.19531L 26.6562 11.293L 28.4258 10.6211L 24.4507 0L 14.1538 4.75586Z"/>
<path id="path7_fill" fill-rule="evenodd" d="M 26.2437 0L 4.42822 53.0703L 1.76904 45.9746L 0 46.6348L 3.98682 57.2559L 14.272 52.5117L 13.4814 50.7891L 6.61035 53.9668L 28.4253 0.896484L 26.2437 0Z"/>
<path id="path8_fill" fill-rule="evenodd" d="M 13.4932 6.4668L 14.2837 4.75586L 3.98682 0L 0 10.6211L 1.76904 11.293L 4.42822 4.19727L 26.2437 57.2676L 28.4253 56.3711L 6.6084 3.29688L 13.4932 6.4668Z"/>
<path id="path9_fill" fill-rule="evenodd" d="M 2.18164 0L 0 0.898438L 21.8286 53.9883L 14.9268 50.8008L 14.1367 52.5234L 24.4336 57.2676L 28.4204 46.6465L 26.6514 45.9863L 23.9995 53.0645L 2.18164 0Z"/>
</defs>
</svg>
