<svg width="106" height="106" viewBox="0 0 106 106" version="1.1" xmlns="http://www.w3.org/2000/svg" xmlns:xlink="http://www.w3.org/1999/xlink">
<title>Ellipse 2</title>
<desc>Created using Figma</desc>
<g id="Canvas" transform="translate(-23122 -37342)">
<g id="Ellipse 2" filter="url(#filter0_d)">
<mask id="mask0_outline_ins">
<use xlink:href="#path0_fill" fill="white" transform="translate(23126 37346)"/>
</mask>
<g mask="url(#mask0_outline_ins)">
<use xlink:href="#path1_stroke_2x" transform="translate(23126 37346)" fill="url(#paint0_linear)"/>
</g>
</g>
</g>
<defs>
<filter id="filter0_d" filterUnits="userSpaceOnUse" x="23122" y="37342" width="106" height="106" color-interpolation-filters="sRGB">
<feFlood flood-opacity="0" result="BackgroundImageFix"/>
<feColorMatrix in="SourceAlpha" type="matrix" values="0 0 0 0 0 0 0 0 0 0 0 0 0 0 0 0 0 0 255 0"/>
<feOffset dx="0" dy="0"/>
<feGaussianBlur stdDeviation="2"/>
<feColorMatrix type="matrix" values="0 0 0 0 0 0 0 0 0 0 0 0 0 0 0 0 0 0 0.25 0"/>
<feBlend mode="normal" in2="BackgroundImageFix" result="effect1_dropShadow"/>
<feBlend mode="normal" in="SourceGraphic" in2="effect1_dropShadow" result="shape"/>
</filter>
<linearGradient id="paint0_linear" x1="0" y1="0" x2="1" y2="0" gradientUnits="userSpaceOnUse" gradientTransform="matrix(-115.5 90.5 -90.5 -115.5 153.75 57.75)">
<stop offset="0" stop-color="#2A7AFF"/>
<stop offset="1" stop-color="#F7618B"/>
</linearGradient>
<path id="path0_fill" d="M 98 49C 98 76.062 76.062 98 49 98C 21.938 98 0 76.062 0 49C 0 21.938 21.938 0 49 0C 76.062 0 98 21.938 98 49Z"/>
<path id="path1_stroke_2x" d="M 93 49C 93 73.3005 73.3005 93 49 93L 49 103C 78.8234 103 103 78.8234 103 49L 93 49ZM 49 93C 24.6995 93 5 73.3005 5 49L -5 49C -5 78.8234 19.1766 103 49 103L 49 93ZM 5 49C 5 24.6995 24.6995 5 49 5L 49 -5C 19.1766 -5 -5 19.1766 -5 49L 5 49ZM 49 5C 73.3005 5 93 24.6995 93 49L 103 49C 103 19.1766 78.8234 -5 49 -5L 49 5Z"/>
</defs>
</svg>
