<svg width="57" height="57" viewBox="0 0 57 57" version="1.1" xmlns="http://www.w3.org/2000/svg" xmlns:xlink="http://www.w3.org/1999/xlink">
<title>App  Icon size: 57px by 57px</title>
<desc>Created using Figma</desc>
<g id="Canvas" transform="translate(33082 -20852)">
<clipPath id="clip-0" clip-rule="evenodd">
<path d="M -33082 20852L -33025 20852L -33025 20909L -33082 20909L -33082 20852Z" fill="#FFFFFF"/>
</clipPath>
<g id="App  Icon size: 57px by 57px" clip-path="url(#clip-0)">
<path d="M -33082 20852L -33025 20852L -33025 20909L -33082 20909L -33082 20852Z" fill="#102131"/>
<g id="Thicket-Branding-03">
<g id="Vector">
<use xlink:href="#path0_fill" transform="translate(-33077 20856.5)" fill="url(#paint0_linear)"/>
</g>
</g>
</g>
</g>
<defs>
<linearGradient id="paint0_linear" x1="0" y1="0" x2="1" y2="0" gradientUnits="userSpaceOnUse" gradientTransform="matrix(56.4784 -75.3482 75.3482 56.4784 1.15373 53.5101)">
<stop offset="0" stop-color="#F7618B"/>
<stop offset="1" stop-color="#2A7AFF"/>
</linearGradient>
<path id="path0_fill" d="M 47.1425 15.7935C 46.7369 14.8708 45.9764 14.1443 45.0277 13.7732C 44.0789 13.4021 43.0195 13.4168 42.0818 13.814C 41.839 13.9185 41.6065 14.045 41.3875 14.1919L 22.1739 4.43265C 22.3396 3.66965 22.2587 2.8747 21.9425 2.15928C 21.5129 1.27423 20.7523 0.58729 19.8199 0.242399C 18.8875 -0.102492 17.8558 -0.07856 16.9409 0.30918C 16.0261 0.696919 15.2991 1.41837 14.9123 2.32236C 14.5255 3.22635 14.5089 4.2427 14.866 5.15845C 14.933 5.29641 15 5.42838 15.0731 5.56034L 3.91639 19.6444C 3.41096 19.6358 2.90874 19.7252 2.43841 19.9077C 1.96809 20.0903 1.53886 20.3622 1.17524 20.7081C 0.440888 21.4067 0.01835 22.364 0.000583437 23.3694C -0.0171831 24.3748 0.371277 25.346 1.08051 26.0693C 1.78974 26.7926 2.76164 27.2088 3.78241 27.2263L 7.4059 36.1578C 6.7019 36.7445 6.23477 37.5604 6.08925 38.4573C 5.94373 39.3543 6.12949 40.2729 6.6128 41.0464C 7.09611 41.82 7.84496 42.3973 8.72345 42.6735C 9.60195 42.9498 10.5519 42.9067 11.4009 42.5521C 11.8911 42.3507 12.333 42.0503 12.698 41.6703L 21.1264 43.9797C 21.1627 44.4787 21.2989 44.9657 21.5272 45.4127C 21.7554 45.8596 22.0713 46.2576 22.4564 46.5838C 22.8416 46.9099 23.2885 47.1577 23.7714 47.313C 24.2543 47.4682 24.7636 47.5277 25.2699 47.4881C 25.7763 47.4485 26.2697 47.3106 26.7217 47.0823C 27.1737 46.854 27.5753 46.5399 27.9034 46.158C 28.2315 45.7761 28.4797 45.334 28.6335 44.8572C 28.7873 44.3803 28.8438 43.8783 28.7997 43.3798L 37.9346 38.1493C 38.343 38.4666 38.8125 38.6991 39.3147 38.8327C 39.8169 38.9664 40.3414 38.9983 40.8566 38.9266C 41.3717 38.855 41.8667 38.6812 42.3117 38.4158C 42.7567 38.1505 43.1424 37.799 43.4457 37.3826C 43.7489 36.9663 43.9633 36.4937 44.0759 35.9935C 44.1885 35.4932 44.1969 34.9757 44.1008 34.4721C 44.0046 33.9686 43.8058 33.4894 43.5163 33.0637C 43.2269 32.6379 42.8528 32.2744 42.4167 31.995L 44.2437 21.036C 44.8249 20.9484 45.3778 20.7305 45.8599 20.3989C 46.3419 20.0674 46.7402 19.6311 47.0239 19.1239C 47.3075 18.6167 47.4691 18.052 47.496 17.4735C 47.5229 16.895 47.4144 16.3182 47.179 15.7875L 47.1425 15.7935ZM 25.7852 40.0808L 25.4868 31.7731L 36.4486 35.516C 36.4736 35.737 36.5164 35.9556 36.5765 36.1698L 27.7644 41.1964C 27.2357 40.6344 26.5451 40.245 25.7852 40.0808ZM 38.708 31.6831C 37.9757 31.9909 37.36 32.5176 36.948 33.1887L 25.3772 29.2238L 25.0118 19.8364C 25.8922 19.3606 26.5481 18.5638 26.8388 17.617L 39.8529 18.0909C 39.904 18.3421 39.9815 18.5873 40.0843 18.8227C 40.427 19.6143 41.0325 20.2679 41.8017 20.6761L 40.0295 31.3532C 39.5739 31.3762 39.1263 31.4798 38.708 31.6591L 38.708 31.6831ZM 7.5886 23.1175C 7.5886 23.0575 7.5886 22.9975 7.5886 22.9315L 20.1582 18.8766C 20.7683 19.614 21.638 20.0979 22.5941 20.2323L 22.9108 28.354L 7.5886 23.1175ZM 16.9061 7.1559C 17.3869 7.36023 17.905 7.46564 18.4286 7.46564C 18.9522 7.46564 19.4703 7.36023 19.9511 7.1559C 20.3215 6.99706 20.6645 6.78257 20.9681 6.52007L 38.8846 15.6315L 26.7048 15.1877C 26.7048 15.1217 26.6561 15.0497 26.6256 14.9837C 26.2703 14.171 25.6375 13.5063 24.8369 13.1049C 24.0362 12.7034 23.1183 12.5905 22.242 12.7856C 21.3657 12.9807 20.5864 13.4716 20.0389 14.1733C 19.4915 14.8749 19.2105 15.743 19.2447 16.6273L 6.48024 20.7601C 6.41577 20.6915 6.34658 20.6274 6.27318 20.5682L 16.9061 7.1559ZM 13.4166 37.5675C 13.1031 36.8522 12.5738 36.2493 11.9006 35.8405C 11.2273 35.4317 10.4427 35.2367 9.65308 35.2821L 6.09048 26.4465C 6.45094 26.1766 6.76194 25.8479 7.01006 25.4748L 22.99 30.9273L 23.3554 40.3327C 22.7081 40.6246 22.1558 41.0877 21.7598 41.6703L 13.7089 39.4569C 13.7772 38.8128 13.6766 38.1623 13.4166 37.5675Z"/>
</defs>
</svg>
