<svg width="144" height="164" viewBox="0 0 144 164" version="1.1" xmlns="http://www.w3.org/2000/svg" xmlns:xlink="http://www.w3.org/1999/xlink">
<title>Thicket-Branding-03</title>
<desc>Created using Figma</desc>
<g id="Canvas" transform="translate(-3418 -21452)">
<clipPath id="clip-0" clip-rule="evenodd">
<path d="M 3412 21452L 3569 21452L 3569 21616L 3412 21616L 3412 21452Z" fill="#FFFFFF"/>
</clipPath>
<g id="Thicket-Branding-03" clip-path="url(#clip-0)">
<g id="Vector">
<use xlink:href="#path0_fill" transform="translate(3426 21469)" fill="url(#paint0_linear)"/>
</g>
</g>
</g>
<defs>
<linearGradient id="paint0_linear" x1="0" y1="0" x2="1" y2="0" gradientUnits="userSpaceOnUse" gradientTransform="matrix(154.572 -204.63 206.216 153.383 3.15758 145.322)">
<stop offset="0" stop-color="#F7618B"/>
<stop offset="1" stop-color="#2A7AFF"/>
</linearGradient>
<path id="path0_fill" d="M 129.022 42.8918C 127.912 40.386 125.83 38.4128 123.234 37.405C 120.637 36.3973 117.738 36.4372 115.171 37.516C 114.507 37.7997 113.871 38.1433 113.271 38.5423L 60.6865 12.0382C 61.14 9.966 60.9185 7.80707 60.0531 5.86416C 58.8775 3.46055 56.7956 1.59496 54.2439 0.658305C 51.6921 -0.278347 48.8684 -0.213352 46.3646 0.839667C 43.8608 1.89269 41.8711 3.852 40.8125 6.30704C 39.7539 8.76207 39.7086 11.5223 40.686 14.0093C 40.8693 14.3839 41.0527 14.7423 41.2527 15.1007L 10.7185 53.3501C 9.33525 53.3266 7.96076 53.5696 6.67355 54.0652C 5.38634 54.5609 4.21162 55.2995 3.21646 56.2389C 1.20664 58.136 0.0502217 60.7358 0.00159741 63.4664C -0.0470269 66.1969 1.01613 68.8344 2.95718 70.7988C 4.89823 72.7632 7.55818 73.8934 10.3519 73.941L 20.2688 98.1971C 18.3421 99.7904 17.0636 102.006 16.6653 104.442C 16.2671 106.878 16.7754 109.373 18.0982 111.473C 19.4209 113.574 21.4704 115.142 23.8747 115.892C 26.279 116.643 28.8788 116.526 31.2024 115.562C 32.544 115.015 33.7533 114.2 34.7525 113.168L 57.8197 119.44C 57.919 120.795 58.2917 122.117 58.9164 123.331C 59.5412 124.545 60.4055 125.626 61.4597 126.512C 62.5139 127.397 63.737 128.07 65.0586 128.492C 66.3802 128.914 67.7741 129.075 69.1599 128.968C 70.5457 128.86 71.896 128.486 73.133 127.866C 74.37 127.246 75.4692 126.393 76.3672 125.355C 77.2653 124.318 77.9444 123.118 78.3654 121.823C 78.7864 120.528 78.941 119.164 78.8203 117.811L 103.821 103.605C 104.939 104.467 106.224 105.099 107.598 105.462C 108.973 105.824 110.408 105.911 111.818 105.717C 113.228 105.522 114.582 105.05 115.8 104.329C 117.018 103.609 118.074 102.654 118.904 101.523C 119.734 100.393 120.321 99.1092 120.629 97.7506C 120.937 96.3921 120.96 94.9866 120.697 93.619C 120.434 92.2514 119.89 90.9502 119.097 89.7939C 118.305 88.6377 117.281 87.6504 116.088 86.8917L 121.088 57.1295C 122.679 56.8916 124.192 56.2996 125.511 55.3992C 126.831 54.4987 127.921 53.314 128.697 51.9365C 129.473 50.5589 129.915 49.0254 129.989 47.4543C 130.063 45.8833 129.766 44.3167 129.122 42.8755L 129.022 42.8918ZM 70.5701 108.851L 69.7534 86.2889L 99.7542 96.454C 99.8225 97.054 99.9396 97.6478 100.104 98.2297L 75.9869 111.881C 74.5399 110.354 72.6497 109.297 70.5701 108.851ZM 105.938 86.0446C 103.933 86.8807 102.249 88.3109 101.121 90.1334L 69.4534 79.3656L 68.4534 53.8714C 70.8629 52.5793 72.6581 50.4153 73.4535 47.844L 109.071 49.131C 109.211 49.8132 109.423 50.4792 109.704 51.1184C 110.642 53.2684 112.299 55.0433 114.405 56.1521L 109.554 85.1486C 108.308 85.2111 107.082 85.4926 105.938 85.9794L 105.938 86.0446ZM 20.7688 62.7822C 20.7688 62.6193 20.7688 62.4564 20.7688 62.2772L 55.1697 51.265C 56.8397 53.2674 59.2199 54.5818 61.8365 54.9466L 62.7032 77.0035L 20.7688 62.7822ZM 46.2694 19.4339C 47.5852 19.9888 49.0032 20.2751 50.4362 20.2751C 51.8693 20.2751 53.2872 19.9888 54.603 19.4339C 55.6166 19.0025 56.5556 18.42 57.3864 17.7071L 106.421 42.452L 73.0868 41.2465C 73.0868 41.0673 72.9535 40.8718 72.8701 40.6926C 71.8976 38.4855 70.1657 36.6804 67.9746 35.5901C 65.7834 34.4999 63.2711 34.1931 60.8729 34.723C 58.4747 35.2529 56.3417 36.5861 54.8434 38.4916C 53.3452 40.3971 52.5762 42.7547 52.6696 45.1562L 17.7354 56.3801C 17.5589 56.1939 17.3696 56.0197 17.1687 55.8588L 46.2694 19.4339ZM 36.7192 102.025C 35.8611 100.083 34.4125 98.4456 32.5699 97.3353C 30.7273 96.225 28.5799 95.6955 26.4189 95.8187L 16.6687 71.8232C 17.6552 71.09 18.5064 70.1975 19.1854 69.1842L 62.9199 83.992L 63.9199 109.535C 62.1486 110.328 60.637 111.585 59.5531 113.168L 37.5192 107.157C 37.7061 105.408 37.4306 103.641 36.7192 102.025Z"/>
</defs>
</svg>
