<svg width="105" height="15" viewBox="0 0 105 15" version="1.1" xmlns="http://www.w3.org/2000/svg" xmlns:xlink="http://www.w3.org/1999/xlink">
<title>Group</title>
<desc>Created using Figma</desc>
<g id="Canvas" transform="translate(33394 -20748)">
<g id="Group">
<g id="Vector">
<use xlink:href="#path0_fill" transform="translate(-33393.8 20748.4)" fill="#FFFFFF"/>
</g>
<g id="Vector">
<use xlink:href="#path1_fill" transform="translate(-33377.5 20748.4)" fill="#FFFFFF"/>
</g>
<g id="Vector">
<use xlink:href="#path2_fill" transform="translate(-33359.1 20748.4)" fill="#FFFFFF"/>
</g>
<g id="Vector">
<use xlink:href="#path3_fill" transform="translate(-33350.8 20748)" fill="#FFFFFF"/>
</g>
<g id="Vector">
<use xlink:href="#path4_fill" transform="translate(-33332.7 20748.4)" fill="#FFFFFF"/>
</g>
<g id="Vector">
<use xlink:href="#path5_fill" transform="translate(-33315.4 20748.4)" fill="#FFFFFF"/>
</g>
<g id="Vector">
<use xlink:href="#path6_fill" transform="translate(-33301.2 20748.4)" fill="#FFFFFF"/>
</g>
</g>
</g>
<defs>
<path id="path0_fill" d="M 4.41938 2.2159L 1.31965e-07 2.2159L 1.31965e-07 -1.63185e-07L 11.4117 -1.63185e-07L 11.4117 2.2159L 6.98797 2.2159L 6.98797 14.2707L 4.41938 14.2707L 4.41938 2.2159Z"/>
<path id="path1_fill" d="M 5.27862e-07 -1.63185e-07L 2.5686 -1.63185e-07L 2.5686 5.7622L 9.3101 5.7622L 9.3101 -1.63185e-07L 11.8787 -1.63185e-07L 11.8787 14.2707L 9.3101 14.2707L 9.3101 7.95671L 2.5686 7.95671L 2.5686 14.2879L 5.27862e-07 14.2879L 5.27862e-07 -1.63185e-07Z"/>
<path id="path2_fill" d="M 7.91793e-07 -1.63185e-07L 2.5686 -1.63185e-07L 2.5686 14.2707L 7.91793e-07 14.2707L 7.91793e-07 -1.63185e-07Z"/>
<path id="path3_fill" d="M 11.1054 3.70923C 10.7262 3.19732 10.2027 2.80745 9.60055 2.58845C 8.36844 2.10312 6.99195 2.12159 5.77359 2.63978C 5.17474 2.89769 4.63599 3.27484 4.19092 3.74774C 3.74483 4.22764 3.39942 4.79034 3.17472 5.40324C 2.93105 6.06072 2.80946 6.75634 2.81581 7.45659C 2.80777 8.1838 2.92475 8.90707 3.16175 9.59549C 3.37662 10.2086 3.71331 10.7729 4.152 11.2553C 4.58369 11.7243 5.11544 12.0926 5.70873 12.3333C 6.34628 12.5981 7.03244 12.7292 7.72383 12.7183C 8.43679 12.7328 9.14281 12.5773 9.78217 12.2648C 10.3534 11.9836 10.8496 11.5733 11.2308 11.067L 13.2891 12.4958C 12.6611 13.2801 11.8592 13.9109 10.9454 14.3396C 9.92782 14.7966 8.81949 15.0217 7.70221 14.9984C 6.64106 15.0086 5.58755 14.8199 4.5974 14.4422C 3.68801 14.098 2.8607 13.5709 2.16775 12.8942C 1.4748 12.2175 0.93127 11.406 0.571528 10.5109C 0.182258 9.54222 -0.011648 8.50752 0.000731595 7.46514C -0.0138711 6.40446 0.190665 5.352 0.601801 4.37229C 0.978639 3.48145 1.53986 2.67853 2.24934 2.01522C 2.96681 1.35968 3.80914 0.852152 4.72713 0.522273C 5.71955 0.167388 6.76806 -0.00934957 7.82329 0.000380626C 8.30753 0.00253341 8.7907 0.0454669 9.26758 0.128715C 9.76314 0.215208 10.2485 0.351373 10.7162 0.535106C 11.1711 0.713592 11.6059 0.938689 12.0135 1.20672C 12.4163 1.46828 12.7703 1.79681 13.0599 2.17778L 11.1054 3.70923Z"/>
<path id="path4_fill" d="M 2.37538e-06 -1.63185e-07L 2.5686 -1.63185e-07L 2.5686 6.16431L 2.62914 6.16431L 8.66145 -1.63185e-07L 12.1208 -1.63185e-07L 5.37504 6.58781L 12.5662 14.2879L 8.95983 14.2879L 2.62914 7.10115L 2.5686 7.10115L 2.5686 14.2707L 2.37538e-06 14.2707L 2.37538e-06 -1.63185e-07Z"/>
<path id="path5_fill" d="M -4.22289e-06 -1.63185e-07L 9.55657 -1.63185e-07L 9.55657 2.2159L 2.5686 2.2159L 2.5686 5.84348L 9.19334 5.84348L 9.19334 7.98238L 2.5686 7.98238L 2.5686 12.0121L 9.91981 12.0121L 9.91981 14.2707L -4.22289e-06 14.2707L -4.22289e-06 -1.63185e-07Z"/>
<path id="path6_fill" d="M 4.41938 2.2159L 3.69503e-06 2.2159L 3.69503e-06 -1.63185e-07L 11.4117 -1.63185e-07L 11.4117 2.2159L 6.98798 2.2159L 6.98798 14.2707L 4.41938 14.2707L 4.41938 2.2159Z"/>
</defs>
</svg>
