<svg width="375" height="1263" viewBox="0 0 375 1263" version="1.1" xmlns="http://www.w3.org/2000/svg" xmlns:xlink="http://www.w3.org/1999/xlink">
<title>Group</title>
<desc>Created using Figma</desc>
<g id="Canvas" transform="translate(1434 -21055)">
<g id="Group">
<g id="Layer 2">
<g id="Layer 1">
<g id="Group" style="mix-blend-mode:color-dodge" opacity="0.8">
<g id="Vector" style="mix-blend-mode:multiply" opacity="0.43">
<use xlink:href="#path0_fill" transform="translate(-1527 20995)" fill="url(#paint0_linear)"/>
</g>
</g>
</g>
</g>
</g>
</g>
<defs>
<linearGradient id="paint0_linear" x1="0" y1="0" x2="1" y2="0" gradientUnits="userSpaceOnUse" gradientTransform="matrix(1573.07 -2098.64 2098.64 1573.07 32.1344 1490.4)">
<stop offset="0" stop-color="#F7618B"/>
<stop offset="1" stop-color="#2A7AFF"/>
</linearGradient>
<path id="path0_fill" d="M 139.882 1216.3C 139.844 1216.88 139.927 1217.47 140.125 1218.02C 140.322 1218.57 140.631 1219.07 141.031 1219.5C 141.432 1219.93 141.916 1220.27 142.453 1220.5C 142.99 1220.73 143.569 1220.85 144.155 1220.85C 144.74 1220.85 145.319 1220.73 145.857 1220.5C 146.394 1220.27 146.878 1219.93 147.278 1219.5C 147.678 1219.07 147.987 1218.57 148.185 1218.02C 148.382 1217.47 148.465 1216.88 148.427 1216.3C 148.453 1215.75 148.371 1215.21 148.185 1214.7C 147.999 1214.19 147.713 1213.73 147.344 1213.33C 146.975 1212.93 146.53 1212.61 146.036 1212.39C 145.541 1212.17 145.008 1212.05 144.466 1212.03L 142.689 1105.65C 145.451 1105.61 148.117 1104.63 150.256 1102.89C 152.394 1101.14 153.878 1098.72 154.467 1096.02L 306.643 1129.32C 306.643 1129.46 306.643 1129.57 306.643 1129.71C 306.639 1130.59 306.966 1131.45 307.561 1132.11C 308.156 1132.77 308.976 1133.18 309.858 1133.26L 307.851 1263.69C 306.545 1263.74 305.284 1264.17 304.223 1264.94C 303.163 1265.7 302.351 1266.76 301.888 1267.98C 301.425 1269.21 301.331 1270.54 301.619 1271.81C 301.907 1273.09 302.563 1274.25 303.506 1275.15C 304.449 1276.06 305.638 1276.67 306.923 1276.9C 308.209 1277.13 309.535 1276.99 310.737 1276.47C 311.938 1275.96 312.962 1275.1 313.681 1274.01C 314.4 1272.92 314.782 1271.64 314.779 1270.33C 314.771 1269.63 314.663 1268.93 314.459 1268.25L 453.4 1213.17C 454.058 1214.69 455.153 1215.97 456.546 1216.86C 457.938 1217.75 459.565 1218.2 461.217 1218.16C 463.021 1218.21 464.792 1217.67 466.256 1216.61C 467.72 1215.55 468.796 1214.04 469.318 1212.32L 611.527 1251.98C 611.469 1252.3 611.439 1252.63 611.438 1252.95C 611.416 1253.62 611.53 1254.28 611.774 1254.9C 612.018 1255.52 612.385 1256.08 612.855 1256.55C 613.324 1257.02 613.885 1257.39 614.503 1257.64C 615.121 1257.89 615.783 1258 616.448 1257.98C 617.471 1257.97 618.47 1257.67 619.326 1257.11L 667.647 1316.82C 666.905 1317.49 666.317 1318.31 665.921 1319.23C 665.526 1320.15 665.333 1321.15 665.355 1322.15C 665.355 1322.43 665.355 1322.72 665.355 1323L 679.567 1323C 679.585 1322.72 679.585 1322.43 679.567 1322.15C 679.56 1321.36 679.434 1320.58 679.194 1319.84L 791.558 1274.7C 792.58 1277.05 794.383 1278.98 796.661 1280.15C 798.938 1281.33 801.551 1281.68 804.058 1281.15C 806.565 1280.62 808.812 1279.24 810.419 1277.24C 812.025 1275.24 812.893 1272.75 812.876 1270.19C 812.873 1269.52 812.814 1268.85 812.698 1268.18L 904.242 1248.16C 904.609 1249.44 905.43 1250.55 906.552 1251.28C 907.673 1252 909.02 1252.3 910.343 1252.11C 911.665 1251.92 912.874 1251.25 913.745 1250.24C 914.615 1249.22 915.089 1247.93 915.079 1246.59C 915.086 1245.58 914.823 1244.58 914.315 1243.7L 996.62 1185.72C 998.263 1187.94 1000.41 1189.74 1002.88 1190.97C 1005.35 1192.21 1008.07 1192.84 1010.83 1192.82C 1013.16 1192.9 1015.47 1192.49 1017.63 1191.64C 1019.79 1190.78 1021.76 1189.49 1023.4 1187.84C 1025.04 1186.19 1026.32 1184.22 1027.17 1182.06C 1028.02 1179.89 1028.41 1177.57 1028.33 1175.25C 1028.39 1172.57 1027.88 1169.9 1026.82 1167.43L 1259.86 1047.45C 1260.22 1048 1260.71 1048.45 1261.29 1048.77C 1261.87 1049.08 1262.51 1049.24 1263.17 1049.23C 1263.99 1049.22 1264.8 1048.96 1265.46 1048.47C 1266.13 1047.98 1266.63 1047.3 1266.89 1046.51C 1267.14 1045.73 1267.15 1044.88 1266.9 1044.09C 1266.65 1043.31 1266.16 1042.62 1265.49 1042.12L 1322.96 944.393L 1322.96 942.883L 1264.82 1041.79C 1264.3 1041.54 1263.74 1041.42 1263.17 1041.43C 1262.64 1041.43 1262.13 1041.52 1261.64 1041.71L 1202.16 932.453L 1181.38 894.409C 1183 893.52 1184.41 892.273 1185.48 890.761C 1186.56 889.25 1187.27 887.514 1187.58 885.684L 1322.89 910.401L 1322.89 909.619L 1187.7 884.902C 1187.79 884.243 1187.84 883.578 1187.84 882.912C 1187.84 881.819 1187.72 880.729 1187.49 879.66L 1290.53 850.093C 1290.88 851.122 1291.55 852.013 1292.44 852.636C 1293.33 853.259 1294.39 853.582 1295.48 853.558C 1296.43 853.553 1297.37 853.309 1298.2 852.847L 1322.93 888.385L 1322.93 887.052L 1298.8 852.456C 1299.42 851.963 1299.92 851.332 1300.25 850.613C 1300.59 849.894 1300.75 849.108 1300.72 848.316C 1300.76 847.443 1300.56 846.577 1300.16 845.804C 1299.75 845.031 1299.15 844.377 1298.41 843.909L 1322.91 801.263L 1322.91 799.611L 1297.76 843.5C 1297.03 843.178 1296.25 843.008 1295.46 843.003C 1294.42 842.999 1293.4 843.289 1292.52 843.838L 1232.33 766.418C 1233.33 765.575 1234.12 764.517 1234.65 763.323C 1235.18 762.128 1235.43 760.829 1235.38 759.523C 1235.39 758.425 1235.21 757.332 1234.87 756.289L 1300.14 727.965L 1322.91 718.068L 1322.91 717.251L 1245.12 751.012L 1234.67 755.632C 1233.99 754.105 1232.86 752.826 1231.42 751.971L 1282.02 665.063L 1318.56 602.267C 1319.95 602.95 1321.46 603.343 1323 603.422L 1323 582.383C 1321.96 582.435 1320.93 582.633 1319.94 582.969L 1259.81 434.953C 1260.46 434.668 1261.06 434.278 1261.59 433.798L 1322.93 494.355L 1322.93 493.289L 1262.1 433.229C 1262.29 433.022 1262.47 432.803 1262.63 432.572L 1322.93 470.064L 1322.93 469.105L 1263.03 431.79C 1263.6 430.694 1263.88 429.472 1263.86 428.236C 1263.91 426.964 1263.6 425.704 1262.97 424.597C 1262.34 423.489 1261.42 422.578 1260.31 421.963L 1267.22 408.654L 1303.8 338.164C 1305.91 339.125 1308.21 339.622 1310.53 339.621C 1312.77 339.626 1314.98 339.159 1317.03 338.253L 1322.89 349.998L 1322.89 348.221L 1317.72 337.862C 1319.76 336.854 1321.53 335.381 1322.89 333.562L 1322.89 315.206C 1321.43 313.304 1319.55 311.772 1317.39 310.732C 1315.23 309.692 1312.85 309.173 1310.46 309.218C 1308.32 309.196 1306.21 309.615 1304.24 310.45C 1302.27 311.284 1300.5 312.517 1299.03 314.069L 1222.24 247.097C 1223.8 245.096 1224.61 242.615 1224.55 240.079C 1224.51 237.503 1223.58 235.02 1221.9 233.065C 1220.22 231.11 1217.91 229.807 1215.37 229.384C 1212.83 228.96 1210.22 229.443 1208 230.749C 1205.78 232.054 1204.09 234.099 1203.23 236.525L 1094.86 204.061C 1094.89 203.795 1094.89 203.527 1094.86 203.261C 1094.9 202.462 1094.69 201.67 1094.27 200.992C 1093.84 200.315 1093.22 199.786 1092.48 199.476L 1120.9 119.515C 1121.59 119.715 1122.3 119.816 1123.02 119.817C 1124.37 119.814 1125.7 119.44 1126.85 118.737C 1128.01 118.033 1128.95 117.027 1129.57 115.827C 1130.2 114.627 1130.48 113.278 1130.39 111.928C 1130.31 110.578 1129.85 109.278 1129.08 108.168C 1128.3 107.059 1127.24 106.182 1126 105.634C 1124.77 105.085 1123.4 104.886 1122.06 105.057C 1120.72 105.229 1119.45 105.764 1118.39 106.606C 1117.33 107.447 1116.53 108.563 1116.05 109.831L 972.904 65.1416C 973.094 64.302 973.189 63.4437 973.188 62.5829C 973.188 59.9909 972.159 57.5051 970.326 55.6723C 968.494 53.8395 966.009 52.8098 963.417 52.8098C 960.826 52.8098 958.341 53.8395 956.508 55.6723C 954.676 57.5051 953.647 59.9909 953.647 62.5829C 953.643 63.8427 953.859 65.0936 954.286 66.2788L 845.049 115.499C 844.399 114.269 843.422 113.243 842.225 112.534C 841.028 111.825 839.659 111.462 838.268 111.484C 836.877 111.506 835.52 111.913 834.346 112.659C 833.172 113.405 832.228 114.462 831.618 115.713L 695.485 59.3844C 695.585 59.0195 695.639 58.6434 695.644 58.265C 695.639 57.6479 695.494 57.0401 695.218 56.488L 757.911 14.4641C 758.501 15.2339 759.263 15.855 760.136 16.2777C 761.009 16.7004 761.969 16.913 762.939 16.8984C 763.769 16.9331 764.598 16.796 765.373 16.4955C 766.148 16.1951 766.853 15.7378 767.443 15.1523C 768.034 14.5669 768.497 13.8658 768.804 13.0931C 769.111 12.3203 769.255 11.4925 769.227 10.6615C 769.291 9.01204 768.697 7.40489 767.576 6.19358C 766.455 4.98227 764.898 4.26602 763.249 4.2024C 761.6 4.13878 759.994 4.733 758.783 5.85433C 757.572 6.97567 756.855 8.53228 756.792 10.1817L 361.43 3.92698C 361.411 2.57957 361.14 1.24767 360.631 0L 341.569 1.0653e-14C 341.061 1.32729 340.802 2.73681 340.805 4.15797C 340.76 5.60431 341.027 7.04334 341.588 8.37714C 342.149 9.71095 342.991 10.9082 344.056 11.8875L 278.13 89.4142C 277.408 88.9187 276.554 88.6524 275.678 88.6502C 275.116 88.6301 274.556 88.7264 274.033 88.933C 273.51 89.1396 273.035 89.452 272.638 89.8507C 272.241 90.2493 271.93 90.7257 271.726 91.2499C 271.522 91.774 271.428 92.3348 271.45 92.897C 271.449 93.331 271.515 93.7626 271.646 94.1764L 0 208.112L 0 208.947L 271.894 94.8871C 272.254 95.5774 272.798 96.1541 273.466 96.5527C 274.134 96.9512 274.9 97.1559 275.678 97.1438L 276.051 97.1438L 279.018 113.598L 287.421 159.922C 286.422 160.143 285.534 160.71 284.913 161.523C 284.292 162.336 283.979 163.343 284.028 164.364C 284.018 164.512 284.018 164.661 284.028 164.809L 0 217.316L 0 218.098L 284.241 165.537C 284.303 165.826 284.399 166.106 284.525 166.372L 283.193 167.19L 43.3645 311.67C 43.0575 311.271 42.6615 310.949 42.2081 310.73C 41.7548 310.511 41.2565 310.401 40.7531 310.409C 40.081 310.412 39.4253 310.617 38.87 310.995L 0 267.87L 0 269.007L 38.1949 311.51C 37.6756 312.112 37.3971 312.884 37.4132 313.678C 37.4107 314.208 37.5324 314.732 37.7685 315.206L 0 341.007L 0 341.949L 38.1949 315.846C 38.4838 316.179 38.8413 316.446 39.243 316.628L 28.4241 347.457L 1.42121 425.108C 0.941549 424.966 0.479657 424.842 0 424.735L 0 462.388C 2.53736 461.842 4.93176 460.769 7.02809 459.239C 9.12442 457.708 10.8759 455.754 12.1691 453.504L 49.7422 475.04L 131.461 521.719C 131.21 522.328 131.083 522.98 131.088 523.638C 131.087 524.247 131.201 524.85 131.426 525.415L 11.0854 590.095L 0 596.047L 0 596.918L 131.71 526.126C 132.308 527.065 133.242 527.739 134.322 528.009L 119.31 607.402L 104.388 686.279C 103.993 686.224 103.596 686.194 103.197 686.19C 101.448 686.141 99.728 686.654 98.292 687.655C 96.856 688.657 95.7794 690.093 95.2208 691.752L 0 662.166L 0 662.984L 95.0076 692.498C 94.8538 693.205 94.7764 693.925 94.7766 694.648C 94.7774 695.185 94.825 695.72 94.9188 696.247L 0 719.33L 0 720.111L 95.0786 697.012C 95.5157 698.799 96.5734 700.374 98.0632 701.454L 48.4098 773.863L 0 844.478L 0 845.81L 18.3335 819.157L 98.6849 701.88C 99.597 702.408 100.596 702.769 101.634 702.946L 88.8253 794.049L 75.1462 891.122C 74.6694 891.11 74.1987 891.232 73.7875 891.474C 73.3763 891.715 73.0408 892.067 72.819 892.49L 0 865.072L 0 865.889L 13.0218 870.794L 72.5703 893.201C 72.5621 893.283 72.5621 893.367 72.5703 893.449L 0 895.137L 0 895.901L 72.5525 894.213C 72.6036 894.564 72.7254 894.9 72.9105 895.202C 73.0956 895.504 73.3401 895.765 73.6293 895.969C 73.9184 896.174 74.246 896.317 74.5923 896.391C 74.9386 896.465 75.2963 896.468 75.6437 896.399L 137.573 1080.9C 135.387 1081.64 133.453 1082.98 131.994 1084.77L 10.8722 992.032L 0 983.699L 0 984.658L 131.461 1085.37C 129.949 1087.59 129.166 1090.22 129.223 1092.91C 129.162 1094.58 129.444 1096.25 130.05 1097.81C 130.656 1099.37 131.574 1100.79 132.748 1101.99C 133.922 1103.18 135.327 1104.12 136.877 1104.76C 138.428 1105.39 140.091 1105.7 141.765 1105.67L 143.542 1212.05C 142.845 1212.1 142.172 1212.32 141.588 1212.71L 0 1036.92L 0 1038.13L 141.143 1213.17C 140.727 1213.57 140.4 1214.06 140.183 1214.6C 139.966 1215.14 139.863 1215.72 139.882 1216.3ZM 145.798 1080.7L 170.847 990.877C 171.285 990.969 171.731 991.016 172.179 991.019C 173.77 991.068 175.316 990.49 176.486 989.41C 177.655 988.33 178.354 986.834 178.432 985.245L 246.277 987.146C 246.312 987.846 246.553 988.52 246.97 989.083L 151.003 1083.6C 149.524 1082.23 147.739 1081.24 145.798 1080.7ZM 139.296 520.973L 203.072 469.105L 227.588 449.079C 229.758 451.571 232.707 453.256 235.956 453.859L 218.51 549.066L 205.489 620.142C 203.829 619.939 202.147 620.256 200.674 621.049L 138.354 527.21C 138.915 526.805 139.37 526.27 139.68 525.651C 139.989 525.033 140.144 524.348 140.131 523.656C 140.126 522.726 139.835 521.82 139.296 521.062L 139.296 520.973ZM 863.4 332.62L 848.886 366.613L 842.721 381.059C 842.018 380.819 841.28 380.693 840.536 380.686C 839.438 380.689 838.358 380.964 837.392 381.485L 822.967 358.936L 775.001 283.595C 775.636 283.124 776.158 282.517 776.529 281.818L 830.25 308.774L 860.256 323.842C 859.926 324.704 859.757 325.62 859.758 326.543C 859.672 327.821 859.972 329.095 860.618 330.201C 861.264 331.306 862.227 332.193 863.382 332.745L 863.4 332.62ZM 973.739 246.991L 1079.97 207.686L 1086.87 205.145C 1087.18 205.829 1087.68 206.41 1088.31 206.822C 1088.94 207.234 1089.67 207.46 1090.42 207.472L 1091.01 239.208L 1092.43 315.793C 1091.78 315.838 1091.15 316.03 1090.59 316.353C 1090.02 316.676 1089.54 317.122 1089.18 317.659L 1058.8 300.298L 973.526 251.575C 973.916 250.697 974.116 249.746 974.112 248.785C 974.073 248.173 973.948 247.568 973.739 246.991ZM 1153.57 394.155L 1128.35 428.467L 1092.82 476.746C 1092.27 476.432 1091.67 476.244 1091.04 476.195L 1093.08 324.66C 1093.98 324.611 1094.83 324.302 1095.55 323.771L 1153.02 385.306C 1151.96 386.439 1151.39 387.946 1151.43 389.499C 1151.4 390.38 1151.59 391.254 1151.96 392.053C 1152.33 392.851 1152.89 393.552 1153.57 394.101L 1153.57 394.155ZM 1252.72 434.579L 1216.41 498.353L 1183.63 555.978C 1181.97 555.188 1180.14 554.845 1178.3 554.983L 1178.2 554.219L 1158.66 395.434C 1159.61 395.287 1160.51 394.903 1161.28 394.316C 1162.05 393.729 1162.65 392.959 1163.04 392.076L 1249.86 426.175C 1249.64 426.912 1249.52 427.678 1249.51 428.449C 1249.46 429.655 1249.74 430.852 1250.3 431.918C 1250.86 432.985 1251.7 433.884 1252.72 434.526L 1252.72 434.579ZM 1035.17 1073.56L 1017.14 1035.66L 996.62 992.477C 997.3 992.159 997.938 991.759 998.521 991.286L 1082.12 1088.29C 1081.08 1089.26 1080.3 1090.48 1079.87 1091.84L 1041.03 1078.8C 1041.11 1078.46 1041.14 1078.11 1041.14 1077.77C 1041.15 1077.05 1040.99 1076.33 1040.67 1075.69C 1040.34 1075.05 1039.86 1074.49 1039.27 1074.08C 1038.68 1073.66 1038 1073.4 1037.29 1073.3C 1036.57 1073.21 1035.84 1073.3 1035.17 1073.56ZM 1033.09 1080.36L 978.518 1127.86C 977.178 1126.49 975.434 1125.6 973.543 1125.3L 990.438 993.543C 992.301 993.701 994.174 993.421 995.91 992.725L 1034.46 1073.82C 1033.78 1074.21 1033.21 1074.78 1032.83 1075.46C 1032.45 1076.15 1032.26 1076.93 1032.29 1077.72C 1032.27 1078.66 1032.55 1079.59 1033.09 1080.36ZM 884.025 1099.04L 984.185 991.055C 985.781 992.373 987.712 993.222 989.763 993.507L 972.886 1125.27L 972.14 1125.27C 970.297 1125.21 968.488 1125.76 966.985 1126.83C 965.482 1127.9 964.367 1129.43 963.808 1131.18L 956.187 1128.93L 886.477 1108.24C 886.644 1107.47 886.728 1106.69 886.726 1105.9C 886.757 1104.64 886.533 1103.39 886.069 1102.22C 885.605 1101.05 884.91 1099.99 884.025 1099.09L 884.025 1099.04ZM 645.014 1003L 528.28 1016L 468.554 1022.67C 468.453 1021.95 468.2 1021.26 467.811 1020.64C 467.422 1020.03 466.906 1019.51 466.297 1019.11L 515.436 933.714C 516.643 934.299 517.967 934.603 519.308 934.602C 520.749 934.629 522.172 934.277 523.434 933.581C 524.697 932.886 525.755 931.872 526.503 930.64L 646.151 996.386C 645.341 998.164 644.935 1000.1 644.961 1002.05C 644.961 1002.34 644.996 1002.66 645.014 1003ZM 253.294 986.311L 468.252 928.188C 468.561 929.246 469.17 930.192 470.006 930.911C 470.841 931.63 471.867 932.091 472.959 932.239L 463.455 1018.17L 463.242 1018.17C 462.012 1018.14 460.81 1018.54 459.839 1019.29C 458.867 1020.04 458.187 1021.11 457.912 1022.31L 253.33 987.075C 253.33 987.075 253.33 986.933 253.33 986.862C 253.329 986.677 253.317 986.493 253.294 986.311ZM 233.397 892.01C 233.821 891.89 234.206 891.664 234.517 891.353C 234.828 891.042 235.054 890.656 235.174 890.233L 468.021 925.771C 468.011 925.949 468.011 926.127 468.021 926.304C 468.024 926.704 468.066 927.103 468.145 927.495L 392.608 947.841L 253.046 985.547C 252.797 984.87 252.343 984.289 251.747 983.884C 251.151 983.48 250.444 983.272 249.724 983.29L 249.493 983.29L 233.397 892.01ZM 248.8 983.397C 248.129 983.57 247.528 983.946 247.08 984.474C 246.631 985.002 246.357 985.656 246.295 986.346L 208.651 985.28L 178.45 984.445C 178.453 983.477 178.22 982.523 177.771 981.665C 177.323 980.807 176.671 980.072 175.874 979.523L 231.408 892.01C 231.766 892.17 232.153 892.255 232.545 892.259L 232.722 892.259L 248.8 983.397ZM 211.085 623.803L 335.564 544.091L 349.972 534.851C 350.516 535.561 351.287 536.062 352.157 536.272L 345.051 572.148L 316.183 717.109C 315.653 717.032 315.119 716.99 314.584 716.984C 311.867 716.967 309.254 718.028 307.318 719.934L 210.498 632.261C 211.561 630.892 212.113 629.195 212.062 627.463C 212.041 626.181 211.705 624.924 211.085 623.803ZM 253.721 436.712L 387.278 410.2L 417.834 404.141C 418.014 405.013 418.374 405.838 418.891 406.564C 419.408 407.289 420.071 407.898 420.837 408.352L 404.582 438.027L 355.07 528.4C 354.274 528.078 353.401 527.993 352.557 528.153C 351.712 528.314 350.932 528.714 350.309 529.307L 303.783 491.529L 250.878 448.439C 252.846 445.774 253.871 442.529 253.792 439.217C 253.809 438.38 253.761 437.542 253.65 436.712L 253.721 436.712ZM 291.027 314.496L 346.437 264.316L 391.542 223.447C 392.881 224.738 394.674 225.453 396.534 225.437C 396.765 225.437 396.978 225.437 397.209 225.437L 423.146 395.701C 422.275 395.854 421.443 396.182 420.701 396.664C 419.96 397.146 419.323 397.774 418.829 398.508L 358.73 361.779L 291.471 320.626C 291.863 319.811 292.063 318.918 292.058 318.014C 292.088 316.749 291.68 315.512 290.903 314.513L 291.027 314.496ZM 403.036 215.806L 561.66 141.176C 562.165 142.106 562.916 142.881 563.831 143.413C 564.746 143.946 565.789 144.217 566.848 144.196C 567.357 144.194 567.864 144.128 568.358 144.001L 586.922 199.938L 604.687 253.583C 603.352 254.025 602.156 254.812 601.22 255.863C 600.285 256.914 599.642 258.193 599.358 259.571L 403.267 219.466C 403.331 219.126 403.366 218.782 403.374 218.436C 403.387 217.538 403.23 216.646 402.912 215.806L 403.036 215.806ZM 403.303 220.231L 599.322 260.389C 599.265 260.831 599.235 261.276 599.233 261.721C 599.154 263.665 599.765 265.573 600.958 267.109C 602.152 268.644 603.851 269.707 605.753 270.108L 587.171 363.467C 586.869 363.45 586.567 363.45 586.265 363.467C 585.34 363.461 584.424 363.65 583.576 364.02C 582.729 364.39 581.968 364.935 581.344 365.617L 402.166 222.558C 402.679 221.861 403.053 221.07 403.267 220.231L 403.303 220.231ZM 768.073 283.489L 669.405 423.865C 668.851 423.608 668.229 423.533 667.629 423.651L 643.38 357.568L 611.118 269.717C 612.518 269.193 613.743 268.288 614.657 267.104C 615.57 265.921 616.135 264.506 616.288 263.019L 766.012 278.833C 766.012 278.833 766.012 278.975 766.012 279.046C 765.971 279.886 766.124 280.724 766.46 281.494C 766.796 282.265 767.305 282.947 767.948 283.489L 768.073 283.489ZM 670.827 426.032L 681.912 423.527L 834.354 389.144C 834.701 390.509 835.502 391.716 836.625 392.566C 837.749 393.415 839.128 393.856 840.536 393.817L 840.803 393.817L 852.03 504.59C 850.332 504.758 848.704 505.355 847.3 506.324C 845.895 507.294 844.76 508.605 844.001 510.134L 670.613 427.152C 670.694 426.887 670.735 426.612 670.738 426.335C 670.746 426.232 670.734 426.13 670.702 426.032L 670.827 426.032ZM 1161.68 884.263L 1052.51 898.389C 1052.19 895.827 1050.99 893.456 1049.11 891.685C 1047.24 889.914 1044.8 888.854 1042.22 888.687L 1051.64 748.737L 1051.87 745.361C 1052.99 745.356 1054.08 745.002 1055 744.349L 1165.76 873.104C 1164.4 874.347 1163.33 875.871 1162.61 877.571C 1161.9 879.271 1161.56 881.105 1161.62 882.948C 1161.62 883.392 1161.64 883.818 1161.68 884.263ZM 771.288 937.677L 965.389 807.074C 965.539 807.256 965.712 807.417 965.904 807.553L 904.384 917.722L 872.762 974.299C 871.638 973.743 870.413 973.419 869.161 973.346C 867.909 973.273 866.655 973.452 865.474 973.873C 864.292 974.294 863.207 974.948 862.283 975.797C 861.36 976.645 860.616 977.67 860.096 978.812L 793.637 952.425L 771.874 943.771C 772.108 943.03 772.228 942.257 772.23 941.479C 772.257 940.151 771.932 938.839 771.288 937.677ZM 235.156 888.634L 433.148 794.369C 433.952 795.929 435.177 797.232 436.684 798.13C 438.192 799.029 439.921 799.486 441.675 799.451C 442.271 799.447 442.865 799.394 443.452 799.291L 472.249 920.441C 471.192 920.714 470.238 921.287 469.5 922.091C 468.762 922.895 468.273 923.896 468.092 924.972L 235.263 889.433C 235.264 889.163 235.229 888.894 235.156 888.634ZM 322.365 720.68L 421.849 633.309C 423.569 635.126 425.644 636.568 427.945 637.547C 430.247 638.525 432.726 639.018 435.226 638.995L 435.546 638.995L 440.876 780.349C 439.271 780.435 437.716 780.935 436.361 781.801C 435.007 782.666 433.9 783.868 433.148 785.289L 323.662 731.253C 324.183 729.941 324.448 728.542 324.443 727.13C 324.517 724.804 323.783 722.525 322.365 720.68ZM 431.229 401.458L 579.781 371.623C 580.121 373.184 581.067 374.545 582.41 375.408L 519.61 479.891L 444.127 605.376C 441.365 603.884 438.276 603.102 435.138 603.102L 434.64 603.102L 425.083 409.258C 426.798 409.144 428.401 408.366 429.552 407.088C 430.703 405.811 431.311 404.136 431.247 402.417C 431.26 402.097 431.254 401.777 431.229 401.458ZM 666.67 428.556L 574.611 646.263C 573.751 645.958 572.856 645.767 571.946 645.694L 572.781 629.933L 586.247 376.528C 587.248 376.53 588.236 376.306 589.137 375.872C 590.039 375.438 590.83 374.806 591.452 374.022L 642.225 408.903L 665.71 425.037C 665.541 425.411 665.456 425.818 665.462 426.228C 665.432 426.689 665.529 427.15 665.742 427.56C 665.955 427.97 666.276 428.314 666.67 428.556ZM 737.375 615.7L 817.957 546.152L 845.617 522.306C 846.78 523.527 848.226 524.442 849.828 524.971L 785.98 719.134C 784.795 718.801 783.569 718.634 782.338 718.637C 780.584 718.635 778.847 718.973 777.222 719.632L 742.829 646.245L 734.568 628.654C 735.98 627.964 737.161 626.877 737.966 625.526C 738.771 624.176 739.164 622.62 739.098 621.049C 739.141 619.123 738.534 617.238 737.375 615.7ZM 793.246 724.518L 942.472 623.465L 964.323 608.664C 964.697 609.116 965.16 609.489 965.682 609.757C 966.204 610.026 966.775 610.186 967.361 610.227L 967.361 801.956C 966.87 802.005 966.398 802.173 965.986 802.445C 965.575 802.718 965.236 803.087 964.998 803.52L 794.454 735.819C 794.91 734.401 795.138 732.92 795.129 731.43C 795.156 728.996 794.504 726.602 793.246 724.518ZM 963.915 608.024L 849.33 685.604L 792.837 723.861C 791.326 721.743 789.179 720.162 786.708 719.347L 850.52 525.202C 852.494 525.748 854.581 525.735 856.548 525.164C 858.515 524.593 860.284 523.487 861.659 521.968L 964.075 603.457C 963.622 604.188 963.388 605.032 963.4 605.892C 963.39 606.634 963.568 607.367 963.915 608.024ZM 776.511 719.969C 774.353 720.992 772.544 722.628 771.309 724.672C 770.074 726.717 769.467 729.079 769.565 731.466C 769.567 732.283 769.644 733.098 769.796 733.9L 758.266 736.477L 585.732 775.178C 585.491 774.226 585.022 773.348 584.364 772.619L 724.815 627.517C 726.417 628.862 728.443 629.598 730.535 629.596C 731.659 629.585 732.772 629.374 733.822 628.974L 776.511 719.969ZM 573.385 777.097L 513.126 782.765L 451.233 788.611C 451.043 786.573 450.174 784.658 448.763 783.174L 564.361 663.25C 566.34 664.926 568.876 665.795 571.467 665.685L 573.581 695.43L 578.91 770.647C 577.374 770.791 575.952 771.517 574.935 772.677C 573.917 773.837 573.382 775.342 573.439 776.884C 573.439 776.884 573.385 777.026 573.385 777.097ZM 563.721 662.788L 464.343 765.849L 448.124 782.677C 446.326 781.157 444.047 780.326 441.693 780.331L 440.911 759.612L 436.292 638.978C 440.056 638.869 443.68 637.53 446.609 635.164C 449.538 632.799 451.612 629.538 452.512 625.882L 561.252 653.619C 561.136 654.312 561.076 655.014 561.074 655.716C 561.027 657.011 561.237 658.303 561.691 659.517C 562.146 660.73 562.835 661.842 563.721 662.788ZM 577.667 743.549L 572.124 665.702C 574.614 665.542 576.941 664.409 578.603 662.547C 580.265 660.685 581.128 658.245 581.006 655.752C 581.005 655.157 580.963 654.564 580.882 653.975L 722.328 623.27C 722.637 624.674 723.318 625.969 724.299 627.019L 647.235 706.607L 583.813 772.086C 582.646 771.13 581.183 770.609 579.674 770.611L 577.667 743.549ZM 722.079 621.12C 722.086 621.595 722.121 622.07 722.185 622.541L 630.944 642.354L 580.758 653.246C 580.463 651.779 579.813 650.406 578.866 649.248C 577.918 648.089 576.701 647.18 575.322 646.601L 581.202 632.723L 667.38 428.893C 667.749 428.973 668.131 428.973 668.499 428.893L 727.604 613.035C 725.941 613.594 724.504 614.677 723.508 616.122C 722.512 617.567 722.01 619.295 722.079 621.049L 722.079 621.12ZM 571.182 645.73C 568.989 645.619 566.824 646.264 565.049 647.558C 563.274 648.851 561.996 650.715 561.429 652.838L 478.413 631.657L 452.689 625.1C 452.951 623.765 453.082 622.409 453.08 621.049C 453.204 617.995 452.509 614.964 451.065 612.27C 449.622 609.577 447.484 607.319 444.873 605.732L 583.067 375.799C 583.803 376.158 584.597 376.38 585.412 376.457L 571.182 645.73ZM 433.947 603.226C 429.995 603.462 426.224 604.971 423.199 607.526L 389.979 571.562L 356.456 535.242C 357.149 534.446 357.517 533.418 357.486 532.363C 357.527 531.667 357.385 530.972 357.073 530.348C 356.761 529.725 356.291 529.194 355.71 528.809L 399.59 448.724L 421.441 408.69C 422.365 409.118 423.371 409.342 424.39 409.347L 433.947 603.226ZM 355.888 535.704L 389.766 572.397L 422.631 607.935C 420.879 609.622 419.499 611.657 418.581 613.909C 417.663 616.162 417.227 618.582 417.301 621.013C 417.192 625.255 418.603 629.396 421.281 632.687L 321.796 720.076C 320.431 718.663 318.674 717.692 316.751 717.286L 330.412 648.697L 352.779 536.45C 353.874 536.594 354.984 536.321 355.888 535.686L 355.888 535.704ZM 444.269 799.148C 444.88 798.969 445.474 798.738 446.045 798.456L 463.402 828.947L 514.743 919.126C 513.581 919.829 512.619 920.82 511.951 922.002C 511.282 923.185 510.928 924.519 510.923 925.878L 480.03 925.878C 480.01 925.014 479.8 924.164 479.414 923.391C 479.027 922.617 478.475 921.939 477.796 921.404C 477.117 920.869 476.328 920.491 475.486 920.297C 474.643 920.102 473.768 920.097 472.924 920.281L 444.269 799.148ZM 446.791 798.1C 448.197 797.254 449.349 796.046 450.127 794.601C 450.905 793.157 451.281 791.53 451.215 789.891C 451.215 789.713 451.215 789.553 451.215 789.393L 573.492 777.879C 573.601 778.905 573.979 779.883 574.587 780.716C 575.195 781.549 576.012 782.207 576.956 782.623L 522.098 918.362C 521.205 918.057 520.269 917.901 519.326 917.9C 517.998 917.899 516.687 918.197 515.489 918.77L 446.791 798.1ZM 577.649 782.908C 578.305 783.112 578.987 783.219 579.674 783.227C 580.869 783.251 582.045 782.929 583.061 782.298C 584.076 781.667 584.886 780.756 585.394 779.674L 668.89 814.004L 696.391 825.287C 695.767 827.129 695.454 829.063 695.467 831.009C 695.441 833.331 695.888 835.635 696.781 837.779L 526.663 922.217C 525.826 920.618 524.456 919.361 522.79 918.664L 577.649 782.908ZM 696.568 824.594L 585.625 778.945C 585.844 778.286 585.958 777.596 585.963 776.902C 585.954 776.568 585.918 776.235 585.856 775.906L 769.92 734.629C 770.521 737.482 772.153 740.013 774.504 741.736L 740.555 789.251L 720.178 817.771C 717.495 816.035 714.366 815.116 711.171 815.123C 708.07 815.053 705.02 815.917 702.416 817.603C 699.812 819.289 697.775 821.718 696.568 824.576L 696.568 824.594ZM 727 831.026C 727.096 828.545 726.583 826.079 725.505 823.842C 724.427 821.606 722.818 819.667 720.818 818.197L 741.016 789.926L 775.143 742.181C 776.884 743.279 778.853 743.966 780.899 744.189L 771.821 854.695L 765.284 934.229C 764.252 934.21 763.226 934.391 762.263 934.762L 718.526 845.188C 721.168 843.911 723.379 841.887 724.885 839.367C 726.391 836.847 727.126 833.942 727 831.009L 727 831.026ZM 781.663 744.224L 782.338 744.224C 784.845 744.277 787.31 743.571 789.409 742.198C 791.508 740.825 793.142 738.849 794.099 736.53L 964.643 804.248C 964.58 804.504 964.545 804.766 964.537 805.03C 964.533 805.522 964.642 806.008 964.856 806.452L 771.004 937.019C 770.418 936.261 769.684 935.63 768.848 935.162C 768.011 934.695 767.089 934.402 766.136 934.3L 781.663 744.224ZM 966.58 807.926C 966.901 808.037 967.235 808.103 967.574 808.122L 975.906 931.6C 975.679 931.688 975.485 931.845 975.351 932.049C 975.218 932.253 975.151 932.493 975.16 932.737C 975.15 932.778 975.15 932.82 975.16 932.861L 876.83 978.279C 876.102 976.724 874.911 975.433 873.419 974.583L 966.58 807.926ZM 1047.41 743.034L 969.973 802.827C 969.493 802.347 968.868 802.041 968.196 801.956L 968.196 610.227C 968.757 610.178 969.305 610.027 969.813 609.783L 1026.66 700.406L 1048.8 735.748C 1048.12 736.232 1047.57 736.876 1047.2 737.624C 1046.83 738.371 1046.65 739.198 1046.68 740.031C 1046.62 741.082 1046.88 742.127 1047.41 743.034ZM 1030.37 905.177L 977.203 931.831C 977.045 931.68 976.848 931.575 976.635 931.528L 968.303 808.051C 968.654 807.988 968.991 807.861 969.298 807.678L 994.666 840.639L 1033.54 891.139C 1032.2 892.237 1031.13 893.628 1030.41 895.206C 1029.7 896.784 1029.36 898.506 1029.41 900.237C 1029.39 901.932 1029.72 903.613 1030.37 905.177ZM 975.444 933.607C 975.666 933.846 975.972 933.986 976.297 933.998L 987.862 971.971C 985.675 972.608 983.76 973.95 982.414 975.788C 981.068 977.626 980.367 979.857 980.419 982.135L 877.719 982.135C 877.691 981.062 877.493 980 877.132 978.99L 975.444 933.607ZM 977.043 933.767C 977.209 933.661 977.344 933.514 977.434 933.339C 977.525 933.164 977.568 932.969 977.558 932.772C 977.568 932.719 977.568 932.665 977.558 932.612L 1030.75 905.959C 1031.64 907.7 1032.99 909.163 1034.66 910.188L 1005.68 958.164L 996.922 972.717C 994.357 971.408 991.407 971.061 988.608 971.74L 977.043 933.767ZM 1034.16 890.766L 969.902 807.251C 970.201 806.962 970.437 806.614 970.593 806.228C 970.749 805.842 970.822 805.428 970.808 805.012C 970.815 804.458 970.674 803.912 970.399 803.431L 1047.84 743.62C 1048.68 744.546 1049.83 745.139 1051.07 745.29L 1041.42 888.616L 1041.03 888.616C 1038.59 888.617 1036.21 889.354 1034.19 890.731L 1034.16 890.766ZM 1054.64 735.642C 1053.79 735.144 1052.82 734.88 1051.83 734.878C 1050.97 734.888 1050.12 735.094 1049.35 735.482L 970.399 609.481C 970.969 609.085 971.431 608.552 971.741 607.931C 972.052 607.31 972.201 606.621 972.175 605.927C 972.185 605.779 972.185 605.631 972.175 605.483L 1169.55 567.066C 1169.94 569.302 1171.17 571.307 1172.97 572.681L 1138.74 619.574L 1054.64 735.642ZM 1169.21 564.827C 1169.21 565.332 1169.24 565.836 1169.3 566.337L 1080.58 583.609L 971.945 604.754C 971.792 604.145 971.5 603.579 971.092 603.102L 1020.94 552.158L 1087.93 483.747C 1088.73 484.363 1089.71 484.689 1090.72 484.669C 1091.73 484.65 1092.7 484.287 1093.48 483.64L 1171.52 558.181C 1169.97 560.016 1169.15 562.355 1169.21 564.756L 1169.21 564.827ZM 970.541 602.498C 969.749 601.865 968.766 601.521 967.752 601.52C 967.155 601.515 966.563 601.632 966.013 601.864C 965.463 602.097 964.967 602.439 964.554 602.871L 862.121 521.364C 863.425 519.497 864.098 517.261 864.04 514.985C 864.04 514.594 864.04 514.203 864.04 513.83L 943.982 502.173L 1086.6 481.348C 1086.74 482.003 1087.04 482.613 1087.47 483.125L 970.541 602.498ZM 1086.4 480.353C 1086.4 480.43 1086.4 480.507 1086.4 480.584L 920.781 504.75L 863.844 513.083C 863.468 510.488 862.106 508.138 860.041 506.523C 857.976 504.908 855.367 504.152 852.759 504.412L 851.693 493.928L 841.531 393.639C 842.608 393.506 843.629 393.088 844.491 392.429C 845.352 391.77 846.023 390.894 846.434 389.89L 1007.71 449.896L 1086.51 479.233C 1086.43 479.6 1086.39 479.977 1086.4 480.353ZM 672.23 428.645L 843.699 510.72C 843.183 512.082 842.924 513.528 842.935 514.985C 842.87 517.411 843.634 519.787 845.102 521.719L 736.877 615.114C 736.058 614.278 735.079 613.616 733.999 613.167C 732.918 612.718 731.758 612.492 730.588 612.502C 729.827 612.499 729.069 612.595 728.332 612.786L 669.246 428.662C 669.684 428.466 670.055 428.145 670.312 427.738L 672.23 428.645ZM 666.794 423.865C 666.52 423.995 666.273 424.176 666.066 424.398L 591.772 373.365C 592.378 372.331 592.691 371.151 592.678 369.953C 592.738 368.49 592.281 367.053 591.388 365.894C 590.494 364.734 589.222 363.925 587.793 363.61L 606.393 270.251C 606.821 270.321 607.255 270.357 607.69 270.357C 608.58 270.352 609.465 270.22 610.319 269.966L 666.794 423.865ZM 580.722 366.133C 579.966 367.261 579.575 368.595 579.603 369.953C 579.605 370.257 579.635 370.561 579.692 370.859L 455.443 395.736L 431.123 400.623C 430.782 399.118 429.93 397.778 428.712 396.832C 427.493 395.886 425.985 395.392 424.443 395.434C 424.212 395.434 423.999 395.434 423.768 395.434L 397.831 225.188C 399.319 224.907 400.673 224.146 401.686 223.02L 580.722 366.133ZM 314.442 737.17C 316.261 737.197 318.053 736.723 319.62 735.798C 321.187 734.873 322.469 733.534 323.324 731.928L 410.018 774.734L 432.881 786.017C 431.946 788.496 431.946 791.232 432.881 793.711L 370.828 823.261L 234.854 887.923C 234.667 887.63 234.419 887.381 234.126 887.195L 310.267 736.299C 311.587 736.865 313.006 737.161 314.442 737.17ZM 467.221 990.309L 473.652 932.293C 474.443 932.361 475.24 932.266 475.992 932.013C 476.745 931.761 477.438 931.356 478.027 930.825C 478.617 930.293 479.091 929.646 479.421 928.923C 479.75 928.201 479.927 927.418 479.941 926.624L 510.906 926.624C 510.913 927.974 511.262 929.299 511.921 930.477C 512.579 931.655 513.526 932.646 514.672 933.359L 493.229 970.674L 465.622 1018.76C 465.176 1018.54 464.704 1018.39 464.219 1018.3L 467.221 990.309ZM 526.77 929.894C 527.285 928.724 527.546 927.458 527.534 926.18C 527.548 925.017 527.33 923.864 526.894 922.786L 570.49 901.143L 696.941 838.383C 697.847 840.196 699.113 841.806 700.661 843.114C 702.21 844.421 704.009 845.399 705.948 845.988L 660.558 989.918C 657.906 989.151 655.074 989.282 652.504 990.291C 649.934 991.3 647.769 993.13 646.346 995.497L 526.77 929.894ZM 669.956 963.086L 706.765 846.326C 708.204 846.7 709.685 846.891 711.171 846.894C 713.467 846.895 715.74 846.429 717.851 845.526L 761.571 935.1C 760.423 935.692 759.469 936.601 758.823 937.719C 758.178 938.838 757.867 940.118 757.929 941.408C 757.919 942.515 758.143 943.611 758.586 944.624L 667.984 995.551C 666.528 992.993 664.152 991.087 661.34 990.22L 669.956 963.086ZM 669.601 1002.02C 669.627 1000.02 669.202 998.039 668.357 996.226L 758.959 945.282C 759.833 946.724 761.225 947.779 762.85 948.232L 723.465 1094.58C 722.973 1094.48 722.473 1094.43 721.972 1094.42C 720.728 1094.43 719.507 1094.76 718.419 1095.36L 664.414 1012.29C 666.089 1011.16 667.447 1009.63 668.355 1007.82C 669.264 1006.02 669.693 1004.02 669.601 1002L 669.601 1002.02ZM 763.578 948.427C 765.177 948.794 766.854 948.597 768.324 947.868C 769.795 947.139 770.967 945.924 771.643 944.429L 859.829 979.452C 859.535 980.45 859.391 981.486 859.403 982.526C 859.35 984.524 859.942 986.487 861.091 988.123L 818.454 1022.79L 727.426 1096.71C 726.585 1095.77 725.504 1095.09 724.299 1094.72L 763.578 948.427ZM 729.078 1102.15L 867.646 1106.02C 867.624 1107.31 867.87 1108.6 868.369 1109.79C 868.867 1110.98 869.607 1112.06 870.542 1112.95L 786.246 1210.47C 783.881 1208.62 780.966 1207.63 777.968 1207.64C 776.182 1207.65 774.415 1208 772.763 1208.67L 725.33 1107.94C 726.418 1107.4 727.34 1106.58 728 1105.56C 728.659 1104.54 729.032 1103.36 729.078 1102.15ZM 867.646 1105.26L 729.078 1101.38C 729.079 1099.92 728.639 1098.49 727.817 1097.28L 859.279 990.469L 861.446 988.692C 862.369 989.692 863.499 990.48 864.756 991.001C 866.014 991.523 867.369 991.766 868.73 991.712L 873.65 1062.1L 876.155 1096.35C 873.898 1096.53 871.785 1097.53 870.225 1099.17C 868.666 1100.81 867.772 1102.98 867.717 1105.24L 867.646 1105.26ZM 869.529 991.677C 871.745 991.523 873.82 990.529 875.328 988.898C 876.837 987.267 877.667 985.121 877.648 982.899L 980.347 982.899C 980.34 984.312 980.61 985.712 981.143 987.02C 981.677 988.328 982.463 989.518 983.456 990.522L 883.457 1098.58C 881.693 1097.13 879.482 1096.35 877.203 1096.35L 876.901 1096.35L 869.529 991.677ZM 999.054 990.806C 1000.18 989.751 1001.07 988.465 1001.65 987.036C 1002.24 985.607 1002.51 984.069 1002.45 982.526C 1002.53 980.66 1002.11 978.806 1001.25 977.15C 1000.38 975.494 999.101 974.094 997.526 973.09L 1035.26 910.508C 1037.02 911.433 1038.99 911.921 1040.98 911.929C 1041.78 911.926 1042.58 911.843 1043.36 911.68L 1085.87 1086.24C 1084.7 1086.54 1083.6 1087.07 1082.64 1087.81L 999.054 990.806ZM 1051.39 941.444L 1044.2 911.556C 1046.69 910.947 1048.89 909.493 1050.43 907.443C 1051.97 905.392 1052.76 902.871 1052.65 900.308C 1052.65 899.941 1052.65 899.568 1052.65 899.189L 1161.84 885.027C 1162.08 887.232 1162.92 889.329 1164.26 891.096C 1165.61 892.863 1167.4 894.235 1169.46 895.066L 1130.21 991.517L 1091.59 1086.4C 1090 1085.89 1088.31 1085.78 1086.67 1086.08L 1051.39 941.444ZM 1166.28 872.624L 1055.51 743.869C 1056.33 743.103 1056.86 742.082 1057.02 740.972L 1133.11 749.466L 1217.62 758.901C 1217.62 759.097 1217.62 759.292 1217.62 759.506C 1217.54 761.219 1217.99 762.914 1218.9 764.367C 1219.81 765.82 1221.14 766.962 1222.72 767.644L 1179.48 870.687C 1177.3 869.895 1174.95 869.662 1172.66 870.009C 1170.36 870.357 1168.2 871.274 1166.35 872.677L 1166.28 872.624ZM 1217.58 758.208L 1174.27 753.411L 1057.02 740.333C 1057.02 740.333 1057.02 740.208 1057.02 740.119C 1057.05 739.351 1056.91 738.585 1056.6 737.88C 1056.3 737.175 1055.83 736.549 1055.24 736.05L 1160.61 590.823L 1173.47 573.054C 1175.72 574.429 1178.4 574.923 1180.99 574.44L 1224.01 750.941C 1222.34 751.354 1220.83 752.272 1219.69 753.572C 1218.55 754.872 1217.84 756.491 1217.65 758.208L 1217.58 758.208ZM 1171.39 506.722L 1177.33 555.001C 1175.33 555.297 1173.47 556.196 1172 557.577L 1093.94 482.947C 1094.53 482.178 1094.84 481.233 1094.83 480.264C 1094.85 479.657 1094.73 479.053 1094.49 478.497C 1094.25 477.94 1093.88 477.445 1093.42 477.048L 1109 455.867L 1154.13 394.475C 1155.12 395.078 1156.26 395.397 1157.43 395.399L 1157.78 395.399L 1171.39 506.722ZM 1090.31 476.212C 1089.74 476.248 1089.18 476.398 1088.67 476.655C 1088.16 476.911 1087.7 477.268 1087.33 477.705L 872.265 330.186C 872.842 329.172 873.153 328.029 873.171 326.863L 953.895 324.535L 1088.43 320.679C 1088.5 321.705 1088.94 322.67 1089.67 323.393C 1090.4 324.116 1091.37 324.548 1092.39 324.606L 1090.31 476.212ZM 1004.37 270.091L 1088.7 318.263C 1088.49 318.784 1088.39 319.338 1088.38 319.898L 959.669 323.594L 873.1 326.081C 873.037 324.917 872.669 323.789 872.034 322.812L 922.007 284.306L 962.867 252.855C 963.463 253.532 964.199 254.074 965.024 254.442C 965.848 254.809 966.743 254.995 967.645 254.987C 968.701 255.01 969.745 254.763 970.678 254.268C 971.611 253.774 972.402 253.049 972.975 252.162L 1004.37 270.091ZM 887.987 341.896L 1086.96 478.238C 1086.9 478.317 1086.85 478.4 1086.81 478.487L 846.701 389.144C 846.881 388.532 846.977 387.898 846.985 387.26C 847.032 386.051 846.72 384.856 846.088 383.824C 845.455 382.793 844.531 381.973 843.432 381.467L 849.543 367.163L 864.111 333.011C 865.463 333.499 866.934 333.55 868.317 333.158C 869.7 332.766 870.925 331.95 871.821 330.826L 887.987 341.896ZM 836.735 382.036C 835.884 382.632 835.197 383.433 834.738 384.365C 834.278 385.296 834.061 386.329 834.105 387.367C 834.114 387.713 834.149 388.057 834.212 388.397L 670.578 425.357C 670.445 424.971 670.219 424.623 669.921 424.344L 768.588 283.968C 769.45 284.473 770.427 284.749 771.425 284.767C 772.424 284.786 773.41 284.548 774.29 284.075L 836.735 382.036ZM 765.994 278.105L 616.252 262.29C 616.262 262.112 616.262 261.935 616.252 261.757C 616.317 260.102 615.88 258.467 614.999 257.065C 614.117 255.664 612.833 254.561 611.314 253.903L 690.617 61.9965C 690.981 62.1018 691.357 62.1557 691.736 62.1564C 692.06 62.1589 692.383 62.117 692.695 62.032L 711.988 115.339L 769.227 273.84C 768.365 274.2 767.613 274.78 767.045 275.522C 766.478 276.264 766.115 277.142 765.994 278.069L 765.994 278.105ZM 635.439 193.683L 610.568 253.69C 609.618 253.364 608.622 253.195 607.619 253.192C 606.82 253.194 606.026 253.301 605.256 253.512L 568.962 143.93C 570.073 143.52 571.025 142.767 571.68 141.78C 572.334 140.793 572.658 139.623 572.604 138.439C 572.618 137.439 572.386 136.45 571.929 135.561L 688.698 60.7704C 689.03 61.1984 689.456 61.5448 689.942 61.7832L 635.439 193.683ZM 589.942 123.033L 571.538 134.814C 570.981 134.093 570.268 133.507 569.454 133.098C 568.64 132.69 567.744 132.47 566.833 132.454C 565.922 132.439 565.019 132.629 564.191 133.01C 563.364 133.39 562.632 133.953 562.051 134.654L 454.466 60.6638C 454.79 60.035 454.978 59.3447 455.017 58.6381L 687.952 58.6381C 687.98 59.1245 688.1 59.601 688.308 60.0419L 589.942 123.033ZM 561.643 135.312C 561.11 136.235 560.834 137.284 560.843 138.35C 560.848 139.09 560.98 139.823 561.234 140.518L 402.61 215.149C 401.864 213.677 400.598 212.537 399.057 211.95L 449.19 62.9382C 450.073 63.1577 451 63.1259 451.867 62.8465C 452.733 62.5671 453.504 62.0511 454.093 61.3568L 561.643 135.312ZM 398.204 211.719C 397.596 211.551 396.969 211.461 396.339 211.453C 395.092 211.44 393.866 211.764 392.787 212.389C 391.709 213.014 390.819 213.918 390.21 215.006L 353.685 196.669L 292.804 166.106C 293.02 165.539 293.122 164.935 293.106 164.329C 293.113 163.56 292.943 162.8 292.608 162.108L 315.881 146.844L 446.418 61.2324C 446.919 61.881 447.589 62.379 448.355 62.6717L 398.204 211.719ZM 389.89 215.664C 389.598 216.395 389.43 217.17 389.393 217.956L 345.69 217.068L 298.027 216.126C 298.05 214.911 297.832 213.704 297.386 212.575C 296.939 211.445 296.272 210.416 295.424 209.546C 294.576 208.677 293.564 207.984 292.446 207.509C 291.329 207.034 290.128 206.786 288.913 206.779L 288.913 168.896C 289.636 168.854 290.337 168.636 290.957 168.261C 291.576 167.887 292.094 167.366 292.466 166.745L 389.89 215.664ZM 298.009 216.89L 389.375 218.667C 389.385 220.195 389.903 221.677 390.849 222.878L 345.655 263.747L 290.334 313.838C 289.386 312.965 288.173 312.434 286.888 312.328L 287.314 291.805L 288.718 225.721C 291.143 225.774 293.49 224.862 295.245 223.187C 297 221.512 298.02 219.209 298.08 216.783L 298.009 216.89ZM 291.01 321.337L 338.638 350.46L 418.243 399.166C 417.735 400.193 417.473 401.325 417.479 402.471C 417.489 402.786 417.519 403.101 417.568 403.412L 253.472 435.983C 253.048 433.629 252.022 431.424 250.493 429.584C 248.965 427.743 246.986 426.33 244.749 425.482L 271.592 356.857L 284.756 323.398C 285.333 323.569 285.932 323.653 286.533 323.647C 287.422 323.644 288.299 323.43 289.089 323.022C 289.88 322.615 290.563 322.025 291.081 321.301L 291.01 321.337ZM 250.487 449.026L 349.776 529.911C 349.33 530.624 349.102 531.451 349.119 532.292C 349.109 532.973 349.255 533.648 349.545 534.264L 277.046 580.677L 210.729 623.145C 209.666 621.655 208.08 620.62 206.288 620.249L 223.254 527.583L 236.755 453.93C 237.514 454.042 238.28 454.102 239.047 454.108C 241.207 454.134 243.348 453.694 245.322 452.816C 247.296 451.939 249.058 450.646 250.487 449.026ZM 209.876 632.901L 306.696 720.573C 305.599 721.902 304.886 723.506 304.635 725.211L 111.565 695.537C 111.565 695.235 111.565 694.95 111.565 694.648C 111.594 693.113 111.214 691.598 110.463 690.259L 198.382 632.03C 199.052 632.882 199.892 633.586 200.849 634.097C 201.805 634.607 202.857 634.913 203.938 634.995C 205.019 635.077 206.105 634.933 207.127 634.572C 208.15 634.212 209.086 633.642 209.876 632.901ZM 111.458 696.301L 304.529 725.957C 304.529 726.331 304.529 726.722 304.529 727.112C 304.448 728.925 304.885 730.722 305.788 732.296C 306.691 733.869 308.022 735.153 309.627 735.997L 233.433 886.857C 233.146 886.765 232.846 886.717 232.545 886.715C 232.141 886.716 231.742 886.801 231.372 886.964L 108.225 701.525C 109.088 700.917 109.819 700.141 110.375 699.243C 110.93 698.345 111.299 697.345 111.458 696.301ZM 175.27 979.079C 174.316 978.58 173.256 978.318 172.179 978.315C 170.552 978.313 168.982 978.914 167.773 980.003L 89.003 906.225L 77.3669 895.315C 77.6022 894.946 77.7426 894.525 77.7755 894.089L 181.133 891.246L 229.88 889.895C 229.945 890.542 230.265 891.137 230.768 891.548L 175.27 979.079ZM 306.732 1128.52L 154.556 1095.25C 154.692 1094.48 154.763 1093.69 154.769 1092.91C 154.87 1089.67 153.703 1086.52 151.518 1084.13L 247.574 989.634C 248.218 990.151 249.022 990.427 249.848 990.415C 250.198 990.416 250.545 990.362 250.878 990.255L 308.384 1126.56C 307.982 1126.76 307.624 1127.04 307.334 1127.38C 307.044 1127.72 306.827 1128.12 306.696 1128.55L 306.732 1128.52ZM 309.112 1126.21L 273.493 1041.91L 251.553 989.989C 251.972 989.767 252.338 989.459 252.629 989.086C 252.92 988.712 253.128 988.281 253.241 987.821L 457.912 1023.11C 457.912 1023.31 457.912 1023.47 457.912 1023.66C 457.903 1024.63 458.154 1025.59 458.641 1026.43L 313.074 1127.29C 312.587 1126.75 311.954 1126.36 311.252 1126.17C 310.55 1125.98 309.807 1125.99 309.112 1126.21ZM 452.636 1209.81C 452.631 1210.75 452.763 1211.68 453.027 1212.58L 314.122 1267.67C 313.634 1266.57 312.85 1265.63 311.858 1264.96C 310.867 1264.28 309.707 1263.9 308.508 1263.85L 310.516 1133.42C 311.063 1133.39 311.594 1133.23 312.069 1132.95C 312.544 1132.68 312.948 1132.3 313.251 1131.84L 398.986 1177.33L 453.347 1206.19C 452.861 1207.33 452.614 1208.57 452.618 1209.81L 452.636 1209.81ZM 460.826 1201.3C 459.385 1201.32 457.973 1201.71 456.728 1202.43C 455.483 1203.16 454.446 1204.19 453.72 1205.44L 422.809 1189L 313.66 1131.09C 313.82 1130.65 313.905 1130.18 313.909 1129.71C 313.914 1129.09 313.774 1128.48 313.5 1127.93L 458.961 1027.06C 459.432 1027.63 460.015 1028.1 460.675 1028.44C 461.335 1028.78 462.057 1028.98 462.798 1029.03L 460.826 1201.3ZM 611.616 1251.37L 469.389 1211.71C 469.52 1211.09 469.585 1210.45 469.584 1209.81C 469.624 1208.73 469.449 1207.64 469.068 1206.63C 468.687 1205.61 468.108 1204.68 467.364 1203.89C 466.62 1203.09 465.727 1202.46 464.736 1202.01C 463.745 1201.57 462.675 1201.33 461.59 1201.3L 463.579 1029.05C 464.413 1029.02 465.229 1028.79 465.96 1028.39L 574.629 1191.26L 613.197 1249.17C 612.454 1249.73 611.897 1250.49 611.598 1251.37L 611.616 1251.37ZM 616.341 1248.07C 615.474 1248.07 614.62 1248.28 613.854 1248.69L 466.582 1027.98C 467.249 1027.48 467.785 1026.83 468.147 1026.07C 468.509 1025.32 468.685 1024.49 468.66 1023.66C 468.66 1023.57 468.66 1023.52 468.66 1023.43L 645.103 1003.76C 645.338 1006.35 646.436 1008.78 648.221 1010.67C 650.006 1012.56 652.374 1013.79 654.945 1014.17L 642.758 1088.95L 616.75 1248.1L 616.341 1248.07ZM 618.899 1248.73C 618.464 1248.49 617.997 1248.32 617.514 1248.21L 643.042 1091.84L 655.691 1014.35C 658.49 1014.69 661.325 1014.14 663.792 1012.77L 717.709 1095.72C 716.821 1096.39 716.098 1097.25 715.595 1098.25C 715.091 1099.24 714.819 1100.34 714.8 1101.45C 714.782 1102.57 715.016 1103.67 715.486 1104.68C 715.956 1105.69 716.649 1106.58 717.513 1107.28L 704.456 1126.03L 618.899 1248.73ZM 677.044 1166.7L 718.153 1107.74C 719.319 1108.42 720.643 1108.77 721.99 1108.78C 722.92 1108.77 723.842 1108.6 724.708 1108.26L 772.123 1208.98C 769.943 1210.02 768.117 1211.68 766.872 1213.75C 765.628 1215.82 765.02 1218.22 765.124 1220.63C 765.131 1221.36 765.184 1222.08 765.284 1222.8L 670.613 1241.81L 621.173 1251.73C 620.927 1250.72 620.352 1249.82 619.539 1249.17L 677.044 1166.7ZM 672.39 1315.18C 670.878 1315.18 669.402 1315.65 668.162 1316.51L 619.823 1256.79C 620.323 1256.32 620.718 1255.74 620.981 1255.11C 621.244 1254.47 621.37 1253.79 621.351 1253.1C 621.351 1252.88 621.351 1252.69 621.351 1252.49L 723.749 1231.93L 765.479 1223.56C 765.895 1225.76 766.902 1227.8 768.392 1229.46L 744.729 1252.24L 677.418 1317.07C 676.036 1315.82 674.232 1315.15 672.372 1315.18L 672.39 1315.18ZM 677.862 1317.62L 768.854 1230C 771.348 1232.31 774.635 1233.59 778.039 1233.55C 779.555 1233.55 781.06 1233.3 782.498 1232.82L 786.619 1243.15C 784.661 1243.94 782.994 1245.31 781.849 1247.09C 780.704 1248.86 780.137 1250.95 780.224 1253.06C 780.202 1254.84 780.604 1256.6 781.396 1258.2L 678.359 1318.36C 678.206 1318.1 678.033 1317.85 677.844 1317.62L 677.862 1317.62ZM 790.67 1270.49C 790.665 1271.78 790.856 1273.06 791.238 1274.29L 678.928 1319.41C 678.893 1319.32 678.852 1319.23 678.803 1319.14L 765.852 1268.31L 781.841 1259.01C 782.82 1260.56 784.181 1261.83 785.793 1262.7C 787.404 1263.57 789.213 1264 791.043 1263.97C 791.638 1263.97 792.232 1263.92 792.819 1263.83C 791.404 1265.76 790.651 1268.1 790.67 1270.49ZM 790.954 1242.4C 789.715 1242.39 788.484 1242.6 787.312 1243L 783.191 1232.66C 785.106 1231.91 786.799 1230.69 788.108 1229.1C 789.417 1227.52 790.299 1225.62 790.67 1223.6L 820.87 1229.55L 904.153 1246.01C 904.141 1246.21 904.141 1246.41 904.153 1246.61L 801.791 1252.21C 801.731 1250.85 801.404 1249.51 800.827 1248.27C 800.249 1247.04 799.434 1245.93 798.427 1245.01C 797.42 1244.09 796.242 1243.38 794.96 1242.91C 793.677 1242.45 792.316 1242.25 790.954 1242.31L 790.954 1242.4ZM 812.503 1267.72C 811.962 1265.29 810.59 1263.13 808.624 1261.61C 806.658 1260.09 804.222 1259.3 801.737 1259.39C 801.095 1259.4 800.454 1259.45 799.819 1259.55C 801.088 1257.67 801.746 1255.45 801.702 1253.19C 801.702 1253.19 801.702 1253.04 801.702 1252.97L 904.1 1247.37C 904.092 1247.42 904.092 1247.46 904.1 1247.5L 812.503 1267.72ZM 904.242 1245.15L 865.567 1237.51L 790.83 1222.75C 790.929 1222.05 790.983 1221.34 790.99 1220.63C 791.054 1218.82 790.725 1217.02 790.026 1215.35C 789.327 1213.67 788.274 1212.17 786.939 1210.95L 871.252 1113.43C 872.354 1114.25 873.612 1114.83 874.948 1115.13C 876.284 1115.44 877.669 1115.46 879.016 1115.21L 892.926 1175.73L 907.973 1241.23C 907.047 1241.47 906.207 1241.96 905.547 1242.66C 904.888 1243.35 904.436 1244.22 904.242 1245.15ZM 909.571 1241.05C 909.282 1241.03 908.991 1241.03 908.701 1241.05L 879.744 1115.05C 881.279 1114.7 882.693 1113.95 883.842 1112.87C 884.991 1111.79 885.833 1110.43 886.281 1108.92L 925.222 1120.47L 963.56 1131.84C 963.407 1132.54 963.329 1133.26 963.329 1133.97C 963.264 1135.49 963.614 1136.99 964.34 1138.33C 965.066 1139.66 966.141 1140.77 967.45 1141.54L 911.934 1241.49C 911.185 1241.19 910.381 1241.04 909.571 1241.05ZM 993.423 1175.16C 993.353 1178.67 994.317 1182.11 996.194 1185.08L 913.906 1243.07C 913.54 1242.62 913.102 1242.22 912.609 1241.9L 968.125 1141.97C 969.369 1142.54 970.719 1142.83 972.087 1142.84C 974.209 1142.85 976.269 1142.12 977.914 1140.78L 998.397 1162.53C 996.739 1164.18 995.438 1166.15 994.577 1168.32C 993.715 1170.5 993.31 1172.82 993.387 1175.16L 993.423 1175.16ZM 1010.9 1157.6C 1006.54 1157.58 1002.31 1159.13 999.001 1161.98L 978.447 1140.24C 979.235 1139.42 979.851 1138.45 980.26 1137.38C 980.668 1136.32 980.861 1135.18 980.827 1134.04C 980.883 1132.05 980.256 1130.09 979.051 1128.5L 1033.62 1081C 1034.1 1081.44 1034.65 1081.77 1035.26 1081.98L 1026.66 1114.37L 1015.04 1158.08C 1013.66 1157.76 1012.25 1157.6 1010.83 1157.6L 1010.9 1157.6ZM 1015.79 1158.26L 1027.58 1113.84L 1035.97 1082.14C 1036.96 1082.33 1037.99 1082.18 1038.88 1081.7C 1039.77 1081.23 1040.47 1080.46 1040.86 1079.53L 1079.65 1092.52C 1079.45 1093.35 1079.35 1094.2 1079.35 1095.06C 1079.27 1097.43 1080.13 1099.73 1081.73 1101.47L 1022.95 1162.1C 1020.89 1160.27 1018.42 1158.95 1015.75 1158.26L 1015.79 1158.26ZM 1026.45 1166.74C 1025.69 1165.24 1024.7 1163.88 1023.52 1162.69L 1082.3 1102.02C 1087.47 1106.52 1097.63 1104.21 1097.63 1095.08C 1097.63 1094.36 1097.57 1093.65 1097.44 1092.94L 1244.03 1051.13L 1259.51 1046.73L 1026.45 1166.74ZM 1260.95 1042.03C 1260.41 1042.39 1259.97 1042.87 1259.67 1043.45C 1259.38 1044.02 1259.23 1044.66 1259.26 1045.3C 1259.24 1045.53 1259.24 1045.75 1259.26 1045.98L 1097.19 1092.18C 1096.85 1090.94 1096.23 1089.8 1095.37 1088.85C 1094.52 1087.89 1093.46 1087.15 1092.27 1086.67L 1118.81 1021.4L 1170.06 895.244C 1171.55 895.758 1173.11 896.023 1174.68 896.026C 1176.76 896.036 1178.81 895.574 1180.68 894.675L 1260.95 1042.03ZM 1180.22 870.918L 1223.37 767.999C 1225.27 768.665 1227.33 768.709 1229.25 768.124L 1232.81 777.488L 1251.19 827.241C 1249.56 827.872 1248.17 828.998 1247.22 830.462C 1246.26 831.925 1245.79 833.651 1245.86 835.398C 1245.85 836.858 1246.17 838.301 1246.82 839.609L 1206.87 863.437L 1186.07 875.876C 1184.69 873.633 1182.63 871.895 1180.19 870.918L 1180.22 870.918ZM 1290.37 849.4L 1187.33 878.95C 1187.09 878.093 1186.77 877.265 1186.35 876.48L 1233.84 848.138L 1247.11 840.213C 1247.92 841.438 1249.02 842.439 1250.32 843.125C 1251.62 843.811 1253.07 844.16 1254.53 844.14C 1256.35 844.188 1258.14 843.653 1259.63 842.615C 1261.12 841.576 1262.24 840.087 1262.83 838.365L 1290.37 847.09C 1290.21 847.852 1290.21 848.637 1290.37 849.4ZM 1231.74 766.933L 1291.93 844.353C 1291.32 844.899 1290.85 845.589 1290.58 846.361L 1263.03 837.636C 1263.2 836.885 1263.29 836.116 1263.29 835.344C 1263.33 834.181 1263.14 833.021 1262.71 831.938C 1262.29 830.854 1261.64 829.869 1260.82 829.044C 1260 828.219 1259.02 827.572 1257.94 827.143C 1256.86 826.714 1255.7 826.511 1254.53 826.549C 1253.62 826.545 1252.71 826.677 1251.83 826.939L 1229.98 767.875C 1230.59 767.623 1231.17 767.307 1231.71 766.933L 1231.74 766.933ZM 1281.29 664.565L 1230.68 751.634C 1228.83 750.729 1226.74 750.442 1224.72 750.817L 1187.42 597.824L 1181.7 574.334C 1183.43 573.927 1185.01 573.022 1186.24 571.731C 1187.46 570.44 1188.29 568.819 1188.61 567.066L 1312.96 591.303C 1312.9 591.846 1312.86 592.391 1312.86 592.938C 1312.78 594.735 1313.19 596.519 1314.04 598.104C 1314.89 599.688 1316.15 601.016 1317.69 601.947L 1281.29 664.565ZM 1319.15 583.165C 1317.63 583.785 1316.29 584.778 1315.25 586.051C 1314.21 587.323 1313.51 588.836 1313.21 590.45L 1296.57 587.198L 1188.77 566.195C 1188.83 565.694 1188.87 565.19 1188.87 564.685C 1188.96 562.99 1188.57 561.306 1187.77 559.812C 1186.96 558.319 1185.77 557.073 1184.31 556.209L 1245.54 448.617L 1253.41 434.793C 1254.42 435.291 1255.53 435.553 1256.65 435.557C 1257.45 435.551 1258.25 435.419 1259.01 435.166L 1319.15 583.165ZM 1303.16 337.951L 1262.74 415.869L 1259.69 421.768C 1258.73 421.368 1257.71 421.157 1256.68 421.146C 1255.29 421.123 1253.92 421.509 1252.75 422.258C 1251.57 423.007 1250.64 424.085 1250.07 425.357L 1163.26 391.241C 1163.43 390.663 1163.52 390.065 1163.52 389.464C 1163.52 388.782 1163.42 388.104 1163.2 387.456L 1166.86 385.91L 1296.55 330.826C 1297.82 333.916 1300.15 336.454 1303.12 337.986L 1303.16 337.951ZM 1213.57 251.06C 1215.08 251.07 1216.59 250.773 1217.98 250.187C 1219.38 249.601 1220.65 248.737 1221.7 247.648L 1298.63 314.656C 1296.4 317.445 1295.23 320.932 1295.32 324.5C 1295.31 326.424 1295.62 328.336 1296.26 330.15L 1233.54 356.804L 1162.9 386.763C 1162.29 385.493 1161.24 384.493 1159.93 383.955L 1210.01 250.545C 1211.15 250.905 1212.34 251.09 1213.53 251.095L 1213.57 251.06ZM 1209.32 250.243L 1159.26 383.635C 1158.69 383.45 1158.09 383.354 1157.48 383.351C 1156.08 383.35 1154.71 383.826 1153.61 384.702L 1096.1 323.203C 1096.85 322.372 1097.25 321.282 1097.21 320.164C 1097.22 319.417 1097.05 318.678 1096.71 318.014L 1195.41 252.535L 1204.44 246.547C 1205.64 248.249 1207.33 249.549 1209.29 250.278L 1209.32 250.243ZM 1094.52 204.807L 1202.89 237.253C 1202.68 238.169 1202.57 239.104 1202.57 240.043C 1202.54 242.084 1203.06 244.096 1204.06 245.871L 1096.35 317.357C 1095.96 316.872 1095.46 316.477 1094.9 316.195C 1094.34 315.914 1093.73 315.753 1093.1 315.722L 1091.09 207.33C 1091.84 207.287 1092.56 207.029 1093.16 206.587C 1093.76 206.146 1094.22 205.54 1094.49 204.842L 1094.52 204.807ZM 972.744 65.8524L 1115.84 110.506C 1115.72 111.091 1115.66 111.686 1115.65 112.283C 1115.58 113.759 1115.98 115.217 1116.8 116.45C 1117.61 117.682 1118.79 118.625 1120.18 119.142L 1091.75 199.103C 1091.15 198.957 1090.52 198.941 1089.9 199.057C 1089.29 199.174 1088.71 199.42 1088.2 199.778L 970.363 69.6727C 971.454 68.6307 972.261 67.3282 972.708 65.8879L 972.744 65.8524ZM 969.813 70.1525L 1087.6 200.418C 1086.89 201.191 1086.51 202.212 1086.55 203.261C 1086.55 203.619 1086.58 203.976 1086.65 204.327L 973.526 246.191C 973.061 245.102 972.29 244.17 971.306 243.511C 970.322 242.852 969.167 242.493 967.983 242.477L 964.039 72.3736C 966.134 72.2673 968.142 71.5024 969.777 70.188L 969.813 70.1525ZM 845.795 118.875C 845.804 117.95 845.654 117.031 845.351 116.157L 954.588 66.9896C 955.386 68.6074 956.625 69.9665 958.162 70.9098C 959.699 71.8531 961.472 72.3421 963.275 72.3203L 964.643 127.227L 967.308 242.513C 965.962 242.6 964.679 243.117 963.648 243.988L 903.247 183.395L 843.965 123.94C 845.193 122.544 845.847 120.734 845.795 118.875ZM 843.414 124.473L 963.027 244.539C 962.003 245.698 961.457 247.203 961.499 248.75C 961.473 250.009 961.826 251.247 962.511 252.304L 871.572 322.243C 870.934 321.494 870.142 320.892 869.25 320.478C 868.357 320.064 867.386 319.848 866.402 319.844L 865.887 319.844L 839.772 126.161C 841.118 125.941 842.377 125.358 843.414 124.473ZM 838.387 126.25L 839.009 126.25L 865.123 319.933C 864.16 320.097 863.246 320.476 862.449 321.042C 861.653 321.608 860.994 322.347 860.522 323.203L 776.795 281.161C 777.065 280.457 777.203 279.711 777.204 278.957C 777.253 277.892 776.981 276.837 776.423 275.928C 775.866 275.018 775.049 274.297 774.077 273.858L 835.864 125.805C 836.673 126.109 837.524 126.283 838.387 126.321L 838.387 126.25ZM 695.218 60.0952L 831.405 116.37C 831.147 117.18 831.021 118.026 831.032 118.875C 830.977 120.289 831.345 121.686 832.089 122.889C 832.833 124.092 833.918 125.045 835.207 125.628L 773.384 273.645C 772.809 273.461 772.211 273.36 771.608 273.342C 771.078 273.354 770.552 273.438 770.045 273.591L 761.677 250.545L 693.459 61.7655C 694.223 61.4323 694.846 60.841 695.218 60.0952ZM 757.502 13.8955L 694.81 55.7773C 694.437 55.3348 693.972 54.9797 693.447 54.7371C 692.922 54.4946 692.35 54.3704 691.772 54.3735C 690.798 54.3537 689.855 54.7136 689.143 55.3769C 688.43 56.0401 688.003 56.9548 687.952 57.9273L 455.354 57.9273L 756.792 11.9586C 756.925 12.6096 757.165 13.234 757.502 13.8066L 757.502 13.8955ZM 361.341 4.77989L 756.792 10.928C 756.801 11.0166 756.801 11.1059 756.792 11.1945L 454.946 57.1633C 454.728 56.253 454.25 55.4262 453.569 54.7846C 452.888 54.143 452.034 53.7146 451.113 53.5522C 450.191 53.3898 449.242 53.5004 448.383 53.8705C 447.524 54.2406 446.791 54.854 446.276 55.6351L 360.471 8.88456C 361.066 7.56515 361.387 6.13832 361.413 4.69105L 361.341 4.77989ZM 344.642 12.4384C 346.509 13.8472 348.788 14.6027 351.127 14.5884C 352.937 14.6255 354.724 14.1791 356.304 13.2952C 357.884 12.4112 359.2 11.1218 360.116 9.55979L 445.903 56.3103C 445.658 56.9324 445.538 57.5965 445.548 58.265C 445.538 58.4425 445.538 58.6205 445.548 58.798L 439.117 60.0774L 279.675 91.7064C 279.499 91.0357 279.15 90.423 278.663 89.9295L 344.642 12.4384ZM 279.764 113.349L 276.798 96.9839C 277.708 96.7695 278.515 96.2439 279.08 95.4977C 279.644 94.7515 279.93 93.8317 279.889 92.897C 279.897 92.749 279.897 92.6007 279.889 92.4527L 445.726 59.5621C 445.806 59.9142 445.932 60.2545 446.099 60.5749L 319.86 143.361L 292.271 161.468C 291.793 160.849 291.166 160.361 290.448 160.05C 289.731 159.739 288.946 159.616 288.167 159.691L 279.764 113.349ZM 284.827 167.03C 285.229 167.556 285.741 167.988 286.327 168.295C 286.913 168.602 287.559 168.776 288.22 168.807L 288.22 206.655C 286.991 206.664 285.777 206.919 284.648 207.406C 283.519 207.893 282.5 208.601 281.65 209.489C 280.8 210.377 280.137 211.427 279.7 212.576C 279.264 213.725 279.062 214.951 279.107 216.179C 279.1 217.244 279.249 218.303 279.551 219.324L 44.768 311.653L 284.827 167.03ZM 279.818 220.124C 280.503 221.752 281.64 223.149 283.094 224.151C 284.549 225.152 286.26 225.716 288.025 225.774L 286.568 294.008L 286.195 312.381C 284.815 312.38 283.488 312.915 282.494 313.873C 281.5 314.831 280.916 316.137 280.866 317.516L 234.499 316.717L 43.8797 313.358C 43.8982 313.187 43.8982 313.014 43.8797 312.843L 279.818 220.124ZM 43.8619 314.123L 280.883 318.298C 280.894 319.32 281.198 320.316 281.758 321.17C 282.319 322.024 283.113 322.698 284.046 323.114L 244.11 425.18C 242.468 424.621 240.746 424.332 239.011 424.327C 236.559 424.301 234.139 424.885 231.968 426.026C 229.797 427.167 227.944 428.83 226.576 430.866L 43.631 315.1C 43.7576 314.788 43.8355 314.458 43.8619 314.123ZM 43.2224 315.757L 226.203 431.505C 224.897 433.863 224.236 436.523 224.284 439.217L 85.2723 443.02C 85.1986 441.555 84.5552 440.178 83.4797 439.182C 82.4041 438.186 80.9817 437.65 79.5164 437.689C 79.0745 437.691 78.634 437.739 78.2018 437.831L 41.9611 316.681C 42.4508 316.481 42.8839 316.164 43.2224 315.757ZM 2.14957 425.339L 3.41089 421.786L 39.9714 316.948C 40.1982 317.004 40.4307 317.033 40.6642 317.037C 40.8597 317.037 41.0373 317.037 41.2327 317.037L 59.8327 379.229L 77.4379 438.115C 76.3619 438.472 75.4233 439.155 74.7519 440.068C 74.0804 440.982 73.7092 442.082 73.6895 443.215L 14.6384 443.215C 14.7467 439.29 13.5914 435.435 11.3429 432.216C 9.09436 428.998 5.87157 426.587 2.14957 425.339ZM 131.835 521.044L 17.7651 455.849L 12.5954 452.899C 13.9653 450.137 14.6883 447.098 14.7095 444.015L 73.6895 444.015C 73.7102 444.755 73.8764 445.483 74.1788 446.159C 74.4811 446.834 74.9135 447.443 75.4513 447.952C 75.9892 448.46 76.6219 448.857 77.3133 449.121C 78.0047 449.384 78.7413 449.509 79.4809 449.488C 80.5533 449.487 81.6067 449.205 82.5365 448.67L 107.869 484.884L 132.616 520.209C 132.298 520.45 132.011 520.731 131.764 521.044L 131.835 521.044ZM 133.309 519.694L 99.0225 470.882L 83.1583 448.226C 83.8277 447.697 84.3665 447.022 84.7331 446.251C 85.0997 445.481 85.2842 444.637 85.2723 443.784L 224.231 439.999C 224.289 443.043 225.295 445.994 227.109 448.439L 211.227 461.411L 138.816 520.475C 138.386 520.041 137.874 519.697 137.31 519.462C 136.746 519.227 136.141 519.106 135.53 519.107C 134.728 519.103 133.939 519.305 133.238 519.694L 133.309 519.694ZM 120.145 607.366L 135.015 528.134L 135.476 528.134C 136.236 528.128 136.984 527.945 137.661 527.601L 199.964 621.422C 199.01 622.112 198.243 623.029 197.731 624.09C 197.219 625.151 196.979 626.322 197.032 627.499C 197.013 628.843 197.337 630.171 197.974 631.355L 181.595 642.194L 110.143 689.602C 108.944 687.962 107.177 686.828 105.187 686.421L 120.145 607.366ZM 102.38 703.053L 103.18 703.053C 104.717 703.055 106.229 702.657 107.567 701.898L 230.697 887.337C 230.19 887.794 229.884 888.432 229.844 889.114L 77.7577 893.307C 77.6963 892.81 77.4849 892.343 77.1517 891.968C 76.8185 891.593 76.3793 891.329 75.8924 891.21L 102.38 703.053ZM 138.266 1080.66L 104.263 979.381L 76.3898 896.15C 76.5532 896.079 76.7081 895.989 76.8517 895.884L 167.294 980.607C 166.356 981.753 165.859 983.196 165.89 984.676C 165.832 986.006 166.218 987.318 166.986 988.405C 167.755 989.492 168.863 990.293 170.136 990.682L 145.087 1080.5C 144.078 1080.28 143.048 1080.16 142.014 1080.15C 140.753 1080.16 139.499 1080.33 138.283 1080.66L 138.266 1080.66Z"/>
</defs>
</svg>
