<svg width="581" height="161" viewBox="0 0 581 161" version="1.1" xmlns="http://www.w3.org/2000/svg" xmlns:xlink="http://www.w3.org/1999/xlink">
<title>Layer 1</title>
<desc>Created using Figma</desc>
<g id="Canvas" transform="translate(6300 -23436)">
<g id="Layer 1">
<g id="Vector">
<use xlink:href="#path0_fill" transform="translate(-6300 23436)" fill="#FFFFFF"/>
</g>
<g id="Canvas">
<g id="Vector">
<g id="path0 fill">
<use xlink:href="#path1_fill" transform="translate(-6237.61 23470)" fill="url(#paint1_linear)"/>
</g>
</g>
</g>
<g id="Canvas">
<g id="Vector">
<g id="path0 fill">
<use xlink:href="#path1_fill" transform="translate(-5840.25 23470)" fill="url(#paint2_linear)"/>
</g>
</g>
</g>
<g id="Vector">
<use xlink:href="#path2_fill" transform="translate(-5901.69 23436)" fill="#FFFFFF"/>
</g>
<g id="Group" opacity="0.6">
<g id="Vector" opacity="0.6">
<use xlink:href="#path3_fill" transform="translate(-6039.12 23503.9)" fill="#FFFFFF"/>
</g>
<g id="Vector" opacity="0.6">
<use xlink:href="#path4_fill" transform="translate(-5962.91 23494.3)" fill="#FFFFFF"/>
</g>
<g id="Vector" opacity="0.6">
<use xlink:href="#path5_fill" transform="translate(-5962.91 23494.3)" fill="#FFFFFF"/>
</g>
</g>
<g id="Group" opacity="0.6">
<g id="Vector" opacity="0.6">
<use xlink:href="#path6_fill" transform="translate(-6054.34 23475.3)" fill="#FFFFFF"/>
</g>
<g id="Vector" opacity="0.6">
<use xlink:href="#path7_fill" transform="translate(-6057.34 23465.7)" fill="#FFFFFF"/>
</g>
<g id="Vector" opacity="0.6">
<use xlink:href="#path8_fill" transform="translate(-6057.34 23465.7)" fill="#FFFFFF"/>
</g>
</g>
</g>
</g>
<defs>
<linearGradient id="paint1_linear" x1="0" y1="0" x2="1" y2="0" gradientUnits="userSpaceOnUse" gradientTransform="matrix(69.3092 -91.0068 -92.4701 -68.2118 43.7299 104.67)">
<stop offset="0" stop-color="#F7618B"/>
<stop offset="1" stop-color="#2A7AFF"/>
</linearGradient>
<linearGradient id="paint2_linear" x1="0" y1="0" x2="1" y2="0" gradientUnits="userSpaceOnUse" gradientTransform="matrix(69.3092 -91.0068 -92.4701 -68.2118 43.7299 104.67)">
<stop offset="0" stop-color="#F7618B"/>
<stop offset="1" stop-color="#2A7AFF"/>
</linearGradient>
<path id="path0_fill" d="M 182.685 126.081L 182.685 0L 0 0L 0 126.081L 87.8206 126.081L 87.8206 154.082L 63.2371 154.082L 63.2371 161L 119.448 161L 119.448 154.082L 94.847 154.082L 94.847 126.081L 182.685 126.081ZM 7.02634 7.00451L 175.659 7.00451L 175.659 119.059L 7.02634 119.059L 7.02634 7.00451Z"/>
<path id="path1_fill" d="M 57.6655 19.1055C 57.1572 17.9765 56.2218 17.0937 55.0631 16.6496C 53.9026 16.1998 52.6151 16.1998 51.4545 16.6496C 51.1568 16.7777 50.8721 16.9341 50.6044 17.1166L 27.0271 5.37325C 27.2259 4.44873 27.1225 3.48506 26.7322 2.62333C 26.1945 1.55096 25.2622 0.726924 24.1298 0.323081C 23.0136 -0.107692 21.7763 -0.107692 20.66 0.323081C 19.5493 0.78772 18.6608 1.66106 18.1791 2.76169C 17.9472 3.30899 17.8278 3.89708 17.8278 4.4912C 17.8278 5.08532 17.9472 5.67341 18.1791 6.22071C 18.1791 6.37636 18.3353 6.54931 18.422 6.70497L 4.73367 23.706C 4.14016 23.7098 3.55229 23.8211 2.99877 24.0347C 2.421 24.2551 1.89097 24.5838 1.43737 25.0032C 0.992888 25.4142 0.636455 25.9107 0.389532 26.4627C 0.142609 27.0148 0.010304 27.6109 0.000578588 28.2152C -0.0091468 28.8195 0.103914 29.4196 0.332947 29.9792C 0.56198 30.5388 0.902248 31.0465 1.33327 31.4715C 1.76624 31.9106 2.28173 32.2603 2.8503 32.5006C 3.41887 32.741 4.02937 32.8673 4.64693 32.8724L 8.89743 43.7856C 8.03889 44.4794 7.46569 45.4631 7.2866 46.5503C 7.10751 47.6374 7.33499 48.7523 7.92589 49.6833C 8.53517 50.5835 9.43513 51.2487 10.4762 51.5684C 11.5599 51.8987 12.725 51.8437 13.7725 51.4128C 14.3655 51.1724 14.9029 50.8133 15.3513 50.3578L 25.7607 53.1423C 25.8133 53.746 25.9843 54.3336 26.2638 54.8718C 26.5445 55.4174 26.9341 55.9 27.4088 56.29C 27.8853 56.6838 28.433 56.9832 29.0223 57.172C 29.6172 57.3536 30.2407 57.424 30.8613 57.3796C 31.4634 57.3199 32.0505 57.1561 32.5962 56.8953C 33.1525 56.6217 33.6481 56.2394 34.0535 55.7711C 34.4468 55.3137 34.7458 54.7834 34.9333 54.2107C 35.1209 53.6379 35.1933 53.0339 35.1465 52.4332L 46.3539 46.1205C 47.1176 46.6999 48.0373 47.039 48.9953 47.0945C 49.9534 47.1499 50.9063 46.9192 51.7321 46.4318C 52.2759 46.1165 52.7484 45.6926 53.12 45.1866C 53.504 44.6739 53.7705 44.0835 53.9007 43.457C 54.0222 42.852 54.0222 42.2288 53.9007 41.6238C 53.7809 41.0081 53.5378 40.4228 53.1861 39.9028C 52.8344 39.3827 52.3812 38.9387 51.8535 38.5971L 54.1089 25.3664C 54.8184 25.258 55.4943 24.992 56.0867 24.5881C 56.6616 24.1997 57.1412 23.6869 57.4896 23.088C 57.8381 22.489 58.0464 21.8194 58.0992 21.1291C 58.1333 20.4267 57.9964 19.7265 57.7002 19.0883L 57.6655 19.1055ZM 31.4511 48.5072L 31.0868 38.4588L 44.5323 42.9901C 44.5676 43.2526 44.6197 43.5125 44.6884 43.7684L 33.88 49.8389C 33.2264 49.1574 32.3785 48.6925 31.4511 48.5072ZM 47.3081 38.355C 46.4306 38.6989 45.6799 39.3024 45.1568 40.0845L 30.948 35.311L 30.4969 23.9828C 31.5735 23.4202 32.384 22.4568 32.7523 21.302L 48.7134 21.8728C 48.7794 22.1744 48.8723 22.4696 48.991 22.7548C 49.4274 23.7128 50.1723 24.4981 51.1075 24.9859L 48.9389 37.888C 48.3792 37.9207 47.8285 38.0434 47.3081 38.2512L 47.3081 38.355ZM 9.14032 27.9779L 9.14032 27.7531L 24.5636 22.8586C 25.3231 23.7488 26.3859 24.3278 27.5476 24.4843L 27.9466 34.3079L 9.14032 27.9779ZM 20.5733 8.6939C 21.1647 8.94878 21.8027 9.07835 22.447 9.0744C 23.584 9.06658 24.6825 8.6628 25.5525 7.93292L 47.551 18.9326L 32.5962 18.3964C 32.5809 18.3088 32.5452 18.2258 32.4921 18.1543C 32.0567 17.1641 31.2817 16.3609 30.3061 15.8887C 29.3162 15.405 28.1927 15.265 27.1139 15.4909C 26.0422 15.7362 25.0907 16.3481 24.4248 17.2204C 23.7521 18.0639 23.4016 19.1181 23.4359 20.1951L 7.8218 25.1761L 7.56156 24.9513L 20.5733 8.6939ZM 16.2708 45.3941C 15.8835 44.5222 15.2351 43.7912 14.4144 43.3014C 13.5809 42.8124 12.6218 42.5779 11.6559 42.6269L 7.28397 31.9558C 7.72314 31.6362 8.10449 31.2443 8.41166 30.797L 28.016 37.3692L 28.4671 48.732C 27.6768 49.0851 26.9988 49.6474 26.5067 50.3578L 16.6351 47.677C 16.7229 46.8972 16.5969 46.1083 16.2708 45.3941Z"/>
<path id="path2_fill" d="M 182.685 126.081L 182.685 0L -6.35339e-06 0L -6.35339e-06 126.081L 87.8206 126.081L 87.8206 154.082L 63.1677 154.082L 63.1677 161L 119.378 161L 119.378 154.082L 94.847 154.082L 94.847 126.081L 182.685 126.081ZM 7.02634 7.00451L 175.659 7.00451L 175.659 119.059L 7.02634 119.059L 7.02634 7.00451Z"/>
<path id="path3_fill" d="M 87.3001 0L -8.47119e-06 0L -8.47119e-06 3.45902L 87.3001 3.45902L 87.3001 0Z"/>
<path id="path4_fill" d="M 1.89104 -1.58341e-06L 5.29449e-06 2.02353L 10.0277 11.311L 5.29449e-06 20.5985L 1.89104 22.6393L 14.1047 11.311L 1.89104 -1.58341e-06Z"/>
<path id="path5_fill" d="M 1.89104 22.6393L 5.29449e-06 20.6158L 10.0277 11.3283L 5.29449e-06 2.02353L 1.89104 -1.58341e-06L 14.1047 11.3283L 1.89104 22.6393Z"/>
<path id="path6_fill" d="M 87.3001 0L 1.0589e-05 0L 1.0589e-05 3.45902L 87.3001 3.45902L 87.3001 0Z"/>
<path id="path7_fill" d="M 12.2137 22.6393L 14.1047 20.5985L 4.07702 11.3283L 14.1047 2.02353L 12.2137 1.31951e-06L -8.47119e-06 11.3283L 12.2137 22.6393Z"/>
<path id="path8_fill" d="M 12.2137 1.31951e-06L 14.1047 2.02353L 4.07702 11.311L 14.1047 20.5985L 12.2137 22.6393L -8.47119e-06 11.311L 12.2137 1.31951e-06Z"/>
</defs>
</svg>
