<svg width="55" height="56" viewBox="0 0 55 56" version="1.1" xmlns="http://www.w3.org/2000/svg" xmlns:xlink="http://www.w3.org/1999/xlink">
<title>Twitter</title>
<desc>Created using Figma</desc>
<g id="Canvas" transform="translate(23167 -26443)">
<g id="Twitter">
<g id="Twitter">
<g id="Background" opacity="0.3">
<use xlink:href="#path0_stroke" transform="translate(-23166 26444.9)" fill="#333333"/>
</g>
<g id="Shape">
<use xlink:href="#path1_fill" transform="translate(-23150.7 26463)" fill="#6F7276"/>
</g>
</g>
</g>
</g>
<defs>
<path id="path0_stroke" d="M 51.8696 26.4999C 51.8696 40.5856 40.4798 52 26.4348 52L 26.4348 54C 41.589 54 53.8696 41.6855 53.8696 26.4999L 51.8696 26.4999ZM 26.4348 52C 12.3898 52 1 40.5856 1 26.4999L -1 26.4999C -1 41.6855 11.2806 54 26.4348 54L 26.4348 52ZM 1 26.4999C 1 12.4144 12.3898 1 26.4348 1L 26.4348 -1C 11.2806 -1 -1 11.3145 -1 26.4999L 1 26.4999ZM 26.4348 1C 40.4798 1 51.8696 12.4144 51.8696 26.4999L 53.8696 26.4999C 53.8696 11.3145 41.589 -1 26.4348 -1L 26.4348 1Z"/>
<path id="path1_fill" fill-rule="evenodd" d="M 22.2609 2.09211C 21.4261 2.51053 20.5913 2.65 19.6174 2.78947C 20.5913 2.23158 21.287 1.39474 21.5652 0.278947C 20.7304 0.836842 19.7565 1.11579 18.6435 1.39474C 17.8087 0.557895 16.5565 0 15.3043 0C 12.9391 0 10.8522 2.09211 10.8522 4.60263C 10.8522 5.02105 10.8522 5.3 10.9913 5.57895C 7.23478 5.43947 3.75652 3.62632 1.53043 0.836842C 1.11304 1.53421 0.973913 2.23158 0.973913 3.20789C 0.973913 4.74211 1.8087 6.13684 3.06087 6.97368C 2.36522 6.97368 1.66957 6.69474 0.973913 6.41579C 0.973913 8.64737 2.50435 10.4605 4.5913 10.8789C 4.17391 11.0184 3.75652 11.0184 3.33913 11.0184C 3.06087 11.0184 2.78261 11.0184 2.50435 10.8789C 3.06087 12.6921 4.73043 14.0868 6.81739 14.0868C 5.28696 15.3421 3.33913 16.0395 1.11304 16.0395C 0.695652 16.0395 0.417391 16.0395 0 16.0395C 2.08696 17.2947 4.45217 18.1316 6.95652 18.1316C 15.3043 18.1316 19.8957 11.1579 19.8957 5.16053C 19.8957 5.02105 19.8957 4.74211 19.8957 4.60263C 20.8696 3.90526 21.7043 3.06842 22.2609 2.09211Z"/>
</defs>
</svg>
